<svg width="80" height="80" viewBox="0 0 80 80" fill="none" xmlns="http://www.w3.org/2000/svg">
<path d="M66.2959 65.352C63.2679 61.148 54.8919 50.056 48.0159 40.928C50.7999 36.932 53.0199 33.668 54.0359 31.96C60.2159 21.584 57.5319 14.92 54.1239 9.27998C50.7079 3.63598 50.1679 0.375977 39.9999 0.375977C29.8279 0.375977 29.2879 3.63598 25.8759 9.28398C22.4599 14.924 19.7799 21.588 25.9599 31.964C26.9759 33.668 29.1959 36.936 31.9839 40.932C25.1039 50.056 16.7279 61.152 13.6999 65.356C12.9959 66.332 13.0599 68.012 13.7359 69.684C14.2559 70.972 16.2559 76.732 16.7439 77.94C17.3679 79.496 19.3999 80.62 21.0719 78.308C22.0359 76.972 31.3999 64.208 39.9999 52.22C48.5959 64.204 57.9639 76.972 58.9279 78.308C60.5959 80.62 62.6319 79.496 63.2559 77.94C63.7439 76.728 65.7439 70.972 66.2639 69.684C66.9319 68.008 66.9999 66.328 66.2959 65.352ZM38.5359 28.252C34.2639 22.316 31.2079 15.408 31.2079 15.408C31.2079 15.408 32.8879 12.376 39.9999 12.376C47.1119 12.376 48.7919 15.408 48.7919 15.408C48.7919 15.408 45.7279 22.316 41.4599 28.252L39.9999 30.24C39.5069 29.581 39.0188 28.9183 38.5359 28.252Z" fill="#FFED05"/>
</svg>
