<svg width="46" height="46" viewBox="0 0 46 46" fill="none" xmlns="http://www.w3.org/2000/svg">
<path d="M45.2136 37.1739L40.4413 7.11146C40.0166 4.44065 37.7459 2.50195 35.0421 2.50195H10.9579C8.25409 2.50195 5.98339 4.44065 5.55872 7.11146L0.78638 37.1746C0.535795 38.7568 0.988535 40.3634 2.02878 41.5813C3.06903 42.7998 4.58447 43.4982 6.18625 43.4982H39.8138C41.4156 43.4982 42.931 42.7998 43.9712 41.5813C45.0115 40.3634 45.4642 38.7568 45.2136 37.1739ZM40.6919 38.7806C40.5627 38.9322 40.277 39.1856 39.8138 39.1856H6.18623C5.72297 39.1856 5.43728 38.9322 5.30814 38.7806C5.17898 38.6297 4.97331 38.3075 5.04562 37.8506L9.81796 7.7881C9.90781 7.22375 10.3872 6.81454 10.9579 6.81454H35.0421C35.6128 6.81454 36.0922 7.22375 36.182 7.7881L40.9544 37.8499C41.0267 38.3075 40.821 38.6297 40.6919 38.7806Z" fill="#06B13D"/>
<path d="M30.5823 9.22705C29.3911 9.22705 28.426 10.1922 28.426 11.3833V17.3693C28.426 20.3609 25.9917 22.7944 23.0001 22.7944C20.0086 22.7944 17.5743 20.3609 17.5743 17.3693V11.3833C17.5743 10.1922 16.6092 9.22705 15.418 9.22705C14.2269 9.22705 13.2617 10.1922 13.2617 11.3833V17.3693C13.2617 22.739 17.6305 27.107 23.0001 27.107C28.3698 27.107 32.7386 22.739 32.7386 17.3693V11.3833C32.7386 10.1922 31.7734 9.22705 30.5823 9.22705Z" fill="#06B13D"/>
</svg>
