<svg width="80" height="80" viewBox="0 0 80 80" fill="none" xmlns="http://www.w3.org/2000/svg">
<path d="M5 27.2668C4.99998 23.1973 6.11521 19.2056 8.22452 15.7254C10.3338 12.2452 13.3566 9.40961 16.9643 7.52673C20.572 5.64384 24.6268 4.78565 28.688 5.04542C32.7492 5.30518 36.6616 6.67295 40 9.00013" stroke="#FFED05" stroke-width="5" stroke-miterlimit="10"/>
<path d="M75.0001 27.2665C74.9795 22.2208 73.2483 17.3312 70.0893 13.3966C66.9304 9.46201 62.5305 6.71503 57.6084 5.60448C52.6864 4.49392 47.5332 5.08544 42.9908 7.28239C38.4484 9.47934 34.7853 13.1518 32.6001 17.6999" stroke="#FFED05" stroke-width="5" stroke-miterlimit="10"/>
<path d="M75.0001 27.2666V31.9999C74.9966 39.5838 73.5016 47.093 70.6001 54.0999C67.7036 61.0946 63.4558 67.4492 58.1001 72.7999C57.1204 73.785 55.8863 74.4786 54.5355 74.8033C53.1847 75.1281 51.7702 75.0713 50.4498 74.6392C49.1294 74.2071 47.955 73.4168 47.0575 72.3563C46.1599 71.2959 45.5746 70.0069 45.3667 68.6333L43.3334 55.1333C43.3334 54.2492 42.9822 53.4014 42.3571 52.7762C41.732 52.1511 40.8841 51.7999 40.0001 51.7999C39.116 51.7999 38.2682 52.1511 37.643 52.7762C37.0179 53.4014 36.6667 54.2492 36.6667 55.1333L34.6001 68.6333C34.3922 70.0069 33.8069 71.2959 32.9093 72.3563C32.0118 73.4168 30.8374 74.2071 29.517 74.6392C28.1966 75.0713 26.7821 75.1281 25.4313 74.8033C24.0805 74.4786 22.8464 73.785 21.8667 72.7999C16.5089 67.4436 12.261 61.0825 9.36669 54.0811C6.47234 47.0798 4.98844 39.576 5.00007 31.9999V27.2666" stroke="#FFED05" stroke-width="5" stroke-miterlimit="10"/>
<path d="M40 27.2666H65.4667" stroke="#FFED05" stroke-width="5" stroke-miterlimit="10"/>
<path d="M52.7334 14.5332V39.9999" stroke="#FFED05" stroke-width="5" stroke-miterlimit="10"/>
</svg>
