<svg width="80" height="80" viewBox="0 0 80 80" fill="none" xmlns="http://www.w3.org/2000/svg">
<path d="M60 30C57.5872 30.0289 55.2663 30.9293 53.4652 32.535C51.6641 34.1407 50.5044 36.3435 50.1998 38.7372C49.8953 41.1308 50.4665 43.5539 51.8081 45.5594C53.1498 47.565 55.1713 49.0178 57.5 49.65V55C57.5 58.9782 55.9197 62.7936 53.1066 65.6066C50.2936 68.4197 46.4782 70 42.5 70C38.5218 70 34.7064 68.4197 31.8934 65.6066C29.0804 62.7936 27.5 58.9782 27.5 55V47.5H30L32.5 45V41.025C36.1907 39.532 39.3519 36.9715 41.5788 33.6713C43.8057 30.371 44.9969 26.4813 45 22.5V10L42.5 7.5H35V12.5H40V22.5C40 26.4782 38.4196 30.2936 35.6066 33.1066C32.7936 35.9196 28.9782 37.5 25 37.5C24.2806 37.5033 23.562 37.4532 22.85 37.35C19.2807 36.8331 16.0171 35.0474 13.6571 32.3201C11.2971 29.5928 9.99883 26.1066 10 22.5V12.5H15V7.5H7.5L5 10V22.5C5.02299 26.4767 6.22218 30.3577 8.44653 33.6542C10.6709 36.9507 13.821 39.5153 17.5 41.025V45L20 47.5H22.5V55C22.5 60.3043 24.6071 65.3914 28.3579 69.1421C32.1086 72.8929 37.1957 75 42.5 75C47.8043 75 52.8914 72.8929 56.6421 69.1421C60.3929 65.3914 62.5 60.3043 62.5 55V49.65C64.8287 49.0178 66.8502 47.565 68.1919 45.5594C69.5335 43.5539 70.1047 41.1308 69.8002 38.7372C69.4956 36.3435 68.3359 34.1407 66.5348 32.535C64.7337 30.9293 62.4128 30.0289 60 30ZM60 45C59.0111 45 58.0444 44.7068 57.2221 44.1573C56.3999 43.6079 55.759 42.827 55.3806 41.9134C55.0022 40.9998 54.9031 39.9945 55.0961 39.0245C55.289 38.0546 55.7652 37.1637 56.4645 36.4645C57.1637 35.7652 58.0546 35.289 59.0245 35.0961C59.9945 34.9031 60.9998 35.0022 61.9134 35.3806C62.827 35.759 63.6079 36.3999 64.1573 37.2221C64.7068 38.0444 65 39.0111 65 40C65 41.3261 64.4732 42.5979 63.5355 43.5355C62.5979 44.4732 61.3261 45 60 45Z" fill="#FFED05"/>
<path d="M60 45C62.7614 45 65 42.7614 65 40C65 37.2386 62.7614 35 60 35C57.2386 35 55 37.2386 55 40C55 42.7614 57.2386 45 60 45Z" fill="#FFED05"/>
</svg>
