<svg width="100" height="100" viewBox="0 0 100 100" fill="none" xmlns="http://www.w3.org/2000/svg">
<path d="M75 37.5C71.984 37.5361 69.0828 38.6616 66.8315 40.6687C64.5801 42.6759 63.1304 45.4294 62.7498 48.4215C62.3691 51.4135 63.0831 54.4423 64.7602 56.9493C66.4372 59.4563 68.9642 61.2723 71.875 62.0625V68.75C71.875 73.7228 69.8996 78.492 66.3833 82.0083C62.8669 85.5246 58.0978 87.5 53.125 87.5C48.1522 87.5 43.3831 85.5246 39.8667 82.0083C36.3504 78.492 34.375 73.7228 34.375 68.75V59.375H37.5L40.625 56.25V51.2812C45.2384 49.415 49.1899 46.2144 51.9735 42.0891C54.7571 37.9638 56.2461 33.1016 56.25 28.125V12.5L53.125 9.375H43.75V15.625H50V28.125C50 33.0978 48.0246 37.8669 44.5082 41.3833C40.9919 44.8996 36.2228 46.875 31.25 46.875C30.3508 46.8791 29.4525 46.8165 28.5625 46.6875C24.1008 46.0413 20.0213 43.8092 17.0714 40.4001C14.1214 36.9911 12.4985 32.6332 12.5 28.125V15.625H18.75V9.375H9.375L6.25 12.5V28.125C6.27874 33.0959 7.77772 37.9471 10.5582 42.0677C13.3386 46.1883 17.2762 49.3941 21.875 51.2812V56.25L25 59.375H28.125V68.75C28.125 75.3804 30.7589 81.7393 35.4473 86.4277C40.1357 91.1161 46.4946 93.75 53.125 93.75C59.7554 93.75 66.1143 91.1161 70.8027 86.4277C75.4911 81.7393 78.125 75.3804 78.125 68.75V62.0625C81.0358 61.2723 83.5628 59.4563 85.2398 56.9493C86.9169 54.4423 87.6309 51.4135 87.2502 48.4215C86.8696 45.4294 85.4199 42.6759 83.1685 40.6687C80.9171 38.6616 78.016 37.5361 75 37.5ZM75 56.25C73.7639 56.25 72.5555 55.8834 71.5277 55.1967C70.4999 54.5099 69.6988 53.5338 69.2257 52.3918C68.7527 51.2497 68.6289 49.9931 68.8701 48.7807C69.1112 47.5683 69.7065 46.4547 70.5806 45.5806C71.4547 44.7065 72.5683 44.1112 73.7807 43.8701C74.9931 43.6289 76.2497 43.7527 77.3918 44.2258C78.5338 44.6988 79.5099 45.4999 80.1967 46.5277C80.8834 47.5555 81.25 48.7639 81.25 50C81.25 51.6576 80.5915 53.2473 79.4194 54.4194C78.2473 55.5915 76.6576 56.25 75 56.25Z" fill="#FFED05"/>
<path d="M75 56.25C78.4518 56.25 81.25 53.4518 81.25 50C81.25 46.5482 78.4518 43.75 75 43.75C71.5482 43.75 68.75 46.5482 68.75 50C68.75 53.4518 71.5482 56.25 75 56.25Z" fill="#FF005C"/>
</svg>
