<svg width="100" height="100" viewBox="0 0 100 100" fill="none" xmlns="http://www.w3.org/2000/svg">
<rect width="100" height="100" rx="50" fill="#FFED05"/>
<path d="M65 36.5H39.5C38.6 36.5 38 35.9 38 35C38 34.1 38.6 33.5 39.5 33.5H65C65.9 33.5 66.5 34.1 66.5 35C66.5 35.9 65.9 36.5 65 36.5Z" fill="black"/>
<path d="M65 38H51.5V57.5L47 56L42.5 57.5V38H39.5C37.85 38 36.5 36.65 36.5 35C36.5 33.35 37.85 32 39.5 32H65C65.9 32 66.5 31.4 66.5 30.5C66.5 29.6 65.9 29 65 29H39.5C36.2 29 33.5 31.7 33.5 35V65C33.5 68.3 36.2 71 39.5 71H65C65.9 71 66.5 70.4 66.5 69.5V39.5C66.5 38.6 65.9 38 65 38Z" fill="black"/>
</svg>
