<svg width="100" height="100" viewBox="0 0 100 100" fill="none" xmlns="http://www.w3.org/2000/svg">
<path d="M81.25 21.875H28.125C26.25 21.875 25 20.625 25 18.75C25 16.875 26.25 15.625 28.125 15.625H81.25C83.125 15.625 84.375 16.875 84.375 18.75C84.375 20.625 83.125 21.875 81.25 21.875Z" fill="#FFED05"/>
<path d="M81.25 25H53.125V65.625L43.75 62.5L34.375 65.625V25H28.125C24.6875 25 21.875 22.1875 21.875 18.75C21.875 15.3125 24.6875 12.5 28.125 12.5H81.25C83.125 12.5 84.375 11.25 84.375 9.375C84.375 7.5 83.125 6.25 81.25 6.25H28.125C21.25 6.25 15.625 11.875 15.625 18.75V81.25C15.625 88.125 21.25 93.75 28.125 93.75H81.25C83.125 93.75 84.375 92.5 84.375 90.625V28.125C84.375 26.25 83.125 25 81.25 25Z" fill="#FFED05"/>
</svg>
