<svg width="100" height="100" viewBox="0 0 100 100" fill="none" xmlns="http://www.w3.org/2000/svg">
<rect width="100" height="100" rx="50" fill="#FFED05"/>
<path d="M58 60.9438C60.1978 62.9154 63.0475 64.0039 66 63.9998H70V67.9998H66C63.1913 68.0044 60.4313 67.2661 58 65.8598C55.5688 67.2664 52.8088 68.0047 50 67.9998C47.1913 68.0044 44.4313 67.2661 42 65.8598C39.5688 67.2664 36.8088 68.0047 34 67.9998H30V63.9998H34C37.074 63.9998 39.88 62.8438 42 60.9438C44.1979 62.9154 47.0475 64.0039 50 63.9998C53.074 63.9998 55.88 62.8438 58 60.9438ZM51.146 29.0638L51.346 29.2238L72 47.9998H66V59.9998C64.4473 60.0011 62.9158 59.6402 61.527 58.9458C60.1383 58.2514 58.9306 57.2427 58 55.9998C57.0696 57.243 55.862 58.2518 54.4732 58.9462C53.0844 59.6406 51.5527 60.0014 50 59.9998C48.4473 60.0011 46.9158 59.6402 45.527 58.9458C44.1383 58.2514 42.9306 57.2427 42 55.9998C41.0696 57.243 39.862 58.2518 38.4732 58.9462C37.0844 59.6406 35.5527 60.0014 34 59.9998L33.998 47.9998H28L48.654 29.2238C48.9581 28.9469 49.3402 28.7705 49.7482 28.7186C50.1562 28.6667 50.5703 28.7419 50.934 28.9338L51.146 29.0638Z" fill="#77ACF1"/>
</svg>
