<svg width="100" height="100" viewBox="0 0 100 100" fill="none" xmlns="http://www.w3.org/2000/svg">
<rect width="100" height="100" rx="50" fill="#FFED05"/>
<path d="M59.8223 27.9502C56.2491 27.9502 52.7187 29.2957 50.0002 31.6278C50 31.6276 50 31.6275 49.9998 31.6275C47.2809 29.2954 43.7507 27.9502 40.1776 27.9502C32.2277 27.9502 26 34.1777 26 42.1279C26 51.7378 32.6909 57.6118 42.8188 66.503C43.6845 67.263 44.5779 68.0471 45.4973 68.8601C45.5035 68.8656 45.5099 68.8713 45.5163 68.8767L48.5741 71.518C48.9835 71.8718 49.4918 72.0486 50 72.0489C50.0003 72.0489 50.0005 72.0489 50.0008 72.0489C50.5093 72.0489 51.0177 71.8718 51.4276 71.518L54.4848 68.8767C54.4912 68.8712 54.4975 68.8656 54.5039 68.8601C60.5568 63.5066 65.0954 59.4085 68.3788 55.4115C72.2138 50.7431 74.0001 46.5222 74.0001 42.1279C73.9997 34.1777 67.7722 27.9502 59.8223 27.9502Z" fill="#D8143A"/>
<path d="M59.8223 27.9502C56.2491 27.9502 52.7187 29.2957 50.0002 31.6278C50 31.6276 50 31.6275 49.9998 31.6275C47.2809 29.2954 43.7507 27.9502 40.1776 27.9502C32.2277 27.9502 26 34.1777 26 42.1279C26 51.7378 32.6909 57.6118 42.8188 66.503C43.6845 67.263 44.5779 68.0471 45.4973 68.8601C45.5035 68.8656 45.5099 68.8713 45.5163 68.8767L48.5741 71.518C48.9835 71.8718 49.4918 72.0486 50 72.0489C50.0003 72.0489 50.0005 72.0489 50.0008 72.0489C50.5093 72.0489 51.0177 71.8718 51.4276 71.518L54.4848 68.8767C54.4912 68.8712 54.4975 68.8656 54.5039 68.8601C60.5568 63.5066 65.0954 59.4085 68.3788 55.4115C72.2138 50.7431 74.0001 46.5222 74.0001 42.1279C73.9997 34.1777 67.7722 27.9502 59.8223 27.9502Z" fill="#D8143A"/>
<path d="M52.9096 45.635V39.8154H49.9999H47.09V45.635H41.2708V51.4544H47.09V57.2737H49.9999H52.9096V51.4544H58.729V45.635H52.9096Z" fill="#830018"/>
<path d="M42.8188 66.5028C43.6845 67.2628 44.5779 68.0469 45.4973 68.8599C45.5035 68.8655 45.5099 68.8711 45.5163 68.8765L48.5741 71.5178C48.9835 71.8716 49.4918 72.0484 50 72.0487V57.2738H47.0902V51.4545H41.2708V45.6351H47.0902V39.8155H50V31.6274C47.2811 29.2953 43.751 27.9502 40.1778 27.9502C32.2277 27.95 26 34.1775 26 42.1279C26 51.7376 32.6909 57.6116 42.8188 66.5028Z" fill="#B8002B"/>
</svg>
