<svg width="100" height="100" viewBox="0 0 100 100" fill="none" xmlns="http://www.w3.org/2000/svg">
<g clip-path="url(#clip0_79_111)">
<path d="M70.4631 4.06396C63.019 4.06396 55.6639 6.86707 50.0005 11.7256C50.0001 11.7252 49.9999 11.7251 49.9995 11.7251C44.3353 6.86649 36.9806 4.06396 29.5367 4.06396C12.9743 4.06396 0 17.0379 0 33.6009C0 53.6215 13.9394 65.8589 35.0392 84.3822C36.8428 85.9656 38.7039 87.5992 40.6193 89.293C40.6324 89.3045 40.6457 89.3162 40.6589 89.3275L47.0294 94.8302C47.8823 95.5673 48.9413 95.9357 50.0001 95.9363C50.0007 95.9363 50.0011 95.9363 50.0017 95.9363C51.061 95.9363 52.1202 95.5673 52.9741 94.8302L59.3434 89.3275C59.3567 89.316 59.3698 89.3045 59.383 89.293C71.9933 78.1399 81.4487 69.6021 88.2891 61.275C96.2787 51.5492 100 42.7555 100 33.6009C99.9994 17.0379 87.0255 4.06396 70.4631 4.06396Z" fill="#FFED05"/>
<path d="M70.4631 4.06396C63.019 4.06396 55.6639 6.86707 50.0005 11.7256C50.0001 11.7252 49.9999 11.7251 49.9995 11.7251C44.3353 6.86649 36.9806 4.06396 29.5367 4.06396C12.9743 4.06396 0 17.0379 0 33.6009C0 53.6215 13.9394 65.8589 35.0392 84.3822C36.8428 85.9656 38.7039 87.5992 40.6193 89.293C40.6324 89.3045 40.6457 89.3162 40.6589 89.3275L47.0294 94.8302C47.8823 95.5673 48.9413 95.9357 50.0001 95.9363C50.0007 95.9363 50.0011 95.9363 50.0017 95.9363C51.061 95.9363 52.1202 95.5673 52.9741 94.8302L59.3434 89.3275C59.3567 89.316 59.3698 89.3045 59.383 89.293C71.9933 78.1399 81.4487 69.6021 88.2891 61.275C96.2787 51.5492 100 42.7555 100 33.6009C99.9994 17.0379 87.0255 4.06396 70.4631 4.06396Z" fill="#FFED05"/>
<path d="M56.0616 40.9078V28.7837H49.9997H43.9375V40.9078H31.8141V53.0316H43.9375V65.1552H49.9997H56.0616V53.0316H68.1854V40.9078H56.0616Z" fill="#FF005C"/>
<path d="M35.0392 84.3823C36.8428 85.9657 38.7039 87.5993 40.6193 89.2931C40.6324 89.3046 40.6457 89.3163 40.6589 89.3276L47.0294 94.8303C47.8823 95.5674 48.9413 95.9358 50.0001 95.9364V65.1553H43.9378V53.0317H31.8143V40.908H43.9378V28.7838H50.0001V11.7253C44.3357 6.86678 36.9812 4.06445 29.5371 4.06445C12.9743 4.06406 0 17.038 0 33.6014C0 53.6216 13.9394 65.859 35.0392 84.3823Z" fill="#FFED05"/>
</g>
<defs>
<clipPath id="clip0_79_111">
<rect width="100" height="100" fill="white"/>
</clipPath>
</defs>
</svg>
