<svg width="100" height="100" viewBox="0 0 100 100" fill="none" xmlns="http://www.w3.org/2000/svg">
<path d="M66.6667 72.8C71.2455 76.9074 77.1823 79.1752 83.3334 79.1667H91.6667V87.5H83.3334C77.4819 87.5096 71.7319 85.9715 66.6667 83.0417C61.6017 85.972 55.8516 87.5102 50 87.5C44.1485 87.5096 38.3986 85.9715 33.3334 83.0417C28.2684 85.972 22.5183 87.5102 16.6667 87.5H8.33335V79.1667H16.6667C23.0709 79.1667 28.9167 76.7584 33.3334 72.8C37.9122 76.9074 43.8489 79.1752 50 79.1667C56.4042 79.1667 62.25 76.7584 66.6667 72.8ZM52.3875 6.38337L52.8042 6.7167L95.8334 45.8334H83.3334V70.8334C80.0986 70.836 76.9079 70.0841 74.0146 68.6375C71.1214 67.1908 68.6054 65.0894 66.6667 62.5C64.7284 65.0899 62.2125 67.1917 59.3192 68.6383C56.4258 70.085 53.2349 70.8366 50 70.8334C46.7653 70.836 43.5745 70.0841 40.6813 68.6375C37.7881 67.1908 35.2721 65.0894 33.3334 62.5C31.395 65.0899 28.8792 67.1917 25.9858 68.6383C23.0925 70.085 19.9015 70.8366 16.6667 70.8334L16.6625 45.8334H4.16669L47.1959 6.7167C47.8294 6.13982 48.6254 5.77228 49.4754 5.66416C50.3254 5.55605 51.1881 5.71262 51.9459 6.11254L52.3875 6.38337Z" fill="#FFED05"/>
</svg>
