<svg width="48" height="48" viewBox="0 0 48 48" fill="none" xmlns="http://www.w3.org/2000/svg">
<rect width="48" height="48" rx="24" fill="#06B13D"/>
<path fill-rule="evenodd" clip-rule="evenodd" d="M23.9998 21.6C25.2728 21.6 26.4937 21.0943 27.3939 20.1941C28.2941 19.2939 28.7998 18.073 28.7998 16.8C28.7998 15.527 28.2941 14.3061 27.3939 13.4059C26.4937 12.5057 25.2728 12 23.9998 12C22.7268 12 21.5059 12.5057 20.6057 13.4059C19.7055 14.3061 19.1998 15.527 19.1998 16.8C19.1998 18.073 19.7055 19.2939 20.6057 20.1941C21.5059 21.0943 22.7268 21.6 23.9998 21.6ZM12.7998 36C12.7998 34.5292 13.0895 33.0728 13.6524 31.7139C14.2152 30.3551 15.0402 29.1204 16.0802 28.0804C17.1202 27.0404 18.3549 26.2154 19.7137 25.6525C21.0726 25.0897 22.529 24.8 23.9998 24.8C25.4706 24.8 26.927 25.0897 28.2859 25.6525C29.6447 26.2154 30.8794 27.0404 31.9194 28.0804C32.9594 29.1204 33.7844 30.3551 34.3473 31.7139C34.9101 33.0728 35.1998 34.5292 35.1998 36H12.7998Z" fill="#FFED05"/>
</svg>
