<svg width="80" height="80" viewBox="0 0 80 80" fill="none" xmlns="http://www.w3.org/2000/svg">
<path d="M55.9935 3.65719C55.9935 1.63813 54.3554 0 52.3363 0H27.6635C25.6445 0 24.0063 1.63813 24.0063 3.65719V11.5063H55.9937L55.9935 3.65719Z" fill="#FFED05"/>
<path d="M57.9981 25.3834C54.7534 23.7598 53.6695 19.9707 53.6695 16.7237C53.6695 16.5137 53.6695 16.2037 53.6695 15.8057C53.6695 15.6592 53.6695 15.5225 53.6695 15.3467H26.3306C26.3306 15.5225 26.3306 15.6592 26.3306 15.8057C26.3306 15.8546 26.3306 16.1134 26.3306 16.7237C26.3306 19.9707 25.2465 23.7598 22.002 25.3834C18.125 27.3195 16.499 30.2051 16.499 37.0973C16.499 39.5557 16.499 62.5295 16.499 66.4675C16.499 73.1106 21.1743 80.0001 30.5273 80.0001H49.4726C58.8256 80.0001 63.5009 73.1104 63.5009 66.4675C63.5009 62.5295 63.5009 39.5559 63.5009 37.0973C63.5009 30.2053 61.875 27.3195 57.9981 25.3834ZM55.8056 63.55H24.1943V37.7418H55.8057V63.55H55.8056Z" fill="#FFED05"/>
<path d="M37.295 60.4566H42.7027V54.0357H49.1211V48.6329H42.7027V42.2119H37.295V48.6329H30.8789V54.0357H37.295V60.4566Z" fill="#FFED05"/>
</svg>
