<svg width="100" height="100" viewBox="0 0 100 100" fill="none" xmlns="http://www.w3.org/2000/svg">
<rect width="100" height="100" rx="50" fill="#FFED05"/>
<path d="M73.625 62.6562V27.7812H26.375V62.6562H47.1875V68.0938H40.0625V72.2188H59.9375V68.0938H52.8125V62.6562H73.625ZM29.5625 30.9688H70.25V59.2812H29.5625V30.9688ZM58.3721 49.0762H57.4049V50.6881C57.4049 52.4748 55.9608 53.9118 54.1813 53.9118H52.5689V55.5238H43.5431L43.5483 49.1452C41.9634 47.6414 40.9738 45.5118 40.9738 43.1495C40.9738 39.5313 43.2933 36.4507 46.5213 35.3369V40.6098C45.0866 41.2147 44.0767 42.6354 44.0767 44.2878C44.0767 46.3972 45.7226 48.1282 47.7972 48.2671C48.2362 49.8742 49.7084 51.0594 51.4528 51.0594H53.2113C53.3744 51.4906 53.7899 51.7979 54.2782 51.7979C54.9086 51.7979 55.4197 51.2868 55.4197 50.6564C55.4197 50.0261 54.9086 49.5149 54.2782 49.5149C53.7899 49.5149 53.3743 49.8223 53.2113 50.2535H51.4528C50.1459 50.2535 49.0332 49.4086 48.6307 48.2366C50.5638 47.9615 52.0554 46.2959 52.0554 44.2878C52.0554 42.5947 50.9947 41.1455 49.5033 40.5674V34.8986C51.6311 34.9811 53.5544 35.8844 54.9682 37.2909C56.4522 38.7673 57.3826 40.7743 57.4053 43.0316V44.2404L58.9811 48.2013C59.1498 48.6258 58.8279 49.0762 58.3721 49.0762ZM56.03 44.2374C56.03 43.7457 55.6338 43.3481 55.1443 43.3481C54.6547 43.3481 54.2585 43.7459 54.2585 44.2374C54.2585 44.7288 54.6547 45.1267 55.1443 45.1267C55.6338 45.1267 56.0302 44.729 56.03 44.2374ZM48.0658 46.262C49.1546 46.262 50.0403 45.3762 50.0403 44.2874C50.0403 43.1986 49.1546 42.3129 48.0658 42.3129C46.9769 42.3129 46.0912 43.1986 46.0912 44.2874C46.0912 45.3762 46.9771 46.262 48.0658 46.262Z" fill="#878784"/>
</svg>
