<svg width="80" height="80" viewBox="0 0 80 80" fill="none" xmlns="http://www.w3.org/2000/svg">
<g clip-path="url(#clip0_17_199)">
<path d="M70.0001 10.0003V16.667C70.0001 29.5537 59.5534 40.0003 46.6667 40.0003H43.3334V43.3337H60.0001V66.667C60.0001 70.3503 57.0167 73.3337 53.3334 73.3337H26.6667C22.9834 73.3337 20.0001 70.3503 20.0001 66.667V43.3337H36.6667V33.3337C36.6667 20.447 47.1134 10.0003 60.0001 10.0003H70.0001ZM18.3334 6.66699C26.7634 6.66699 34.2167 10.837 38.7467 17.2303C35.3467 21.7003 33.3334 27.2837 33.3334 33.3337V36.667H31.6667C17.8601 36.667 6.66675 25.4737 6.66675 11.667V6.66699H18.3334Z" fill="#FFED05"/>
</g>
<defs>
<clipPath id="clip0_17_199">
<rect width="80" height="80" fill="white"/>
</clipPath>
</defs>
</svg>
