<svg width="48" height="48" viewBox="0 0 48 48" fill="none" xmlns="http://www.w3.org/2000/svg">
<g clip-path="url(#clip0_115_718)">
<path d="M34.6144 34.711H18.2396C17.7849 34.711 17.3489 34.5304 17.0274 34.2089C16.7059 33.8874 16.5253 33.4513 16.5253 32.9967C16.5253 32.542 16.7059 32.106 17.0274 31.7845C17.3489 31.463 17.7849 31.2824 18.2396 31.2824H34.6144C35.0691 31.2824 35.5051 31.463 35.8266 31.7845C36.1481 32.106 36.3287 32.542 36.3287 32.9967C36.3287 33.4513 36.1481 33.8874 35.8266 34.2089C35.5051 34.5304 35.0691 34.711 34.6144 34.711ZM44.0498 34.711H43.6384C43.1838 34.711 42.7477 34.5304 42.4262 34.2089C42.1047 33.8874 41.9241 33.4513 41.9241 32.9967C41.9241 32.542 42.1047 32.106 42.4262 31.7845C42.7477 31.463 43.1838 31.2824 43.6384 31.2824H44.0498C44.1627 31.2842 44.2747 31.2636 44.3794 31.2216C44.4842 31.1797 44.5796 31.1174 44.66 31.0383C44.7404 30.9591 44.8042 30.8648 44.8478 30.7607C44.8914 30.6566 44.9139 30.5449 44.9138 30.4321V24.5487C44.9133 24.3558 44.8481 24.1686 44.7288 24.017C44.6095 23.8654 44.4429 23.758 44.2556 23.7121H34.1481C33.012 23.7121 31.9223 23.2617 31.1177 22.4597C30.313 21.6576 29.8592 20.5693 29.8556 19.4332V10.2447C29.8574 10.1325 29.8367 10.0211 29.7946 9.91711C29.7525 9.81311 29.69 9.71863 29.6106 9.6393C29.5313 9.55998 29.4368 9.49741 29.3328 9.45534C29.2288 9.41326 29.1174 9.39254 29.0053 9.39439H8.80413C8.34947 9.39439 7.91344 9.21378 7.59195 8.89229C7.27046 8.5708 7.08984 8.13476 7.08984 7.68011C7.08984 7.22545 7.27046 6.78941 7.59195 6.46792C7.91344 6.14643 8.34947 5.96582 8.80413 5.96582H29.0053C29.5672 5.96582 30.1236 6.0765 30.6427 6.29153C31.1619 6.50656 31.6336 6.82174 32.0309 7.21907C32.4282 7.6164 32.7434 8.08809 32.9584 8.60723C33.1735 9.12636 33.2841 9.68277 33.2841 10.2447V19.4058C33.2841 19.5186 33.3066 19.6303 33.3501 19.7344C33.3937 19.8385 33.4576 19.9328 33.538 20.012C33.6184 20.0911 33.7138 20.1534 33.8185 20.1954C33.9233 20.2373 34.0353 20.2579 34.1481 20.2561H44.0498C44.3629 20.2602 44.6751 20.2923 44.9824 20.3521L45.2841 20.4481C46.1721 20.7077 46.9512 21.2499 47.5032 21.9924C48.0551 22.735 48.3497 23.6372 48.3424 24.5624V30.4458C48.3352 31.5795 47.8797 32.6643 47.0755 33.4634C46.2713 34.2625 45.1836 34.711 44.0498 34.711Z" fill="#06B13D"/>
<path d="M44.6403 23.7668C44.2879 23.7667 43.9442 23.6571 43.6567 23.4532C43.3693 23.2493 43.1523 22.9611 43.0358 22.6285L40.2929 15.0034C40.2191 14.9005 40.1225 14.816 40.0107 14.7565C39.8989 14.6971 39.7749 14.6642 39.6483 14.6605H31.5432C31.0885 14.6605 30.6525 14.4799 30.331 14.1584C30.0095 13.8369 29.8289 13.4009 29.8289 12.9462C29.8289 12.4916 30.0095 12.0555 30.331 11.734C30.6525 11.4125 31.0885 11.2319 31.5432 11.2319H39.6483C40.4083 11.2349 41.1534 11.4428 41.8051 11.8339C42.4568 12.2249 42.9909 12.7845 43.3512 13.4536C43.3934 13.5333 43.4301 13.6158 43.4609 13.7005L46.2038 21.4765C46.3537 21.9058 46.3284 22.3769 46.1333 22.7877C45.9381 23.1985 45.589 23.5158 45.1615 23.6708C44.9925 23.7245 44.8174 23.7568 44.6403 23.7668ZM39.1272 42.0342C37.893 42.0342 36.6866 41.6683 35.6604 40.9826C34.6343 40.2969 33.8345 39.3224 33.3622 38.1822C32.8899 37.042 32.7663 35.7873 33.0071 34.5769C33.2479 33.3664 33.8422 32.2546 34.7148 31.3819C35.5875 30.5092 36.6994 29.9149 37.9098 29.6741C39.1203 29.4333 40.3749 29.5569 41.5151 30.0292C42.6553 30.5015 43.6299 31.3013 44.3156 32.3275C45.0012 33.3536 45.3672 34.5601 45.3672 35.7942C45.3672 37.4492 44.7098 39.0363 43.5395 40.2066C42.3693 41.3768 40.7821 42.0342 39.1272 42.0342ZM39.1272 32.9828C38.5684 32.9692 38.0183 33.1224 37.547 33.4229C37.0757 33.7234 36.7047 34.1576 36.4814 34.67C36.258 35.1823 36.1925 35.7497 36.2931 36.2995C36.3937 36.8493 36.6559 37.3566 37.0462 37.7567C37.4366 38.1567 37.9373 38.4314 38.4844 38.5456C39.0316 38.6597 39.6003 38.6082 40.1181 38.3976C40.6358 38.1869 41.079 37.8268 41.391 37.3631C41.7031 36.8994 41.8699 36.3532 41.87 35.7942C41.8703 35.0603 41.5835 34.3554 41.071 33.8301C40.5585 33.3048 39.8609 33.0007 39.1272 32.9828ZM13.7146 42.0342C12.4805 42.0342 11.274 41.6683 10.2479 40.9826C9.22169 40.2969 8.42189 39.3224 7.9496 38.1822C7.47731 37.042 7.35374 35.7873 7.59451 34.5769C7.83528 33.3664 8.42959 32.2546 9.30227 31.3819C10.1749 30.5092 11.2868 29.9149 12.4972 29.6741C13.7077 29.4333 14.9623 29.5569 16.1026 30.0292C17.2428 30.5015 18.2173 31.3013 18.903 32.3275C19.5886 33.3536 19.9546 34.5601 19.9546 35.7942C19.9546 37.4492 19.2972 39.0363 18.127 40.2066C16.9567 41.3768 15.3696 42.0342 13.7146 42.0342ZM13.7146 32.9828C13.1586 32.9828 12.615 33.1477 12.1527 33.4566C11.6903 33.7655 11.33 34.2046 11.1172 34.7183C10.9044 35.2321 10.8487 35.7973 10.9572 36.3427C11.0657 36.8881 11.3334 37.389 11.7266 37.7822C12.1198 38.1754 12.6208 38.4431 13.1661 38.5516C13.7115 38.6601 14.2768 38.6044 14.7905 38.3916C15.3042 38.1789 15.7433 37.8185 16.0522 37.3562C16.3612 36.8938 16.526 36.3503 16.526 35.7942C16.526 35.0486 16.2298 34.3335 15.7026 33.8062C15.1753 33.279 14.4602 32.9828 13.7146 32.9828Z" fill="#06B13D"/>
<path d="M31.5426 34.711C31.317 34.7128 31.0932 34.6698 30.8844 34.5842C30.6756 34.4987 30.4859 34.3725 30.3264 34.213C30.1668 34.0534 30.0406 33.8637 29.9551 33.6549C29.8696 33.4461 29.8265 33.2224 29.8283 32.9967V18.007C29.8283 17.5524 30.0089 17.1163 30.3304 16.7948C30.6519 16.4733 31.0879 16.2927 31.5426 16.2927C31.9973 16.2927 32.4333 16.4733 32.7548 16.7948C33.0763 17.1163 33.2569 17.5524 33.2569 18.007V32.9967C33.2587 33.2224 33.2156 33.4461 33.1301 33.6549C33.0446 33.8637 32.9184 34.0534 32.7589 34.213C32.5993 34.3725 32.4096 34.4987 32.2008 34.5842C31.992 34.6698 31.7682 34.7128 31.5426 34.711ZM13.9746 18.0619H2.74261C2.28795 18.0619 1.85191 17.8813 1.53042 17.5598C1.20893 17.2383 1.02832 16.8022 1.02832 16.3476C1.02832 15.8929 1.20893 15.4569 1.53042 15.1354C1.85191 14.8139 2.28795 14.6333 2.74261 14.6333H13.9746C14.4293 14.6333 14.8653 14.8139 15.1868 15.1354C15.5083 15.4569 15.6889 15.8929 15.6889 16.3476C15.6889 16.8022 15.5083 17.2383 15.1868 17.5598C14.8653 17.8813 14.4293 18.0619 13.9746 18.0619ZM16.0866 25.7144H10.2169C9.76223 25.7144 9.3262 25.5338 9.00471 25.2123C8.68322 24.8909 8.50261 24.4548 8.50261 24.0002C8.50261 23.5455 8.68322 23.1095 9.00471 22.788C9.3262 22.4665 9.76223 22.2859 10.2169 22.2859H16.0866C16.5413 22.2859 16.9773 22.4665 17.2988 22.788C17.6203 23.1095 17.8009 23.5455 17.8009 24.0002C17.8009 24.4548 17.6203 24.8909 17.2988 25.2123C16.9773 25.5338 16.5413 25.7144 16.0866 25.7144Z" fill="#06B13D"/>
</g>
<defs>
<clipPath id="clip0_115_718">
<rect width="48" height="48" fill="white"/>
</clipPath>
</defs>
</svg>
