<svg width="48" height="48" viewBox="0 0 48 48" fill="none" xmlns="http://www.w3.org/2000/svg">
<rect width="48" height="48" rx="24" fill="#06B13D"/>
<path d="M14.1178 12C13.7434 12 13.3843 12.1487 13.1196 12.4135C12.8548 12.6783 12.7061 13.0373 12.7061 13.4118C12.7061 13.7862 12.8548 14.1453 13.1196 14.41C13.3843 14.6748 13.7434 14.8235 14.1178 14.8235H15.8402L16.2708 16.5487C16.275 16.5686 16.2797 16.5883 16.2849 16.608L18.2021 24.2739L16.9413 25.5332C15.1625 27.312 16.4218 30.3529 18.9376 30.3529H31.059C31.4334 30.3529 31.7925 30.2042 32.0573 29.9394C32.322 29.6747 32.4708 29.3156 32.4708 28.9412C32.4708 28.5668 32.322 28.2077 32.0573 27.9429C31.7925 27.6782 31.4334 27.5294 31.059 27.5294H18.9376L20.3493 26.1176H29.6472C29.9093 26.1175 30.1662 26.0444 30.3891 25.9065C30.6121 25.7686 30.7922 25.5714 30.9093 25.3369L35.1446 16.8664C35.2522 16.6512 35.3029 16.4121 35.2921 16.1718C35.2813 15.9315 35.2092 15.6979 35.0828 15.4933C34.9564 15.2886 34.7797 15.1197 34.5697 15.0025C34.3596 14.8853 34.1231 14.8237 33.8825 14.8235H18.7484L18.3108 13.0687C18.2343 12.7634 18.058 12.4924 17.8099 12.2988C17.5618 12.1052 17.2561 12 16.9413 12H14.1178ZM32.4708 33.8824C32.4708 34.444 32.2476 34.9826 31.8505 35.3798C31.4534 35.7769 30.9147 36 30.3531 36C29.7915 36 29.2528 35.7769 28.8557 35.3798C28.4586 34.9826 28.2355 34.444 28.2355 33.8824C28.2355 33.3207 28.4586 32.7821 28.8557 32.385C29.2528 31.9878 29.7915 31.7647 30.3531 31.7647C30.9147 31.7647 31.4534 31.9878 31.8505 32.385C32.2476 32.7821 32.4708 33.3207 32.4708 33.8824ZM19.059 36C19.6206 36 20.1593 35.7769 20.5564 35.3798C20.9535 34.9826 21.1766 34.444 21.1766 33.8824C21.1766 33.3207 20.9535 32.7821 20.5564 32.385C20.1593 31.9878 19.6206 31.7647 19.059 31.7647C18.4974 31.7647 17.9587 31.9878 17.5616 32.385C17.1645 32.7821 16.9413 33.3207 16.9413 33.8824C16.9413 34.444 17.1645 34.9826 17.5616 35.3798C17.9587 35.7769 18.4974 36 19.059 36Z" fill="#FFED05"/>
</svg>
