<svg width="48" height="48" viewBox="0 0 48 48" fill="none" xmlns="http://www.w3.org/2000/svg">
<path d="M39.8664 22.8495C39.3788 22.8494 38.9112 22.6556 38.5664 22.3108C38.2214 21.9658 38.0277 21.498 38.0277 21.0102V16.1691C38.0277 9.39657 31.7643 3.9512 24.0269 3.9512C16.29 3.9512 10.0262 9.46472 10.0262 16.1691V21.0102C10.0262 21.498 9.83245 21.9658 9.48751 22.3108C9.14258 22.6557 8.67475 22.8495 8.18694 22.8495C7.69913 22.8495 7.2313 22.6557 6.88637 22.3108C6.54144 21.9658 6.34766 21.498 6.34766 21.0102V16.1691C6.34766 7.36584 14.3019 0.217773 24.0269 0.217773C33.752 0.217773 41.7062 7.36584 41.7062 16.1691L41.7062 21.0092C41.7062 21.0093 41.7062 21.0095 41.7062 21.0097C41.7081 21.2517 41.6619 21.4917 41.5701 21.7158C41.4784 21.9399 41.3429 22.1436 41.1716 22.3148C41.0003 22.4861 40.7967 22.6216 40.5725 22.7134C40.3485 22.8051 40.1085 22.8514 39.8664 22.8495ZM39.8664 22.8495C39.8663 22.8495 39.8661 22.8495 39.8659 22.8495L39.8669 22.7245V22.8495C39.8668 22.8495 39.8666 22.8495 39.8664 22.8495Z" fill="#06B13D" stroke="#06B13D" stroke-width="0.25"/>
<path d="M33.3923 20.8556L33.3923 20.8556V20.8596V37.1385C33.3923 37.6263 33.586 38.0941 33.931 38.4391C34.2759 38.784 34.7437 38.9778 35.2315 38.9778C41.2002 38.9778 46.0811 34.5714 46.0811 29.0608C46.0811 23.5512 41.2014 19.0752 35.2316 19.0752C34.7538 19.075 34.2947 19.2606 33.9514 19.5929C33.6081 19.9252 33.4076 20.3781 33.3923 20.8556ZM37.0708 35.0968V22.9013C38.4887 23.1692 39.7797 23.8989 40.7411 24.9787C41.7338 26.0937 42.3152 27.5148 42.3887 29.0058C42.3122 30.4944 41.7295 31.9123 40.737 33.0246C39.7759 34.1017 38.4866 34.8295 37.0708 35.0968ZM1.91797 29.0059C1.91797 34.5157 6.79794 38.9778 12.7675 38.9778C13.2554 38.9778 13.7232 38.784 14.0681 38.4391C14.413 38.0941 14.6068 37.6263 14.6068 37.1385V20.9145C14.6068 20.4267 14.413 19.9588 14.0681 19.6139C13.7232 19.269 13.2554 19.0752 12.7675 19.0752C6.79865 19.0752 1.91797 23.4955 1.91797 29.0059ZM7.25801 24.9787C8.21937 23.8989 9.5104 23.1692 10.9283 22.9013V35.0968C9.51253 34.8295 8.22314 34.1017 7.26207 33.0246C6.26957 31.9123 5.68687 30.4944 5.61041 29.0058C5.68389 27.5148 6.26525 26.0937 7.25801 24.9787Z" fill="#06B13D" stroke="#06B13D" stroke-width="0.25"/>
<path d="M28.9916 44.5593H34.6693C36.4993 44.5593 38.2543 43.8324 39.5483 42.5384C40.8423 41.2445 41.5692 39.4894 41.5692 37.6595V36.9052C41.5692 36.4174 41.3754 35.9496 41.0305 35.6046C40.6856 35.2597 40.2177 35.0659 39.7299 35.0659C39.2421 35.0659 38.7743 35.2597 38.4293 35.6046C38.0844 35.9496 37.8906 36.4174 37.8906 36.9052V37.6595C37.8906 38.5138 37.5512 39.3332 36.9471 39.9373C36.343 40.5414 35.5237 40.8808 34.6693 40.8808H28.9916C28.5038 40.8808 28.036 41.0746 27.6911 41.4195C27.3461 41.7644 27.1523 42.2323 27.1523 42.7201C27.1523 43.2079 27.3461 43.6757 27.6911 44.0206C28.036 44.3656 28.5038 44.5593 28.9916 44.5593Z" fill="#06B13D" stroke="#06B13D" stroke-width="0.25"/>
<path d="M26.0572 47.782L26.0576 47.782C27.3322 47.7783 28.5534 47.2693 29.4534 46.3667C30.3534 45.464 30.8588 44.2414 30.8588 42.9667V42.7747C30.8588 41.5013 30.3529 40.28 29.4524 39.3795C28.552 38.479 27.3307 37.9731 26.0572 37.9731H22.6698C21.3951 37.9731 20.1725 38.4785 19.2698 39.3785C18.3672 40.2785 17.8582 41.4997 17.8545 42.7743V42.7747V42.9667C17.8545 44.2438 18.3618 45.4686 19.2649 46.3716C20.1679 47.2747 21.3927 47.782 22.6698 47.782L26.0572 47.782ZM21.8978 41.9803C22.1106 41.7698 22.3979 41.6517 22.6972 41.6517H26.0572C26.355 41.6517 26.6407 41.77 26.8513 41.9806C27.0619 42.1912 27.1802 42.4769 27.1802 42.7747V42.9667C27.1802 43.2661 27.0622 43.5533 26.8517 43.7662C26.6413 43.9788 26.3556 44.1 26.0565 44.1034H22.6972C22.3957 44.1034 22.1066 43.9837 21.8934 43.7705C21.6803 43.5573 21.5605 43.2682 21.5605 42.9667V42.7754C21.5639 42.4763 21.6851 42.1906 21.8978 41.9803Z" fill="#06B13D" stroke="#06B13D" stroke-width="0.25"/>
</svg>
