<svg width="100" height="100" viewBox="0 0 100 100" fill="none" xmlns="http://www.w3.org/2000/svg">
<rect width="100" height="100" rx="50" fill="#FFED05"/>
<path d="M69.0967 44.9056C68.3267 37.2697 63.2954 28.2159 54.0702 26.3797C52.8056 26.1279 51.4959 26 50.1797 26C43.5591 26 37.228 29.1746 33.6565 34.2846C33.5662 34.4133 33.4785 34.5429 33.3916 34.6749C29.4289 40.6788 30.0489 49.0249 34.8029 53.6748C35.1572 54.0209 35.5336 54.3506 35.9093 54.6794C36.8023 55.4602 37.6462 56.1983 38.1957 57.1619C39.097 58.7414 39.1068 60.9351 38.2219 63.0313C37.401 64.9749 35.9962 66.6241 34.6373 68.22C34.5307 68.3455 34.5094 68.5226 34.5832 68.6694C34.657 68.817 34.8152 68.9048 34.976 68.8949C38.085 68.6997 41.0619 67.0136 43.1433 64.2688C45.2239 61.5239 46.044 58.2026 45.3928 55.1559C45.3592 54.9976 45.2362 54.8746 45.0771 54.841C44.9229 54.8057 44.7564 54.8681 44.6605 54.9993C44.2225 55.5963 43.5697 55.7218 43.0998 55.7218C42.3503 55.7218 41.5261 55.3954 41.0004 54.8902C38.4023 52.3963 38.2195 48.4828 38.3416 46.3719C38.4893 43.8165 39.3627 41.8614 40.2877 39.7915C40.3156 39.7283 40.3443 39.6652 40.373 39.6012C40.8036 41.6892 42.5364 43.6246 44.2709 44.872C44.717 45.1934 45.1796 45.5059 45.6454 45.8208C47.6038 47.1428 49.6286 48.5107 50.4413 50.6216C51.6501 53.7609 49.7967 57.2037 47.6144 60.457C47.5291 60.5833 47.5341 60.7448 47.6054 60.8785C47.6768 61.0122 47.8285 61.0958 47.9802 61.0958C48.9856 61.0958 49.9886 60.7202 50.7652 60.0798C50.7037 63.7267 46.8804 66.6093 43.9052 68.5087L36.831 73.0249C36.6859 73.1176 36.6137 73.2898 36.6506 73.4579C36.6867 73.626 36.8237 73.7523 36.9942 73.7769C38.0505 73.9254 39.1347 74.0008 40.2164 74.0008C48.0442 74.0008 56.3853 70.0504 63.1027 63.1617C67.4828 58.6667 69.7799 51.6713 69.0967 44.9056Z" fill="#FF005C"/>
</svg>
