<svg width="630" height="630" viewBox="0 0 630 630" fill="none" xmlns="http://www.w3.org/2000/svg">
<g clip-path="url(#clip0_1_411)">
<path d="M630 0H0V630H630V0Z" fill="white"/>
<path d="M448.677 302.041H192.465V554.437H448.677V302.041Z" fill="#BFF0FF"/>
<mask id="mask0_1_411" style="mask-type:luminance" maskUnits="userSpaceOnUse" x="192" y="227" width="257" height="327">
<path d="M448.094 227.148H192.919V553.741H448.094V227.148Z" fill="white"/>
</mask>
<g mask="url(#mask0_1_411)">
<path d="M393.015 412.762L425.689 494.162C421.809 518.766 385.833 529.426 360.553 525.124L269.258 470.226C240.198 453.398 308.697 323.069 393.015 412.762Z" fill="#FDB477"/>
<path d="M418.818 477.862C504.729 611.484 530.923 691.608 569.423 807.929C576.31 829.394 456.527 893.86 447.244 864.501C424.463 738.354 387.451 592.097 351.835 514.563L418.818 477.862Z" fill="#FDB477"/>
<path d="M315.759 495.704C315.759 495.704 339.562 494.142 363.356 501.318C377.242 505.506 382.285 495.233 377.698 483.633C370.524 465.485 349.316 449.415 328.76 456.906C310.688 463.49 304.827 490.43 315.759 495.704Z" fill="#D98641"/>
<path d="M374.111 426.291C374.111 426.291 237.51 322.669 225.369 342.74C211.465 365.727 355.782 454.959 355.782 454.959L374.111 426.291Z" fill="#FDB477"/>
<path d="M367.292 496.153L268.721 495.319C262.57 495.267 257.607 490.009 257.634 483.582L258.52 270.475C258.546 264.277 263.455 259.254 269.487 259.25L366.145 259.191C372.225 259.187 377.185 264.226 377.221 270.452L378.454 484.55C378.491 491.008 373.492 496.205 367.292 496.153Z" fill="#29385E"/>
<path d="M368.656 494.606C368.247 494.656 367.828 494.68 367.411 494.676L268.87 493.739C263.585 493.688 259.276 489.079 259.298 483.469L260.155 270.596C260.177 265.185 264.439 260.78 269.624 260.771L366.276 260.612C366.427 260.611 366.58 260.615 366.73 260.622C369.162 260.733 371.432 261.776 373.127 263.556C374.859 265.376 375.818 267.784 375.833 270.341L377.042 484.655C377.071 489.735 373.478 494.013 368.656 494.606Z" fill="#33201B"/>
<path d="M372.38 271.886L373.525 485.454L262.514 484.563L263.314 271.621L372.38 271.886Z" fill="white"/>
<path d="M361.685 402.365H274.823C273.509 402.365 272.444 401.3 272.444 399.985V357.226C272.444 355.912 273.509 354.847 274.823 354.847H361.685C363 354.847 364.065 355.912 364.065 357.226V399.985C364.065 401.3 363 402.365 361.685 402.365Z" fill="#4AC4D9"/>
<path d="M354.993 368.427H279.85C279.789 368.427 279.74 368.378 279.74 368.317C279.74 368.255 279.789 368.206 279.85 368.206H354.993C355.054 368.206 355.103 368.255 355.103 368.317C355.103 368.378 355.054 368.427 354.993 368.427Z" fill="white"/>
<path d="M354.993 384.356H279.85C279.789 384.356 279.74 384.307 279.74 384.246C279.74 384.184 279.789 384.135 279.85 384.135H354.993C355.054 384.135 355.103 384.184 355.103 384.246C355.103 384.307 355.054 384.356 354.993 384.356Z" fill="white"/>
<path d="M354.993 376.599H279.85C279.789 376.599 279.74 376.549 279.74 376.488C279.74 376.427 279.789 376.378 279.85 376.378H354.993C355.054 376.378 355.103 376.427 355.103 376.488C355.103 376.549 355.054 376.599 354.993 376.599Z" fill="white"/>
<path d="M354.993 392.431H279.63L279.535 364.024C279.534 363.902 279.633 363.803 279.755 363.802H279.756C279.878 363.802 279.977 363.901 279.977 364.023L280.071 391.989H354.993C355.115 391.989 355.214 392.088 355.214 392.21C355.214 392.332 355.115 392.431 354.993 392.431Z" fill="white"/>
<path d="M318.629 371.242L301.534 387.673L292.725 379.88L279.699 392.048C279.61 392.132 279.605 392.272 279.688 392.361C279.732 392.408 279.791 392.431 279.85 392.431C279.904 392.431 279.959 392.412 280.001 392.372L292.733 380.478L301.547 388.274L318.629 371.856V371.242Z" fill="white"/>
<path d="M293.915 380.207C293.915 380.862 293.384 381.393 292.729 381.393C292.074 381.393 291.543 380.862 291.543 380.207C291.543 379.552 292.074 379.021 292.729 379.021C293.384 379.021 293.915 379.552 293.915 380.207Z" fill="white"/>
<path d="M302.868 387.861C302.868 388.516 302.337 389.047 301.682 389.047C301.027 389.047 300.496 388.516 300.496 387.861C300.496 387.206 301.027 386.675 301.682 386.675C302.337 386.675 302.868 387.206 302.868 387.861Z" fill="white"/>
<path d="M319.955 371.367C319.955 372.022 319.424 372.553 318.769 372.553C318.113 372.553 317.583 372.022 317.583 371.367C317.583 370.712 318.113 370.181 318.769 370.181C319.424 370.181 319.955 370.712 319.955 371.367Z" fill="white"/>
<path d="M314.367 331.148H275.07C273.756 331.148 272.69 330.083 272.69 328.769V298.228C272.69 296.914 273.756 295.849 275.07 295.849H314.367C315.681 295.849 316.746 296.914 316.746 298.228V328.769C316.746 330.083 315.681 331.148 314.367 331.148Z" fill="#4AC4D9"/>
<path d="M314.706 323.647H276.968V297.628C276.968 297.516 277.058 297.427 277.169 297.427C277.28 297.427 277.37 297.516 277.37 297.628V323.245H314.707C314.818 323.245 314.908 323.335 314.908 323.446C314.908 323.558 314.817 323.647 314.706 323.647Z" fill="#FDFDFF"/>
<path d="M284.89 315.479H280.724V323.447H284.89V315.479Z" fill="#FDFDFF"/>
<path d="M290.698 313.664H286.531V323.447H290.698V313.664Z" fill="#FDFDFF"/>
<path d="M296.505 309.982H292.339V323.447H296.505V309.982Z" fill="#FDFDFF"/>
<path d="M302.312 307.411H298.146V323.447H302.312V307.411Z" fill="#FDFDFF"/>
<path d="M308.119 301.863H303.953V323.446H308.119V301.863Z" fill="#FDFDFF"/>
<path d="M361.686 331.148H322.389C321.074 331.148 320.009 330.083 320.009 328.769V298.228C320.009 296.914 321.074 295.849 322.389 295.849H361.686C363 295.849 364.065 296.914 364.065 298.228V328.769C364.065 330.083 363 331.148 361.686 331.148Z" fill="#4AC4D9"/>
<path d="M362.025 323.647H324.287V299.04C324.287 298.928 324.377 298.838 324.488 298.838C324.599 298.838 324.689 298.928 324.689 299.04V323.245H362.025C362.136 323.245 362.226 323.335 362.226 323.446C362.226 323.558 362.136 323.647 362.025 323.647Z" fill="#FDFDFF"/>
<path d="M324.488 323.447C330.81 322.896 331.691 297.476 341.07 308.873C349.981 319.7 350.45 299.594 360.132 299.594V323.223L324.488 323.447Z" fill="#FDFDFF"/>
<path d="M364.096 292.52H272.734V284.736H364.096V292.52ZM272.953 292.3H363.876V284.956H272.953V292.3Z" fill="#29385E"/>
<path d="M310.122 287.321H294.957V289.935H310.122V287.321Z" fill="#29385E"/>
<path d="M319.461 287.321H311.616V289.935H319.461V287.321Z" fill="#29385E"/>
<path d="M292.939 287.321H274.412V289.935H292.939V287.321Z" fill="#29385E"/>
<path d="M316.473 336.112H272.993V338.577H316.473V336.112Z" fill="#F9FFFF"/>
<path d="M311.019 345.188H272.993V347.654H311.019V345.188Z" fill="#F9FFFF"/>
<path d="M338.96 340.594H272.993V343.059H338.96V340.594Z" fill="#F9FFFF"/>
<path d="M317.489 418.626C317.476 418.626 317.463 418.626 317.45 418.626C303.379 418.626 291.972 430.033 291.972 444.104C291.972 458.176 303.379 469.583 317.45 469.583C321.716 469.583 325.735 468.533 329.268 466.68L317.489 444.104V418.626Z" fill="#29385E"/>
<path d="M329.268 466.681C337.388 462.421 342.929 453.91 342.929 444.104H317.489L329.268 466.681Z" fill="#5B4E99"/>
<path d="M317.489 418.626V444.104H342.929C342.929 430.046 331.543 418.647 317.489 418.626Z" fill="#F9FFFF"/>
<path d="M407.668 496.988C348.483 492.919 364.458 406.525 364.458 406.525C364.458 406.525 343.283 379.164 346.424 362.183C349.566 345.208 358.63 348.481 358.63 348.481C358.63 348.481 359.132 349.166 360.047 350.441C361.765 352.844 364.95 357.346 368.959 363.286C380.389 380.221 398.532 408.84 408.716 433.873C418.057 457.889 426.997 498.313 407.668 496.988Z" fill="#FDB477"/>
<path d="M368.679 363.026C367.014 364.143 364.337 365.785 361.698 366.774C354.965 359.139 359.246 351.091 359.767 350.182C361.485 352.584 364.669 357.086 368.679 363.026Z" fill="#FFD3AD"/>
<path d="M258.557 456.482C255.307 455.543 251.387 452.605 246.957 446.953C246.332 446.154 245.764 445.37 245.247 444.602C230.478 422.66 257.761 411.842 257.761 411.842C257.761 411.842 260.24 420.968 264.211 427.999C272.39 442.447 268.818 459.45 258.557 456.482Z" fill="#FDB477"/>
<path d="M256.639 453.388C254.393 452.739 251.684 450.709 248.623 446.803C248.19 446.25 247.798 445.709 247.441 445.177C247.911 443.816 248.994 441.765 251.462 439.416C257.479 439.908 258.095 450.316 256.639 453.388Z" fill="#FFD3AD"/>
<path d="M260.053 493.436C257.152 493.805 253.229 491.701 248.584 485.773C247.882 484.875 247.271 484.002 246.746 483.155C236.384 466.565 257.013 458.389 257.013 458.389C257.013 458.389 258.94 465.506 262.043 470.987C267.726 481.037 266.136 492.664 260.053 493.436Z" fill="#FDB477"/>
<path d="M258.825 490.691C256.674 490.965 253.764 489.404 250.319 485.007C249.798 484.341 249.344 483.693 248.955 483.064C249.633 481.747 250.763 480.124 252.639 478.333C257.858 478.761 259.29 486.135 258.825 490.691Z" fill="#FFD3AD"/>
<path d="M259.789 430.279C256.328 429.768 252 426.84 247.022 420.488C246.713 420.097 246.42 419.705 246.139 419.319C229.566 396.589 257.827 385.382 257.827 385.382C257.827 385.382 260.306 394.51 264.277 401.534C272.133 415.421 269.146 431.67 259.789 430.279Z" fill="#FDB477"/>
<path d="M257.616 426.99C255.315 426.65 252.437 424.703 249.128 420.48C248.922 420.22 248.728 419.96 248.541 419.703C248.926 418.411 249.925 416.281 252.52 413.809C258.151 414.27 258.863 423.754 257.616 426.99Z" fill="#FFD3AD"/>
</g>
<path d="M279.573 248.827C281.752 248.827 283.519 247.061 283.519 244.882C283.519 242.703 281.752 240.936 279.573 240.936C277.394 240.936 275.627 242.703 275.627 244.882C275.627 247.061 277.394 248.827 279.573 248.827Z" fill="#29385E"/>
<path d="M265.607 232.515L263.932 230.608C273.325 221.179 287.967 221.527 296.901 231.385L295.134 233.208C287.125 224.4 274.026 224.09 265.607 232.515Z" fill="#29385E"/>
<path d="M269.085 236.474L267.41 234.567C274.781 227.224 286.218 227.494 293.233 235.17L291.467 236.992C285.377 230.367 275.481 230.135 269.085 236.474Z" fill="#29385E"/>
<path d="M272.452 240.306L270.777 238.4C276.19 233.074 284.524 233.269 289.682 238.833L287.916 240.656C283.683 236.141 276.891 235.985 272.452 240.306Z" fill="#29385E"/>
<path d="M537.209 105.81H433.574V207.902H537.209V105.81Z" fill="#E6F9FF"/>
<mask id="mask1_1_411" style="mask-type:luminance" maskUnits="userSpaceOnUse" x="433" y="105" width="105" height="103">
<path d="M537.209 105.81H433.574V207.902H537.209V105.81Z" fill="white"/>
</mask>
<g mask="url(#mask1_1_411)">
<path d="M514.283 139.58H511.495V152.496H514.283V139.58Z" fill="#29385E"/>
<path d="M514.58 148.554H511.313C510.733 149.029 510.363 149.75 510.365 150.558L510.371 152.922L515.535 152.913L515.529 150.549C515.527 149.744 515.158 149.027 514.58 148.554Z" fill="#29385E"/>
<path d="M510.256 153.691C509.341 153.691 508.707 154.605 509.029 155.462L511.656 162.467C511.727 162.656 511.925 162.766 512.123 162.726C512.334 162.684 512.476 162.487 512.451 162.273L511.558 154.845C511.479 154.187 510.92 153.691 510.256 153.691Z" fill="#29385E"/>
<path d="M515.754 153.691C516.67 153.691 517.303 154.605 516.982 155.462L514.355 162.467C514.284 162.656 514.086 162.766 513.888 162.726C513.677 162.684 513.534 162.487 513.56 162.273L514.453 154.845C514.532 154.187 515.091 153.691 515.754 153.691Z" fill="#29385E"/>
<path d="M516.021 152.911H509.918V153.652H516.021V152.911Z" fill="#29385E"/>
<path d="M511.58 153.729C511.58 154.059 511.312 154.327 510.982 154.327C510.652 154.327 510.384 154.059 510.384 153.729C510.384 153.399 510.652 153.131 510.982 153.131C511.312 153.131 511.58 153.399 511.58 153.729Z" fill="#29385E"/>
<path d="M515.534 153.729C515.534 154.059 515.266 154.327 514.936 154.327C514.606 154.327 514.339 154.059 514.339 153.729C514.339 153.399 514.606 153.131 514.936 153.131C515.266 153.131 515.534 153.399 515.534 153.729Z" fill="#29385E"/>
<path d="M512.852 137.441H499.559V141.717H512.852V137.441Z" fill="#29385E"/>
<path d="M501.177 144.261H492.565C489.98 144.261 487.884 142.165 487.884 139.579C487.884 136.993 489.98 134.897 492.565 134.897H501.177V144.261Z" fill="#29385E"/>
<path d="M512.332 144.261H506.263V134.897H512.332C514.918 134.897 517.014 136.993 517.014 139.579C517.014 142.165 514.918 144.261 512.332 144.261Z" fill="#29385E"/>
<path d="M513.437 141.814C512.182 142.34 510.733 141.747 510.207 140.492C509.682 139.238 510.274 137.789 511.529 137.263C512.784 136.737 514.232 137.33 514.758 138.585C515.284 139.839 514.691 141.288 513.437 141.814ZM511.93 138.221C511.204 138.525 510.861 139.364 511.165 140.091C511.469 140.817 512.308 141.16 513.035 140.856C513.761 140.551 514.105 139.713 513.8 138.986C513.496 138.26 512.657 137.916 511.93 138.221Z" fill="#29385E"/>
<path d="M475.376 159.249L467.953 147.76L465.555 149.31L472.977 160.799L475.376 159.249Z" fill="#29385E"/>
<path d="M451.797 166.278C450.684 164.547 451.184 162.24 452.916 161.127L472.097 148.777L476.13 155.047L456.949 167.397C455.218 168.51 452.911 168.01 451.797 166.278Z" fill="#29385E"/>
<path d="M474.475 160.99L495.227 145.623C497.894 143.648 498.563 139.939 496.756 137.156C494.949 134.373 491.288 133.476 488.399 135.11L465.963 147.815L474.475 160.99Z" fill="#29385E"/>
<path d="M493.661 143.97C491.797 145.18 489.297 144.649 488.087 142.785C486.877 140.922 487.409 138.422 489.272 137.212C491.135 136.002 493.635 136.534 494.845 138.397C496.055 140.26 495.524 142.76 493.661 143.97ZM490.196 138.635C489.117 139.335 488.809 140.783 489.51 141.862C490.211 142.941 491.658 143.248 492.737 142.548C493.816 141.847 494.124 140.4 493.423 139.321C492.722 138.242 491.275 137.934 490.196 138.635Z" fill="#29385E"/>
<path d="M482.547 198.456C477.498 202.834 469.856 202.29 465.478 197.242L445.605 174.324C441.226 169.275 441.77 161.633 446.819 157.255C451.868 152.877 459.51 153.42 463.889 158.469L483.762 181.387C488.14 186.435 487.596 194.078 482.547 198.456Z" fill="#29385E"/>
<path d="M450.107 161.046C447.449 163.351 447.163 167.375 449.468 170.033C451.773 172.691 455.797 172.978 458.455 170.673C461.113 168.368 461.399 164.344 459.094 161.686C456.789 159.028 452.766 158.741 450.107 161.046ZM456.777 168.738C455.188 170.116 452.781 169.945 451.403 168.355C450.024 166.765 450.195 164.359 451.785 162.981C453.375 161.602 455.781 161.774 457.159 163.363C458.538 164.953 458.367 167.359 456.777 168.738Z" fill="#29385E"/>
<path d="M486.909 200.673H464.92V191.24C464.92 185.168 469.843 180.245 475.915 180.245C481.987 180.245 486.909 185.168 486.909 191.24V200.673Z" fill="#29385E"/>
<path d="M472.761 187.301C470.675 189.111 470.451 192.269 472.26 194.355C474.069 196.442 477.227 196.667 479.314 194.858C481.401 193.048 481.625 189.89 479.816 187.803C478.006 185.717 474.848 185.492 472.761 187.301ZM477.997 193.339C476.749 194.421 474.861 194.286 473.779 193.039C472.696 191.791 472.831 189.902 474.078 188.82C475.326 187.738 477.215 187.873 478.297 189.12C479.379 190.368 479.245 192.257 477.997 193.339Z" fill="#29385E"/>
<path d="M497.192 211.362H455.226V205.489C455.226 202.522 457.631 200.116 460.598 200.116H491.819C494.786 200.116 497.192 202.522 497.192 205.489V211.362Z" fill="#51A9B4" fill-opacity="0.2"/>
</g>
<path d="M548.181 268.123H525.378C523.592 268.123 522.144 266.675 522.144 264.889C522.144 263.104 523.592 261.656 525.378 261.656H548.181C549.967 261.656 551.415 263.104 551.415 264.889C551.415 266.675 549.967 268.123 548.181 268.123Z" fill="#29385E"/>
<path d="M548.181 279.865H525.378C523.592 279.865 522.144 278.417 522.144 276.631C522.144 274.846 523.592 273.398 525.378 273.398H548.181C549.967 273.398 551.415 274.846 551.415 276.631C551.415 278.417 549.967 279.865 548.181 279.865Z" fill="#29385E"/>
<path d="M548.181 291.607H525.378C523.592 291.607 522.144 290.159 522.144 288.374C522.144 286.588 523.592 285.14 525.378 285.14H548.181C549.967 285.14 551.415 286.588 551.415 288.374C551.415 290.159 549.967 291.607 548.181 291.607Z" fill="#29385E"/>
<path d="M476.21 365.014C468.284 369.173 459.261 371.528 449.687 371.528C418.102 371.528 392.5 345.924 392.5 314.341C392.5 282.756 418.102 257.154 449.687 257.154H449.774V284.89C433.507 284.89 420.323 298.074 420.323 314.341C420.323 330.605 433.507 343.792 449.774 343.792C454.69 343.792 459.323 342.588 463.398 340.457L476.21 365.014Z" fill="#29385E"/>
<path d="M506.874 314.341C506.874 336.35 494.437 355.453 476.21 365.014L463.397 340.457C472.803 335.541 479.222 325.689 479.222 314.341H506.874Z" fill="#5B4E99"/>
<path d="M506.874 314.341H479.222C479.222 298.074 466.038 284.89 449.774 284.89V257.154C481.317 257.201 506.874 282.786 506.874 314.341Z" fill="#F9FFFF"/>
<path d="M600.284 361.153H512.415V444.368H600.284V361.153Z" fill="#B3E0FF"/>
<path d="M536.464 406.458H528.155V430.469H536.464V406.458Z" fill="#FDFDFF"/>
<path d="M548.046 402.837H539.737V430.469H548.046V402.837Z" fill="#FDFDFF"/>
<path d="M559.629 395.495H551.319V430.469H559.629V395.495Z" fill="#FDFDFF"/>
<path d="M571.211 390.365H562.902V430.469H571.211V390.365Z" fill="#FDFDFF"/>
<path d="M582.793 379.302H574.484V430.469H582.793V379.302Z" fill="#FDFDFF"/>
<path d="M515.894 556.615C539.847 556.615 559.264 537.197 559.264 513.245C559.264 489.292 539.847 469.874 515.894 469.874C491.941 469.874 472.524 489.292 472.524 513.245C472.524 537.197 491.941 556.615 515.894 556.615Z" fill="#29385E"/>
<path d="M550.724 495.85C550.291 494.984 549.825 494.135 549.329 493.308C542.583 482.036 530.301 474.441 516.266 474.31C516.14 474.307 516.018 474.307 515.892 474.307C515.788 474.307 515.683 474.307 515.578 474.31C501.519 474.42 489.21 482.021 482.458 493.308C481.96 494.135 481.497 494.984 481.063 495.85C478.434 501.087 476.956 506.997 476.956 513.244C476.956 519.673 478.521 525.744 481.29 531.091C481.739 531.958 482.22 532.806 482.73 533.634C489.536 544.664 501.689 552.061 515.549 552.18C515.662 552.183 515.779 552.183 515.892 552.183C516.018 552.183 516.14 552.183 516.266 552.18C530.113 552.052 542.254 544.658 549.054 533.634C549.565 532.806 550.046 531.958 550.497 531.091C553.266 525.744 554.832 519.673 554.832 513.244C554.832 506.997 553.353 501.087 550.724 495.85ZM547.605 531.091C547.115 531.96 546.589 532.809 546.031 533.633C541.597 540.161 535.105 545.183 527.49 547.747H527.487C524.227 548.846 520.762 549.494 517.165 549.617C516.854 549.629 516.54 549.638 516.224 549.638C516.113 549.641 516.003 549.641 515.892 549.641C515.797 549.641 515.701 549.641 515.606 549.638C515.277 549.638 514.948 549.629 514.623 549.617C511.552 549.512 508.576 549.025 505.744 548.201C497.507 545.805 490.469 540.57 485.757 533.633C485.198 532.809 484.673 531.96 484.183 531.091C481.395 526.162 479.728 520.521 479.522 514.516C479.504 514.095 479.498 513.671 479.498 513.244C479.498 512.819 479.504 512.395 479.522 511.974C479.719 506.151 481.297 500.672 483.929 495.85C484.404 494.981 484.914 494.132 485.458 493.308C490.167 486.14 497.34 480.73 505.759 478.286C508.588 477.465 511.557 476.978 514.623 476.873C514.948 476.861 515.277 476.852 515.606 476.852C515.701 476.849 515.797 476.849 515.892 476.849C516.003 476.849 516.113 476.849 516.224 476.852C516.54 476.852 516.854 476.861 517.165 476.873C520.762 476.995 524.227 477.644 527.487 478.743H527.49C535.278 481.366 541.896 486.559 546.329 493.308C546.873 494.132 547.384 494.981 547.859 495.85C550.491 500.672 552.068 506.151 552.266 511.974C552.284 512.395 552.29 512.819 552.29 513.244C552.29 513.671 552.284 514.095 552.266 514.516C552.059 520.521 550.392 526.162 547.605 531.091Z" fill="white"/>
<path d="M553.56 511.974H478.226V514.516H553.56V511.974Z" fill="white"/>
<path d="M550.724 495.85H481.063C481.497 494.984 481.96 494.135 482.459 493.308H549.329C549.825 494.135 550.291 494.983 550.724 495.85Z" fill="white"/>
<path d="M550.497 531.091C550.046 531.957 549.565 532.806 549.054 533.633H482.731C482.22 532.806 481.739 531.957 481.291 531.091H550.497Z" fill="white"/>
<path d="M550.724 495.85C550.291 494.984 549.825 494.135 549.329 493.308C542.583 482.036 530.301 474.441 516.266 474.31C516.14 474.307 516.018 474.307 515.892 474.307C515.788 474.307 515.683 474.307 515.578 474.31C501.519 474.42 489.21 482.021 482.458 493.308C481.96 494.135 481.497 494.984 481.063 495.85C478.434 501.087 476.956 506.997 476.956 513.244C476.956 519.673 478.521 525.744 481.29 531.091C481.739 531.958 482.22 532.806 482.73 533.634C489.536 544.664 501.689 552.061 515.549 552.18C515.662 552.183 515.779 552.183 515.892 552.183C516.018 552.183 516.14 552.183 516.266 552.18C530.113 552.052 542.254 544.658 549.054 533.634C549.565 532.806 550.046 531.958 550.497 531.091C553.266 525.744 554.832 519.673 554.832 513.244C554.832 506.997 553.353 501.087 550.724 495.85ZM547.605 531.091C547.115 531.96 546.589 532.809 546.031 533.633C541.597 540.161 535.105 545.183 527.49 547.747H527.487C524.227 548.846 520.762 549.494 517.165 549.617C516.854 549.629 516.54 549.638 516.224 549.638C516.113 549.641 516.003 549.641 515.892 549.641C515.797 549.641 515.701 549.641 515.606 549.638C515.277 549.638 514.948 549.629 514.623 549.617C511.552 549.512 508.576 549.025 505.744 548.201C497.507 545.805 490.469 540.57 485.757 533.633C485.198 532.809 484.673 531.96 484.183 531.091C481.395 526.162 479.728 520.521 479.522 514.516C479.504 514.095 479.498 513.671 479.498 513.244C479.498 512.819 479.504 512.395 479.522 511.974C479.719 506.151 481.297 500.672 483.929 495.85C484.404 494.981 484.914 494.132 485.458 493.308C490.167 486.14 497.34 480.73 505.759 478.286C508.588 477.465 511.557 476.978 514.623 476.873C514.948 476.861 515.277 476.852 515.606 476.852C515.701 476.849 515.797 476.849 515.892 476.849C516.003 476.849 516.113 476.849 516.224 476.852C516.54 476.852 516.854 476.861 517.165 476.873C520.762 476.995 524.227 477.644 527.487 478.743H527.49C535.278 481.366 541.896 486.559 546.329 493.308C546.873 494.132 547.384 494.981 547.859 495.85C550.491 500.672 552.068 506.151 552.266 511.974C552.284 512.395 552.29 512.819 552.29 513.244C552.29 513.671 552.284 514.095 552.266 514.516C552.059 520.521 550.392 526.162 547.605 531.091Z" fill="white"/>
<path d="M517.164 475.578H514.622V550.912H517.164V475.578Z" fill="white"/>
<path d="M494.548 513.245C494.548 503.192 496.374 493.802 499.689 486.804C503.562 478.627 509.165 474.306 515.893 474.306V476.848C503.549 476.848 497.091 495.158 497.091 513.244C497.091 531.33 503.549 549.64 515.893 549.64V552.182C501.228 552.182 494.548 531.998 494.548 513.245Z" fill="white"/>
<path d="M515.893 552.182V549.64C530.124 549.64 536.606 530.774 536.606 513.245C536.606 495.715 530.124 476.848 515.893 476.848V474.306C531.871 474.306 539.149 494.491 539.149 513.245C539.149 531.998 531.871 552.182 515.893 552.182Z" fill="white"/>
<path d="M552.094 557.513H516.68V513.592H552.094V557.513Z" fill="white"/>
<path d="M523.676 563.27H557.947V520.491H523.676V563.27Z" fill="#29385E"/>
<path d="M529.008 530.297H546.735V527.514H529.008V530.297Z" fill="white"/>
<path d="M529.008 536.833H551.978V534.051H529.008V536.833Z" fill="white"/>
<path d="M529.008 543.37H551.978V540.588H529.008V543.37Z" fill="white"/>
<path d="M529.008 549.907H551.978V547.124H529.008V549.907Z" fill="white"/>
<path d="M529.008 556.443H551.978V553.661H529.008V556.443Z" fill="white"/>
<path d="M381.051 71.1872H246.708V198.581H381.051V71.1872Z" fill="#B8F5E9"/>
<path d="M336.764 198.655V180.09L325.76 148.817V130.405H302.341V148.817L291.336 180.09V198.655H336.764Z" fill="#51A9B4" fill-opacity="0.2"/>
<path d="M326.842 130.335H300.93V131.416H326.842V130.335Z" fill="#51A9B4" fill-opacity="0.2"/>
<path d="M408.44 195.816V149.519L384.505 131.497L361.536 149.519H313.279V195.816H408.44Z" fill="#29385E"/>
<path d="M328.508 162.259H318.361V171.839H328.508V162.259Z" fill="#51A9B4" fill-opacity="0.2"/>
<path d="M341.015 162.259H330.868V171.839H341.015V162.259Z" fill="#51A9B4" fill-opacity="0.2"/>
<path d="M328.508 177.693H318.361V194.872H328.508V177.693Z" fill="#29385E"/>
<path d="M339.213 177.693H329.067V194.872H339.213V177.693Z" fill="#29385E"/>
<path d="M353.086 177.693H342.939V194.872H353.086V177.693Z" fill="#29385E"/>
<path d="M363.792 177.693H353.645V194.872H363.792V177.693Z" fill="#29385E"/>
<path d="M377.278 177.693H367.131V194.872H377.278V177.693Z" fill="#29385E"/>
<path d="M387.983 177.693H377.837V194.872H387.983V177.693Z" fill="#29385E"/>
<path d="M403.554 177.693H393.407V194.872H403.554V177.693Z" fill="#29385E"/>
<path d="M353.522 162.259H343.375V171.839H353.522V162.259Z" fill="#51A9B4" fill-opacity="0.2"/>
<path d="M366.029 162.259H355.882V171.839H366.029V162.259Z" fill="#51A9B4" fill-opacity="0.2"/>
<path d="M378.536 162.259H368.389V171.839H378.536V162.259Z" fill="#51A9B4" fill-opacity="0.2"/>
<path d="M391.043 162.259H380.896V171.839H391.043V162.259Z" fill="#51A9B4" fill-opacity="0.2"/>
<path d="M403.55 162.259H393.403V171.839H403.55V162.259Z" fill="#51A9B4" fill-opacity="0.2"/>
<path d="M358.941 151.459H345.119L345.814 137.481L346.167 130.402L347.006 113.546H357.054L357.893 130.402L358.246 137.481L358.941 151.459Z" fill="#29385E"/>
<path d="M340.139 151.459H328.477L329.172 137.481L329.525 130.402L330.069 119.465H338.547L339.091 130.402L339.444 137.481L340.139 151.459Z" fill="#29385E"/>
<path d="M358.174 113.506H346.102V114.214H358.174V113.506Z" fill="#29385E"/>
<path d="M339.681 119.369H329.162V120.077H339.681V119.369Z" fill="#29385E"/>
<path d="M413.652 195.087H307.49V198.655H413.652V195.087Z" fill="#29385E"/>
<path d="M303.763 198.772V180.09L298.047 163.841L292.759 148.817V130.405H269.338V148.817L264.05 163.841L258.333 180.09V198.772H303.763Z" fill="white"/>
<path d="M293.839 130.335H267.927V131.416H293.839V130.335Z" fill="white"/>
<path d="M298.047 163.841H264.05L269.338 148.817V141.691H292.759V148.817L298.047 163.841Z" fill="#29385E"/>
<path d="M339.091 130.402L339.444 137.481H329.172L329.525 130.402H339.091Z" fill="white"/>
<path d="M358.246 137.481H345.814L346.167 130.402H357.893L358.246 137.481Z" fill="white"/>
<path d="M354.346 108.74C356.08 107.006 356.08 104.195 354.346 102.461C352.612 100.728 349.801 100.728 348.068 102.461C346.334 104.195 346.334 107.006 348.068 108.74C349.801 110.473 352.612 110.473 354.346 108.74Z" fill="white"/>
<path d="M354.208 100.696C355.554 97.4461 354.011 93.7199 350.76 92.3736C347.51 91.0273 343.784 92.5707 342.437 95.8209C341.091 99.0711 342.635 102.797 345.885 104.144C349.135 105.49 352.861 103.947 354.208 100.696Z" fill="white"/>
<path d="M348.493 94.7801C352.111 91.1619 352.111 85.2956 348.493 81.6775C344.875 78.0593 339.009 78.0593 335.391 81.6775C331.772 85.2956 331.772 91.1619 335.391 94.7801C339.009 98.3982 344.875 98.3982 348.493 94.7801Z" fill="white"/>
<path d="M338.117 91.4867C345.898 89.6494 350.716 81.8523 348.879 74.0713C347.042 66.2904 339.245 61.4721 331.464 63.3094C323.683 65.1467 318.864 72.9439 320.702 80.7248C322.539 88.5058 330.336 93.324 338.117 91.4867Z" fill="white"/>
<path d="M331.378 116.823C333.83 116.823 335.817 114.835 335.817 112.383C335.817 109.932 333.83 107.944 331.378 107.944C328.926 107.944 326.938 109.932 326.938 112.383C326.938 114.835 328.926 116.823 331.378 116.823Z" fill="white"/>
<path d="M328.483 111.419C332.001 111.419 334.852 108.567 334.852 105.049C334.852 101.531 332.001 98.6789 328.483 98.6789C324.965 98.6789 322.113 101.531 322.113 105.049C322.113 108.567 324.965 111.419 328.483 111.419Z" fill="white"/>
<path d="M328.661 101.564C332.28 97.9462 332.28 92.08 328.661 88.4618C325.043 84.8436 319.177 84.8436 315.559 88.4618C311.941 92.08 311.941 97.9462 315.559 101.564C319.177 105.183 325.043 105.183 328.661 101.564Z" fill="white"/>
<path d="M314.971 98.6792C322.966 98.6792 329.448 92.1978 329.448 84.2025C329.448 76.2073 322.966 69.7259 314.971 69.7259C306.976 69.7259 300.494 76.2073 300.494 84.2025C300.494 92.1978 306.976 98.6792 314.971 98.6792Z" fill="white"/>
<path d="M317.803 86.2549C324.988 79.0692 324.988 67.4189 317.803 60.2332C310.617 53.0476 298.967 53.0476 291.781 60.2332C284.595 67.4189 284.595 79.0692 291.781 86.2549C298.967 93.4406 310.617 93.4406 317.803 86.2549Z" fill="white"/>
<path d="M278.332 64.0304C267.373 64.0304 258.491 72.9127 258.491 83.8716C258.491 94.8294 278.332 113.729 278.332 113.729C278.332 113.729 298.173 94.8291 298.173 83.8716C298.173 72.9127 289.29 64.0304 278.332 64.0304ZM278.332 89.361C274.608 89.361 271.589 86.3433 271.589 82.6195C271.589 78.8957 274.608 75.8767 278.332 75.8767C282.055 75.8767 285.074 78.8957 285.074 82.6195C285.074 86.3433 282.055 89.361 278.332 89.361Z" fill="#00CCAF"/>
<mask id="mask2_1_411" style="mask-type:luminance" maskUnits="userSpaceOnUse" x="57" y="129" width="160" height="157">
<path d="M216.857 129.162H57.9407V285.712H216.857V129.162Z" fill="white"/>
</mask>
<g mask="url(#mask2_1_411)">
<path d="M216.857 129.162H57.9407V285.712H216.857V129.162Z" fill="#D9F0FF"/>
</g>
<mask id="mask3_1_411" style="mask-type:luminance" maskUnits="userSpaceOnUse" x="57" y="129" width="160" height="157">
<path d="M216.857 129.162H57.9407V285.712H216.857V129.162Z" fill="white"/>
</mask>
<g mask="url(#mask3_1_411)">
<path d="M108.636 140.363H102.334V168.488H108.636V140.363Z" fill="#29385E"/>
<path d="M137.428 199.887L118.593 220.773L123.272 224.993L142.108 204.107L137.428 199.887Z" fill="#29385E"/>
<path d="M113.234 231.707L106.934 231.775L107.138 250.662L113.438 250.594L113.234 231.707Z" fill="#29385E"/>
<path d="M105.485 147.901C102.008 147.901 99.1899 145.082 99.1899 141.605V121.235C99.1899 117.758 102.008 114.939 105.485 114.939C108.962 114.939 111.78 117.758 111.78 121.235V141.605C111.78 145.082 108.962 147.901 105.485 147.901Z" fill="#29385E"/>
<path d="M104.038 138.2C102.177 139.003 101.317 141.171 102.12 143.031C102.923 144.892 105.091 145.753 106.952 144.949C108.813 144.146 109.673 141.978 108.87 140.118C108.066 138.256 105.899 137.396 104.038 138.2Z" fill="#29385E"/>
<path d="M133.044 208.359L100.621 178.693C95.6501 174.145 95.3074 166.429 99.8553 161.458C104.403 156.488 112.119 156.145 117.09 160.693L149.513 190.358C154.484 194.906 154.826 202.622 150.279 207.593C145.731 212.564 138.015 212.906 133.044 208.359Z" fill="#29385E"/>
<path d="M111.112 163.62C107.874 162.46 104.295 164.15 103.135 167.388C101.974 170.627 103.665 174.205 106.903 175.366C110.142 176.526 113.72 174.836 114.881 171.597C116.041 168.359 114.351 164.781 111.112 163.62Z" fill="#29385E"/>
<path d="M143.281 193.504C140.031 192.378 136.471 194.107 135.344 197.357C134.218 200.608 135.947 204.168 139.197 205.294C142.448 206.42 146.008 204.692 147.134 201.441C148.26 198.191 146.532 194.63 143.281 193.504Z" fill="#29385E"/>
<path d="M131.106 221.739L115.29 239.415C112.865 242.125 108.703 242.356 105.993 239.932C103.283 237.507 103.052 233.345 105.476 230.635L121.292 212.958C123.717 210.248 127.879 210.017 130.589 212.442C133.299 214.866 133.53 219.029 131.106 221.739Z" fill="#29385E"/>
<path d="M107.715 234.059C107.227 235.47 107.978 237.015 109.389 237.503C110.8 237.991 112.345 237.24 112.833 235.829C113.321 234.418 112.57 232.873 111.159 232.385C109.748 231.897 108.203 232.648 107.715 234.059Z" fill="#29385E"/>
<path d="M124.076 216.221C123.589 217.632 124.339 219.177 125.75 219.665C127.161 220.153 128.706 219.402 129.194 217.991C129.682 216.58 128.931 215.035 127.52 214.547C126.109 214.059 124.564 214.81 124.076 216.221Z" fill="#29385E"/>
<path d="M113.14 260.722H106.912V263.338H113.14V260.722Z" fill="#29385E"/>
<path d="M111.898 262.223H108.154V266.133H111.898V262.223Z" fill="#29385E"/>
<path d="M113.14 260.722H106.912V263.338H113.14V260.722Z" fill="#29385E"/>
<path d="M113.286 266.993H113.291L113.286 266.99V266.988H113.283L112.82 266.539C112.118 265.857 111.178 265.475 110.199 265.475C109.221 265.475 108.28 265.857 107.578 266.539L107.116 266.988H107.113V266.99L107.108 266.993H107.113V270.088H107.111L107.584 270.541C108.284 271.21 109.215 271.583 110.184 271.583H110.216C111.184 271.583 112.115 271.21 112.815 270.541L113.288 270.088H113.287V266.993H113.286Z" fill="#29385E"/>
<path d="M111.981 269.63H108.418V272.13H111.981V269.63Z" fill="#29385E"/>
<path d="M109.471 267.875V278.558L110.175 279.248L110.922 278.558V267.875H109.471Z" fill="#29385E"/>
<path d="M113.787 262.018H106.266L102.408 257.818H117.644L113.787 262.018Z" fill="#29385E"/>
<path d="M105.99 245.868H114.062L118.201 248.721H101.851L105.99 245.868Z" fill="#29385E"/>
<path d="M118.698 248.144H101.354V258.065H118.698V248.144Z" fill="#29385E"/>
</g>
<path d="M105.342 121.707C107.521 121.707 109.287 119.941 109.287 117.762C109.287 115.583 107.521 113.816 105.342 113.816C103.162 113.816 101.396 115.583 101.396 117.762C101.396 119.941 103.162 121.707 105.342 121.707Z" fill="#29385E"/>
<path d="M91.3757 105.395L89.7007 103.488C99.0942 94.0587 113.736 94.407 122.669 104.265L120.903 106.088C112.894 97.2806 99.795 96.9701 91.3757 105.395Z" fill="#29385E"/>
<path d="M94.8538 109.354L93.1787 107.448C100.549 100.104 111.987 100.374 119.001 108.05L117.235 109.873C111.145 103.247 101.25 103.015 94.8538 109.354Z" fill="#29385E"/>
<path d="M98.2209 113.187L96.5459 111.28C101.959 105.955 110.293 106.149 115.451 111.714L113.684 113.536C109.452 109.021 102.659 108.865 98.2209 113.187Z" fill="#29385E"/>
<path d="M201.6 474.273C201.815 472.686 201.965 471.079 201.965 469.433C201.965 449.642 185.921 433.598 166.13 433.598C151.283 433.598 138.545 442.627 133.108 455.494C128.683 451.555 122.87 449.141 116.479 449.141C102.649 449.141 91.4381 460.352 91.4381 474.182H86.765C73.467 474.182 62.5872 485.062 62.5872 498.36V498.36C62.5872 511.657 73.467 522.537 86.765 522.537H199.816C213.113 522.537 223.993 511.657 223.993 498.36V498.36C223.994 485.664 214.07 475.197 201.6 474.273Z" fill="#29385E"/>
<path d="M145.735 530.291V514.232H141.653V530.291H82.5913V533.889H208.063V530.291H145.735Z" fill="#5B4E99"/>
<path d="M169.487 468.869H120.206V513.45H169.487V468.869Z" fill="#29385E"/>
<path d="M169.917 482.326H119.776C118.86 482.326 118.117 481.583 118.117 480.667V470.528C118.117 469.612 118.86 468.869 119.776 468.869H169.917C170.833 468.869 171.576 469.612 171.576 470.528V480.667C171.576 481.583 170.833 482.326 169.917 482.326Z" fill="white"/>
<path d="M125.672 472.3H120.386V479.429H125.672V472.3Z" fill="#29385E"/>
<path d="M133.6 472.3H128.315V479.429H133.6V472.3Z" fill="#29385E"/>
<path d="M141.529 472.3H136.243V479.429H141.529V472.3Z" fill="#29385E"/>
<path d="M169.917 498.305H119.776C118.86 498.305 118.117 497.562 118.117 496.646V486.507C118.117 485.591 118.86 484.848 119.776 484.848H169.917C170.833 484.848 171.576 485.591 171.576 486.507V496.646C171.576 497.562 170.833 498.305 169.917 498.305Z" fill="white"/>
<path d="M125.672 488.279H120.386V495.409H125.672V488.279Z" fill="#29385E"/>
<path d="M133.6 488.279H128.315V495.409H133.6V488.279Z" fill="#29385E"/>
<path d="M141.529 488.279H136.243V495.409H141.529V488.279Z" fill="#29385E"/>
<path d="M169.917 514.285H119.776C118.86 514.285 118.117 513.542 118.117 512.626V502.487C118.117 501.571 118.86 500.828 119.776 500.828H169.917C170.833 500.828 171.576 501.571 171.576 502.487V512.626C171.576 513.542 170.833 514.285 169.917 514.285Z" fill="white"/>
<path d="M125.672 504.259H120.386V511.388H125.672V504.259Z" fill="#29385E"/>
<path d="M133.6 504.259H128.315V511.388H133.6V504.259Z" fill="#29385E"/>
<path d="M141.529 504.259H136.243V511.388H141.529V504.259Z" fill="#29385E"/>
<path d="M153.244 527.276H134.352V536.39H153.244V527.276Z" fill="#5B4E99"/>
<path d="M71.5493 431.24C71.5501 431.167 71.5506 431.135 71.5506 431.127C71.5503 431.141 71.5493 431.24 71.5493 431.24Z" fill="#D9FFFF"/>
<path d="M71.5493 431.24C71.5501 431.167 71.5506 431.135 71.5506 431.127C71.5503 431.141 71.5493 431.24 71.5493 431.24Z" fill="#D9FFFF"/>
<path d="M115.439 431.723C115.439 431.723 115.44 431.624 115.441 431.61C115.441 431.618 115.44 431.65 115.439 431.723Z" fill="#D9FFFF"/>
<path d="M115.439 431.723C115.439 431.723 115.44 431.624 115.441 431.61C115.441 431.618 115.44 431.65 115.439 431.723Z" fill="#D9FFFF"/>
<path d="M93.6631 419.581C88.5122 425.001 80.3212 429.417 71.575 431.264C71.5685 431.845 71.5327 435.062 71.3681 449.888C71.1484 469.666 89.9947 479.455 92.9207 480.958C95.7738 479.673 114.987 470.149 115.207 450.37C115.371 435.544 115.407 432.327 115.413 431.747C106.71 429.708 98.6922 425.113 93.6631 419.581Z" fill="white"/>
<path d="M93.5871 423.155C88.5481 427.696 81.5853 431.245 73.9419 433.154L73.7557 449.912C73.6705 457.58 76.6849 464.537 82.7153 470.59C86.6777 474.567 90.8549 477.046 92.9757 478.162C93.0674 478.116 93.1682 478.065 93.2675 478.014L93.6304 423.195C93.616 423.181 93.6012 423.168 93.5871 423.155Z" fill="#00BDAB"/>
<path d="M93.6305 423.195L93.2676 478.014C95.488 476.883 99.5255 474.541 103.402 470.818C109.565 464.899 112.734 458.01 112.819 450.342L113.005 433.584C105.428 431.513 98.5639 427.826 93.6305 423.195Z" fill="#00BDAB"/>
<path d="M84.0115 445.84V459.36C84.0115 460.865 102.393 460.865 102.393 459.36V445.84H84.0115ZM94.132 453.02V456.852C94.132 457.362 93.717 457.786 93.2065 457.786C92.6876 457.786 92.2723 457.362 92.2723 456.852V453.011C91.485 452.657 90.9314 451.861 90.9314 450.944C90.9314 449.689 91.952 448.678 93.2062 448.678C94.4604 448.678 95.4727 449.69 95.4727 450.944C95.4727 451.869 94.9276 452.665 94.132 453.02Z" fill="white"/>
<path d="M100.784 444.877H98.9232V443.966C98.9232 440.812 96.3568 438.245 93.203 438.245C90.0485 438.245 87.4821 440.812 87.4821 443.966V444.877H85.6213V443.966C85.6213 439.786 89.0223 436.385 93.2028 436.385C97.3827 436.385 100.784 439.786 100.784 443.966V444.877H100.784Z" fill="white"/>
<path d="M66.0826 382.943L48.8911 369.984H86.4699L69.3684 382.939C68.3972 383.675 67.0555 383.677 66.0826 382.943Z" fill="#29385E"/>
<path d="M88.0477 372.137V398.284H47.3147V372.137L65.5731 385.833C66.849 386.79 68.6037 386.788 69.8775 385.828L88.0477 372.137Z" fill="#29385E"/>
<path d="M228.069 312.857H170.164C167.011 312.857 164.455 310.301 164.455 307.148V284.156C164.455 281.003 167.011 278.447 170.164 278.447H228.069C231.222 278.447 233.778 281.003 233.778 284.156V307.148C233.778 310.301 231.222 312.857 228.069 312.857Z" fill="#00CCAF"/>
<path d="M222.336 307.297V322.821L206.513 306.998L222.336 307.297Z" fill="#00CCAF"/>
<path d="M179.849 298.108C181.029 296.928 181.029 295.015 179.849 293.836C178.669 292.656 176.757 292.656 175.577 293.836C174.397 295.015 174.397 296.928 175.577 298.108C176.757 299.287 178.669 299.287 179.849 298.108Z" fill="white"/>
<path d="M190.724 296.882C191.225 295.291 190.341 293.595 188.749 293.094C187.158 292.593 185.462 293.478 184.961 295.069C184.461 296.66 185.345 298.356 186.936 298.857C188.528 299.358 190.224 298.474 190.724 296.882Z" fill="white"/>
<path d="M199.115 298.759C200.658 298.125 201.396 296.36 200.762 294.817C200.128 293.274 198.363 292.537 196.82 293.171C195.277 293.804 194.54 295.569 195.173 297.112C195.807 298.656 197.572 299.393 199.115 298.759Z" fill="white"/>
<path d="M210.606 297.66C211.539 296.276 211.173 294.399 209.789 293.466C208.406 292.534 206.528 292.9 205.596 294.284C204.664 295.667 205.03 297.544 206.413 298.477C207.797 299.409 209.674 299.043 210.606 297.66Z" fill="white"/>
<path d="M220.363 298.108C221.543 296.928 221.543 295.016 220.363 293.836C219.184 292.656 217.271 292.656 216.091 293.836C214.912 295.016 214.912 296.928 216.091 298.108C217.271 299.288 219.184 299.288 220.363 298.108Z" fill="white"/>
<path d="M99.6752 324.704C99.0855 326.977 98.9721 329.261 99.2725 331.45L101.166 331.192C101.446 333.257 102.141 335.226 103.172 336.991L101.529 337.957C102.672 339.901 104.186 341.626 106.012 343.013L106.272 342.676L107.169 341.494C108.763 342.709 110.627 343.634 112.689 344.169L112.209 346.021C114.481 346.61 116.765 346.724 118.956 346.416L118.699 344.523C120.761 344.249 122.73 343.555 124.495 342.523L125.462 344.166C127.405 343.024 129.132 341.503 130.519 339.677L130.512 339.675L130.076 339.337L129 338.519C130.215 336.925 131.138 335.069 131.673 333.006L133.525 333.487C134.115 331.214 134.23 328.923 133.923 326.733L132.029 326.99C131.756 324.928 131.06 322.965 130.028 321.2L131.671 320.234C130.529 318.291 129.008 316.563 127.181 315.176L126.024 316.695C124.43 315.48 122.573 314.557 120.511 314.022L120.991 312.17C118.719 311.581 116.428 311.465 114.237 311.773L114.494 313.666C112.432 313.94 110.47 314.636 108.705 315.668L107.739 314.025C105.788 315.166 104.068 316.688 102.681 318.514L102.693 318.525L103.693 319.286L104.2 319.672C102.985 321.266 102.06 323.13 101.526 325.185L99.6752 324.704ZM108.422 326.974C109.594 322.457 114.205 319.745 118.722 320.917C123.247 322.091 125.958 326.702 124.786 331.219C123.612 335.744 119.001 338.455 114.476 337.281C109.959 336.109 107.248 331.498 108.422 326.974Z" fill="#29385E"/>
<path d="M184.511 418.631V396.903C183.058 396.85 181.589 396.644 180.123 396.264C169.257 393.444 162.734 382.351 165.558 371.467C167.871 362.551 175.754 356.565 184.511 356.257V334.508C182.839 334.538 181.182 334.669 179.548 334.898L180.167 339.454C175.206 340.111 170.485 341.786 166.239 344.268L163.915 340.315C159.223 343.06 155.084 346.723 151.747 351.116L151.776 351.142L154.183 352.973L155.401 353.901C152.479 357.736 150.253 362.219 148.97 367.163L144.515 366.008C143.097 371.475 142.824 376.969 143.547 382.236L148.102 381.616C148.776 386.582 150.447 391.32 152.929 395.566L148.976 397.89C151.725 402.566 155.367 406.716 159.76 410.054L160.385 409.243L162.545 406.4C166.379 409.322 170.863 411.547 175.824 412.834L174.668 417.289C177.958 418.143 181.257 418.578 184.511 418.631Z" fill="#29385E"/>
</g>
<defs>
<clipPath id="clip0_1_411">
<rect width="630" height="630" fill="white"/>
</clipPath>
</defs>
</svg>
