<svg width="61" height="60" viewBox="0 0 61 60" fill="none" xmlns="http://www.w3.org/2000/svg">
<g clip-path="url(#clip0_11_1407)">
<path d="M57.2569 20.2227L60.4999 16.9794L43.5208 0L40.2778 3.24328L42.8531 5.81853L39.9913 8.68031L35.985 4.67377L32.742 7.91704L34.9357 10.1108L9.94353 35.103L13.0913 38.2508L8.89427 42.4478L11.1835 44.7371L0.500488 55.4212L5.07928 60L15.7626 49.3164L18.0521 51.6059L22.2492 47.4086L25.3969 50.5564L50.3889 25.5645L52.5829 27.7585L55.8262 24.5152L51.8199 20.5089L54.6817 17.6472L57.2569 20.2227ZM30.4843 41.1447L26.0965 36.7569L28.3858 34.4676L32.7738 38.8554L30.4843 41.1447ZM35.4446 36.1844L31.0568 31.7966L33.3461 29.5073L37.7339 33.8951L35.4446 36.1844ZM40.5956 31.0333L36.2076 26.6456L38.4968 24.3563L42.8846 28.7441L40.5956 31.0333Z" fill="black"/>
</g>
<defs>
<clipPath id="clip0_11_1407">
<rect width="60" height="60" fill="white" transform="translate(0.5)"/>
</clipPath>
</defs>
</svg>
