<svg width="24" height="24" viewBox="0 0 24 24" fill="none" xmlns="http://www.w3.org/2000/svg">
<path d="M24 23.469V14.595C24 9.84002 21.462 7.62752 18.078 7.62752C15.3472 7.62752 14.1233 9.12977 13.4415 10.1843V7.99127H8.2965C8.36475 9.44402 8.2965 23.469 8.2965 23.469H13.4415V14.8253C13.4415 14.364 13.4745 13.9013 13.611 13.5713C13.9823 12.6465 14.829 11.6895 16.2495 11.6895C18.1117 11.6895 18.8558 13.1085 18.8558 15.189V23.4698L24 23.469ZM2.87625 5.87852C4.6695 5.87852 5.78775 4.68902 5.78775 3.20327C5.75475 1.68527 4.67025 0.530273 2.91075 0.530273C1.15125 0.530273 0 1.68452 0 3.20327C0 4.68902 1.11675 5.87852 2.844 5.87852H2.87625ZM5.44875 23.469V7.99127H0.3045V23.469H5.44875Z" fill="white"/>
</svg>
