<?xml version="1.0" encoding="utf-8"?>
<!-- Generator: Adobe Illustrator 25.0.0, SVG Export Plug-In . SVG Version: 6.00 Build 0)  -->
<svg version="1.1" id="Layer_1" xmlns="http://www.w3.org/2000/svg" xmlns:xlink="http://www.w3.org/1999/xlink" x="0px" y="0px"
	 viewBox="0 0 462 100" style="enable-background:new 0 0 462 100;" xml:space="preserve">
<style type="text/css">
	.st0{fill:#29385E;}
	.st1{fill:#51A9B4;}
</style>
<g>
	<g>
		<path class="st0" d="M5.5,70.9H0.2V36.4c0,0,0-0.2,0-0.3c0-5.9,2.1-11,6.4-15.2c4.3-4.3,9.4-6.4,15.3-6.2
			c5.7,0.1,10.5,2.3,14.4,6.5s5.9,9.1,5.9,14.9c0,5.9-2.1,11.1-6.4,15.5c-4.2,4.2-9.3,6.3-15.2,6.1c-6.1-0.2-11.1-2.7-15.2-7.3
			L5.5,70.9L5.5,70.9z M21.8,20c-4.5-0.2-8.3,1.3-11.5,4.7C7.1,28.1,5.6,32,5.7,36.5c0.1,4.3,1.7,8,4.6,11.1s6.5,4.6,10.8,4.6
			c4.3,0,8-1.5,11.1-4.6s4.7-6.8,4.7-11.1c0.1-4.3-1.4-8-4.3-11.3S26.1,20.2,21.8,20z"/>
		<path class="st0" d="M83.2,51.4c-4.2,4.2-9.3,6.3-15.2,6.1c-5.7-0.1-10.6-2.3-14.5-6.5s-5.8-9.1-5.8-14.9c0-5.9,2.1-11.1,6.4-15.4
			c4.2-4.3,9.3-6.4,15.2-6.2c5.7,0.2,10.6,2.4,14.5,6.6c3.9,4.2,5.9,9.1,5.9,14.9C89.7,42,87.6,47.1,83.2,51.4z M68.1,52.1
			c4.5,0.2,8.3-1.3,11.5-4.7c3.2-3.4,4.7-7.3,4.7-11.8c-0.1-4.3-1.7-8-4.7-11.1C76.7,21.5,73.1,20,69,20c-4.4-0.1-8,1.5-11.1,4.6
			s-4.6,6.8-4.7,11.1c-0.1,4.3,1.3,8.1,4.2,11.4S63.9,51.9,68.1,52.1z"/>
		<path class="st0" d="M140.7,56.6h-6.4l-8.9-27.1L117,56.6h-6.2l-15.5-41h5.8l12.7,34.1l9.5-29.1h4.7l9.3,29l12.9-33.9h5.9
			L140.7,56.6z"/>
		<path class="st0" d="M202.3,43.1c-1.5,4.4-4.1,7.9-7.7,10.5c-3.6,2.6-7.7,3.9-12.1,3.9c-5.6,0.1-10.6-2-14.9-6.1
			c-4.3-4.2-6.5-9.2-6.6-15c-0.1-6.1,2-11.4,6.5-15.8c4.5-4.4,9.8-6.5,15.9-6.2c5.5,0.3,10.2,2.6,14.3,6.8c3.9,4.1,5.8,8.7,5.8,13.8
			v2.9h-36.8c0.4,4.1,2.1,7.6,5.3,10.2c3.1,2.7,6.7,4,10.8,3.9c6.5-0.1,11.1-3.1,13.8-9L202.3,43.1L202.3,43.1z M197.9,32.9
			c-0.8-3.8-2.6-6.9-5.4-9.3c-2.8-2.4-6.2-3.6-10.2-3.6c-4-0.1-7.4,1.2-10.3,3.5s-4.7,5.5-5.5,9.4C166.5,32.9,197.9,32.9,197.9,32.9
			z"/>
		<path class="st0" d="M213.5,56.6h-5.8v-41h5.1v5.8c1.2-2.3,2.9-3.9,5.1-5.1c2.1-1.1,4.2-1.6,6.3-1.5v5.5c-2.5,0.1-4.6,0.8-6.2,2.1
			c-1.6,1.3-2.7,2.4-3.2,3.4c-0.9,1.6-1.4,3.7-1.4,6.3L213.5,56.6L213.5,56.6z"/>
		<path class="st0" d="M270.6,56.6h-5.3v-6.4c-4.4,5.1-9.9,7.6-16.4,7.3c-5.7-0.2-10.5-2.4-14.4-6.5s-5.9-9.1-5.9-14.9
			c0-5.9,2.1-11.1,6.4-15.4c4.2-4.3,9.3-6.3,15.3-6.1c5.8,0.2,10.6,2.4,14.7,6.6c4,4.2,5.9,9.1,5.8,14.8v0.3L270.6,56.6L270.6,56.6z
			 M234,35.7c-0.1,4.3,1.3,8.1,4.2,11.4c2.9,3.2,6.5,4.9,10.7,5.1c4.5,0.2,8.3-1.4,11.5-4.7c3.2-3.4,4.7-7.3,4.7-11.8
			c-0.1-4.3-1.7-8-4.6-11.1s-6.5-4.6-10.7-4.6c-4.4,0-8,1.5-11.1,4.6C235.6,27.6,234.1,31.3,234,35.7z"/>
		<path class="st0" d="M276.2,35.7V1.2h5.4v20.7c4-4.7,9.1-7,15.1-7.3c5.9-0.2,11,1.8,15.2,6.1c4.3,4.3,6.5,9.4,6.5,15.4
			c0,5.8-2,10.7-5.9,14.9s-8.8,6.3-14.5,6.5c-5.9,0.2-11-1.8-15.4-6.2s-6.5-9.4-6.3-15.3L276.2,35.7L276.2,35.7z M308.5,47
			c2.9-3.2,4.4-7,4.3-11.4c-0.1-4.3-1.7-8-4.7-11.1c-3-3.1-6.7-4.7-11.1-4.7c-4.2,0-7.7,1.5-10.7,4.6c-2.9,3.1-4.5,6.8-4.6,11.1
			c-0.1,4.5,1.4,8.5,4.6,11.8c3.2,3.3,7,4.9,11.5,4.7C302,51.9,305.5,50.2,308.5,47z"/>
		<path class="st0" d="M358.7,51.4c-4.2,4.2-9.3,6.3-15.2,6.1c-5.7-0.1-10.6-2.3-14.5-6.5s-5.9-9.1-5.9-14.9
			c0-5.9,2.1-11.1,6.4-15.4c4.2-4.3,9.3-6.4,15.2-6.2c5.7,0.2,10.6,2.4,14.5,6.6c3.9,4.2,5.9,9.1,5.9,14.9
			C365.2,42,363,47.1,358.7,51.4z M343.6,52.1c4.5,0.2,8.3-1.3,11.5-4.7c3.2-3.4,4.7-7.3,4.7-11.8c-0.1-4.3-1.7-8-4.7-11.1
			c-2.9-3.1-6.5-4.6-10.6-4.6c-4.4-0.1-8,1.5-11.1,4.6c-3.1,3.1-4.6,6.8-4.7,11.1c-0.1,4.3,1.3,8.1,4.2,11.4S339.4,51.9,343.6,52.1z
			"/>
		<path class="st0" d="M413.6,36.3c0.1,5.9-2,11-6.3,15.3c-4.4,4.2-9.5,6.3-15.4,6.1c-5.7-0.1-10.6-2.3-14.5-6.5
			c-3.9-4.2-5.9-9.1-5.9-14.9c0-5.9,2.1-11.1,6.4-15.4c4.2-4.3,9.3-6.4,15.2-6.2c6.1,0.2,11.1,2.7,15.1,7.3V1.4h5.4L413.6,36.3
			L413.6,36.3z M392,52.3c4.5,0.2,8.3-1.3,11.5-4.7c3.2-3.4,4.7-7.3,4.6-11.8c-0.1-4.3-1.7-8-4.6-11.1s-6.5-4.6-10.7-4.6
			c-4.3-0.1-8,1.5-11.1,4.6s-4.6,6.8-4.7,11.1c-0.1,4.3,1.4,8.1,4.3,11.4C384.2,50.5,387.8,52.2,392,52.3z"/>
		<path class="st0" d="M460.8,43.1c-1.5,4.4-4.1,7.9-7.7,10.5s-7.7,3.9-12.1,3.9c-5.6,0.1-10.6-2-14.9-6.1c-4.3-4.2-6.5-9.2-6.6-15
			c-0.1-6.1,2-11.4,6.5-15.8c4.5-4.4,9.8-6.5,15.9-6.2c5.5,0.3,10.2,2.6,14.3,6.8c3.9,4.1,5.8,8.7,5.8,13.8v2.9H425
			c0.4,4.1,2.1,7.6,5.3,10.2c3.1,2.7,6.7,4,10.8,3.9c6.5-0.1,11.1-3.1,13.8-9L460.8,43.1L460.8,43.1z M456.4,32.9
			c-0.8-3.8-2.6-6.9-5.4-9.3s-6.2-3.6-10.2-3.6c-3.9-0.1-7.4,1.2-10.3,3.5c-2.9,2.4-4.7,5.5-5.5,9.4C425,32.9,456.4,32.9,456.4,32.9
			z"/>
	</g>
	<g>
		<path class="st1" d="M204.6,71c1.4,0,2.5,0.2,3.6,0.8c1,0.5,1.9,1.4,2.7,2.6h0.1c-0.1-1.4-0.1-2.9-0.1-4.3v-6.8h1.7v27.2h-1.2
			l-0.5-2.9h-0.1c-1.4,2.2-3.5,3.2-6.2,3.2c-2.6,0-4.6-0.8-6-2.4c-1.4-1.6-2.1-4-2.1-7.2c0-3.3,0.7-5.8,2.1-7.5
			C200,71.9,202,71,204.6,71z M204.6,72.6c-2.1,0-3.6,0.8-4.7,2.2c-1,1.4-1.6,3.6-1.6,6.3c0,5.4,2.1,8.1,6.3,8.1
			c2.1,0,3.7-0.6,4.7-1.8c1-1.3,1.5-3.3,1.5-6.2v-0.3c0-2.9-0.5-5-1.5-6.3C208.4,73.2,206.8,72.6,204.6,72.6z"/>
		<path class="st1" d="M226.4,71c0.8,0,1.7,0.1,2.6,0.2l-0.3,1.7c-0.8-0.2-1.6-0.3-2.5-0.3c-1.6,0-2.9,0.7-4,2.1
			c-1,1.4-1.6,3.1-1.6,5.2v10.5h-1.7v-19h1.4l0.2,3.4h0.1c0.8-1.4,1.6-2.4,2.5-2.9C224.1,71.3,225.2,71,226.4,71z"/>
		<path class="st1" d="M232.6,66.1c0-1.1,0.3-1.7,1.1-1.7c0.3,0,0.6,0.2,0.9,0.5c0.2,0.3,0.3,0.7,0.3,1.2s-0.1,0.9-0.3,1.2
			c-0.2,0.3-0.5,0.5-0.9,0.5C233,67.8,232.6,67.2,232.6,66.1z M234.6,90.4h-1.7v-19h1.7V90.4z"/>
		<path class="st1" d="M245.1,90.4l-7.3-19h1.8l4.9,12.9c0.6,1.7,1.2,3.1,1.4,4.3h0.1c0.5-1.6,1-3.1,1.4-4.4l4.9-12.9h1.8l-7.3,19
			H245.1z"/>
		<path class="st1" d="M265,90.7c-2.8,0-4.9-0.9-6.5-2.5c-1.6-1.7-2.3-4.1-2.3-7.2c0-3,0.8-5.5,2.3-7.3c1.5-1.8,3.5-2.7,6-2.7
			c2.3,0,4,0.8,5.3,2.4c1.3,1.6,2,3.7,2,6.3v1.4h-13.7c0,2.6,0.6,4.6,1.8,6c1.2,1.4,2.9,2.1,5.1,2.1c1.1,0,2-0.1,2.9-0.2
			c0.8-0.2,1.8-0.5,3.1-1v1.6c-1.1,0.5-2.1,0.8-2.9,0.9C267.3,90.6,266.1,90.7,265,90.7z M264.5,72.5c-1.8,0-3.3,0.6-4.4,1.8
			c-1.1,1.2-1.7,2.9-2,5.2h11.7c0-2.2-0.5-3.9-1.4-5.1C267.5,73.2,266.2,72.5,264.5,72.5z"/>
		<path class="st1" d="M290.3,90.4V78.1c0-1.9-0.4-3.3-1.2-4.2c-0.8-0.9-2.1-1.3-3.8-1.3c-2.3,0-3.9,0.6-5,1.7s-1.6,3-1.6,5.6v10.4
			H277v-19h1.4l0.3,2.6h0.1c1.2-2,3.4-2.9,6.6-2.9c4.3,0,6.5,2.3,6.5,6.9v12.4H290.3z"/>
		<path class="st1" d="M315.4,71c2.7,0,4.7,0.8,6,2.5c1.3,1.7,2,4.1,2,7.3c0,3.2-0.7,5.6-2.1,7.3c-1.4,1.7-3.4,2.6-5.9,2.6
			c-1.3,0-2.6-0.3-3.6-0.9s-2-1.3-2.6-2.4H309l-0.5,2.9h-1.1V63.2h1.7V70c0,1,0,2-0.1,2.8l-0.1,1.5h0.1c0.8-1.2,1.6-2,2.6-2.5
			C312.8,71.3,314,71,315.4,71z M315.4,72.6c-2.3,0-3.9,0.6-4.8,1.9c-1,1.3-1.4,3.4-1.4,6.3v0.3c0,2.9,0.5,4.9,1.5,6.2
			c1,1.3,2.6,1.8,4.7,1.8c2.1,0,3.6-0.8,4.7-2.2c1-1.4,1.6-3.5,1.6-6.2C321.6,75.3,319.5,72.6,315.4,72.6z"/>
		<path class="st1" d="M325.5,71.4h1.8l4,10.7c1.2,3.3,2,5.5,2.3,6.6h0.1c0.5-1.5,1.3-3.8,2.4-6.8l4-10.6h1.8l-8.5,22
			c-0.7,1.8-1.3,3-1.7,3.6c-0.5,0.6-1,1.1-1.6,1.4c-0.6,0.3-1.4,0.5-2.3,0.5c-0.7,0-1.4-0.1-2.2-0.3v-1.5c0.7,0.2,1.4,0.3,2.2,0.3
			c0.6,0,1.1-0.1,1.6-0.4c0.5-0.3,0.9-0.7,1.2-1.3c0.3-0.6,0.8-1.5,1.3-2.8s0.8-2.1,0.9-2.5L325.5,71.4z"/>
		<path class="st1" d="M362.1,90.7c-2.8,0-4.9-0.9-6.5-2.5c-1.6-1.7-2.3-4.1-2.3-7.2c0-3,0.8-5.5,2.3-7.3c1.5-1.8,3.5-2.7,6-2.7
			c2.3,0,4,0.8,5.3,2.4c1.3,1.6,2,3.7,2,6.3v1.4h-13.7c0,2.6,0.6,4.6,1.8,6c1.2,1.4,2.9,2.1,5.1,2.1c1.1,0,2-0.1,2.9-0.2
			c0.8-0.2,1.8-0.5,3.1-1v1.6c-1.1,0.5-2.1,0.8-2.9,0.9C364.4,90.6,363.2,90.7,362.1,90.7z M361.6,72.5c-1.8,0-3.3,0.6-4.4,1.8
			c-1.1,1.2-1.7,2.9-2,5.2H367c0-2.2-0.5-3.9-1.4-5.1C364.6,73.2,363.3,72.5,361.6,72.5z"/>
		<path class="st1" d="M387.3,90.4V78.1c0-1.9-0.4-3.3-1.2-4.2c-0.8-0.9-2.1-1.3-3.8-1.3c-2.3,0-3.9,0.6-5,1.7s-1.6,3-1.6,5.6v10.4
			h-1.7v-19h1.4l0.3,2.6h0.1c1.2-2,3.4-2.9,6.6-2.9c4.3,0,6.5,2.3,6.5,6.9v12.4H387.3z"/>
		<path class="st1" d="M402.8,90.7c-2.8,0-4.9-0.9-6.5-2.5c-1.6-1.7-2.3-4.1-2.3-7.2c0-3,0.8-5.5,2.3-7.3c1.5-1.8,3.5-2.7,6-2.7
			c2.3,0,4,0.8,5.3,2.4c1.3,1.6,2,3.7,2,6.3v1.4h-13.7c0,2.6,0.6,4.6,1.8,6c1.2,1.4,2.9,2.1,5.1,2.1c1.1,0,2-0.1,2.9-0.2
			c0.8-0.2,1.8-0.5,3.1-1v1.6c-1.1,0.5-2.1,0.8-2.9,0.9C405.1,90.6,403.9,90.7,402.8,90.7z M402.3,72.5c-1.8,0-3.3,0.6-4.4,1.8
			c-1.1,1.2-1.7,2.9-2,5.2h11.7c0-2.2-0.5-3.9-1.4-5.1C405.3,73.2,404,72.5,402.3,72.5z"/>
		<path class="st1" d="M422.3,71c0.8,0,1.7,0.1,2.6,0.2l-0.3,1.7c-0.8-0.2-1.6-0.3-2.5-0.3c-1.6,0-2.9,0.7-4,2.1
			c-1,1.4-1.6,3.1-1.6,5.2v10.5h-1.7v-19h1.4l0.2,3.4h0.1c0.8-1.4,1.6-2.4,2.5-2.9C419.9,71.3,421,71,422.3,71z"/>
		<path class="st1" d="M443.5,71.4v1.2l-3.9,0.2c1,1.3,1.6,2.7,1.6,4.3c0,1.8-0.6,3.3-1.8,4.4c-1.2,1.2-2.8,1.7-4.9,1.7
			c-0.9,0-1.4-0.1-1.8-0.1c-0.7,0.3-1.2,0.8-1.6,1.3c-0.3,0.5-0.5,1-0.5,1.6c0,0.6,0.2,1,0.7,1.3s1.2,0.4,2.3,0.4h3.3
			c2.1,0,3.6,0.4,4.7,1.3c1.1,0.8,1.6,2.1,1.6,3.7c0,2-0.8,3.6-2.4,4.6c-1.6,1.1-3.9,1.6-6.9,1.6c-2.4,0-4.2-0.5-5.5-1.4
			c-1.3-0.9-2-2.2-2-3.9c0-1.3,0.4-2.4,1.2-3.2c0.8-0.9,1.9-1.4,3.3-1.8c-0.6-0.2-1-0.6-1.4-1c-0.3-0.5-0.5-1-0.5-1.6
			c0-1.3,0.8-2.4,2.4-3.3c-1.1-0.5-2-1.2-2.6-2.1s-0.9-2.1-0.9-3.3c0-1.9,0.6-3.4,1.8-4.6s2.8-1.7,4.9-1.7c1.3,0,2.2,0.1,2.9,0.3
			h6.1V71.4z M428.2,93.6c0,2.6,2,3.9,5.8,3.9c5,0,7.5-1.6,7.5-4.8c0-1.2-0.4-2-1.2-2.5c-0.8-0.5-2-0.8-3.8-0.8h-3.1
			C429.9,89.5,428.2,90.8,428.2,93.6z M429.6,77.3c0,1.4,0.5,2.6,1.3,3.4c0.9,0.8,2.1,1.2,3.6,1.2c1.6,0,2.8-0.4,3.6-1.2
			c0.9-0.8,1.3-2,1.3-3.5c0-1.6-0.5-2.8-1.3-3.6c-0.9-0.8-2.1-1.2-3.6-1.2c-1.5,0-2.7,0.5-3.6,1.3C430,74.6,429.6,75.8,429.6,77.3z"
			/>
		<path class="st1" d="M444.2,71.4h1.8l4,10.7c1.2,3.3,2,5.5,2.3,6.6h0.1c0.5-1.5,1.3-3.8,2.4-6.8l4-10.6h1.8l-8.5,22
			c-0.7,1.8-1.3,3-1.7,3.6c-0.5,0.6-1,1.1-1.6,1.4c-0.6,0.3-1.4,0.5-2.3,0.5c-0.7,0-1.4-0.1-2.2-0.3v-1.5c0.7,0.2,1.4,0.3,2.2,0.3
			c0.6,0,1.1-0.1,1.6-0.4s0.9-0.7,1.2-1.3c0.3-0.6,0.8-1.5,1.3-2.8c0.5-1.3,0.8-2.1,0.9-2.5L444.2,71.4z"/>
	</g>
</g>
</svg>
