<svg width="24" height="20" viewBox="0 0 24 20" fill="none" xmlns="http://www.w3.org/2000/svg">
<path d="M2.66659 19.3333C2.02492 19.3333 1.47581 19.105 1.01925 18.6485C0.562696 18.1919 0.33403 17.6424 0.333252 17V2.99996C0.333252 2.35829 0.561919 1.80918 1.01925 1.35263C1.47659 0.89607 2.0257 0.667404 2.66659 0.666626H21.3333C21.9749 0.666626 22.5244 0.895292 22.9818 1.35263C23.4391 1.80996 23.6674 2.35907 23.6666 2.99996V17C23.6666 17.6416 23.4383 18.1911 22.9818 18.6485C22.5252 19.1058 21.9757 19.3341 21.3333 19.3333H2.66659ZM11.9999 11.1666L21.3333 5.33329V2.99996L11.9999 8.83329L2.66659 2.99996V5.33329L11.9999 11.1666Z" fill="white"/>
</svg>
