<svg width="21" height="21" viewBox="0 0 21 21" fill="none" xmlns="http://www.w3.org/2000/svg">
<path d="M20.2068 0.793423C20.0696 0.656286 19.8955 0.562001 19.7057 0.522051C19.5159 0.482102 19.3186 0.498213 19.1378 0.568423L1.13776 7.56842C0.949101 7.64186 0.78717 7.77082 0.673383 7.93827C0.559596 8.10572 0.499313 8.30376 0.500506 8.50621C0.501698 8.70865 0.564309 8.90597 0.68006 9.07207C0.795811 9.23816 0.959249 9.36522 1.14876 9.43642L8.72276 12.2764L11.5628 19.8514C11.6341 20.041 11.7612 20.2045 11.9275 20.3202C12.0937 20.4359 12.2912 20.4984 12.4938 20.4994H12.4998C12.7013 20.4994 12.8981 20.4384 13.0645 20.3246C13.2308 20.2108 13.3588 20.0493 13.4318 19.8614L20.4318 1.86142C20.5018 1.68074 20.5178 1.48362 20.4778 1.29402C20.4379 1.10442 20.3437 0.930504 20.2068 0.793423ZM12.5168 16.6934L10.4358 11.1444C10.3856 11.0108 10.3075 10.8895 10.2066 10.7886C10.1057 10.6877 9.98437 10.6095 9.85076 10.5594L4.29976 8.48342L17.7438 3.25642L12.5168 16.6934Z" fill="white"/>
</svg>
