<svg width="61" height="60" viewBox="0 0 61 60" fill="none" xmlns="http://www.w3.org/2000/svg">
<g clip-path="url(#clip0_11_1413)">
<path d="M54.9265 34.8411V18.9983H47.2969V8.72998H37.9104L35.9839 18.9984H26.4678L24.7987 30.2703L3.44019 26.387C2.49612 26.2144 1.53554 26.6006 0.973154 27.3804C0.408779 28.1592 0.344912 29.192 0.805108 30.0356L10.2591 47.3694C11.5702 49.7735 14.0903 51.27 16.8296 51.27H55.3777C57.2896 51.27 58.8948 49.8274 59.0975 47.9264L60.5 34.8411H54.9265ZM37.9835 28.8259H33.5826V24.4257H37.9835V28.8259ZM48.9843 28.8259H44.5832V24.4257H48.9843V28.8259Z" fill="black"/>
</g>
<defs>
<clipPath id="clip0_11_1413">
<rect width="60" height="60" fill="white" transform="translate(0.5)"/>
</clipPath>
</defs>
</svg>
