<svg width="226" height="212" viewBox="0 0 226 212" fill="none" xmlns="http://www.w3.org/2000/svg">
<rect width="226" height="212" fill="#042B3D"/>
<path d="M21.2101 71.8C21.2101 70.9333 21.3568 70.0867 21.6501 69.26C21.9568 68.42 22.3968 67.66 22.9701 66.98C23.5568 66.2867 24.2701 65.74 25.1101 65.34C25.9501 64.9267 26.9035 64.72 27.9701 64.72C29.2368 64.72 30.3235 65.0133 31.2301 65.6C32.1368 66.1733 32.8101 66.9133 33.2501 67.82L31.8301 68.74C31.5501 68.14 31.1901 67.6667 30.7501 67.32C30.3235 66.96 29.8568 66.7067 29.3501 66.56C28.8568 66.4133 28.3701 66.34 27.8901 66.34C27.1035 66.34 26.4035 66.5 25.7901 66.82C25.1901 67.14 24.6835 67.5667 24.2701 68.1C23.8568 68.6333 23.5435 69.2333 23.3301 69.9C23.1301 70.5533 23.0301 71.2133 23.0301 71.88C23.0301 72.6133 23.1501 73.32 23.3901 74C23.6435 74.68 23.9901 75.28 24.4301 75.8C24.8701 76.32 25.3901 76.7333 25.9901 77.04C26.5901 77.3467 27.2435 77.5 27.9501 77.5C28.4435 77.5 28.9501 77.4133 29.4701 77.24C29.9901 77.0667 30.4768 76.8 30.9301 76.44C31.3835 76.0667 31.7435 75.5867 32.0101 75L33.5101 75.82C33.2168 76.5267 32.7635 77.1267 32.1501 77.62C31.5368 78.1133 30.8501 78.4867 30.0901 78.74C29.3435 78.9933 28.6035 79.12 27.8701 79.12C26.8968 79.12 26.0035 78.9133 25.1901 78.5C24.3768 78.0733 23.6701 77.5133 23.0701 76.82C22.4835 76.1133 22.0235 75.3267 21.6901 74.46C21.3701 73.58 21.2101 72.6933 21.2101 71.8ZM34.6629 75.98C34.6629 75.3133 34.8496 74.74 35.2229 74.26C35.6096 73.7667 36.1363 73.3867 36.8029 73.12C37.4696 72.8533 38.2429 72.72 39.1229 72.72C39.5896 72.72 40.0829 72.76 40.6029 72.84C41.1229 72.9067 41.5829 73.0133 41.9829 73.16V72.4C41.9829 71.6 41.7429 70.9733 41.2629 70.52C40.7829 70.0533 40.1029 69.82 39.2229 69.82C38.6496 69.82 38.0963 69.9267 37.5629 70.14C37.0429 70.34 36.4896 70.6333 35.9029 71.02L35.2629 69.78C35.9429 69.3133 36.6229 68.9667 37.3029 68.74C37.9829 68.5 38.6896 68.38 39.4229 68.38C40.7563 68.38 41.8096 68.7533 42.5829 69.5C43.3563 70.2333 43.7429 71.26 43.7429 72.58V77C43.7429 77.2133 43.7829 77.3733 43.8629 77.48C43.9563 77.5733 44.1029 77.6267 44.3029 77.64V79C44.1296 79.0267 43.9763 79.0467 43.8429 79.06C43.7229 79.0733 43.6229 79.08 43.5429 79.08C43.1296 79.08 42.8163 78.9667 42.6029 78.74C42.4029 78.5133 42.2896 78.2733 42.2629 78.02L42.2229 77.36C41.7696 77.9467 41.1763 78.4 40.4429 78.72C39.7096 79.04 38.9829 79.2 38.2629 79.2C37.5696 79.2 36.9496 79.06 36.4029 78.78C35.8563 78.4867 35.4296 78.1 35.1229 77.62C34.8163 77.1267 34.6629 76.58 34.6629 75.98ZM41.4629 76.72C41.6229 76.5333 41.7496 76.3467 41.8429 76.16C41.9363 75.96 41.9829 75.7933 41.9829 75.66V74.36C41.5696 74.2 41.1363 74.08 40.6829 74C40.2296 73.9067 39.7829 73.86 39.3429 73.86C38.4496 73.86 37.7229 74.04 37.1629 74.4C36.6163 74.7467 36.3429 75.2267 36.3429 75.84C36.3429 76.1733 36.4296 76.5 36.6029 76.82C36.7896 77.1267 37.0563 77.38 37.4029 77.58C37.7629 77.78 38.2029 77.88 38.7229 77.88C39.2696 77.88 39.7896 77.7733 40.2829 77.56C40.7763 77.3333 41.1696 77.0533 41.4629 76.72ZM51.879 78.48C51.7324 78.5467 51.5324 78.6333 51.279 78.74C51.0257 78.8467 50.7324 78.94 50.399 79.02C50.0657 79.1 49.7124 79.14 49.339 79.14C48.9124 79.14 48.519 79.0667 48.159 78.92C47.799 78.76 47.5124 78.52 47.299 78.2C47.0857 77.8667 46.979 77.4533 46.979 76.96V69.94H45.559V68.56H46.979V65.08H48.739V68.56H51.079V69.94H48.739V76.42C48.7657 76.7933 48.8924 77.0733 49.119 77.26C49.3457 77.4333 49.6124 77.52 49.919 77.52C50.2657 77.52 50.5857 77.46 50.879 77.34C51.1724 77.22 51.3657 77.1333 51.459 77.08L51.879 78.48ZM57.9936 79.2C57.2069 79.2 56.4869 79.06 55.8336 78.78C55.1936 78.4867 54.6336 78.0933 54.1536 77.6C53.6869 77.0933 53.3202 76.5133 53.0536 75.86C52.8002 75.2067 52.6736 74.5133 52.6736 73.78C52.6736 72.7933 52.9002 71.8933 53.3536 71.08C53.8069 70.2667 54.4336 69.6133 55.2336 69.12C56.0469 68.6267 56.9736 68.38 58.0136 68.38C59.0669 68.38 59.9802 68.6333 60.7536 69.14C61.5402 69.6333 62.1469 70.2867 62.5736 71.1C63.0136 71.9 63.2336 72.7667 63.2336 73.7C63.2336 73.8333 63.2269 73.9667 63.2136 74.1C63.2136 74.22 63.2069 74.3133 63.1936 74.38H54.5336C54.5869 75.06 54.7736 75.6667 55.0936 76.2C55.4269 76.72 55.8536 77.1333 56.3736 77.44C56.8936 77.7333 57.4536 77.88 58.0536 77.88C58.6936 77.88 59.2936 77.72 59.8536 77.4C60.4269 77.08 60.8202 76.66 61.0336 76.14L62.5536 76.56C62.3269 77.0667 61.9869 77.52 61.5336 77.92C61.0936 78.32 60.5669 78.6333 59.9536 78.86C59.3536 79.0867 58.7002 79.2 57.9936 79.2ZM54.4736 73.16H61.5936C61.5402 72.48 61.3469 71.88 61.0136 71.36C60.6802 70.84 60.2536 70.4333 59.7336 70.14C59.2136 69.8467 58.6402 69.7 58.0136 69.7C57.4002 69.7 56.8336 69.8467 56.3136 70.14C55.7936 70.4333 55.3669 70.84 55.0336 71.36C54.7136 71.88 54.5269 72.48 54.4736 73.16ZM69.35 79.12C68.6433 79.12 67.99 78.98 67.39 78.7C66.8033 78.4067 66.2966 78.0133 65.87 77.52C65.4433 77.0133 65.11 76.44 64.87 75.8C64.6433 75.16 64.53 74.4933 64.53 73.8C64.53 73.0667 64.6433 72.3733 64.87 71.72C65.11 71.0667 65.4433 70.4933 65.87 70C66.31 69.4933 66.8233 69.1 67.41 68.82C67.9966 68.5267 68.65 68.38 69.37 68.38C70.2366 68.38 70.99 68.5933 71.63 69.02C72.2833 69.4467 72.83 69.9867 73.27 70.64V68.56H74.83V78.88C74.83 79.8667 74.59 80.7 74.11 81.38C73.6433 82.06 73.0033 82.5733 72.19 82.92C71.39 83.28 70.4966 83.46 69.51 83.46C68.3366 83.46 67.3766 83.2533 66.63 82.84C65.8833 82.4267 65.2633 81.8667 64.77 81.16L65.79 80.26C66.2033 80.8733 66.7366 81.3333 67.39 81.64C68.0566 81.9467 68.7633 82.1 69.51 82.1C70.15 82.1 70.7366 81.98 71.27 81.74C71.8166 81.5133 72.25 81.16 72.57 80.68C72.9033 80.2 73.07 79.6 73.07 78.88V77.04C72.6833 77.68 72.15 78.1867 71.47 78.56C70.8033 78.9333 70.0966 79.12 69.35 79.12ZM69.89 77.68C70.2633 77.68 70.6233 77.6133 70.97 77.48C71.3166 77.3467 71.6366 77.1733 71.93 76.96C72.2233 76.7333 72.47 76.48 72.67 76.2C72.87 75.92 73.0033 75.6333 73.07 75.34V72.34C72.8833 71.86 72.6166 71.44 72.27 71.08C71.9233 70.7067 71.53 70.42 71.09 70.22C70.65 70.0067 70.1966 69.9 69.73 69.9C69.1966 69.9 68.7166 70.0133 68.29 70.24C67.8766 70.4667 67.5233 70.7733 67.23 71.16C66.9366 71.5333 66.71 71.9533 66.55 72.42C66.39 72.8867 66.31 73.36 66.31 73.84C66.31 74.36 66.4033 74.8533 66.59 75.32C66.7766 75.7733 67.03 76.18 67.35 76.54C67.67 76.9 68.05 77.18 68.49 77.38C68.93 77.58 69.3966 77.68 69.89 77.68ZM82.2304 79.2C81.4438 79.2 80.7304 79.06 80.0904 78.78C79.4504 78.4867 78.8971 78.0933 78.4304 77.6C77.9638 77.0933 77.6038 76.5133 77.3504 75.86C77.0971 75.2067 76.9704 74.52 76.9704 73.8C76.9704 73.0667 77.0971 72.3733 77.3504 71.72C77.6038 71.0667 77.9638 70.4933 78.4304 70C78.8971 69.4933 79.4504 69.1 80.0904 68.82C80.7438 68.5267 81.4571 68.38 82.2304 68.38C83.0171 68.38 83.7304 68.5267 84.3704 68.82C85.0104 69.1 85.5638 69.4933 86.0304 70C86.5104 70.4933 86.8771 71.0667 87.1304 71.72C87.3838 72.3733 87.5104 73.0667 87.5104 73.8C87.5104 74.52 87.3838 75.2067 87.1304 75.86C86.8771 76.5133 86.5171 77.0933 86.0504 77.6C85.5838 78.0933 85.0238 78.4867 84.3704 78.78C83.7304 79.06 83.0171 79.2 82.2304 79.2ZM78.7704 73.82C78.7704 74.54 78.9238 75.1933 79.2304 75.78C79.5504 76.3667 79.9704 76.8333 80.4904 77.18C81.0104 77.5133 81.5904 77.68 82.2304 77.68C82.8704 77.68 83.4504 77.5067 83.9704 77.16C84.5038 76.8133 84.9238 76.3467 85.2304 75.76C85.5504 75.16 85.7104 74.5 85.7104 73.78C85.7104 73.06 85.5504 72.4067 85.2304 71.82C84.9238 71.2333 84.5038 70.7667 83.9704 70.42C83.4504 70.0733 82.8704 69.9 82.2304 69.9C81.5904 69.9 81.0104 70.08 80.4904 70.44C79.9704 70.7867 79.5504 71.2533 79.2304 71.84C78.9238 72.4267 78.7704 73.0867 78.7704 73.82ZM95.1631 70.1C94.2831 70.1133 93.5031 70.34 92.8231 70.78C92.1564 71.2067 91.6831 71.8 91.4031 72.56V79H89.6431V68.56H91.2831V70.98C91.6431 70.26 92.1164 69.68 92.7031 69.24C93.3031 68.7867 93.9298 68.5333 94.5831 68.48C94.7164 68.48 94.8298 68.48 94.9231 68.48C95.0164 68.48 95.0964 68.4867 95.1631 68.5V70.1ZM97.3887 81.84C97.5621 81.8533 97.7354 81.8667 97.9087 81.88C98.0821 81.9067 98.2154 81.92 98.3087 81.92C98.5221 81.92 98.7087 81.8467 98.8687 81.7C99.0287 81.5533 99.2021 81.2667 99.3887 80.84C99.5887 80.4267 99.8421 79.8133 100.149 79L95.7287 68.56H97.5887L101.109 77.22L104.289 68.56H106.029L100.949 81.74C100.829 82.0467 100.649 82.3333 100.409 82.6C100.182 82.88 99.8887 83.1 99.5287 83.26C99.1687 83.42 98.7354 83.5 98.2287 83.5C98.1087 83.5 97.9821 83.4933 97.8487 83.48C97.7287 83.4667 97.5754 83.44 97.3887 83.4V81.84ZM120.939 67.78C120.779 67.5933 120.566 67.4133 120.299 67.24C120.032 67.0667 119.732 66.9133 119.399 66.78C119.066 66.6333 118.699 66.52 118.299 66.44C117.912 66.3467 117.506 66.3 117.079 66.3C115.986 66.3 115.179 66.5067 114.659 66.92C114.139 67.3333 113.879 67.9 113.879 68.62C113.879 69.1267 114.012 69.5267 114.279 69.82C114.546 70.1133 114.952 70.3533 115.499 70.54C116.059 70.7267 116.766 70.92 117.619 71.12C118.606 71.3333 119.459 71.5933 120.179 71.9C120.899 72.2067 121.452 72.62 121.839 73.14C122.226 73.6467 122.419 74.3267 122.419 75.18C122.419 75.86 122.286 76.4533 122.019 76.96C121.766 77.4533 121.406 77.8667 120.939 78.2C120.472 78.52 119.926 78.76 119.299 78.92C118.672 79.0667 117.992 79.14 117.259 79.14C116.539 79.14 115.832 79.0667 115.139 78.92C114.459 78.76 113.812 78.5333 113.199 78.24C112.586 77.9467 112.012 77.58 111.479 77.14L112.339 75.62C112.552 75.8467 112.826 76.0733 113.159 76.3C113.506 76.5133 113.892 76.7133 114.319 76.9C114.759 77.0867 115.232 77.24 115.739 77.36C116.246 77.4667 116.766 77.52 117.299 77.52C118.312 77.52 119.099 77.34 119.659 76.98C120.219 76.6067 120.499 76.0667 120.499 75.36C120.499 74.8267 120.339 74.4 120.019 74.08C119.712 73.76 119.252 73.4933 118.639 73.28C118.026 73.0667 117.279 72.8533 116.399 72.64C115.439 72.4 114.632 72.14 113.979 71.86C113.326 71.5667 112.832 71.1867 112.499 70.72C112.179 70.2533 112.019 69.6467 112.019 68.9C112.019 67.9933 112.239 67.2267 112.679 66.6C113.119 65.9733 113.726 65.5 114.499 65.18C115.272 64.86 116.146 64.7 117.119 64.7C117.759 64.7 118.352 64.7667 118.899 64.9C119.459 65.0333 119.979 65.22 120.459 65.46C120.939 65.7 121.379 65.9867 121.779 66.32L120.939 67.78ZM129.711 78.48C129.564 78.5467 129.364 78.6333 129.111 78.74C128.858 78.8467 128.564 78.94 128.231 79.02C127.898 79.1 127.544 79.14 127.171 79.14C126.744 79.14 126.351 79.0667 125.991 78.92C125.631 78.76 125.344 78.52 125.131 78.2C124.918 77.8667 124.811 77.4533 124.811 76.96V69.94H123.391V68.56H124.811V65.08H126.571V68.56H128.911V69.94H126.571V76.42C126.598 76.7933 126.724 77.0733 126.951 77.26C127.178 77.4333 127.444 77.52 127.751 77.52C128.098 77.52 128.418 77.46 128.711 77.34C129.004 77.22 129.198 77.1333 129.291 77.08L129.711 78.48ZM136.862 70.1C135.982 70.1133 135.202 70.34 134.522 70.78C133.856 71.2067 133.382 71.8 133.102 72.56V79H131.342V68.56H132.982V70.98C133.342 70.26 133.816 69.68 134.402 69.24C135.002 68.7867 135.629 68.5333 136.282 68.48C136.416 68.48 136.529 68.48 136.622 68.48C136.716 68.48 136.796 68.4867 136.862 68.5V70.1ZM137.788 75.98C137.788 75.3133 137.975 74.74 138.348 74.26C138.735 73.7667 139.261 73.3867 139.928 73.12C140.595 72.8533 141.368 72.72 142.248 72.72C142.715 72.72 143.208 72.76 143.728 72.84C144.248 72.9067 144.708 73.0133 145.108 73.16V72.4C145.108 71.6 144.868 70.9733 144.388 70.52C143.908 70.0533 143.228 69.82 142.348 69.82C141.775 69.82 141.221 69.9267 140.688 70.14C140.168 70.34 139.615 70.6333 139.028 71.02L138.388 69.78C139.068 69.3133 139.748 68.9667 140.428 68.74C141.108 68.5 141.815 68.38 142.548 68.38C143.881 68.38 144.935 68.7533 145.708 69.5C146.481 70.2333 146.868 71.26 146.868 72.58V77C146.868 77.2133 146.908 77.3733 146.988 77.48C147.081 77.5733 147.228 77.6267 147.428 77.64V79C147.255 79.0267 147.101 79.0467 146.968 79.06C146.848 79.0733 146.748 79.08 146.668 79.08C146.255 79.08 145.941 78.9667 145.728 78.74C145.528 78.5133 145.415 78.2733 145.388 78.02L145.348 77.36C144.895 77.9467 144.301 78.4 143.568 78.72C142.835 79.04 142.108 79.2 141.388 79.2C140.695 79.2 140.075 79.06 139.528 78.78C138.981 78.4867 138.555 78.1 138.248 77.62C137.941 77.1267 137.788 76.58 137.788 75.98ZM144.588 76.72C144.748 76.5333 144.875 76.3467 144.968 76.16C145.061 75.96 145.108 75.7933 145.108 75.66V74.36C144.695 74.2 144.261 74.08 143.808 74C143.355 73.9067 142.908 73.86 142.468 73.86C141.575 73.86 140.848 74.04 140.288 74.4C139.741 74.7467 139.468 75.2267 139.468 75.84C139.468 76.1733 139.555 76.5 139.728 76.82C139.915 77.1267 140.181 77.38 140.528 77.58C140.888 77.78 141.328 77.88 141.848 77.88C142.395 77.88 142.915 77.7733 143.408 77.56C143.901 77.3333 144.295 77.0533 144.588 76.72ZM155.004 78.48C154.857 78.5467 154.657 78.6333 154.404 78.74C154.151 78.8467 153.857 78.94 153.524 79.02C153.191 79.1 152.837 79.14 152.464 79.14C152.037 79.14 151.644 79.0667 151.284 78.92C150.924 78.76 150.637 78.52 150.424 78.2C150.211 77.8667 150.104 77.4533 150.104 76.96V69.94H148.684V68.56H150.104V65.08H151.864V68.56H154.204V69.94H151.864V76.42C151.891 76.7933 152.017 77.0733 152.244 77.26C152.471 77.4333 152.737 77.52 153.044 77.52C153.391 77.52 153.711 77.46 154.004 77.34C154.297 77.22 154.491 77.1333 154.584 77.08L155.004 78.48ZM161.119 79.2C160.332 79.2 159.612 79.06 158.959 78.78C158.319 78.4867 157.759 78.0933 157.279 77.6C156.812 77.0933 156.445 76.5133 156.179 75.86C155.925 75.2067 155.799 74.5133 155.799 73.78C155.799 72.7933 156.025 71.8933 156.479 71.08C156.932 70.2667 157.559 69.6133 158.359 69.12C159.172 68.6267 160.099 68.38 161.139 68.38C162.192 68.38 163.105 68.6333 163.879 69.14C164.665 69.6333 165.272 70.2867 165.699 71.1C166.139 71.9 166.359 72.7667 166.359 73.7C166.359 73.8333 166.352 73.9667 166.339 74.1C166.339 74.22 166.332 74.3133 166.319 74.38H157.659C157.712 75.06 157.899 75.6667 158.219 76.2C158.552 76.72 158.979 77.1333 159.499 77.44C160.019 77.7333 160.579 77.88 161.179 77.88C161.819 77.88 162.419 77.72 162.979 77.4C163.552 77.08 163.945 76.66 164.159 76.14L165.679 76.56C165.452 77.0667 165.112 77.52 164.659 77.92C164.219 78.32 163.692 78.6333 163.079 78.86C162.479 79.0867 161.825 79.2 161.119 79.2ZM157.599 73.16H164.719C164.665 72.48 164.472 71.88 164.139 71.36C163.805 70.84 163.379 70.4333 162.859 70.14C162.339 69.8467 161.765 69.7 161.139 69.7C160.525 69.7 159.959 69.8467 159.439 70.14C158.919 70.4333 158.492 70.84 158.159 71.36C157.839 71.88 157.652 72.48 157.599 73.16ZM172.475 79.12C171.768 79.12 171.115 78.98 170.515 78.7C169.928 78.4067 169.422 78.0133 168.995 77.52C168.568 77.0133 168.235 76.44 167.995 75.8C167.768 75.16 167.655 74.4933 167.655 73.8C167.655 73.0667 167.768 72.3733 167.995 71.72C168.235 71.0667 168.568 70.4933 168.995 70C169.435 69.4933 169.948 69.1 170.535 68.82C171.122 68.5267 171.775 68.38 172.495 68.38C173.362 68.38 174.115 68.5933 174.755 69.02C175.408 69.4467 175.955 69.9867 176.395 70.64V68.56H177.955V78.88C177.955 79.8667 177.715 80.7 177.235 81.38C176.768 82.06 176.128 82.5733 175.315 82.92C174.515 83.28 173.622 83.46 172.635 83.46C171.462 83.46 170.502 83.2533 169.755 82.84C169.008 82.4267 168.388 81.8667 167.895 81.16L168.915 80.26C169.328 80.8733 169.862 81.3333 170.515 81.64C171.182 81.9467 171.888 82.1 172.635 82.1C173.275 82.1 173.862 81.98 174.395 81.74C174.942 81.5133 175.375 81.16 175.695 80.68C176.028 80.2 176.195 79.6 176.195 78.88V77.04C175.808 77.68 175.275 78.1867 174.595 78.56C173.928 78.9333 173.222 79.12 172.475 79.12ZM173.015 77.68C173.388 77.68 173.748 77.6133 174.095 77.48C174.442 77.3467 174.762 77.1733 175.055 76.96C175.348 76.7333 175.595 76.48 175.795 76.2C175.995 75.92 176.128 75.6333 176.195 75.34V72.34C176.008 71.86 175.742 71.44 175.395 71.08C175.048 70.7067 174.655 70.42 174.215 70.22C173.775 70.0067 173.322 69.9 172.855 69.9C172.322 69.9 171.842 70.0133 171.415 70.24C171.002 70.4667 170.648 70.7733 170.355 71.16C170.062 71.5333 169.835 71.9533 169.675 72.42C169.515 72.8867 169.435 73.36 169.435 73.84C169.435 74.36 169.528 74.8533 169.715 75.32C169.902 75.7733 170.155 76.18 170.475 76.54C170.795 76.9 171.175 77.18 171.615 77.38C172.055 77.58 172.522 77.68 173.015 77.68ZM181.275 81.84C181.449 81.8533 181.622 81.8667 181.795 81.88C181.969 81.9067 182.102 81.92 182.195 81.92C182.409 81.92 182.595 81.8467 182.755 81.7C182.915 81.5533 183.089 81.2667 183.275 80.84C183.475 80.4267 183.729 79.8133 184.035 79L179.615 68.56H181.475L184.995 77.22L188.175 68.56H189.915L184.835 81.74C184.715 82.0467 184.535 82.3333 184.295 82.6C184.069 82.88 183.775 83.1 183.415 83.26C183.055 83.42 182.622 83.5 182.115 83.5C181.995 83.5 181.869 83.4933 181.735 83.48C181.615 83.4667 181.462 83.44 181.275 83.4V81.84ZM205.986 79L199.026 71.66C198.452 71.0467 197.992 70.5267 197.646 70.1C197.312 69.66 197.072 69.2667 196.926 68.92C196.779 68.56 196.706 68.1933 196.706 67.82C196.706 67.2067 196.866 66.66 197.186 66.18C197.506 65.7 197.939 65.32 198.486 65.04C199.046 64.76 199.672 64.62 200.366 64.62C201.006 64.62 201.586 64.74 202.106 64.98C202.626 65.2067 203.039 65.54 203.346 65.98C203.666 66.4067 203.826 66.92 203.826 67.52C203.826 68.1333 203.659 68.68 203.326 69.16C202.992 69.6267 202.552 70.0667 202.006 70.48C201.472 70.88 200.879 71.2867 200.226 71.7C199.692 72.0467 199.206 72.4 198.766 72.76C198.339 73.12 197.999 73.5067 197.746 73.92C197.506 74.32 197.386 74.7667 197.386 75.26C197.386 75.7933 197.532 76.2533 197.826 76.64C198.119 77.0133 198.499 77.3 198.966 77.5C199.446 77.7 199.946 77.8 200.466 77.8C201.146 77.8 201.779 77.6467 202.366 77.34C202.952 77.02 203.466 76.58 203.906 76.02C204.359 75.46 204.706 74.8133 204.946 74.08C205.199 73.3333 205.326 72.5333 205.326 71.68H206.786C206.786 72.7733 206.612 73.78 206.266 74.7C205.932 75.6067 205.466 76.4 204.866 77.08C204.279 77.7467 203.592 78.2667 202.806 78.64C202.019 79.0133 201.179 79.2 200.286 79.2C199.419 79.2 198.632 79.0267 197.926 78.68C197.232 78.3333 196.686 77.8667 196.286 77.28C195.886 76.68 195.686 76 195.686 75.24C195.686 74.5067 195.852 73.8667 196.186 73.32C196.532 72.76 196.972 72.2667 197.506 71.84C198.052 71.4 198.612 71 199.186 70.64C199.772 70.2667 200.292 69.9267 200.746 69.62C201.199 69.3 201.552 68.9733 201.806 68.64C202.072 68.3067 202.206 67.9467 202.206 67.56C202.206 67.0933 202.032 66.7133 201.686 66.42C201.339 66.1133 200.899 65.96 200.366 65.96C199.966 65.96 199.612 66.0467 199.306 66.22C198.999 66.38 198.759 66.6 198.586 66.88C198.412 67.1467 198.326 67.4467 198.326 67.78C198.326 67.9933 198.379 68.2133 198.486 68.44C198.592 68.6667 198.792 68.9533 199.086 69.3C199.392 69.6467 199.819 70.1133 200.366 70.7L208.306 79H205.986ZM32.5871 95.8C32.5871 94.9333 32.7337 94.0867 33.0271 93.26C33.3337 92.42 33.7737 91.66 34.3471 90.98C34.9337 90.2867 35.6471 89.74 36.4871 89.34C37.3271 88.9267 38.2804 88.72 39.3471 88.72C40.6138 88.72 41.7004 89.0133 42.6071 89.6C43.5138 90.1733 44.1871 90.9133 44.6271 91.82L43.2071 92.74C42.9271 92.14 42.5671 91.6667 42.1271 91.32C41.7004 90.96 41.2338 90.7067 40.7271 90.56C40.2337 90.4133 39.7471 90.34 39.2671 90.34C38.4804 90.34 37.7804 90.5 37.1671 90.82C36.5671 91.14 36.0604 91.5667 35.6471 92.1C35.2337 92.6333 34.9204 93.2333 34.7071 93.9C34.5071 94.5533 34.4071 95.2133 34.4071 95.88C34.4071 96.6133 34.5271 97.32 34.7671 98C35.0204 98.68 35.3671 99.28 35.8071 99.8C36.2471 100.32 36.7671 100.733 37.3671 101.04C37.9671 101.347 38.6204 101.5 39.3271 101.5C39.8204 101.5 40.3271 101.413 40.8471 101.24C41.3671 101.067 41.8538 100.8 42.3071 100.44C42.7604 100.067 43.1204 99.5867 43.3871 99L44.8871 99.82C44.5938 100.527 44.1404 101.127 43.5271 101.62C42.9138 102.113 42.2271 102.487 41.4671 102.74C40.7204 102.993 39.9804 103.12 39.2471 103.12C38.2738 103.12 37.3804 102.913 36.5671 102.5C35.7537 102.073 35.0471 101.513 34.4471 100.82C33.8604 100.113 33.4004 99.3267 33.0671 98.46C32.7471 97.58 32.5871 96.6933 32.5871 95.8ZM51.4199 103.2C50.6332 103.2 49.9199 103.06 49.2799 102.78C48.6399 102.487 48.0866 102.093 47.6199 101.6C47.1532 101.093 46.7932 100.513 46.5399 99.86C46.2866 99.2067 46.1599 98.52 46.1599 97.8C46.1599 97.0667 46.2866 96.3733 46.5399 95.72C46.7932 95.0667 47.1532 94.4933 47.6199 94C48.0866 93.4933 48.6399 93.1 49.2799 92.82C49.9332 92.5267 50.6466 92.38 51.4199 92.38C52.2066 92.38 52.9199 92.5267 53.5599 92.82C54.1999 93.1 54.7532 93.4933 55.2199 94C55.6999 94.4933 56.0666 95.0667 56.3199 95.72C56.5732 96.3733 56.6999 97.0667 56.6999 97.8C56.6999 98.52 56.5732 99.2067 56.3199 99.86C56.0666 100.513 55.7066 101.093 55.2399 101.6C54.7732 102.093 54.2132 102.487 53.5599 102.78C52.9199 103.06 52.2066 103.2 51.4199 103.2ZM47.9599 97.82C47.9599 98.54 48.1132 99.1933 48.4199 99.78C48.7399 100.367 49.1599 100.833 49.6799 101.18C50.1999 101.513 50.7799 101.68 51.4199 101.68C52.0599 101.68 52.6399 101.507 53.1599 101.16C53.6932 100.813 54.1132 100.347 54.4199 99.76C54.7399 99.16 54.8999 98.5 54.8999 97.78C54.8999 97.06 54.7399 96.4067 54.4199 95.82C54.1132 95.2333 53.6932 94.7667 53.1599 94.42C52.6399 94.0733 52.0599 93.9 51.4199 93.9C50.7799 93.9 50.1999 94.08 49.6799 94.44C49.1599 94.7867 48.7399 95.2533 48.4199 95.84C48.1132 96.4267 47.9599 97.0867 47.9599 97.82ZM67.8926 103H66.1326V97.16C66.1326 96.0533 65.9592 95.2467 65.6126 94.74C65.2792 94.22 64.7659 93.96 64.0726 93.96C63.5926 93.96 63.1126 94.08 62.6326 94.32C62.1659 94.56 61.7459 94.8867 61.3726 95.3C61.0126 95.7 60.7526 96.1667 60.5926 96.7V103H58.8326V92.56H60.4326V94.8C60.7126 94.3067 61.0726 93.88 61.5126 93.52C61.9526 93.16 62.4526 92.88 63.0126 92.68C63.5726 92.48 64.1592 92.38 64.7726 92.38C65.3726 92.38 65.8726 92.4933 66.2726 92.72C66.6859 92.9333 67.0059 93.24 67.2326 93.64C67.4726 94.0267 67.6392 94.4867 67.7326 95.02C67.8392 95.5533 67.8926 96.1333 67.8926 96.76V103ZM75.9318 102.48C75.7851 102.547 75.5851 102.633 75.3318 102.74C75.0784 102.847 74.7851 102.94 74.4518 103.02C74.1184 103.1 73.7651 103.14 73.3918 103.14C72.9651 103.14 72.5718 103.067 72.2118 102.92C71.8518 102.76 71.5651 102.52 71.3518 102.2C71.1384 101.867 71.0318 101.453 71.0318 100.96V93.94H69.6118V92.56H71.0318V89.08H72.7918V92.56H75.1318V93.94H72.7918V100.42C72.8184 100.793 72.9451 101.073 73.1718 101.26C73.3984 101.433 73.6651 101.52 73.9718 101.52C74.3184 101.52 74.6384 101.46 74.9318 101.34C75.2251 101.22 75.4184 101.133 75.5118 101.08L75.9318 102.48ZM83.083 94.1C82.203 94.1133 81.423 94.34 80.743 94.78C80.0764 95.2067 79.603 95.8 79.323 96.56V103H77.563V92.56H79.203V94.98C79.563 94.26 80.0364 93.68 80.623 93.24C81.223 92.7867 81.8497 92.5333 82.503 92.48C82.6364 92.48 82.7497 92.48 82.843 92.48C82.9364 92.48 83.0164 92.4867 83.083 92.5V94.1ZM84.0086 99.98C84.0086 99.3133 84.1953 98.74 84.5686 98.26C84.9553 97.7667 85.482 97.3867 86.1486 97.12C86.8153 96.8533 87.5886 96.72 88.4686 96.72C88.9353 96.72 89.4286 96.76 89.9486 96.84C90.4686 96.9067 90.9286 97.0133 91.3286 97.16V96.4C91.3286 95.6 91.0886 94.9733 90.6086 94.52C90.1286 94.0533 89.4486 93.82 88.5686 93.82C87.9953 93.82 87.442 93.9267 86.9086 94.14C86.3886 94.34 85.8353 94.6333 85.2486 95.02L84.6086 93.78C85.2886 93.3133 85.9686 92.9667 86.6486 92.74C87.3286 92.5 88.0353 92.38 88.7686 92.38C90.102 92.38 91.1553 92.7533 91.9286 93.5C92.702 94.2333 93.0886 95.26 93.0886 96.58V101C93.0886 101.213 93.1286 101.373 93.2086 101.48C93.302 101.573 93.4486 101.627 93.6486 101.64V103C93.4753 103.027 93.322 103.047 93.1886 103.06C93.0686 103.073 92.9686 103.08 92.8886 103.08C92.4753 103.08 92.162 102.967 91.9486 102.74C91.7486 102.513 91.6353 102.273 91.6086 102.02L91.5686 101.36C91.1153 101.947 90.522 102.4 89.7886 102.72C89.0553 103.04 88.3286 103.2 87.6086 103.2C86.9153 103.2 86.2953 103.06 85.7486 102.78C85.202 102.487 84.7753 102.1 84.4686 101.62C84.162 101.127 84.0086 100.58 84.0086 99.98ZM90.8086 100.72C90.9686 100.533 91.0953 100.347 91.1886 100.16C91.282 99.96 91.3286 99.7933 91.3286 99.66V98.36C90.9153 98.2 90.482 98.08 90.0286 98C89.5753 97.9067 89.1286 97.86 88.6886 97.86C87.7953 97.86 87.0686 98.04 86.5086 98.4C85.962 98.7467 85.6886 99.2267 85.6886 99.84C85.6886 100.173 85.7753 100.5 85.9486 100.82C86.1353 101.127 86.402 101.38 86.7486 101.58C87.1086 101.78 87.5486 101.88 88.0686 101.88C88.6153 101.88 89.1353 101.773 89.6286 101.56C90.122 101.333 90.5153 101.053 90.8086 100.72ZM100.523 103.2C99.7362 103.2 99.0162 103.06 98.3629 102.78C97.7229 102.487 97.1629 102.087 96.6829 101.58C96.2162 101.073 95.8495 100.493 95.5829 99.84C95.3295 99.1867 95.2029 98.4933 95.2029 97.76C95.2029 96.7733 95.4229 95.8733 95.8629 95.06C96.3029 94.2467 96.9229 93.6 97.7229 93.12C98.5229 92.6267 99.4495 92.38 100.503 92.38C101.53 92.38 102.423 92.6133 103.183 93.08C103.956 93.5333 104.53 94.1467 104.903 94.92L103.183 95.46C102.916 94.9667 102.543 94.5867 102.063 94.32C101.583 94.04 101.05 93.9 100.463 93.9C99.8229 93.9 99.2362 94.0667 98.7029 94.4C98.1829 94.7333 97.7695 95.1933 97.4629 95.78C97.1562 96.3533 97.0029 97.0133 97.0029 97.76C97.0029 98.4933 97.1562 99.16 97.4629 99.76C97.7829 100.347 98.2029 100.813 98.7229 101.16C99.2562 101.507 99.8429 101.68 100.483 101.68C100.896 101.68 101.29 101.607 101.663 101.46C102.05 101.313 102.383 101.12 102.663 100.88C102.956 100.627 103.156 100.353 103.263 100.06L104.983 100.58C104.77 101.087 104.443 101.54 104.003 101.94C103.576 102.327 103.063 102.633 102.463 102.86C101.876 103.087 101.23 103.2 100.523 103.2ZM112.377 102.48C112.23 102.547 112.03 102.633 111.777 102.74C111.524 102.847 111.23 102.94 110.897 103.02C110.564 103.1 110.21 103.14 109.837 103.14C109.41 103.14 109.017 103.067 108.657 102.92C108.297 102.76 108.01 102.52 107.797 102.2C107.584 101.867 107.477 101.453 107.477 100.96V93.94H106.057V92.56H107.477V89.08H109.237V92.56H111.577V93.94H109.237V100.42C109.264 100.793 109.39 101.073 109.617 101.26C109.844 101.433 110.11 101.52 110.417 101.52C110.764 101.52 111.084 101.46 111.377 101.34C111.67 101.22 111.864 101.133 111.957 101.08L112.377 102.48ZM127.687 91.78C127.527 91.5933 127.314 91.4133 127.047 91.24C126.78 91.0667 126.48 90.9133 126.147 90.78C125.814 90.6333 125.447 90.52 125.047 90.44C124.66 90.3467 124.254 90.3 123.827 90.3C122.734 90.3 121.927 90.5067 121.407 90.92C120.887 91.3333 120.627 91.9 120.627 92.62C120.627 93.1267 120.76 93.5267 121.027 93.82C121.294 94.1133 121.7 94.3533 122.247 94.54C122.807 94.7267 123.514 94.92 124.367 95.12C125.354 95.3333 126.207 95.5933 126.927 95.9C127.647 96.2067 128.2 96.62 128.587 97.14C128.974 97.6467 129.167 98.3267 129.167 99.18C129.167 99.86 129.034 100.453 128.767 100.96C128.514 101.453 128.154 101.867 127.687 102.2C127.22 102.52 126.674 102.76 126.047 102.92C125.42 103.067 124.74 103.14 124.007 103.14C123.287 103.14 122.58 103.067 121.887 102.92C121.207 102.76 120.56 102.533 119.947 102.24C119.334 101.947 118.76 101.58 118.227 101.14L119.087 99.62C119.3 99.8467 119.574 100.073 119.907 100.3C120.254 100.513 120.64 100.713 121.067 100.9C121.507 101.087 121.98 101.24 122.487 101.36C122.994 101.467 123.514 101.52 124.047 101.52C125.06 101.52 125.847 101.34 126.407 100.98C126.967 100.607 127.247 100.067 127.247 99.36C127.247 98.8267 127.087 98.4 126.767 98.08C126.46 97.76 126 97.4933 125.387 97.28C124.774 97.0667 124.027 96.8533 123.147 96.64C122.187 96.4 121.38 96.14 120.727 95.86C120.074 95.5667 119.58 95.1867 119.247 94.72C118.927 94.2533 118.767 93.6467 118.767 92.9C118.767 91.9933 118.987 91.2267 119.427 90.6C119.867 89.9733 120.474 89.5 121.247 89.18C122.02 88.86 122.894 88.7 123.867 88.7C124.507 88.7 125.1 88.7667 125.647 88.9C126.207 89.0333 126.727 89.22 127.207 89.46C127.687 89.7 128.127 89.9867 128.527 90.32L127.687 91.78ZM136.459 102.48C136.312 102.547 136.112 102.633 135.859 102.74C135.606 102.847 135.312 102.94 134.979 103.02C134.646 103.1 134.292 103.14 133.919 103.14C133.492 103.14 133.099 103.067 132.739 102.92C132.379 102.76 132.092 102.52 131.879 102.2C131.666 101.867 131.559 101.453 131.559 100.96V93.94H130.139V92.56H131.559V89.08H133.319V92.56H135.659V93.94H133.319V100.42C133.346 100.793 133.472 101.073 133.699 101.26C133.926 101.433 134.192 101.52 134.499 101.52C134.846 101.52 135.166 101.46 135.459 101.34C135.752 101.22 135.946 101.133 136.039 101.08L136.459 102.48ZM143.61 94.1C142.73 94.1133 141.95 94.34 141.27 94.78C140.604 95.2067 140.13 95.8 139.85 96.56V103H138.09V92.56H139.73V94.98C140.09 94.26 140.564 93.68 141.15 93.24C141.75 92.7867 142.377 92.5333 143.03 92.48C143.164 92.48 143.277 92.48 143.37 92.48C143.464 92.48 143.544 92.4867 143.61 92.5V94.1ZM144.536 99.98C144.536 99.3133 144.723 98.74 145.096 98.26C145.483 97.7667 146.009 97.3867 146.676 97.12C147.343 96.8533 148.116 96.72 148.996 96.72C149.463 96.72 149.956 96.76 150.476 96.84C150.996 96.9067 151.456 97.0133 151.856 97.16V96.4C151.856 95.6 151.616 94.9733 151.136 94.52C150.656 94.0533 149.976 93.82 149.096 93.82C148.523 93.82 147.969 93.9267 147.436 94.14C146.916 94.34 146.363 94.6333 145.776 95.02L145.136 93.78C145.816 93.3133 146.496 92.9667 147.176 92.74C147.856 92.5 148.563 92.38 149.296 92.38C150.629 92.38 151.683 92.7533 152.456 93.5C153.229 94.2333 153.616 95.26 153.616 96.58V101C153.616 101.213 153.656 101.373 153.736 101.48C153.829 101.573 153.976 101.627 154.176 101.64V103C154.003 103.027 153.849 103.047 153.716 103.06C153.596 103.073 153.496 103.08 153.416 103.08C153.003 103.08 152.689 102.967 152.476 102.74C152.276 102.513 152.163 102.273 152.136 102.02L152.096 101.36C151.643 101.947 151.049 102.4 150.316 102.72C149.583 103.04 148.856 103.2 148.136 103.2C147.443 103.2 146.823 103.06 146.276 102.78C145.729 102.487 145.303 102.1 144.996 101.62C144.689 101.127 144.536 100.58 144.536 99.98ZM151.336 100.72C151.496 100.533 151.623 100.347 151.716 100.16C151.809 99.96 151.856 99.7933 151.856 99.66V98.36C151.443 98.2 151.009 98.08 150.556 98C150.103 97.9067 149.656 97.86 149.216 97.86C148.323 97.86 147.596 98.04 147.036 98.4C146.489 98.7467 146.216 99.2267 146.216 99.84C146.216 100.173 146.303 100.5 146.476 100.82C146.663 101.127 146.929 101.38 147.276 101.58C147.636 101.78 148.076 101.88 148.596 101.88C149.143 101.88 149.663 101.773 150.156 101.56C150.649 101.333 151.043 101.053 151.336 100.72ZM161.752 102.48C161.605 102.547 161.405 102.633 161.152 102.74C160.899 102.847 160.605 102.94 160.272 103.02C159.939 103.1 159.585 103.14 159.212 103.14C158.785 103.14 158.392 103.067 158.032 102.92C157.672 102.76 157.385 102.52 157.172 102.2C156.959 101.867 156.852 101.453 156.852 100.96V93.94H155.432V92.56H156.852V89.08H158.612V92.56H160.952V93.94H158.612V100.42C158.639 100.793 158.765 101.073 158.992 101.26C159.219 101.433 159.485 101.52 159.792 101.52C160.139 101.52 160.459 101.46 160.752 101.34C161.045 101.22 161.239 101.133 161.332 101.08L161.752 102.48ZM167.867 103.2C167.08 103.2 166.36 103.06 165.707 102.78C165.067 102.487 164.507 102.093 164.027 101.6C163.56 101.093 163.193 100.513 162.927 99.86C162.673 99.2067 162.547 98.5133 162.547 97.78C162.547 96.7933 162.773 95.8933 163.227 95.08C163.68 94.2667 164.307 93.6133 165.107 93.12C165.92 92.6267 166.847 92.38 167.887 92.38C168.94 92.38 169.853 92.6333 170.627 93.14C171.413 93.6333 172.02 94.2867 172.447 95.1C172.887 95.9 173.107 96.7667 173.107 97.7C173.107 97.8333 173.1 97.9667 173.087 98.1C173.087 98.22 173.08 98.3133 173.067 98.38H164.407C164.46 99.06 164.647 99.6667 164.967 100.2C165.3 100.72 165.727 101.133 166.247 101.44C166.767 101.733 167.327 101.88 167.927 101.88C168.567 101.88 169.167 101.72 169.727 101.4C170.3 101.08 170.693 100.66 170.907 100.14L172.427 100.56C172.2 101.067 171.86 101.52 171.407 101.92C170.967 102.32 170.44 102.633 169.827 102.86C169.227 103.087 168.573 103.2 167.867 103.2ZM164.347 97.16H171.467C171.413 96.48 171.22 95.88 170.887 95.36C170.553 94.84 170.127 94.4333 169.607 94.14C169.087 93.8467 168.513 93.7 167.887 93.7C167.273 93.7 166.707 93.8467 166.187 94.14C165.667 94.4333 165.24 94.84 164.907 95.36C164.587 95.88 164.4 96.48 164.347 97.16ZM179.223 103.12C178.516 103.12 177.863 102.98 177.263 102.7C176.676 102.407 176.17 102.013 175.743 101.52C175.316 101.013 174.983 100.44 174.743 99.8C174.516 99.16 174.403 98.4933 174.403 97.8C174.403 97.0667 174.516 96.3733 174.743 95.72C174.983 95.0667 175.316 94.4933 175.743 94C176.183 93.4933 176.696 93.1 177.283 92.82C177.87 92.5267 178.523 92.38 179.243 92.38C180.11 92.38 180.863 92.5933 181.503 93.02C182.156 93.4467 182.703 93.9867 183.143 94.64V92.56H184.703V102.88C184.703 103.867 184.463 104.7 183.983 105.38C183.516 106.06 182.876 106.573 182.063 106.92C181.263 107.28 180.37 107.46 179.383 107.46C178.21 107.46 177.25 107.253 176.503 106.84C175.756 106.427 175.136 105.867 174.643 105.16L175.663 104.26C176.076 104.873 176.61 105.333 177.263 105.64C177.93 105.947 178.636 106.1 179.383 106.1C180.023 106.1 180.61 105.98 181.143 105.74C181.69 105.513 182.123 105.16 182.443 104.68C182.776 104.2 182.943 103.6 182.943 102.88V101.04C182.556 101.68 182.023 102.187 181.343 102.56C180.676 102.933 179.97 103.12 179.223 103.12ZM179.763 101.68C180.136 101.68 180.496 101.613 180.843 101.48C181.19 101.347 181.51 101.173 181.803 100.96C182.096 100.733 182.343 100.48 182.543 100.2C182.743 99.92 182.876 99.6333 182.943 99.34V96.34C182.756 95.86 182.49 95.44 182.143 95.08C181.796 94.7067 181.403 94.42 180.963 94.22C180.523 94.0067 180.07 93.9 179.603 93.9C179.07 93.9 178.59 94.0133 178.163 94.24C177.75 94.4667 177.396 94.7733 177.103 95.16C176.81 95.5333 176.583 95.9533 176.423 96.42C176.263 96.8867 176.183 97.36 176.183 97.84C176.183 98.36 176.276 98.8533 176.463 99.32C176.65 99.7733 176.903 100.18 177.223 100.54C177.543 100.9 177.923 101.18 178.363 101.38C178.803 101.58 179.27 101.68 179.763 101.68ZM188.023 105.84C188.197 105.853 188.37 105.867 188.543 105.88C188.717 105.907 188.85 105.92 188.943 105.92C189.157 105.92 189.343 105.847 189.503 105.7C189.663 105.553 189.837 105.267 190.023 104.84C190.223 104.427 190.477 103.813 190.783 103L186.363 92.56H188.223L191.743 101.22L194.923 92.56H196.663L191.583 105.74C191.463 106.047 191.283 106.333 191.043 106.6C190.817 106.88 190.523 107.1 190.163 107.26C189.803 107.42 189.37 107.5 188.863 107.5C188.743 107.5 188.617 107.493 188.483 107.48C188.363 107.467 188.21 107.44 188.023 107.4V105.84Z" fill="#00ABB8"/>
<rect x="89" y="124" width="50" height="4" fill="#00ABB8"/>
</svg>
