<svg width="231" height="212" viewBox="0 0 231 212" fill="none" xmlns="http://www.w3.org/2000/svg">
<rect width="231" height="212" fill="#042B3D" fill-opacity="0.8"/>
<path d="M22.5974 79V64.8H28.5174C29.1441 64.8 29.7174 64.9333 30.2374 65.2C30.7574 65.4533 31.2107 65.8 31.5974 66.24C31.9841 66.6667 32.2841 67.1533 32.4974 67.7C32.7107 68.2333 32.8174 68.78 32.8174 69.34C32.8174 70.1133 32.6441 70.8533 32.2974 71.56C31.9507 72.2533 31.4641 72.82 30.8374 73.26C30.2107 73.6867 29.4774 73.9 28.6374 73.9H24.3974V79H22.5974ZM24.3974 72.3H28.5374C29.0307 72.3 29.4574 72.1667 29.8174 71.9C30.1907 71.6333 30.4774 71.2733 30.6774 70.82C30.8907 70.3667 30.9974 69.8733 30.9974 69.34C30.9974 68.78 30.8774 68.28 30.6374 67.84C30.3974 67.3867 30.0841 67.0333 29.6974 66.78C29.3107 66.5267 28.8841 66.4 28.4174 66.4H24.3974V72.3ZM39.143 79.2C38.3563 79.2 37.643 79.06 37.003 78.78C36.363 78.4867 35.8097 78.0933 35.343 77.6C34.8763 77.0933 34.5163 76.5133 34.263 75.86C34.0097 75.2067 33.883 74.52 33.883 73.8C33.883 73.0667 34.0097 72.3733 34.263 71.72C34.5163 71.0667 34.8763 70.4933 35.343 70C35.8097 69.4933 36.363 69.1 37.003 68.82C37.6563 68.5267 38.3697 68.38 39.143 68.38C39.9297 68.38 40.643 68.5267 41.283 68.82C41.923 69.1 42.4763 69.4933 42.943 70C43.423 70.4933 43.7897 71.0667 44.043 71.72C44.2963 72.3733 44.423 73.0667 44.423 73.8C44.423 74.52 44.2963 75.2067 44.043 75.86C43.7897 76.5133 43.4297 77.0933 42.963 77.6C42.4963 78.0933 41.9363 78.4867 41.283 78.78C40.643 79.06 39.9297 79.2 39.143 79.2ZM35.683 73.82C35.683 74.54 35.8363 75.1933 36.143 75.78C36.463 76.3667 36.883 76.8333 37.403 77.18C37.923 77.5133 38.503 77.68 39.143 77.68C39.783 77.68 40.363 77.5067 40.883 77.16C41.4163 76.8133 41.8363 76.3467 42.143 75.76C42.463 75.16 42.623 74.5 42.623 73.78C42.623 73.06 42.463 72.4067 42.143 71.82C41.8363 71.2333 41.4163 70.7667 40.883 70.42C40.363 70.0733 39.783 69.9 39.143 69.9C38.503 69.9 37.923 70.08 37.403 70.44C36.883 70.7867 36.463 71.2533 36.143 71.84C35.8363 72.4267 35.683 73.0867 35.683 73.82ZM50.1357 79.2C49.269 79.2 48.4557 79.06 47.6957 78.78C46.9357 78.4867 46.2823 78.0533 45.7357 77.48L46.4157 76.24C47.0157 76.8 47.6157 77.2 48.2157 77.44C48.8157 77.68 49.429 77.8 50.0557 77.8C50.7757 77.8 51.3623 77.6667 51.8157 77.4C52.269 77.12 52.4957 76.7133 52.4957 76.18C52.4957 75.7933 52.3757 75.5067 52.1357 75.32C51.909 75.1333 51.5823 74.98 51.1557 74.86C50.729 74.7267 50.2223 74.58 49.6357 74.42C48.9157 74.2067 48.309 73.98 47.8157 73.74C47.3223 73.5 46.949 73.2 46.6957 72.84C46.4423 72.48 46.3157 72.0267 46.3157 71.48C46.3157 70.8133 46.489 70.2533 46.8357 69.8C47.1823 69.3333 47.6557 68.98 48.2557 68.74C48.869 68.5 49.5623 68.38 50.3357 68.38C51.109 68.38 51.809 68.5 52.4357 68.74C53.0623 68.98 53.6023 69.3333 54.0557 69.8L53.2557 71.02C52.8423 70.5933 52.389 70.28 51.8957 70.08C51.4023 69.8667 50.849 69.76 50.2357 69.76C49.8757 69.76 49.5223 69.8067 49.1757 69.9C48.829 69.98 48.5423 70.1333 48.3157 70.36C48.089 70.5733 47.9757 70.88 47.9757 71.28C47.9757 71.6133 48.0623 71.88 48.2357 72.08C48.4223 72.2667 48.689 72.4267 49.0357 72.56C49.3957 72.6933 49.829 72.84 50.3357 73C51.1223 73.2267 51.8023 73.4533 52.3757 73.68C52.9623 73.9067 53.4157 74.2 53.7357 74.56C54.0557 74.92 54.2157 75.42 54.2157 76.06C54.2157 77.0467 53.8423 77.82 53.0957 78.38C52.349 78.9267 51.3623 79.2 50.1357 79.2ZM61.7213 78.48C61.5746 78.5467 61.3746 78.6333 61.1213 78.74C60.868 78.8467 60.5746 78.94 60.2413 79.02C59.908 79.1 59.5546 79.14 59.1813 79.14C58.7546 79.14 58.3613 79.0667 58.0013 78.92C57.6413 78.76 57.3546 78.52 57.1413 78.2C56.928 77.8667 56.8213 77.4533 56.8213 76.96V69.94H55.4013V68.56H56.8213V65.08H58.5813V68.56H60.9213V69.94H58.5813V76.42C58.608 76.7933 58.7346 77.0733 58.9613 77.26C59.188 77.4333 59.4546 77.52 59.7613 77.52C60.108 77.52 60.428 77.46 60.7213 77.34C61.0146 77.22 61.208 77.1333 61.3013 77.08L61.7213 78.48ZM72.3861 64.8H73.9061L79.7061 79H77.7861L76.1061 74.84H70.1461L68.4861 79H66.5661L72.3861 64.8ZM75.7061 73.44L73.1461 66.88L70.5061 73.44H75.7061ZM93.6982 68.56H95.3982L90.9582 79H89.4182L87.3982 74.08L85.3982 79H83.8582L79.4182 68.56H81.0982L84.6982 77.26L86.3782 72.98L84.6182 68.58H86.1582L87.3982 71.9L88.6382 68.58H90.1782L88.4382 72.98L90.1182 77.26L93.6982 68.56ZM95.97 75.98C95.97 75.3133 96.1567 74.74 96.53 74.26C96.9167 73.7667 97.4434 73.3867 98.11 73.12C98.7767 72.8533 99.55 72.72 100.43 72.72C100.897 72.72 101.39 72.76 101.91 72.84C102.43 72.9067 102.89 73.0133 103.29 73.16V72.4C103.29 71.6 103.05 70.9733 102.57 70.52C102.09 70.0533 101.41 69.82 100.53 69.82C99.9567 69.82 99.4034 69.9267 98.87 70.14C98.35 70.34 97.7967 70.6333 97.21 71.02L96.57 69.78C97.25 69.3133 97.93 68.9667 98.61 68.74C99.29 68.5 99.9967 68.38 100.73 68.38C102.063 68.38 103.117 68.7533 103.89 69.5C104.663 70.2333 105.05 71.26 105.05 72.58V77C105.05 77.2133 105.09 77.3733 105.17 77.48C105.263 77.5733 105.41 77.6267 105.61 77.64V79C105.437 79.0267 105.283 79.0467 105.15 79.06C105.03 79.0733 104.93 79.08 104.85 79.08C104.437 79.08 104.123 78.9667 103.91 78.74C103.71 78.5133 103.597 78.2733 103.57 78.02L103.53 77.36C103.077 77.9467 102.483 78.4 101.75 78.72C101.017 79.04 100.29 79.2 99.57 79.2C98.8767 79.2 98.2567 79.06 97.71 78.78C97.1634 78.4867 96.7367 78.1 96.43 77.62C96.1234 77.1267 95.97 76.58 95.97 75.98ZM102.77 76.72C102.93 76.5333 103.057 76.3467 103.15 76.16C103.243 75.96 103.29 75.7933 103.29 75.66V74.36C102.877 74.2 102.443 74.08 101.99 74C101.537 73.9067 101.09 73.86 100.65 73.86C99.7567 73.86 99.03 74.04 98.47 74.4C97.9234 74.7467 97.65 75.2267 97.65 75.84C97.65 76.1733 97.7367 76.5 97.91 76.82C98.0967 77.1267 98.3634 77.38 98.71 77.58C99.07 77.78 99.51 77.88 100.03 77.88C100.577 77.88 101.097 77.7733 101.59 77.56C102.083 77.3333 102.477 77.0533 102.77 76.72ZM113.384 70.1C112.504 70.1133 111.724 70.34 111.044 70.78C110.378 71.2067 109.904 71.8 109.624 72.56V79H107.864V68.56H109.504V70.98C109.864 70.26 110.338 69.68 110.924 69.24C111.524 68.7867 112.151 68.5333 112.804 68.48C112.938 68.48 113.051 68.48 113.144 68.48C113.238 68.48 113.318 68.4867 113.384 68.5V70.1ZM114.255 73.8C114.255 72.8133 114.455 71.9133 114.855 71.1C115.268 70.2733 115.828 69.6133 116.535 69.12C117.255 68.6267 118.075 68.38 118.995 68.38C119.835 68.38 120.588 68.6 121.255 69.04C121.921 69.48 122.441 70.0133 122.815 70.64V64.4H124.575V77C124.575 77.2133 124.615 77.3733 124.695 77.48C124.788 77.5733 124.935 77.6267 125.135 77.64V79C124.801 79.0533 124.541 79.08 124.355 79.08C124.008 79.08 123.701 78.96 123.435 78.72C123.181 78.48 123.055 78.2133 123.055 77.92V77.04C122.641 77.7067 122.088 78.2333 121.395 78.62C120.701 79.0067 119.981 79.2 119.235 79.2C118.515 79.2 117.848 79.06 117.235 78.78C116.635 78.4867 116.108 78.0867 115.655 77.58C115.215 77.0733 114.868 76.5 114.615 75.86C114.375 75.2067 114.255 74.52 114.255 73.8ZM122.815 75.34V72.34C122.655 71.8867 122.395 71.48 122.035 71.12C121.675 70.7467 121.268 70.4533 120.815 70.24C120.375 70.0133 119.935 69.9 119.495 69.9C118.975 69.9 118.501 70.0133 118.075 70.24C117.661 70.4533 117.301 70.7467 116.995 71.12C116.701 71.48 116.475 71.8933 116.315 72.36C116.155 72.8267 116.075 73.3133 116.075 73.82C116.075 74.34 116.161 74.8333 116.335 75.3C116.521 75.7667 116.775 76.18 117.095 76.54C117.428 76.9 117.808 77.18 118.235 77.38C118.675 77.58 119.148 77.68 119.655 77.68C119.975 77.68 120.301 77.62 120.635 77.5C120.981 77.38 121.308 77.2133 121.615 77C121.921 76.7867 122.181 76.54 122.395 76.26C122.608 75.9667 122.748 75.66 122.815 75.34ZM131.931 71.8C131.931 70.9333 132.078 70.0867 132.371 69.26C132.678 68.42 133.118 67.66 133.691 66.98C134.278 66.2867 134.991 65.74 135.831 65.34C136.671 64.9267 137.625 64.72 138.691 64.72C139.958 64.72 141.045 65.0133 141.951 65.6C142.858 66.1733 143.531 66.9133 143.971 67.82L142.551 68.74C142.271 68.14 141.911 67.6667 141.471 67.32C141.045 66.96 140.578 66.7067 140.071 66.56C139.578 66.4133 139.091 66.34 138.611 66.34C137.825 66.34 137.125 66.5 136.511 66.82C135.911 67.14 135.405 67.5667 134.991 68.1C134.578 68.6333 134.265 69.2333 134.051 69.9C133.851 70.5533 133.751 71.2133 133.751 71.88C133.751 72.6133 133.871 73.32 134.111 74C134.365 74.68 134.711 75.28 135.151 75.8C135.591 76.32 136.111 76.7333 136.711 77.04C137.311 77.3467 137.965 77.5 138.671 77.5C139.165 77.5 139.671 77.4133 140.191 77.24C140.711 77.0667 141.198 76.8 141.651 76.44C142.105 76.0667 142.465 75.5867 142.731 75L144.231 75.82C143.938 76.5267 143.485 77.1267 142.871 77.62C142.258 78.1133 141.571 78.4867 140.811 78.74C140.065 78.9933 139.325 79.12 138.591 79.12C137.618 79.12 136.725 78.9133 135.911 78.5C135.098 78.0733 134.391 77.5133 133.791 76.82C133.205 76.1133 132.745 75.3267 132.411 74.46C132.091 73.58 131.931 72.6933 131.931 71.8ZM150.764 79.2C149.977 79.2 149.264 79.06 148.624 78.78C147.984 78.4867 147.431 78.0933 146.964 77.6C146.497 77.0933 146.137 76.5133 145.884 75.86C145.631 75.2067 145.504 74.52 145.504 73.8C145.504 73.0667 145.631 72.3733 145.884 71.72C146.137 71.0667 146.497 70.4933 146.964 70C147.431 69.4933 147.984 69.1 148.624 68.82C149.277 68.5267 149.991 68.38 150.764 68.38C151.551 68.38 152.264 68.5267 152.904 68.82C153.544 69.1 154.097 69.4933 154.564 70C155.044 70.4933 155.411 71.0667 155.664 71.72C155.917 72.3733 156.044 73.0667 156.044 73.8C156.044 74.52 155.917 75.2067 155.664 75.86C155.411 76.5133 155.051 77.0933 154.584 77.6C154.117 78.0933 153.557 78.4867 152.904 78.78C152.264 79.06 151.551 79.2 150.764 79.2ZM147.304 73.82C147.304 74.54 147.457 75.1933 147.764 75.78C148.084 76.3667 148.504 76.8333 149.024 77.18C149.544 77.5133 150.124 77.68 150.764 77.68C151.404 77.68 151.984 77.5067 152.504 77.16C153.037 76.8133 153.457 76.3467 153.764 75.76C154.084 75.16 154.244 74.5 154.244 73.78C154.244 73.06 154.084 72.4067 153.764 71.82C153.457 71.2333 153.037 70.7667 152.504 70.42C151.984 70.0733 151.404 69.9 150.764 69.9C150.124 69.9 149.544 70.08 149.024 70.44C148.504 70.7867 148.084 71.2533 147.764 71.84C147.457 72.4267 147.304 73.0867 147.304 73.82ZM167.237 79H165.477V73.16C165.477 72.0533 165.303 71.2467 164.957 70.74C164.623 70.22 164.11 69.96 163.417 69.96C162.937 69.96 162.457 70.08 161.977 70.32C161.51 70.56 161.09 70.8867 160.717 71.3C160.357 71.7 160.097 72.1667 159.937 72.7V79H158.177V68.56H159.777V70.8C160.057 70.3067 160.417 69.88 160.857 69.52C161.297 69.16 161.797 68.88 162.357 68.68C162.917 68.48 163.503 68.38 164.117 68.38C164.717 68.38 165.217 68.4933 165.617 68.72C166.03 68.9333 166.35 69.24 166.577 69.64C166.817 70.0267 166.983 70.4867 167.077 71.02C167.183 71.5533 167.237 72.1333 167.237 72.76V79ZM175.276 78.48C175.129 78.5467 174.929 78.6333 174.676 78.74C174.423 78.8467 174.129 78.94 173.796 79.02C173.463 79.1 173.109 79.14 172.736 79.14C172.309 79.14 171.916 79.0667 171.556 78.92C171.196 78.76 170.909 78.52 170.696 78.2C170.483 77.8667 170.376 77.4533 170.376 76.96V69.94H168.956V68.56H170.376V65.08H172.136V68.56H174.476V69.94H172.136V76.42C172.163 76.7933 172.289 77.0733 172.516 77.26C172.743 77.4333 173.009 77.52 173.316 77.52C173.663 77.52 173.983 77.46 174.276 77.34C174.569 77.22 174.763 77.1333 174.856 77.08L175.276 78.48ZM182.427 70.1C181.547 70.1133 180.767 70.34 180.087 70.78C179.421 71.2067 178.947 71.8 178.667 72.56V79H176.907V68.56H178.547V70.98C178.907 70.26 179.381 69.68 179.967 69.24C180.567 68.7867 181.194 68.5333 181.847 68.48C181.981 68.48 182.094 68.48 182.187 68.48C182.281 68.48 182.361 68.4867 182.427 68.5V70.1ZM183.353 75.98C183.353 75.3133 183.54 74.74 183.913 74.26C184.3 73.7667 184.826 73.3867 185.493 73.12C186.16 72.8533 186.933 72.72 187.813 72.72C188.28 72.72 188.773 72.76 189.293 72.84C189.813 72.9067 190.273 73.0133 190.673 73.16V72.4C190.673 71.6 190.433 70.9733 189.953 70.52C189.473 70.0533 188.793 69.82 187.913 69.82C187.34 69.82 186.786 69.9267 186.253 70.14C185.733 70.34 185.18 70.6333 184.593 71.02L183.953 69.78C184.633 69.3133 185.313 68.9667 185.993 68.74C186.673 68.5 187.38 68.38 188.113 68.38C189.446 68.38 190.5 68.7533 191.273 69.5C192.046 70.2333 192.433 71.26 192.433 72.58V77C192.433 77.2133 192.473 77.3733 192.553 77.48C192.646 77.5733 192.793 77.6267 192.993 77.64V79C192.82 79.0267 192.666 79.0467 192.533 79.06C192.413 79.0733 192.313 79.08 192.233 79.08C191.82 79.08 191.506 78.9667 191.293 78.74C191.093 78.5133 190.98 78.2733 190.953 78.02L190.913 77.36C190.46 77.9467 189.866 78.4 189.133 78.72C188.4 79.04 187.673 79.2 186.953 79.2C186.26 79.2 185.64 79.06 185.093 78.78C184.546 78.4867 184.12 78.1 183.813 77.62C183.506 77.1267 183.353 76.58 183.353 75.98ZM190.153 76.72C190.313 76.5333 190.44 76.3467 190.533 76.16C190.626 75.96 190.673 75.7933 190.673 75.66V74.36C190.26 74.2 189.826 74.08 189.373 74C188.92 73.9067 188.473 73.86 188.033 73.86C187.14 73.86 186.413 74.04 185.853 74.4C185.306 74.7467 185.033 75.2267 185.033 75.84C185.033 76.1733 185.12 76.5 185.293 76.82C185.48 77.1267 185.746 77.38 186.093 77.58C186.453 77.78 186.893 77.88 187.413 77.88C187.96 77.88 188.48 77.7733 188.973 77.56C189.466 77.3333 189.86 77.0533 190.153 76.72ZM199.867 79.2C199.08 79.2 198.36 79.06 197.707 78.78C197.067 78.4867 196.507 78.0867 196.027 77.58C195.56 77.0733 195.194 76.4933 194.927 75.84C194.674 75.1867 194.547 74.4933 194.547 73.76C194.547 72.7733 194.767 71.8733 195.207 71.06C195.647 70.2467 196.267 69.6 197.067 69.12C197.867 68.6267 198.794 68.38 199.847 68.38C200.874 68.38 201.767 68.6133 202.527 69.08C203.3 69.5333 203.874 70.1467 204.247 70.92L202.527 71.46C202.26 70.9667 201.887 70.5867 201.407 70.32C200.927 70.04 200.394 69.9 199.807 69.9C199.167 69.9 198.58 70.0667 198.047 70.4C197.527 70.7333 197.114 71.1933 196.807 71.78C196.5 72.3533 196.347 73.0133 196.347 73.76C196.347 74.4933 196.5 75.16 196.807 75.76C197.127 76.3467 197.547 76.8133 198.067 77.16C198.6 77.5067 199.187 77.68 199.827 77.68C200.24 77.68 200.634 77.6067 201.007 77.46C201.394 77.3133 201.727 77.12 202.007 76.88C202.3 76.6267 202.5 76.3533 202.607 76.06L204.327 76.58C204.114 77.0867 203.787 77.54 203.347 77.94C202.92 78.3267 202.407 78.6333 201.807 78.86C201.22 79.0867 200.574 79.2 199.867 79.2ZM211.721 78.48C211.575 78.5467 211.375 78.6333 211.121 78.74C210.868 78.8467 210.575 78.94 210.241 79.02C209.908 79.1 209.555 79.14 209.181 79.14C208.755 79.14 208.361 79.0667 208.001 78.92C207.641 78.76 207.355 78.52 207.141 78.2C206.928 77.8667 206.821 77.4533 206.821 76.96V69.94H205.401V68.56H206.821V65.08H208.581V68.56H210.921V69.94H208.581V76.42C208.608 76.7933 208.735 77.0733 208.961 77.26C209.188 77.4333 209.455 77.52 209.761 77.52C210.108 77.52 210.428 77.46 210.721 77.34C211.015 77.22 211.208 77.1333 211.301 77.08L211.721 78.48ZM68.0707 103V92.16L63.3907 100.5H62.2907L57.5907 92.16V103H55.7907V88.8H57.6907L62.8307 98.02L67.9907 88.8H69.8707V103H68.0707ZM72.0736 99.98C72.0736 99.3133 72.2602 98.74 72.6336 98.26C73.0202 97.7667 73.5469 97.3867 74.2136 97.12C74.8802 96.8533 75.6536 96.72 76.5336 96.72C77.0002 96.72 77.4936 96.76 78.0136 96.84C78.5336 96.9067 78.9936 97.0133 79.3936 97.16V96.4C79.3936 95.6 79.1536 94.9733 78.6736 94.52C78.1936 94.0533 77.5136 93.82 76.6336 93.82C76.0602 93.82 75.5069 93.9267 74.9736 94.14C74.4536 94.34 73.9002 94.6333 73.3136 95.02L72.6736 93.78C73.3536 93.3133 74.0336 92.9667 74.7136 92.74C75.3936 92.5 76.1002 92.38 76.8336 92.38C78.1669 92.38 79.2202 92.7533 79.9936 93.5C80.7669 94.2333 81.1536 95.26 81.1536 96.58V101C81.1536 101.213 81.1936 101.373 81.2736 101.48C81.3669 101.573 81.5136 101.627 81.7136 101.64V103C81.5402 103.027 81.3869 103.047 81.2536 103.06C81.1336 103.073 81.0336 103.08 80.9536 103.08C80.5402 103.08 80.2269 102.967 80.0136 102.74C79.8136 102.513 79.7002 102.273 79.6736 102.02L79.6336 101.36C79.1802 101.947 78.5869 102.4 77.8536 102.72C77.1202 103.04 76.3936 103.2 75.6736 103.2C74.9802 103.2 74.3602 103.06 73.8136 102.78C73.2669 102.487 72.8402 102.1 72.5336 101.62C72.2269 101.127 72.0736 100.58 72.0736 99.98ZM78.8736 100.72C79.0336 100.533 79.1602 100.347 79.2536 100.16C79.3469 99.96 79.3936 99.7933 79.3936 99.66V98.36C78.9802 98.2 78.5469 98.08 78.0936 98C77.6402 97.9067 77.1936 97.86 76.7536 97.86C75.8602 97.86 75.1336 98.04 74.5736 98.4C74.0269 98.7467 73.7536 99.2267 73.7536 99.84C73.7536 100.173 73.8402 100.5 74.0136 100.82C74.2002 101.127 74.4669 101.38 74.8136 101.58C75.1736 101.78 75.6136 101.88 76.1336 101.88C76.6802 101.88 77.2002 101.773 77.6936 101.56C78.1869 101.333 78.5802 101.053 78.8736 100.72ZM93.0278 103H91.2678V97.16C91.2678 96.0533 91.0944 95.2467 90.7478 94.74C90.4144 94.22 89.9011 93.96 89.2078 93.96C88.7278 93.96 88.2478 94.08 87.7678 94.32C87.3011 94.56 86.8811 94.8867 86.5078 95.3C86.1478 95.7 85.8878 96.1667 85.7278 96.7V103H83.9678V92.56H85.5678V94.8C85.8478 94.3067 86.2078 93.88 86.6478 93.52C87.0878 93.16 87.5878 92.88 88.1478 92.68C88.7078 92.48 89.2944 92.38 89.9078 92.38C90.5078 92.38 91.0078 92.4933 91.4078 92.72C91.8211 92.9333 92.1411 93.24 92.3678 93.64C92.6078 94.0267 92.7744 94.4867 92.8678 95.02C92.9744 95.5533 93.0278 96.1333 93.0278 96.76V103ZM94.9447 99.98C94.9447 99.3133 95.1313 98.74 95.5047 98.26C95.8913 97.7667 96.418 97.3867 97.0847 97.12C97.7513 96.8533 98.5247 96.72 99.4047 96.72C99.8713 96.72 100.365 96.76 100.885 96.84C101.405 96.9067 101.865 97.0133 102.265 97.16V96.4C102.265 95.6 102.025 94.9733 101.545 94.52C101.065 94.0533 100.385 93.82 99.5047 93.82C98.9313 93.82 98.378 93.9267 97.8447 94.14C97.3247 94.34 96.7713 94.6333 96.1847 95.02L95.5447 93.78C96.2247 93.3133 96.9047 92.9667 97.5847 92.74C98.2647 92.5 98.9713 92.38 99.7047 92.38C101.038 92.38 102.091 92.7533 102.865 93.5C103.638 94.2333 104.025 95.26 104.025 96.58V101C104.025 101.213 104.065 101.373 104.145 101.48C104.238 101.573 104.385 101.627 104.585 101.64V103C104.411 103.027 104.258 103.047 104.125 103.06C104.005 103.073 103.905 103.08 103.825 103.08C103.411 103.08 103.098 102.967 102.885 102.74C102.685 102.513 102.571 102.273 102.545 102.02L102.505 101.36C102.051 101.947 101.458 102.4 100.725 102.72C99.9913 103.04 99.2647 103.2 98.5447 103.2C97.8513 103.2 97.2313 103.06 96.6847 102.78C96.138 102.487 95.7113 102.1 95.4047 101.62C95.098 101.127 94.9447 100.58 94.9447 99.98ZM101.745 100.72C101.905 100.533 102.031 100.347 102.125 100.16C102.218 99.96 102.265 99.7933 102.265 99.66V98.36C101.851 98.2 101.418 98.08 100.965 98C100.511 97.9067 100.065 97.86 99.6247 97.86C98.7313 97.86 98.0047 98.04 97.4447 98.4C96.898 98.7467 96.6247 99.2267 96.6247 99.84C96.6247 100.173 96.7113 100.5 96.8847 100.82C97.0713 101.127 97.338 101.38 97.6847 101.58C98.0447 101.78 98.4847 101.88 99.0047 101.88C99.5513 101.88 100.071 101.773 100.565 101.56C101.058 101.333 101.451 101.053 101.745 100.72ZM110.999 103.12C110.292 103.12 109.639 102.98 109.039 102.7C108.452 102.407 107.946 102.013 107.519 101.52C107.092 101.013 106.759 100.44 106.519 99.8C106.292 99.16 106.179 98.4933 106.179 97.8C106.179 97.0667 106.292 96.3733 106.519 95.72C106.759 95.0667 107.092 94.4933 107.519 94C107.959 93.4933 108.472 93.1 109.059 92.82C109.646 92.5267 110.299 92.38 111.019 92.38C111.886 92.38 112.639 92.5933 113.279 93.02C113.932 93.4467 114.479 93.9867 114.919 94.64V92.56H116.479V102.88C116.479 103.867 116.239 104.7 115.759 105.38C115.292 106.06 114.652 106.573 113.839 106.92C113.039 107.28 112.146 107.46 111.159 107.46C109.986 107.46 109.026 107.253 108.279 106.84C107.532 106.427 106.912 105.867 106.419 105.16L107.439 104.26C107.852 104.873 108.386 105.333 109.039 105.64C109.706 105.947 110.412 106.1 111.159 106.1C111.799 106.1 112.386 105.98 112.919 105.74C113.466 105.513 113.899 105.16 114.219 104.68C114.552 104.2 114.719 103.6 114.719 102.88V101.04C114.332 101.68 113.799 102.187 113.119 102.56C112.452 102.933 111.746 103.12 110.999 103.12ZM111.539 101.68C111.912 101.68 112.272 101.613 112.619 101.48C112.966 101.347 113.286 101.173 113.579 100.96C113.872 100.733 114.119 100.48 114.319 100.2C114.519 99.92 114.652 99.6333 114.719 99.34V96.34C114.532 95.86 114.266 95.44 113.919 95.08C113.572 94.7067 113.179 94.42 112.739 94.22C112.299 94.0067 111.846 93.9 111.379 93.9C110.846 93.9 110.366 94.0133 109.939 94.24C109.526 94.4667 109.172 94.7733 108.879 95.16C108.586 95.5333 108.359 95.9533 108.199 96.42C108.039 96.8867 107.959 97.36 107.959 97.84C107.959 98.36 108.052 98.8533 108.239 99.32C108.426 99.7733 108.679 100.18 108.999 100.54C109.319 100.9 109.699 101.18 110.139 101.38C110.579 101.58 111.046 101.68 111.539 101.68ZM123.939 103.2C123.153 103.2 122.433 103.06 121.779 102.78C121.139 102.487 120.579 102.093 120.099 101.6C119.633 101.093 119.266 100.513 118.999 99.86C118.746 99.2067 118.619 98.5133 118.619 97.78C118.619 96.7933 118.846 95.8933 119.299 95.08C119.753 94.2667 120.379 93.6133 121.179 93.12C121.993 92.6267 122.919 92.38 123.959 92.38C125.013 92.38 125.926 92.6333 126.699 93.14C127.486 93.6333 128.093 94.2867 128.519 95.1C128.959 95.9 129.179 96.7667 129.179 97.7C129.179 97.8333 129.173 97.9667 129.159 98.1C129.159 98.22 129.153 98.3133 129.139 98.38H120.479C120.533 99.06 120.719 99.6667 121.039 100.2C121.373 100.72 121.799 101.133 122.319 101.44C122.839 101.733 123.399 101.88 123.999 101.88C124.639 101.88 125.239 101.72 125.799 101.4C126.373 101.08 126.766 100.66 126.979 100.14L128.499 100.56C128.273 101.067 127.933 101.52 127.479 101.92C127.039 102.32 126.513 102.633 125.899 102.86C125.299 103.087 124.646 103.2 123.939 103.2ZM120.419 97.16H127.539C127.486 96.48 127.293 95.88 126.959 95.36C126.626 94.84 126.199 94.4333 125.679 94.14C125.159 93.8467 124.586 93.7 123.959 93.7C123.346 93.7 122.779 93.8467 122.259 94.14C121.739 94.4333 121.313 94.84 120.979 95.36C120.659 95.88 120.473 96.48 120.419 97.16ZM146.876 103H145.116V97.16C145.116 96.0667 144.936 95.26 144.576 94.74C144.229 94.22 143.709 93.96 143.016 93.96C142.309 93.96 141.669 94.22 141.096 94.74C140.522 95.2467 140.116 95.9067 139.876 96.72V103H138.116V97.16C138.116 96.0533 137.942 95.2467 137.596 94.74C137.249 94.22 136.729 93.96 136.036 93.96C135.342 93.96 134.702 94.2133 134.116 94.72C133.542 95.2133 133.136 95.8733 132.896 96.7V103H131.136V92.56H132.736V94.8C133.162 94.0267 133.716 93.4333 134.396 93.02C135.076 92.5933 135.842 92.38 136.696 92.38C137.562 92.38 138.256 92.62 138.776 93.1C139.296 93.5667 139.616 94.1733 139.736 94.92C140.202 94.0933 140.769 93.4667 141.436 93.04C142.102 92.6 142.862 92.38 143.716 92.38C144.316 92.38 144.816 92.4933 145.216 92.72C145.629 92.9333 145.956 93.24 146.196 93.64C146.436 94.0267 146.609 94.4867 146.716 95.02C146.822 95.5533 146.876 96.1333 146.876 96.76V103ZM154.232 103.2C153.446 103.2 152.726 103.06 152.072 102.78C151.432 102.487 150.872 102.093 150.392 101.6C149.926 101.093 149.559 100.513 149.292 99.86C149.039 99.2067 148.912 98.5133 148.912 97.78C148.912 96.7933 149.139 95.8933 149.592 95.08C150.046 94.2667 150.672 93.6133 151.472 93.12C152.286 92.6267 153.212 92.38 154.252 92.38C155.306 92.38 156.219 92.6333 156.992 93.14C157.779 93.6333 158.386 94.2867 158.812 95.1C159.252 95.9 159.472 96.7667 159.472 97.7C159.472 97.8333 159.466 97.9667 159.452 98.1C159.452 98.22 159.446 98.3133 159.432 98.38H150.772C150.826 99.06 151.012 99.6667 151.332 100.2C151.666 100.72 152.092 101.133 152.612 101.44C153.132 101.733 153.692 101.88 154.292 101.88C154.932 101.88 155.532 101.72 156.092 101.4C156.666 101.08 157.059 100.66 157.272 100.14L158.792 100.56C158.566 101.067 158.226 101.52 157.772 101.92C157.332 102.32 156.806 102.633 156.192 102.86C155.592 103.087 154.939 103.2 154.232 103.2ZM150.712 97.16H157.832C157.779 96.48 157.586 95.88 157.252 95.36C156.919 94.84 156.492 94.4333 155.972 94.14C155.452 93.8467 154.879 93.7 154.252 93.7C153.639 93.7 153.072 93.8467 152.552 94.14C152.032 94.4333 151.606 94.84 151.272 95.36C150.952 95.88 150.766 96.48 150.712 97.16ZM170.489 103H168.729V97.16C168.729 96.0533 168.555 95.2467 168.209 94.74C167.875 94.22 167.362 93.96 166.669 93.96C166.189 93.96 165.709 94.08 165.229 94.32C164.762 94.56 164.342 94.8867 163.969 95.3C163.609 95.7 163.349 96.1667 163.189 96.7V103H161.429V92.56H163.029V94.8C163.309 94.3067 163.669 93.88 164.109 93.52C164.549 93.16 165.049 92.88 165.609 92.68C166.169 92.48 166.755 92.38 167.369 92.38C167.969 92.38 168.469 92.4933 168.869 92.72C169.282 92.9333 169.602 93.24 169.829 93.64C170.069 94.0267 170.235 94.4867 170.329 95.02C170.435 95.5533 170.489 96.1333 170.489 96.76V103ZM178.528 102.48C178.381 102.547 178.181 102.633 177.928 102.74C177.675 102.847 177.381 102.94 177.048 103.02C176.715 103.1 176.361 103.14 175.988 103.14C175.561 103.14 175.168 103.067 174.808 102.92C174.448 102.76 174.161 102.52 173.948 102.2C173.735 101.867 173.628 101.453 173.628 100.96V93.94H172.208V92.56H173.628V89.08H175.388V92.56H177.728V93.94H175.388V100.42C175.415 100.793 175.541 101.073 175.768 101.26C175.995 101.433 176.261 101.52 176.568 101.52C176.915 101.52 177.235 101.46 177.528 101.34C177.821 101.22 178.015 101.133 178.108 101.08L178.528 102.48Z" fill="#00ABB8"/>
<rect x="91" y="124" width="50" height="4" fill="#00ABB8"/>
</svg>
