<svg width="223" height="212" viewBox="0 0 223 212" fill="none" xmlns="http://www.w3.org/2000/svg">
<rect width="215" height="212" transform="translate(8)" fill="#042B3D" fill-opacity="0.6"/>
<path d="M0.00656252 71.8C0.00656252 70.9333 0.153229 70.0867 0.446563 69.26C0.753229 68.42 1.19323 67.66 1.76656 66.98C2.35323 66.2867 3.06656 65.74 3.90656 65.34C4.74656 64.9267 5.6999 64.72 6.76656 64.72C8.03323 64.72 9.1199 65.0133 10.0266 65.6C10.9332 66.1733 11.6066 66.9133 12.0466 67.82L10.6266 68.74C10.3466 68.14 9.98656 67.6667 9.54656 67.32C9.1199 66.96 8.65323 66.7067 8.14656 66.56C7.65323 66.4133 7.16656 66.34 6.68656 66.34C5.8999 66.34 5.1999 66.5 4.58656 66.82C3.98656 67.14 3.4799 67.5667 3.06656 68.1C2.65323 68.6333 2.3399 69.2333 2.12656 69.9C1.92656 70.5533 1.82656 71.2133 1.82656 71.88C1.82656 72.6133 1.94656 73.32 2.18656 74C2.4399 74.68 2.78656 75.28 3.22656 75.8C3.66656 76.32 4.18656 76.7333 4.78656 77.04C5.38656 77.3467 6.0399 77.5 6.74656 77.5C7.2399 77.5 7.74656 77.4133 8.26656 77.24C8.78656 77.0667 9.27323 76.8 9.72656 76.44C10.1799 76.0667 10.5399 75.5867 10.8066 75L12.3066 75.82C12.0132 76.5267 11.5599 77.1267 10.9466 77.62C10.3332 78.1133 9.64656 78.4867 8.88656 78.74C8.1399 78.9933 7.3999 79.12 6.66656 79.12C5.69323 79.12 4.7999 78.9133 3.98656 78.5C3.17323 78.0733 2.46656 77.5133 1.86656 76.82C1.2799 76.1133 0.819896 75.3267 0.486563 74.46C0.166563 73.58 0.00656252 72.6933 0.00656252 71.8ZM18.8394 79.2C18.0527 79.2 17.3394 79.06 16.6994 78.78C16.0594 78.4867 15.506 78.0933 15.0394 77.6C14.5727 77.0933 14.2127 76.5133 13.9594 75.86C13.706 75.2067 13.5794 74.52 13.5794 73.8C13.5794 73.0667 13.706 72.3733 13.9594 71.72C14.2127 71.0667 14.5727 70.4933 15.0394 70C15.506 69.4933 16.0594 69.1 16.6994 68.82C17.3527 68.5267 18.066 68.38 18.8394 68.38C19.626 68.38 20.3394 68.5267 20.9794 68.82C21.6194 69.1 22.1727 69.4933 22.6394 70C23.1194 70.4933 23.486 71.0667 23.7394 71.72C23.9927 72.3733 24.1194 73.0667 24.1194 73.8C24.1194 74.52 23.9927 75.2067 23.7394 75.86C23.486 76.5133 23.126 77.0933 22.6594 77.6C22.1927 78.0933 21.6327 78.4867 20.9794 78.78C20.3394 79.06 19.626 79.2 18.8394 79.2ZM15.3794 73.82C15.3794 74.54 15.5327 75.1933 15.8394 75.78C16.1594 76.3667 16.5794 76.8333 17.0994 77.18C17.6194 77.5133 18.1994 77.68 18.8394 77.68C19.4794 77.68 20.0594 77.5067 20.5794 77.16C21.1127 76.8133 21.5327 76.3467 21.8394 75.76C22.1594 75.16 22.3194 74.5 22.3194 73.78C22.3194 73.06 22.1594 72.4067 21.8394 71.82C21.5327 71.2333 21.1127 70.7667 20.5794 70.42C20.0594 70.0733 19.4794 69.9 18.8394 69.9C18.1994 69.9 17.6194 70.08 17.0994 70.44C16.5794 70.7867 16.1594 71.2533 15.8394 71.84C15.5327 72.4267 15.3794 73.0867 15.3794 73.82ZM41.992 79H40.232V73.16C40.232 72.0667 40.052 71.26 39.692 70.74C39.3454 70.22 38.8254 69.96 38.132 69.96C37.4254 69.96 36.7854 70.22 36.212 70.74C35.6387 71.2467 35.232 71.9067 34.992 72.72V79H33.232V73.16C33.232 72.0533 33.0587 71.2467 32.712 70.74C32.3654 70.22 31.8454 69.96 31.152 69.96C30.4587 69.96 29.8187 70.2133 29.232 70.72C28.6587 71.2133 28.252 71.8733 28.012 72.7V79H26.252V68.56H27.852V70.8C28.2787 70.0267 28.832 69.4333 29.512 69.02C30.192 68.5933 30.9587 68.38 31.812 68.38C32.6787 68.38 33.372 68.62 33.892 69.1C34.412 69.5667 34.732 70.1733 34.852 70.92C35.3187 70.0933 35.8854 69.4667 36.552 69.04C37.2187 68.6 37.9787 68.38 38.832 68.38C39.432 68.38 39.932 68.4933 40.332 68.72C40.7454 68.9333 41.072 69.24 41.312 69.64C41.552 70.0267 41.7254 70.4867 41.832 71.02C41.9387 71.5533 41.992 72.1333 41.992 72.76V79ZM60.4686 79H58.7086V73.16C58.7086 72.0667 58.5286 71.26 58.1686 70.74C57.8219 70.22 57.3019 69.96 56.6086 69.96C55.9019 69.96 55.2619 70.22 54.6886 70.74C54.1153 71.2467 53.7086 71.9067 53.4686 72.72V79H51.7086V73.16C51.7086 72.0533 51.5353 71.2467 51.1886 70.74C50.8419 70.22 50.3219 69.96 49.6286 69.96C48.9353 69.96 48.2953 70.2133 47.7086 70.72C47.1353 71.2133 46.7286 71.8733 46.4886 72.7V79H44.7286V68.56H46.3286V70.8C46.7553 70.0267 47.3086 69.4333 47.9886 69.02C48.6686 68.5933 49.4353 68.38 50.2886 68.38C51.1553 68.38 51.8486 68.62 52.3686 69.1C52.8886 69.5667 53.2086 70.1733 53.3286 70.92C53.7953 70.0933 54.3619 69.4667 55.0286 69.04C55.6953 68.6 56.4553 68.38 57.3086 68.38C57.9086 68.38 58.4086 68.4933 58.8086 68.72C59.2219 68.9333 59.5486 69.24 59.7886 69.64C60.0286 70.0267 60.2019 70.4867 60.3086 71.02C60.4153 71.5533 60.4686 72.1333 60.4686 72.76V79ZM67.8252 79.2C67.0385 79.2 66.3185 79.06 65.6652 78.78C65.0252 78.4867 64.4652 78.0933 63.9852 77.6C63.5185 77.0933 63.1518 76.5133 62.8852 75.86C62.6318 75.2067 62.5052 74.5133 62.5052 73.78C62.5052 72.7933 62.7318 71.8933 63.1852 71.08C63.6385 70.2667 64.2652 69.6133 65.0652 69.12C65.8785 68.6267 66.8052 68.38 67.8452 68.38C68.8985 68.38 69.8118 68.6333 70.5852 69.14C71.3718 69.6333 71.9785 70.2867 72.4052 71.1C72.8452 71.9 73.0652 72.7667 73.0652 73.7C73.0652 73.8333 73.0585 73.9667 73.0452 74.1C73.0452 74.22 73.0385 74.3133 73.0252 74.38H64.3652C64.4185 75.06 64.6052 75.6667 64.9252 76.2C65.2585 76.72 65.6852 77.1333 66.2052 77.44C66.7252 77.7333 67.2852 77.88 67.8852 77.88C68.5252 77.88 69.1252 77.72 69.6852 77.4C70.2585 77.08 70.6518 76.66 70.8652 76.14L72.3852 76.56C72.1585 77.0667 71.8185 77.52 71.3652 77.92C70.9252 78.32 70.3985 78.6333 69.7852 78.86C69.1852 79.0867 68.5318 79.2 67.8252 79.2ZM64.3052 73.16H71.4252C71.3718 72.48 71.1785 71.88 70.8452 71.36C70.5118 70.84 70.0852 70.4333 69.5652 70.14C69.0452 69.8467 68.4718 69.7 67.8452 69.7C67.2318 69.7 66.6652 69.8467 66.1452 70.14C65.6252 70.4333 65.1985 70.84 64.8652 71.36C64.5452 71.88 64.3585 72.48 64.3052 73.16ZM80.5416 70.1C79.6616 70.1133 78.8816 70.34 78.2016 70.78C77.5349 71.2067 77.0616 71.8 76.7816 72.56V79H75.0216V68.56H76.6616V70.98C77.0216 70.26 77.4949 69.68 78.0816 69.24C78.6816 68.7867 79.3082 68.5333 79.9616 68.48C80.0949 68.48 80.2082 68.48 80.3016 68.48C80.3949 68.48 80.4749 68.4867 80.5416 68.5V70.1ZM86.6533 79.2C85.8666 79.2 85.1466 79.06 84.4933 78.78C83.8533 78.4867 83.2933 78.0867 82.8133 77.58C82.3466 77.0733 81.9799 76.4933 81.7133 75.84C81.4599 75.1867 81.3333 74.4933 81.3333 73.76C81.3333 72.7733 81.5533 71.8733 81.9933 71.06C82.4333 70.2467 83.0533 69.6 83.8533 69.12C84.6533 68.6267 85.5799 68.38 86.6333 68.38C87.6599 68.38 88.5533 68.6133 89.3133 69.08C90.0866 69.5333 90.6599 70.1467 91.0333 70.92L89.3133 71.46C89.0466 70.9667 88.6733 70.5867 88.1933 70.32C87.7133 70.04 87.1799 69.9 86.5933 69.9C85.9533 69.9 85.3666 70.0667 84.8333 70.4C84.3133 70.7333 83.8999 71.1933 83.5933 71.78C83.2866 72.3533 83.1333 73.0133 83.1333 73.76C83.1333 74.4933 83.2866 75.16 83.5933 75.76C83.9133 76.3467 84.3333 76.8133 84.8533 77.16C85.3866 77.5067 85.9733 77.68 86.6133 77.68C87.0266 77.68 87.4199 77.6067 87.7933 77.46C88.1799 77.3133 88.5133 77.12 88.7933 76.88C89.0866 76.6267 89.2866 76.3533 89.3933 76.06L91.1133 76.58C90.8999 77.0867 90.5733 77.54 90.1333 77.94C89.7066 78.3267 89.1933 78.6333 88.5933 78.86C88.0066 79.0867 87.3599 79.2 86.6533 79.2ZM93.1075 79V68.56H94.8675V79H93.1075ZM93.1075 66.6V64.4H94.8675V66.6H93.1075ZM96.8969 75.98C96.8969 75.3133 97.0835 74.74 97.4569 74.26C97.8435 73.7667 98.3702 73.3867 99.0369 73.12C99.7035 72.8533 100.477 72.72 101.357 72.72C101.824 72.72 102.317 72.76 102.837 72.84C103.357 72.9067 103.817 73.0133 104.217 73.16V72.4C104.217 71.6 103.977 70.9733 103.497 70.52C103.017 70.0533 102.337 69.82 101.457 69.82C100.884 69.82 100.33 69.9267 99.7969 70.14C99.2769 70.34 98.7235 70.6333 98.1369 71.02L97.4969 69.78C98.1769 69.3133 98.8569 68.9667 99.5369 68.74C100.217 68.5 100.924 68.38 101.657 68.38C102.99 68.38 104.044 68.7533 104.817 69.5C105.59 70.2333 105.977 71.26 105.977 72.58V77C105.977 77.2133 106.017 77.3733 106.097 77.48C106.19 77.5733 106.337 77.6267 106.537 77.64V79C106.364 79.0267 106.21 79.0467 106.077 79.06C105.957 79.0733 105.857 79.08 105.777 79.08C105.364 79.08 105.05 78.9667 104.837 78.74C104.637 78.5133 104.524 78.2733 104.497 78.02L104.457 77.36C104.004 77.9467 103.41 78.4 102.677 78.72C101.944 79.04 101.217 79.2 100.497 79.2C99.8035 79.2 99.1835 79.06 98.6369 78.78C98.0902 78.4867 97.6635 78.1 97.3569 77.62C97.0502 77.1267 96.8969 76.58 96.8969 75.98ZM103.697 76.72C103.857 76.5333 103.984 76.3467 104.077 76.16C104.17 75.96 104.217 75.7933 104.217 75.66V74.36C103.804 74.2 103.37 74.08 102.917 74C102.464 73.9067 102.017 73.86 101.577 73.86C100.684 73.86 99.9569 74.04 99.3969 74.4C98.8502 74.7467 98.5769 75.2267 98.5769 75.84C98.5769 76.1733 98.6635 76.5 98.8369 76.82C99.0235 77.1267 99.2902 77.38 99.6369 77.58C99.9969 77.78 100.437 77.88 100.957 77.88C101.504 77.88 102.024 77.7733 102.517 77.56C103.01 77.3333 103.404 77.0533 103.697 76.72ZM108.831 64.4H110.591V76.3C110.591 76.8733 110.671 77.2267 110.831 77.36C110.991 77.4933 111.184 77.56 111.411 77.56C111.691 77.56 111.958 77.5333 112.211 77.48C112.464 77.4133 112.678 77.3467 112.851 77.28L113.131 78.72C112.838 78.84 112.491 78.94 112.091 79.02C111.691 79.1 111.338 79.14 111.031 79.14C110.351 79.14 109.811 78.9467 109.411 78.56C109.024 78.1733 108.831 77.6333 108.831 76.94V64.4ZM122.942 64.8H124.462L130.262 79H128.342L126.662 74.84H120.702L119.042 79H117.122L122.942 64.8ZM126.262 73.44L123.702 66.88L121.062 73.44H126.262ZM135.301 79.2C134.434 79.2 133.621 79.06 132.861 78.78C132.101 78.4867 131.447 78.0533 130.901 77.48L131.581 76.24C132.181 76.8 132.781 77.2 133.381 77.44C133.981 77.68 134.594 77.8 135.221 77.8C135.941 77.8 136.527 77.6667 136.981 77.4C137.434 77.12 137.661 76.7133 137.661 76.18C137.661 75.7933 137.541 75.5067 137.301 75.32C137.074 75.1333 136.747 74.98 136.321 74.86C135.894 74.7267 135.387 74.58 134.801 74.42C134.081 74.2067 133.474 73.98 132.981 73.74C132.487 73.5 132.114 73.2 131.861 72.84C131.607 72.48 131.481 72.0267 131.481 71.48C131.481 70.8133 131.654 70.2533 132.001 69.8C132.347 69.3333 132.821 68.98 133.421 68.74C134.034 68.5 134.727 68.38 135.501 68.38C136.274 68.38 136.974 68.5 137.601 68.74C138.227 68.98 138.767 69.3333 139.221 69.8L138.421 71.02C138.007 70.5933 137.554 70.28 137.061 70.08C136.567 69.8667 136.014 69.76 135.401 69.76C135.041 69.76 134.687 69.8067 134.341 69.9C133.994 69.98 133.707 70.1333 133.481 70.36C133.254 70.5733 133.141 70.88 133.141 71.28C133.141 71.6133 133.227 71.88 133.401 72.08C133.587 72.2667 133.854 72.4267 134.201 72.56C134.561 72.6933 134.994 72.84 135.501 73C136.287 73.2267 136.967 73.4533 137.541 73.68C138.127 73.9067 138.581 74.2 138.901 74.56C139.221 74.92 139.381 75.42 139.381 76.06C139.381 77.0467 139.007 77.82 138.261 78.38C137.514 78.9267 136.527 79.2 135.301 79.2ZM145.066 79.2C144.2 79.2 143.386 79.06 142.626 78.78C141.866 78.4867 141.213 78.0533 140.666 77.48L141.346 76.24C141.946 76.8 142.546 77.2 143.146 77.44C143.746 77.68 144.36 77.8 144.986 77.8C145.706 77.8 146.293 77.6667 146.746 77.4C147.2 77.12 147.426 76.7133 147.426 76.18C147.426 75.7933 147.306 75.5067 147.066 75.32C146.84 75.1333 146.513 74.98 146.086 74.86C145.66 74.7267 145.153 74.58 144.566 74.42C143.846 74.2067 143.24 73.98 142.746 73.74C142.253 73.5 141.88 73.2 141.626 72.84C141.373 72.48 141.246 72.0267 141.246 71.48C141.246 70.8133 141.42 70.2533 141.766 69.8C142.113 69.3333 142.586 68.98 143.186 68.74C143.8 68.5 144.493 68.38 145.266 68.38C146.04 68.38 146.74 68.5 147.366 68.74C147.993 68.98 148.533 69.3333 148.986 69.8L148.186 71.02C147.773 70.5933 147.32 70.28 146.826 70.08C146.333 69.8667 145.78 69.76 145.166 69.76C144.806 69.76 144.453 69.8067 144.106 69.9C143.76 69.98 143.473 70.1333 143.246 70.36C143.02 70.5733 142.906 70.88 142.906 71.28C142.906 71.6133 142.993 71.88 143.166 72.08C143.353 72.2667 143.62 72.4267 143.966 72.56C144.326 72.6933 144.76 72.84 145.266 73C146.053 73.2267 146.733 73.4533 147.306 73.68C147.893 73.9067 148.346 74.2 148.666 74.56C148.986 74.92 149.146 75.42 149.146 76.06C149.146 77.0467 148.773 77.82 148.026 78.38C147.28 78.9267 146.293 79.2 145.066 79.2ZM151.152 74.82V68.56H152.912V74.48C152.912 75.5467 153.099 76.3467 153.472 76.88C153.845 77.4133 154.399 77.68 155.132 77.68C155.612 77.68 156.072 77.58 156.512 77.38C156.965 77.1667 157.372 76.8667 157.732 76.48C158.092 76.0933 158.372 75.6333 158.572 75.1V68.56H160.332V77C160.332 77.2133 160.372 77.3733 160.452 77.48C160.545 77.5733 160.692 77.6267 160.892 77.64V79C160.692 79.0267 160.532 79.04 160.412 79.04C160.305 79.0533 160.199 79.06 160.092 79.06C159.759 79.06 159.472 78.96 159.232 78.76C158.992 78.5467 158.865 78.2867 158.852 77.98L158.812 76.76C158.359 77.5333 157.745 78.1333 156.972 78.56C156.212 78.9867 155.379 79.2 154.472 79.2C153.379 79.2 152.552 78.8333 151.992 78.1C151.432 77.3533 151.152 76.26 151.152 74.82ZM168.784 70.1C167.904 70.1133 167.124 70.34 166.444 70.78C165.777 71.2067 165.304 71.8 165.024 72.56V79H163.264V68.56H164.904V70.98C165.264 70.26 165.737 69.68 166.324 69.24C166.924 68.7867 167.55 68.5333 168.204 68.48C168.337 68.48 168.45 68.48 168.544 68.48C168.637 68.48 168.717 68.4867 168.784 68.5V70.1ZM169.709 75.98C169.709 75.3133 169.896 74.74 170.269 74.26C170.656 73.7667 171.183 73.3867 171.849 73.12C172.516 72.8533 173.289 72.72 174.169 72.72C174.636 72.72 175.129 72.76 175.649 72.84C176.169 72.9067 176.629 73.0133 177.029 73.16V72.4C177.029 71.6 176.789 70.9733 176.309 70.52C175.829 70.0533 175.149 69.82 174.269 69.82C173.696 69.82 173.143 69.9267 172.609 70.14C172.089 70.34 171.536 70.6333 170.949 71.02L170.309 69.78C170.989 69.3133 171.669 68.9667 172.349 68.74C173.029 68.5 173.736 68.38 174.469 68.38C175.803 68.38 176.856 68.7533 177.629 69.5C178.403 70.2333 178.789 71.26 178.789 72.58V77C178.789 77.2133 178.829 77.3733 178.909 77.48C179.003 77.5733 179.149 77.6267 179.349 77.64V79C179.176 79.0267 179.023 79.0467 178.889 79.06C178.769 79.0733 178.669 79.08 178.589 79.08C178.176 79.08 177.863 78.9667 177.649 78.74C177.449 78.5133 177.336 78.2733 177.309 78.02L177.269 77.36C176.816 77.9467 176.223 78.4 175.489 78.72C174.756 79.04 174.029 79.2 173.309 79.2C172.616 79.2 171.996 79.06 171.449 78.78C170.903 78.4867 170.476 78.1 170.169 77.62C169.863 77.1267 169.709 76.58 169.709 75.98ZM176.509 76.72C176.669 76.5333 176.796 76.3467 176.889 76.16C176.983 75.96 177.029 75.7933 177.029 75.66V74.36C176.616 74.2 176.183 74.08 175.729 74C175.276 73.9067 174.829 73.86 174.389 73.86C173.496 73.86 172.769 74.04 172.209 74.4C171.663 74.7467 171.389 75.2267 171.389 75.84C171.389 76.1733 171.476 76.5 171.649 76.82C171.836 77.1267 172.103 77.38 172.449 77.58C172.809 77.78 173.249 77.88 173.769 77.88C174.316 77.88 174.836 77.7733 175.329 77.56C175.823 77.3333 176.216 77.0533 176.509 76.72ZM190.664 79H188.904V73.16C188.904 72.0533 188.73 71.2467 188.384 70.74C188.05 70.22 187.537 69.96 186.844 69.96C186.364 69.96 185.884 70.08 185.404 70.32C184.937 70.56 184.517 70.8867 184.144 71.3C183.784 71.7 183.524 72.1667 183.364 72.7V79H181.604V68.56H183.204V70.8C183.484 70.3067 183.844 69.88 184.284 69.52C184.724 69.16 185.224 68.88 185.784 68.68C186.344 68.48 186.93 68.38 187.544 68.38C188.144 68.38 188.644 68.4933 189.044 68.72C189.457 68.9333 189.777 69.24 190.004 69.64C190.244 70.0267 190.41 70.4867 190.504 71.02C190.61 71.5533 190.664 72.1333 190.664 72.76V79ZM198.02 79.2C197.234 79.2 196.514 79.06 195.86 78.78C195.22 78.4867 194.66 78.0867 194.18 77.58C193.714 77.0733 193.347 76.4933 193.08 75.84C192.827 75.1867 192.7 74.4933 192.7 73.76C192.7 72.7733 192.92 71.8733 193.36 71.06C193.8 70.2467 194.42 69.6 195.22 69.12C196.02 68.6267 196.947 68.38 198 68.38C199.027 68.38 199.92 68.6133 200.68 69.08C201.454 69.5333 202.027 70.1467 202.4 70.92L200.68 71.46C200.414 70.9667 200.04 70.5867 199.56 70.32C199.08 70.04 198.547 69.9 197.96 69.9C197.32 69.9 196.734 70.0667 196.2 70.4C195.68 70.7333 195.267 71.1933 194.96 71.78C194.654 72.3533 194.5 73.0133 194.5 73.76C194.5 74.4933 194.654 75.16 194.96 75.76C195.28 76.3467 195.7 76.8133 196.22 77.16C196.754 77.5067 197.34 77.68 197.98 77.68C198.394 77.68 198.787 77.6067 199.16 77.46C199.547 77.3133 199.88 77.12 200.16 76.88C200.454 76.6267 200.654 76.3533 200.76 76.06L202.48 76.58C202.267 77.0867 201.94 77.54 201.5 77.94C201.074 78.3267 200.56 78.6333 199.96 78.86C199.374 79.0867 198.727 79.2 198.02 79.2ZM208.997 79.2C208.21 79.2 207.49 79.06 206.837 78.78C206.197 78.4867 205.637 78.0933 205.157 77.6C204.69 77.0933 204.324 76.5133 204.057 75.86C203.804 75.2067 203.677 74.5133 203.677 73.78C203.677 72.7933 203.904 71.8933 204.357 71.08C204.81 70.2667 205.437 69.6133 206.237 69.12C207.05 68.6267 207.977 68.38 209.017 68.38C210.07 68.38 210.984 68.6333 211.757 69.14C212.544 69.6333 213.15 70.2867 213.577 71.1C214.017 71.9 214.237 72.7667 214.237 73.7C214.237 73.8333 214.23 73.9667 214.217 74.1C214.217 74.22 214.21 74.3133 214.197 74.38H205.537C205.59 75.06 205.777 75.6667 206.097 76.2C206.43 76.72 206.857 77.1333 207.377 77.44C207.897 77.7333 208.457 77.88 209.057 77.88C209.697 77.88 210.297 77.72 210.857 77.4C211.43 77.08 211.824 76.66 212.037 76.14L213.557 76.56C213.33 77.0667 212.99 77.52 212.537 77.92C212.097 78.32 211.57 78.6333 210.957 78.86C210.357 79.0867 209.704 79.2 208.997 79.2ZM205.477 73.16H212.597C212.544 72.48 212.35 71.88 212.017 71.36C211.684 70.84 211.257 70.4333 210.737 70.14C210.217 69.8467 209.644 69.7 209.017 69.7C208.404 69.7 207.837 69.8467 207.317 70.14C206.797 70.4333 206.37 70.84 206.037 71.36C205.717 71.88 205.53 72.48 205.477 73.16Z" fill="#00ABB8"/>
<rect x="91" y="124" width="50" height="4" fill="#00ABB8"/>
</svg>
