<svg width="234" height="212" viewBox="0 0 234 212" fill="none" xmlns="http://www.w3.org/2000/svg">
<rect width="234" height="212" fill="#042B3D" fill-opacity="0.4"/>
<path d="M50.3868 71.8C50.3868 70.9333 50.5335 70.0867 50.8268 69.26C51.1335 68.42 51.5735 67.66 52.1468 66.98C52.7335 66.2867 53.4468 65.74 54.2868 65.34C55.1268 64.9267 56.0802 64.72 57.1468 64.72C58.4135 64.72 59.5002 65.0133 60.4068 65.6C61.3135 66.1733 61.9868 66.9133 62.4268 67.82L61.0068 68.74C60.7268 68.14 60.3668 67.6667 59.9268 67.32C59.5002 66.96 59.0335 66.7067 58.5268 66.56C58.0335 66.4133 57.5468 66.34 57.0668 66.34C56.2802 66.34 55.5802 66.5 54.9668 66.82C54.3668 67.14 53.8602 67.5667 53.4468 68.1C53.0335 68.6333 52.7202 69.2333 52.5068 69.9C52.3068 70.5533 52.2068 71.2133 52.2068 71.88C52.2068 72.6133 52.3268 73.32 52.5668 74C52.8202 74.68 53.1668 75.28 53.6068 75.8C54.0468 76.32 54.5668 76.7333 55.1668 77.04C55.7668 77.3467 56.4202 77.5 57.1268 77.5C57.6202 77.5 58.1268 77.4133 58.6468 77.24C59.1668 77.0667 59.6535 76.8 60.1068 76.44C60.5602 76.0667 60.9202 75.5867 61.1868 75L62.6868 75.82C62.3935 76.5267 61.9402 77.1267 61.3268 77.62C60.7135 78.1133 60.0268 78.4867 59.2668 78.74C58.5202 78.9933 57.7802 79.12 57.0468 79.12C56.0735 79.12 55.1802 78.9133 54.3668 78.5C53.5535 78.0733 52.8468 77.5133 52.2468 76.82C51.6602 76.1133 51.2002 75.3267 50.8668 74.46C50.5468 73.58 50.3868 72.6933 50.3868 71.8ZM69.2196 79.2C68.433 79.2 67.7196 79.06 67.0796 78.78C66.4396 78.4867 65.8863 78.0933 65.4196 77.6C64.953 77.0933 64.593 76.5133 64.3396 75.86C64.0863 75.2067 63.9596 74.52 63.9596 73.8C63.9596 73.0667 64.0863 72.3733 64.3396 71.72C64.593 71.0667 64.953 70.4933 65.4196 70C65.8863 69.4933 66.4396 69.1 67.0796 68.82C67.733 68.5267 68.4463 68.38 69.2196 68.38C70.0063 68.38 70.7196 68.5267 71.3596 68.82C71.9996 69.1 72.553 69.4933 73.0196 70C73.4996 70.4933 73.8663 71.0667 74.1196 71.72C74.373 72.3733 74.4996 73.0667 74.4996 73.8C74.4996 74.52 74.373 75.2067 74.1196 75.86C73.8663 76.5133 73.5063 77.0933 73.0396 77.6C72.573 78.0933 72.013 78.4867 71.3596 78.78C70.7196 79.06 70.0063 79.2 69.2196 79.2ZM65.7596 73.82C65.7596 74.54 65.913 75.1933 66.2196 75.78C66.5396 76.3667 66.9596 76.8333 67.4796 77.18C67.9996 77.5133 68.5796 77.68 69.2196 77.68C69.8596 77.68 70.4396 77.5067 70.9596 77.16C71.493 76.8133 71.913 76.3467 72.2196 75.76C72.5396 75.16 72.6996 74.5 72.6996 73.78C72.6996 73.06 72.5396 72.4067 72.2196 71.82C71.913 71.2333 71.493 70.7667 70.9596 70.42C70.4396 70.0733 69.8596 69.9 69.2196 69.9C68.5796 69.9 67.9996 70.08 67.4796 70.44C66.9596 70.7867 66.5396 71.2533 66.2196 71.84C65.913 72.4267 65.7596 73.0867 65.7596 73.82ZM80.2123 79.2C79.3456 79.2 78.5323 79.06 77.7723 78.78C77.0123 78.4867 76.359 78.0533 75.8123 77.48L76.4923 76.24C77.0923 76.8 77.6923 77.2 78.2923 77.44C78.8923 77.68 79.5056 77.8 80.1323 77.8C80.8523 77.8 81.439 77.6667 81.8923 77.4C82.3456 77.12 82.5723 76.7133 82.5723 76.18C82.5723 75.7933 82.4523 75.5067 82.2123 75.32C81.9856 75.1333 81.659 74.98 81.2323 74.86C80.8056 74.7267 80.299 74.58 79.7123 74.42C78.9923 74.2067 78.3856 73.98 77.8923 73.74C77.399 73.5 77.0256 73.2 76.7723 72.84C76.519 72.48 76.3923 72.0267 76.3923 71.48C76.3923 70.8133 76.5656 70.2533 76.9123 69.8C77.259 69.3333 77.7323 68.98 78.3323 68.74C78.9456 68.5 79.639 68.38 80.4123 68.38C81.1856 68.38 81.8856 68.5 82.5123 68.74C83.139 68.98 83.679 69.3333 84.1323 69.8L83.3323 71.02C82.919 70.5933 82.4656 70.28 81.9723 70.08C81.479 69.8667 80.9256 69.76 80.3123 69.76C79.9523 69.76 79.599 69.8067 79.2523 69.9C78.9056 69.98 78.619 70.1333 78.3923 70.36C78.1656 70.5733 78.0523 70.88 78.0523 71.28C78.0523 71.6133 78.139 71.88 78.3123 72.08C78.499 72.2667 78.7656 72.4267 79.1123 72.56C79.4723 72.6933 79.9056 72.84 80.4123 73C81.199 73.2267 81.879 73.4533 82.4523 73.68C83.039 73.9067 83.4923 74.2 83.8123 74.56C84.1323 74.92 84.2923 75.42 84.2923 76.06C84.2923 77.0467 83.919 77.82 83.1723 78.38C82.4256 78.9267 81.439 79.2 80.2123 79.2ZM91.7979 78.48C91.6512 78.5467 91.4512 78.6333 91.1979 78.74C90.9446 78.8467 90.6512 78.94 90.3179 79.02C89.9846 79.1 89.6312 79.14 89.2579 79.14C88.8312 79.14 88.4379 79.0667 88.0779 78.92C87.7179 78.76 87.4312 78.52 87.2179 78.2C87.0046 77.8667 86.8979 77.4533 86.8979 76.96V69.94H85.4779V68.56H86.8979V65.08H88.6579V68.56H90.9979V69.94H88.6579V76.42C88.6846 76.7933 88.8112 77.0733 89.0379 77.26C89.2646 77.4333 89.5312 77.52 89.8379 77.52C90.1846 77.52 90.5046 77.46 90.7979 77.34C91.0912 77.22 91.2846 77.1333 91.3779 77.08L91.7979 78.48ZM98.7678 79V64.8H104.848C105.474 64.8 106.048 64.9333 106.568 65.2C107.088 65.4533 107.541 65.8 107.928 66.24C108.314 66.6667 108.614 67.1533 108.828 67.7C109.041 68.2333 109.148 68.78 109.148 69.34C109.148 69.9933 109.021 70.6133 108.768 71.2C108.528 71.7867 108.181 72.2867 107.728 72.7C107.288 73.1133 106.768 73.4 106.168 73.56L109.608 79H107.568L104.328 73.9H100.568V79H98.7678ZM100.568 72.3H104.868C105.361 72.3 105.788 72.1667 106.148 71.9C106.521 71.62 106.808 71.2533 107.008 70.8C107.221 70.3467 107.328 69.86 107.328 69.34C107.328 68.8067 107.208 68.32 106.968 67.88C106.728 67.4267 106.414 67.0667 106.028 66.8C105.641 66.5333 105.214 66.4 104.748 66.4H100.568V72.3ZM115.92 79.2C115.134 79.2 114.414 79.06 113.76 78.78C113.12 78.4867 112.56 78.0933 112.08 77.6C111.614 77.0933 111.247 76.5133 110.98 75.86C110.727 75.2067 110.6 74.5133 110.6 73.78C110.6 72.7933 110.827 71.8933 111.28 71.08C111.734 70.2667 112.36 69.6133 113.16 69.12C113.974 68.6267 114.9 68.38 115.94 68.38C116.994 68.38 117.907 68.6333 118.68 69.14C119.467 69.6333 120.074 70.2867 120.5 71.1C120.94 71.9 121.16 72.7667 121.16 73.7C121.16 73.8333 121.154 73.9667 121.14 74.1C121.14 74.22 121.134 74.3133 121.12 74.38H112.46C112.514 75.06 112.7 75.6667 113.02 76.2C113.354 76.72 113.78 77.1333 114.3 77.44C114.82 77.7333 115.38 77.88 115.98 77.88C116.62 77.88 117.22 77.72 117.78 77.4C118.354 77.08 118.747 76.66 118.96 76.14L120.48 76.56C120.254 77.0667 119.914 77.52 119.46 77.92C119.02 78.32 118.494 78.6333 117.88 78.86C117.28 79.0867 116.627 79.2 115.92 79.2ZM112.4 73.16H119.52C119.467 72.48 119.274 71.88 118.94 71.36C118.607 70.84 118.18 70.4333 117.66 70.14C117.14 69.8467 116.567 69.7 115.94 69.7C115.327 69.7 114.76 69.8467 114.24 70.14C113.72 70.4333 113.294 70.84 112.96 71.36C112.64 71.88 112.454 72.48 112.4 73.16ZM127.737 79.2C126.95 79.2 126.23 79.06 125.577 78.78C124.937 78.4867 124.377 78.0867 123.897 77.58C123.43 77.0733 123.063 76.4933 122.797 75.84C122.543 75.1867 122.417 74.4933 122.417 73.76C122.417 72.7733 122.637 71.8733 123.077 71.06C123.517 70.2467 124.137 69.6 124.937 69.12C125.737 68.6267 126.663 68.38 127.717 68.38C128.743 68.38 129.637 68.6133 130.397 69.08C131.17 69.5333 131.743 70.1467 132.117 70.92L130.397 71.46C130.13 70.9667 129.757 70.5867 129.277 70.32C128.797 70.04 128.263 69.9 127.677 69.9C127.037 69.9 126.45 70.0667 125.917 70.4C125.397 70.7333 124.983 71.1933 124.677 71.78C124.37 72.3533 124.217 73.0133 124.217 73.76C124.217 74.4933 124.37 75.16 124.677 75.76C124.997 76.3467 125.417 76.8133 125.937 77.16C126.47 77.5067 127.057 77.68 127.697 77.68C128.11 77.68 128.503 77.6067 128.877 77.46C129.263 77.3133 129.597 77.12 129.877 76.88C130.17 76.6267 130.37 76.3533 130.477 76.06L132.197 76.58C131.983 77.0867 131.657 77.54 131.217 77.94C130.79 78.3267 130.277 78.6333 129.677 78.86C129.09 79.0867 128.443 79.2 127.737 79.2ZM138.653 79.2C137.867 79.2 137.153 79.06 136.513 78.78C135.873 78.4867 135.32 78.0933 134.853 77.6C134.387 77.0933 134.027 76.5133 133.773 75.86C133.52 75.2067 133.393 74.52 133.393 73.8C133.393 73.0667 133.52 72.3733 133.773 71.72C134.027 71.0667 134.387 70.4933 134.853 70C135.32 69.4933 135.873 69.1 136.513 68.82C137.167 68.5267 137.88 68.38 138.653 68.38C139.44 68.38 140.153 68.5267 140.793 68.82C141.433 69.1 141.987 69.4933 142.453 70C142.933 70.4933 143.3 71.0667 143.553 71.72C143.807 72.3733 143.933 73.0667 143.933 73.8C143.933 74.52 143.807 75.2067 143.553 75.86C143.3 76.5133 142.94 77.0933 142.473 77.6C142.007 78.0933 141.447 78.4867 140.793 78.78C140.153 79.06 139.44 79.2 138.653 79.2ZM135.193 73.82C135.193 74.54 135.347 75.1933 135.653 75.78C135.973 76.3667 136.393 76.8333 136.913 77.18C137.433 77.5133 138.013 77.68 138.653 77.68C139.293 77.68 139.873 77.5067 140.393 77.16C140.927 76.8133 141.347 76.3467 141.653 75.76C141.973 75.16 142.133 74.5 142.133 73.78C142.133 73.06 141.973 72.4067 141.653 71.82C141.347 71.2333 140.927 70.7667 140.393 70.42C139.873 70.0733 139.293 69.9 138.653 69.9C138.013 69.9 137.433 70.08 136.913 70.44C136.393 70.7867 135.973 71.2533 135.653 71.84C135.347 72.4267 135.193 73.0867 135.193 73.82ZM148.714 79L144.614 68.56H146.454L149.734 77.32L153.014 68.56H154.734L150.634 79H148.714ZM160.764 79.2C159.977 79.2 159.257 79.06 158.604 78.78C157.964 78.4867 157.404 78.0933 156.924 77.6C156.457 77.0933 156.091 76.5133 155.824 75.86C155.571 75.2067 155.444 74.5133 155.444 73.78C155.444 72.7933 155.671 71.8933 156.124 71.08C156.577 70.2667 157.204 69.6133 158.004 69.12C158.817 68.6267 159.744 68.38 160.784 68.38C161.837 68.38 162.751 68.6333 163.524 69.14C164.311 69.6333 164.917 70.2867 165.344 71.1C165.784 71.9 166.004 72.7667 166.004 73.7C166.004 73.8333 165.997 73.9667 165.984 74.1C165.984 74.22 165.977 74.3133 165.964 74.38H157.304C157.357 75.06 157.544 75.6667 157.864 76.2C158.197 76.72 158.624 77.1333 159.144 77.44C159.664 77.7333 160.224 77.88 160.824 77.88C161.464 77.88 162.064 77.72 162.624 77.4C163.197 77.08 163.591 76.66 163.804 76.14L165.324 76.56C165.097 77.0667 164.757 77.52 164.304 77.92C163.864 78.32 163.337 78.6333 162.724 78.86C162.124 79.0867 161.471 79.2 160.764 79.2ZM157.244 73.16H164.364C164.311 72.48 164.117 71.88 163.784 71.36C163.451 70.84 163.024 70.4333 162.504 70.14C161.984 69.8467 161.411 69.7 160.784 69.7C160.171 69.7 159.604 69.8467 159.084 70.14C158.564 70.4333 158.137 70.84 157.804 71.36C157.484 71.88 157.297 72.48 157.244 73.16ZM173.48 70.1C172.6 70.1133 171.82 70.34 171.14 70.78C170.474 71.2067 170 71.8 169.72 72.56V79H167.96V68.56H169.6V70.98C169.96 70.26 170.434 69.68 171.02 69.24C171.62 68.7867 172.247 68.5333 172.9 68.48C173.034 68.48 173.147 68.48 173.24 68.48C173.334 68.48 173.414 68.4867 173.48 68.5V70.1ZM175.706 81.84C175.879 81.8533 176.053 81.8667 176.226 81.88C176.399 81.9067 176.533 81.92 176.626 81.92C176.839 81.92 177.026 81.8467 177.186 81.7C177.346 81.5533 177.519 81.2667 177.706 80.84C177.906 80.4267 178.159 79.8133 178.466 79L174.046 68.56H175.906L179.426 77.22L182.606 68.56H184.346L179.266 81.74C179.146 82.0467 178.966 82.3333 178.726 82.6C178.499 82.88 178.206 83.1 177.846 83.26C177.486 83.42 177.053 83.5 176.546 83.5C176.426 83.5 176.299 83.4933 176.166 83.48C176.046 83.4667 175.893 83.44 175.706 83.4V81.84Z" fill="#00ABB8"/>
<rect x="92" y="124" width="50" height="4" fill="#00ABB8"/>
</svg>
