<svg width="263" height="212" viewBox="0 0 263 212" fill="none" xmlns="http://www.w3.org/2000/svg">
<rect width="263" height="212" fill="#042B3D" fill-opacity="0.2"/>
<path d="M87.9947 54.4H83.0947V67H81.2947V54.4H76.3947V52.8H87.9947V54.4ZM92.1533 67.2C91.3666 67.2 90.6466 67.06 89.9933 66.78C89.3533 66.4867 88.7933 66.0933 88.3133 65.6C87.8466 65.0933 87.4799 64.5133 87.2133 63.86C86.9599 63.2067 86.8333 62.5133 86.8333 61.78C86.8333 60.7933 87.0599 59.8933 87.5133 59.08C87.9666 58.2667 88.5933 57.6133 89.3933 57.12C90.2066 56.6267 91.1333 56.38 92.1733 56.38C93.2266 56.38 94.1399 56.6333 94.9133 57.14C95.6999 57.6333 96.3066 58.2867 96.7333 59.1C97.1733 59.9 97.3933 60.7667 97.3933 61.7C97.3933 61.8333 97.3866 61.9667 97.3733 62.1C97.3733 62.22 97.3666 62.3133 97.3533 62.38H88.6933C88.7466 63.06 88.9333 63.6667 89.2533 64.2C89.5866 64.72 90.0133 65.1333 90.5333 65.44C91.0533 65.7333 91.6133 65.88 92.2133 65.88C92.8533 65.88 93.4533 65.72 94.0133 65.4C94.5866 65.08 94.9799 64.66 95.1933 64.14L96.7133 64.56C96.4866 65.0667 96.1466 65.52 95.6933 65.92C95.2533 66.32 94.7266 66.6333 94.1133 66.86C93.5133 67.0867 92.8599 67.2 92.1533 67.2ZM88.6333 61.16H95.7533C95.6999 60.48 95.5066 59.88 95.1733 59.36C94.8399 58.84 94.4133 58.4333 93.8933 58.14C93.3733 57.8467 92.7999 57.7 92.1733 57.7C91.5599 57.7 90.9933 57.8467 90.4733 58.14C89.9533 58.4333 89.5266 58.84 89.1933 59.36C88.8733 59.88 88.6866 60.48 88.6333 61.16ZM108.41 67H106.65V61.16C106.65 60.0533 106.476 59.2467 106.13 58.74C105.796 58.22 105.283 57.96 104.59 57.96C104.11 57.96 103.63 58.08 103.15 58.32C102.683 58.56 102.263 58.8867 101.89 59.3C101.53 59.7 101.27 60.1667 101.11 60.7V67H99.3497V56.56H100.95V58.8C101.23 58.3067 101.59 57.88 102.03 57.52C102.47 57.16 102.97 56.88 103.53 56.68C104.09 56.48 104.676 56.38 105.29 56.38C105.89 56.38 106.39 56.4933 106.79 56.72C107.203 56.9333 107.523 57.24 107.75 57.64C107.99 58.0267 108.156 58.4867 108.25 59.02C108.356 59.5533 108.41 60.1333 108.41 60.76V67ZM110.467 61.8C110.467 60.8133 110.667 59.9133 111.067 59.1C111.48 58.2733 112.04 57.6133 112.747 57.12C113.467 56.6267 114.287 56.38 115.207 56.38C116.047 56.38 116.8 56.6 117.467 57.04C118.133 57.48 118.653 58.0133 119.027 58.64V52.4H120.787V65C120.787 65.2133 120.827 65.3733 120.907 65.48C121 65.5733 121.147 65.6267 121.347 65.64V67C121.013 67.0533 120.753 67.08 120.567 67.08C120.22 67.08 119.913 66.96 119.647 66.72C119.393 66.48 119.267 66.2133 119.267 65.92V65.04C118.853 65.7067 118.3 66.2333 117.607 66.62C116.913 67.0067 116.193 67.2 115.447 67.2C114.727 67.2 114.06 67.06 113.447 66.78C112.847 66.4867 112.32 66.0867 111.867 65.58C111.427 65.0733 111.08 64.5 110.827 63.86C110.587 63.2067 110.467 62.52 110.467 61.8ZM119.027 63.34V60.34C118.867 59.8867 118.607 59.48 118.247 59.12C117.887 58.7467 117.48 58.4533 117.027 58.24C116.587 58.0133 116.147 57.9 115.707 57.9C115.187 57.9 114.713 58.0133 114.287 58.24C113.873 58.4533 113.513 58.7467 113.207 59.12C112.913 59.48 112.687 59.8933 112.527 60.36C112.367 60.8267 112.287 61.3133 112.287 61.82C112.287 62.34 112.373 62.8333 112.547 63.3C112.733 63.7667 112.987 64.18 113.307 64.54C113.64 64.9 114.02 65.18 114.447 65.38C114.887 65.58 115.36 65.68 115.867 65.68C116.187 65.68 116.513 65.62 116.847 65.5C117.193 65.38 117.52 65.2133 117.827 65C118.133 64.7867 118.393 64.54 118.607 64.26C118.82 63.9667 118.96 63.66 119.027 63.34ZM128.345 67.2C127.558 67.2 126.838 67.06 126.185 66.78C125.545 66.4867 124.985 66.0933 124.505 65.6C124.038 65.0933 123.671 64.5133 123.405 63.86C123.151 63.2067 123.025 62.5133 123.025 61.78C123.025 60.7933 123.251 59.8933 123.705 59.08C124.158 58.2667 124.785 57.6133 125.585 57.12C126.398 56.6267 127.325 56.38 128.365 56.38C129.418 56.38 130.331 56.6333 131.105 57.14C131.891 57.6333 132.498 58.2867 132.925 59.1C133.365 59.9 133.585 60.7667 133.585 61.7C133.585 61.8333 133.578 61.9667 133.565 62.1C133.565 62.22 133.558 62.3133 133.545 62.38H124.885C124.938 63.06 125.125 63.6667 125.445 64.2C125.778 64.72 126.205 65.1333 126.725 65.44C127.245 65.7333 127.805 65.88 128.405 65.88C129.045 65.88 129.645 65.72 130.205 65.4C130.778 65.08 131.171 64.66 131.385 64.14L132.905 64.56C132.678 65.0667 132.338 65.52 131.885 65.92C131.445 66.32 130.918 66.6333 130.305 66.86C129.705 67.0867 129.051 67.2 128.345 67.2ZM124.825 61.16H131.945C131.891 60.48 131.698 59.88 131.365 59.36C131.031 58.84 130.605 58.4333 130.085 58.14C129.565 57.8467 128.991 57.7 128.365 57.7C127.751 57.7 127.185 57.8467 126.665 58.14C126.145 58.4333 125.718 58.84 125.385 59.36C125.065 59.88 124.878 60.48 124.825 61.16ZM141.061 58.1C140.181 58.1133 139.401 58.34 138.721 58.78C138.054 59.2067 137.581 59.8 137.301 60.56V67H135.541V56.56H137.181V58.98C137.541 58.26 138.014 57.68 138.601 57.24C139.201 56.7867 139.828 56.5333 140.481 56.48C140.614 56.48 140.728 56.48 140.821 56.48C140.914 56.48 140.994 56.4867 141.061 56.5V58.1ZM142.807 67V56.56H144.567V67H142.807ZM142.807 54.6V52.4H144.567V54.6H142.807ZM156.476 67H154.716V61.16C154.716 60.0533 154.543 59.2467 154.196 58.74C153.863 58.22 153.349 57.96 152.656 57.96C152.176 57.96 151.696 58.08 151.216 58.32C150.749 58.56 150.329 58.8867 149.956 59.3C149.596 59.7 149.336 60.1667 149.176 60.7V67H147.416V56.56H149.016V58.8C149.296 58.3067 149.656 57.88 150.096 57.52C150.536 57.16 151.036 56.88 151.596 56.68C152.156 56.48 152.743 56.38 153.356 56.38C153.956 56.38 154.456 56.4933 154.856 56.72C155.269 56.9333 155.589 57.24 155.816 57.64C156.056 58.0267 156.223 58.4867 156.316 59.02C156.423 59.5533 156.476 60.1333 156.476 60.76V67ZM163.373 67.12C162.666 67.12 162.013 66.98 161.413 66.7C160.826 66.4067 160.32 66.0133 159.893 65.52C159.466 65.0133 159.133 64.44 158.893 63.8C158.666 63.16 158.553 62.4933 158.553 61.8C158.553 61.0667 158.666 60.3733 158.893 59.72C159.133 59.0667 159.466 58.4933 159.893 58C160.333 57.4933 160.846 57.1 161.433 56.82C162.02 56.5267 162.673 56.38 163.393 56.38C164.26 56.38 165.013 56.5933 165.653 57.02C166.306 57.4467 166.853 57.9867 167.293 58.64V56.56H168.853V66.88C168.853 67.8667 168.613 68.7 168.133 69.38C167.666 70.06 167.026 70.5733 166.213 70.92C165.413 71.28 164.52 71.46 163.533 71.46C162.36 71.46 161.4 71.2533 160.653 70.84C159.906 70.4267 159.286 69.8667 158.793 69.16L159.813 68.26C160.226 68.8733 160.76 69.3333 161.413 69.64C162.08 69.9467 162.786 70.1 163.533 70.1C164.173 70.1 164.76 69.98 165.293 69.74C165.84 69.5133 166.273 69.16 166.593 68.68C166.926 68.2 167.093 67.6 167.093 66.88V65.04C166.706 65.68 166.173 66.1867 165.493 66.56C164.826 66.9333 164.12 67.12 163.373 67.12ZM163.913 65.68C164.286 65.68 164.646 65.6133 164.993 65.48C165.34 65.3467 165.66 65.1733 165.953 64.96C166.246 64.7333 166.493 64.48 166.693 64.2C166.893 63.92 167.026 63.6333 167.093 63.34V60.34C166.906 59.86 166.64 59.44 166.293 59.08C165.946 58.7067 165.553 58.42 165.113 58.22C164.673 58.0067 164.22 57.9 163.753 57.9C163.22 57.9 162.74 58.0133 162.313 58.24C161.9 58.4667 161.546 58.7733 161.253 59.16C160.96 59.5333 160.733 59.9533 160.573 60.42C160.413 60.8867 160.333 61.36 160.333 61.84C160.333 62.36 160.426 62.8533 160.613 63.32C160.8 63.7733 161.053 64.18 161.373 64.54C161.693 64.9 162.073 65.18 162.513 65.38C162.953 65.58 163.42 65.68 163.913 65.68ZM186.532 67L179.572 59.66C178.999 59.0467 178.539 58.5267 178.192 58.1C177.859 57.66 177.619 57.2667 177.472 56.92C177.325 56.56 177.252 56.1933 177.252 55.82C177.252 55.2067 177.412 54.66 177.732 54.18C178.052 53.7 178.485 53.32 179.032 53.04C179.592 52.76 180.219 52.62 180.912 52.62C181.552 52.62 182.132 52.74 182.652 52.98C183.172 53.2067 183.585 53.54 183.892 53.98C184.212 54.4067 184.372 54.92 184.372 55.52C184.372 56.1333 184.205 56.68 183.872 57.16C183.539 57.6267 183.099 58.0667 182.552 58.48C182.019 58.88 181.425 59.2867 180.772 59.7C180.239 60.0467 179.752 60.4 179.312 60.76C178.885 61.12 178.545 61.5067 178.292 61.92C178.052 62.32 177.932 62.7667 177.932 63.26C177.932 63.7933 178.079 64.2533 178.372 64.64C178.665 65.0133 179.045 65.3 179.512 65.5C179.992 65.7 180.492 65.8 181.012 65.8C181.692 65.8 182.325 65.6467 182.912 65.34C183.499 65.02 184.012 64.58 184.452 64.02C184.905 63.46 185.252 62.8133 185.492 62.08C185.745 61.3333 185.872 60.5333 185.872 59.68H187.332C187.332 60.7733 187.159 61.78 186.812 62.7C186.479 63.6067 186.012 64.4 185.412 65.08C184.825 65.7467 184.139 66.2667 183.352 66.64C182.565 67.0133 181.725 67.2 180.832 67.2C179.965 67.2 179.179 67.0267 178.472 66.68C177.779 66.3333 177.232 65.8667 176.832 65.28C176.432 64.68 176.232 64 176.232 63.24C176.232 62.5067 176.399 61.8667 176.732 61.32C177.079 60.76 177.519 60.2667 178.052 59.84C178.599 59.4 179.159 59 179.732 58.64C180.319 58.2667 180.839 57.9267 181.292 57.62C181.745 57.3 182.099 56.9733 182.352 56.64C182.619 56.3067 182.752 55.9467 182.752 55.56C182.752 55.0933 182.579 54.7133 182.232 54.42C181.885 54.1133 181.445 53.96 180.912 53.96C180.512 53.96 180.159 54.0467 179.852 54.22C179.545 54.38 179.305 54.6 179.132 54.88C178.959 55.1467 178.872 55.4467 178.872 55.78C178.872 55.9933 178.925 56.2133 179.032 56.44C179.139 56.6667 179.339 56.9533 179.632 57.3C179.939 57.6467 180.365 58.1133 180.912 58.7L188.852 67H186.532ZM82.5967 91.1C81.5967 91.1 80.6901 90.9 79.8767 90.5C79.0634 90.1 78.3567 89.56 77.7567 88.88C77.1701 88.1867 76.7167 87.4133 76.3967 86.56C76.0767 85.6933 75.9167 84.8067 75.9167 83.9C75.9167 82.9533 76.0834 82.0533 76.4167 81.2C76.7634 80.3333 77.2367 79.5667 77.8367 78.9C78.4501 78.22 79.1634 77.6867 79.9767 77.3C80.7901 76.9 81.6767 76.7 82.6367 76.7C83.6367 76.7 84.5434 76.9067 85.3567 77.32C86.1701 77.7333 86.8701 78.2867 87.4567 78.98C88.0434 79.6733 88.4967 80.4467 88.8167 81.3C89.1367 82.1533 89.2967 83.0267 89.2967 83.92C89.2967 84.8667 89.1301 85.7733 88.7967 86.64C88.4634 87.4933 87.9901 88.26 87.3767 88.94C86.7767 89.6067 86.0701 90.1333 85.2567 90.52C84.4434 90.9067 83.5567 91.1 82.5967 91.1ZM77.7367 83.9C77.7367 84.62 77.8501 85.32 78.0767 86C78.3167 86.6667 78.6501 87.26 79.0767 87.78C79.5034 88.3 80.0167 88.7133 80.6167 89.02C81.2167 89.3267 81.8834 89.48 82.6167 89.48C83.3767 89.48 84.0567 89.32 84.6567 89C85.2567 88.68 85.7634 88.2533 86.1767 87.72C86.6034 87.1867 86.9234 86.5867 87.1367 85.92C87.3634 85.2533 87.4767 84.58 87.4767 83.9C87.4767 83.18 87.3567 82.4867 87.1167 81.82C86.8901 81.1533 86.5567 80.56 86.1167 80.04C85.6901 79.5067 85.1767 79.0933 84.5767 78.8C83.9901 78.4933 83.3367 78.34 82.6167 78.34C81.8567 78.34 81.1767 78.5 80.5767 78.82C79.9767 79.1267 79.4634 79.5467 79.0367 80.08C78.6234 80.6133 78.3034 81.2133 78.0767 81.88C77.8501 82.5333 77.7367 83.2067 77.7367 83.9ZM91.4177 86.82V80.56H93.1777V86.48C93.1777 87.5467 93.3643 88.3467 93.7377 88.88C94.111 89.4133 94.6643 89.68 95.3977 89.68C95.8777 89.68 96.3377 89.58 96.7777 89.38C97.231 89.1667 97.6377 88.8667 97.9977 88.48C98.3577 88.0933 98.6377 87.6333 98.8377 87.1V80.56H100.598V89C100.598 89.2133 100.638 89.3733 100.718 89.48C100.811 89.5733 100.958 89.6267 101.158 89.64V91C100.958 91.0267 100.798 91.04 100.678 91.04C100.571 91.0533 100.464 91.06 100.358 91.06C100.024 91.06 99.7377 90.96 99.4977 90.76C99.2577 90.5467 99.131 90.2867 99.1177 89.98L99.0777 88.76C98.6243 89.5333 98.011 90.1333 97.2377 90.56C96.4777 90.9867 95.6443 91.2 94.7377 91.2C93.6443 91.2 92.8177 90.8333 92.2577 90.1C91.6977 89.3533 91.4177 88.26 91.4177 86.82ZM108.929 90.48C108.783 90.5467 108.583 90.6333 108.329 90.74C108.076 90.8467 107.783 90.94 107.449 91.02C107.116 91.1 106.763 91.14 106.389 91.14C105.963 91.14 105.569 91.0667 105.209 90.92C104.849 90.76 104.563 90.52 104.349 90.2C104.136 89.8667 104.029 89.4533 104.029 88.96V81.94H102.609V80.56H104.029V77.08H105.789V80.56H108.129V81.94H105.789V88.42C105.816 88.7933 105.943 89.0733 106.169 89.26C106.396 89.4333 106.663 89.52 106.969 89.52C107.316 89.52 107.636 89.46 107.929 89.34C108.223 89.22 108.416 89.1333 108.509 89.08L108.929 90.48ZM114.141 91.2C113.274 91.2 112.461 91.06 111.701 90.78C110.941 90.4867 110.287 90.0533 109.741 89.48L110.421 88.24C111.021 88.8 111.621 89.2 112.221 89.44C112.821 89.68 113.434 89.8 114.061 89.8C114.781 89.8 115.367 89.6667 115.821 89.4C116.274 89.12 116.501 88.7133 116.501 88.18C116.501 87.7933 116.381 87.5067 116.141 87.32C115.914 87.1333 115.587 86.98 115.161 86.86C114.734 86.7267 114.227 86.58 113.641 86.42C112.921 86.2067 112.314 85.98 111.821 85.74C111.327 85.5 110.954 85.2 110.701 84.84C110.447 84.48 110.321 84.0267 110.321 83.48C110.321 82.8133 110.494 82.2533 110.841 81.8C111.187 81.3333 111.661 80.98 112.261 80.74C112.874 80.5 113.567 80.38 114.341 80.38C115.114 80.38 115.814 80.5 116.441 80.74C117.067 80.98 117.607 81.3333 118.061 81.8L117.261 83.02C116.847 82.5933 116.394 82.28 115.901 82.08C115.407 81.8667 114.854 81.76 114.241 81.76C113.881 81.76 113.527 81.8067 113.181 81.9C112.834 81.98 112.547 82.1333 112.321 82.36C112.094 82.5733 111.981 82.88 111.981 83.28C111.981 83.6133 112.067 83.88 112.241 84.08C112.427 84.2667 112.694 84.4267 113.041 84.56C113.401 84.6933 113.834 84.84 114.341 85C115.127 85.2267 115.807 85.4533 116.381 85.68C116.967 85.9067 117.421 86.2 117.741 86.56C118.061 86.92 118.221 87.42 118.221 88.06C118.221 89.0467 117.847 89.82 117.101 90.38C116.354 90.9267 115.367 91.2 114.141 91.2ZM124.886 91.2C124.1 91.2 123.386 91.06 122.746 90.78C122.106 90.4867 121.553 90.0933 121.086 89.6C120.62 89.0933 120.26 88.5133 120.006 87.86C119.753 87.2067 119.626 86.52 119.626 85.8C119.626 85.0667 119.753 84.3733 120.006 83.72C120.26 83.0667 120.62 82.4933 121.086 82C121.553 81.4933 122.106 81.1 122.746 80.82C123.4 80.5267 124.113 80.38 124.886 80.38C125.673 80.38 126.386 80.5267 127.026 80.82C127.666 81.1 128.22 81.4933 128.686 82C129.166 82.4933 129.533 83.0667 129.786 83.72C130.04 84.3733 130.166 85.0667 130.166 85.8C130.166 86.52 130.04 87.2067 129.786 87.86C129.533 88.5133 129.173 89.0933 128.706 89.6C128.24 90.0933 127.68 90.4867 127.026 90.78C126.386 91.06 125.673 91.2 124.886 91.2ZM121.426 85.82C121.426 86.54 121.58 87.1933 121.886 87.78C122.206 88.3667 122.626 88.8333 123.146 89.18C123.666 89.5133 124.246 89.68 124.886 89.68C125.526 89.68 126.106 89.5067 126.626 89.16C127.16 88.8133 127.58 88.3467 127.886 87.76C128.206 87.16 128.366 86.5 128.366 85.78C128.366 85.06 128.206 84.4067 127.886 83.82C127.58 83.2333 127.16 82.7667 126.626 82.42C126.106 82.0733 125.526 81.9 124.886 81.9C124.246 81.9 123.666 82.08 123.146 82.44C122.626 82.7867 122.206 83.2533 121.886 83.84C121.58 84.4267 121.426 85.0867 121.426 85.82ZM132.199 86.82V80.56H133.959V86.48C133.959 87.5467 134.146 88.3467 134.519 88.88C134.892 89.4133 135.446 89.68 136.179 89.68C136.659 89.68 137.119 89.58 137.559 89.38C138.012 89.1667 138.419 88.8667 138.779 88.48C139.139 88.0933 139.419 87.6333 139.619 87.1V80.56H141.379V89C141.379 89.2133 141.419 89.3733 141.499 89.48C141.592 89.5733 141.739 89.6267 141.939 89.64V91C141.739 91.0267 141.579 91.04 141.459 91.04C141.352 91.0533 141.246 91.06 141.139 91.06C140.806 91.06 140.519 90.96 140.279 90.76C140.039 90.5467 139.912 90.2867 139.899 89.98L139.859 88.76C139.406 89.5333 138.792 90.1333 138.019 90.56C137.259 90.9867 136.426 91.2 135.519 91.2C134.426 91.2 133.599 90.8333 133.039 90.1C132.479 89.3533 132.199 88.26 132.199 86.82ZM149.831 82.1C148.951 82.1133 148.171 82.34 147.491 82.78C146.824 83.2067 146.351 83.8 146.071 84.56V91H144.311V80.56H145.951V82.98C146.311 82.26 146.784 81.68 147.371 81.24C147.971 80.7867 148.597 80.5333 149.251 80.48C149.384 80.48 149.497 80.48 149.591 80.48C149.684 80.48 149.764 80.4867 149.831 80.5V82.1ZM155.942 91.2C155.156 91.2 154.436 91.06 153.782 90.78C153.142 90.4867 152.582 90.0867 152.102 89.58C151.636 89.0733 151.269 88.4933 151.002 87.84C150.749 87.1867 150.622 86.4933 150.622 85.76C150.622 84.7733 150.842 83.8733 151.282 83.06C151.722 82.2467 152.342 81.6 153.142 81.12C153.942 80.6267 154.869 80.38 155.922 80.38C156.949 80.38 157.842 80.6133 158.602 81.08C159.376 81.5333 159.949 82.1467 160.322 82.92L158.602 83.46C158.336 82.9667 157.962 82.5867 157.482 82.32C157.002 82.04 156.469 81.9 155.882 81.9C155.242 81.9 154.656 82.0667 154.122 82.4C153.602 82.7333 153.189 83.1933 152.882 83.78C152.576 84.3533 152.422 85.0133 152.422 85.76C152.422 86.4933 152.576 87.16 152.882 87.76C153.202 88.3467 153.622 88.8133 154.142 89.16C154.676 89.5067 155.262 89.68 155.902 89.68C156.316 89.68 156.709 89.6067 157.082 89.46C157.469 89.3133 157.802 89.12 158.082 88.88C158.376 88.6267 158.576 88.3533 158.682 88.06L160.402 88.58C160.189 89.0867 159.862 89.54 159.422 89.94C158.996 90.3267 158.482 90.6333 157.882 90.86C157.296 91.0867 156.649 91.2 155.942 91.2ZM162.397 91V80.56H164.157V91H162.397ZM162.397 78.6V76.4H164.157V78.6H162.397ZM176.066 91H174.306V85.16C174.306 84.0533 174.133 83.2467 173.786 82.74C173.453 82.22 172.939 81.96 172.246 81.96C171.766 81.96 171.286 82.08 170.806 82.32C170.339 82.56 169.919 82.8867 169.546 83.3C169.186 83.7 168.926 84.1667 168.766 84.7V91H167.006V80.56H168.606V82.8C168.886 82.3067 169.246 81.88 169.686 81.52C170.126 81.16 170.626 80.88 171.186 80.68C171.746 80.48 172.333 80.38 172.946 80.38C173.546 80.38 174.046 80.4933 174.446 80.72C174.859 80.9333 175.179 81.24 175.406 81.64C175.646 82.0267 175.813 82.4867 175.906 83.02C176.013 83.5533 176.066 84.1333 176.066 84.76V91ZM182.963 91.12C182.256 91.12 181.603 90.98 181.003 90.7C180.416 90.4067 179.909 90.0133 179.483 89.52C179.056 89.0133 178.723 88.44 178.483 87.8C178.256 87.16 178.143 86.4933 178.143 85.8C178.143 85.0667 178.256 84.3733 178.483 83.72C178.723 83.0667 179.056 82.4933 179.483 82C179.923 81.4933 180.436 81.1 181.023 80.82C181.609 80.5267 182.263 80.38 182.983 80.38C183.849 80.38 184.603 80.5933 185.243 81.02C185.896 81.4467 186.443 81.9867 186.883 82.64V80.56H188.443V90.88C188.443 91.8667 188.203 92.7 187.723 93.38C187.256 94.06 186.616 94.5733 185.803 94.92C185.003 95.28 184.109 95.46 183.123 95.46C181.949 95.46 180.989 95.2533 180.243 94.84C179.496 94.4267 178.876 93.8667 178.383 93.16L179.403 92.26C179.816 92.8733 180.349 93.3333 181.003 93.64C181.669 93.9467 182.376 94.1 183.123 94.1C183.763 94.1 184.349 93.98 184.883 93.74C185.429 93.5133 185.863 93.16 186.183 92.68C186.516 92.2 186.683 91.6 186.683 90.88V89.04C186.296 89.68 185.763 90.1867 185.083 90.56C184.416 90.9333 183.709 91.12 182.963 91.12ZM183.503 89.68C183.876 89.68 184.236 89.6133 184.583 89.48C184.929 89.3467 185.249 89.1733 185.543 88.96C185.836 88.7333 186.083 88.48 186.283 88.2C186.483 87.92 186.616 87.6333 186.683 87.34V84.34C186.496 83.86 186.229 83.44 185.883 83.08C185.536 82.7067 185.143 82.42 184.703 82.22C184.263 82.0067 183.809 81.9 183.343 81.9C182.809 81.9 182.329 82.0133 181.903 82.24C181.489 82.4667 181.136 82.7733 180.843 83.16C180.549 83.5333 180.323 83.9533 180.163 84.42C180.003 84.8867 179.923 85.36 179.923 85.84C179.923 86.36 180.016 86.8533 180.203 87.32C180.389 87.7733 180.643 88.18 180.963 88.54C181.283 88.9 181.663 89.18 182.103 89.38C182.543 89.58 183.009 89.68 183.503 89.68Z" fill="#00ABB8"/>
<rect x="107" y="124" width="50" height="4" fill="#00ABB8"/>
</svg>
