<svg width="271" height="212" viewBox="0 0 271 212" fill="none" xmlns="http://www.w3.org/2000/svg">
<rect width="271" height="212" fill="#365564"/>
<path d="M108.716 67V56.16L104.036 64.5H102.936L98.2363 56.16V67H96.4363V52.8H98.3363L103.476 62.02L108.636 52.8H110.516V67H108.716ZM112.719 63.98C112.719 63.3133 112.906 62.74 113.279 62.26C113.666 61.7667 114.192 61.3867 114.859 61.12C115.526 60.8533 116.299 60.72 117.179 60.72C117.646 60.72 118.139 60.76 118.659 60.84C119.179 60.9067 119.639 61.0133 120.039 61.16V60.4C120.039 59.6 119.799 58.9733 119.319 58.52C118.839 58.0533 118.159 57.82 117.279 57.82C116.706 57.82 116.152 57.9267 115.619 58.14C115.099 58.34 114.546 58.6333 113.959 59.02L113.319 57.78C113.999 57.3133 114.679 56.9667 115.359 56.74C116.039 56.5 116.746 56.38 117.479 56.38C118.812 56.38 119.866 56.7533 120.639 57.5C121.412 58.2333 121.799 59.26 121.799 60.58V65C121.799 65.2133 121.839 65.3733 121.919 65.48C122.012 65.5733 122.159 65.6267 122.359 65.64V67C122.186 67.0267 122.032 67.0467 121.899 67.06C121.779 67.0733 121.679 67.08 121.599 67.08C121.186 67.08 120.872 66.9667 120.659 66.74C120.459 66.5133 120.346 66.2733 120.319 66.02L120.279 65.36C119.826 65.9467 119.232 66.4 118.499 66.72C117.766 67.04 117.039 67.2 116.319 67.2C115.626 67.2 115.006 67.06 114.459 66.78C113.912 66.4867 113.486 66.1 113.179 65.62C112.872 65.1267 112.719 64.58 112.719 63.98ZM119.519 64.72C119.679 64.5333 119.806 64.3467 119.899 64.16C119.992 63.96 120.039 63.7933 120.039 63.66V62.36C119.626 62.2 119.192 62.08 118.739 62C118.286 61.9067 117.839 61.86 117.399 61.86C116.506 61.86 115.779 62.04 115.219 62.4C114.672 62.7467 114.399 63.2267 114.399 63.84C114.399 64.1733 114.486 64.5 114.659 64.82C114.846 65.1267 115.112 65.38 115.459 65.58C115.819 65.78 116.259 65.88 116.779 65.88C117.326 65.88 117.846 65.7733 118.339 65.56C118.832 65.3333 119.226 65.0533 119.519 64.72ZM129.935 66.48C129.789 66.5467 129.589 66.6333 129.335 66.74C129.082 66.8467 128.789 66.94 128.455 67.02C128.122 67.1 127.769 67.14 127.395 67.14C126.969 67.14 126.575 67.0667 126.215 66.92C125.855 66.76 125.569 66.52 125.355 66.2C125.142 65.8667 125.035 65.4533 125.035 64.96V57.94H123.615V56.56H125.035V53.08H126.795V56.56H129.135V57.94H126.795V64.42C126.822 64.7933 126.949 65.0733 127.175 65.26C127.402 65.4333 127.669 65.52 127.975 65.52C128.322 65.52 128.642 65.46 128.935 65.34C129.229 65.22 129.422 65.1333 129.515 65.08L129.935 66.48ZM136.05 67.2C135.263 67.2 134.543 67.06 133.89 66.78C133.25 66.4867 132.69 66.0933 132.21 65.6C131.743 65.0933 131.376 64.5133 131.11 63.86C130.856 63.2067 130.73 62.5133 130.73 61.78C130.73 60.7933 130.956 59.8933 131.41 59.08C131.863 58.2667 132.49 57.6133 133.29 57.12C134.103 56.6267 135.03 56.38 136.07 56.38C137.123 56.38 138.036 56.6333 138.81 57.14C139.596 57.6333 140.203 58.2867 140.63 59.1C141.07 59.9 141.29 60.7667 141.29 61.7C141.29 61.8333 141.283 61.9667 141.27 62.1C141.27 62.22 141.263 62.3133 141.25 62.38H132.59C132.643 63.06 132.83 63.6667 133.15 64.2C133.483 64.72 133.91 65.1333 134.43 65.44C134.95 65.7333 135.51 65.88 136.11 65.88C136.75 65.88 137.35 65.72 137.91 65.4C138.483 65.08 138.876 64.66 139.09 64.14L140.61 64.56C140.383 65.0667 140.043 65.52 139.59 65.92C139.15 66.32 138.623 66.6333 138.01 66.86C137.41 67.0867 136.756 67.2 136.05 67.2ZM132.53 61.16H139.65C139.596 60.48 139.403 59.88 139.07 59.36C138.736 58.84 138.31 58.4333 137.79 58.14C137.27 57.8467 136.696 57.7 136.07 57.7C135.456 57.7 134.89 57.8467 134.37 58.14C133.85 58.4333 133.423 58.84 133.09 59.36C132.77 59.88 132.583 60.48 132.53 61.16ZM148.766 58.1C147.886 58.1133 147.106 58.34 146.426 58.78C145.76 59.2067 145.286 59.8 145.006 60.56V67H143.246V56.56H144.886V58.98C145.246 58.26 145.72 57.68 146.306 57.24C146.906 56.7867 147.533 56.5333 148.186 56.48C148.32 56.48 148.433 56.48 148.526 56.48C148.62 56.48 148.7 56.4867 148.766 56.5V58.1ZM150.512 67V56.56H152.272V67H150.512ZM150.512 54.6V52.4H152.272V54.6H150.512ZM154.301 63.98C154.301 63.3133 154.488 62.74 154.861 62.26C155.248 61.7667 155.775 61.3867 156.441 61.12C157.108 60.8533 157.881 60.72 158.761 60.72C159.228 60.72 159.721 60.76 160.241 60.84C160.761 60.9067 161.221 61.0133 161.621 61.16V60.4C161.621 59.6 161.381 58.9733 160.901 58.52C160.421 58.0533 159.741 57.82 158.861 57.82C158.288 57.82 157.735 57.9267 157.201 58.14C156.681 58.34 156.128 58.6333 155.541 59.02L154.901 57.78C155.581 57.3133 156.261 56.9667 156.941 56.74C157.621 56.5 158.328 56.38 159.061 56.38C160.395 56.38 161.448 56.7533 162.221 57.5C162.995 58.2333 163.381 59.26 163.381 60.58V65C163.381 65.2133 163.421 65.3733 163.501 65.48C163.595 65.5733 163.741 65.6267 163.941 65.64V67C163.768 67.0267 163.615 67.0467 163.481 67.06C163.361 67.0733 163.261 67.08 163.181 67.08C162.768 67.08 162.455 66.9667 162.241 66.74C162.041 66.5133 161.928 66.2733 161.901 66.02L161.861 65.36C161.408 65.9467 160.815 66.4 160.081 66.72C159.348 67.04 158.621 67.2 157.901 67.2C157.208 67.2 156.588 67.06 156.041 66.78C155.495 66.4867 155.068 66.1 154.761 65.62C154.455 65.1267 154.301 64.58 154.301 63.98ZM161.101 64.72C161.261 64.5333 161.388 64.3467 161.481 64.16C161.575 63.96 161.621 63.7933 161.621 63.66V62.36C161.208 62.2 160.775 62.08 160.321 62C159.868 61.9067 159.421 61.86 158.981 61.86C158.088 61.86 157.361 62.04 156.801 62.4C156.255 62.7467 155.981 63.2267 155.981 63.84C155.981 64.1733 156.068 64.5 156.241 64.82C156.428 65.1267 156.695 65.38 157.041 65.58C157.401 65.78 157.841 65.88 158.361 65.88C158.908 65.88 159.428 65.7733 159.921 65.56C160.415 65.3333 160.808 65.0533 161.101 64.72ZM166.235 52.4H167.995V64.3C167.995 64.8733 168.075 65.2267 168.235 65.36C168.395 65.4933 168.589 65.56 168.815 65.56C169.095 65.56 169.362 65.5333 169.615 65.48C169.869 65.4133 170.082 65.3467 170.255 65.28L170.535 66.72C170.242 66.84 169.895 66.94 169.495 67.02C169.095 67.1 168.742 67.14 168.435 67.14C167.755 67.14 167.215 66.9467 166.815 66.56C166.429 66.1733 166.235 65.6333 166.235 64.94V52.4ZM175.498 67.2C174.631 67.2 173.818 67.06 173.058 66.78C172.298 66.4867 171.645 66.0533 171.098 65.48L171.778 64.24C172.378 64.8 172.978 65.2 173.578 65.44C174.178 65.68 174.791 65.8 175.418 65.8C176.138 65.8 176.725 65.6667 177.178 65.4C177.631 65.12 177.858 64.7133 177.858 64.18C177.858 63.7933 177.738 63.5067 177.498 63.32C177.271 63.1333 176.945 62.98 176.518 62.86C176.091 62.7267 175.585 62.58 174.998 62.42C174.278 62.2067 173.671 61.98 173.178 61.74C172.685 61.5 172.311 61.2 172.058 60.84C171.805 60.48 171.678 60.0267 171.678 59.48C171.678 58.8133 171.851 58.2533 172.198 57.8C172.545 57.3333 173.018 56.98 173.618 56.74C174.231 56.5 174.925 56.38 175.698 56.38C176.471 56.38 177.171 56.5 177.798 56.74C178.425 56.98 178.965 57.3333 179.418 57.8L178.618 59.02C178.205 58.5933 177.751 58.28 177.258 58.08C176.765 57.8667 176.211 57.76 175.598 57.76C175.238 57.76 174.885 57.8067 174.538 57.9C174.191 57.98 173.905 58.1333 173.678 58.36C173.451 58.5733 173.338 58.88 173.338 59.28C173.338 59.6133 173.425 59.88 173.598 60.08C173.785 60.2667 174.051 60.4267 174.398 60.56C174.758 60.6933 175.191 60.84 175.698 61C176.485 61.2267 177.165 61.4533 177.738 61.68C178.325 61.9067 178.778 62.2 179.098 62.56C179.418 62.92 179.578 63.42 179.578 64.06C179.578 65.0467 179.205 65.82 178.458 66.38C177.711 66.9267 176.725 67.2 175.498 67.2ZM89.1558 91V80.16L84.4758 88.5H83.3758L78.6758 80.16V91H76.8758V76.8H78.7758L83.9158 86.02L89.0758 76.8H90.9558V91H89.1558ZM93.1586 87.98C93.1586 87.3133 93.3453 86.74 93.7186 86.26C94.1053 85.7667 94.6319 85.3867 95.2986 85.12C95.9653 84.8533 96.7386 84.72 97.6186 84.72C98.0853 84.72 98.5786 84.76 99.0986 84.84C99.6186 84.9067 100.079 85.0133 100.479 85.16V84.4C100.479 83.6 100.239 82.9733 99.7586 82.52C99.2786 82.0533 98.5986 81.82 97.7186 81.82C97.1453 81.82 96.5919 81.9267 96.0586 82.14C95.5386 82.34 94.9853 82.6333 94.3986 83.02L93.7586 81.78C94.4386 81.3133 95.1186 80.9667 95.7986 80.74C96.4786 80.5 97.1853 80.38 97.9186 80.38C99.2519 80.38 100.305 80.7533 101.079 81.5C101.852 82.2333 102.239 83.26 102.239 84.58V89C102.239 89.2133 102.279 89.3733 102.359 89.48C102.452 89.5733 102.599 89.6267 102.799 89.64V91C102.625 91.0267 102.472 91.0467 102.339 91.06C102.219 91.0733 102.119 91.08 102.039 91.08C101.625 91.08 101.312 90.9667 101.099 90.74C100.899 90.5133 100.785 90.2733 100.759 90.02L100.719 89.36C100.265 89.9467 99.6719 90.4 98.9386 90.72C98.2053 91.04 97.4786 91.2 96.7586 91.2C96.0653 91.2 95.4453 91.06 94.8986 90.78C94.3519 90.4867 93.9253 90.1 93.6186 89.62C93.3119 89.1267 93.1586 88.58 93.1586 87.98ZM99.9586 88.72C100.119 88.5333 100.245 88.3467 100.339 88.16C100.432 87.96 100.479 87.7933 100.479 87.66V86.36C100.065 86.2 99.6319 86.08 99.1786 86C98.7253 85.9067 98.2786 85.86 97.8386 85.86C96.9453 85.86 96.2186 86.04 95.6586 86.4C95.1119 86.7467 94.8386 87.2267 94.8386 87.84C94.8386 88.1733 94.9253 88.5 95.0986 88.82C95.2853 89.1267 95.5519 89.38 95.8986 89.58C96.2586 89.78 96.6986 89.88 97.2186 89.88C97.7653 89.88 98.2853 89.7733 98.7786 89.56C99.2719 89.3333 99.6653 89.0533 99.9586 88.72ZM114.113 91H112.353V85.16C112.353 84.0533 112.179 83.2467 111.833 82.74C111.499 82.22 110.986 81.96 110.293 81.96C109.813 81.96 109.333 82.08 108.853 82.32C108.386 82.56 107.966 82.8867 107.593 83.3C107.233 83.7 106.973 84.1667 106.813 84.7V91H105.053V80.56H106.653V82.8C106.933 82.3067 107.293 81.88 107.733 81.52C108.173 81.16 108.673 80.88 109.233 80.68C109.793 80.48 110.379 80.38 110.993 80.38C111.593 80.38 112.093 80.4933 112.493 80.72C112.906 80.9333 113.226 81.24 113.453 81.64C113.693 82.0267 113.859 82.4867 113.953 83.02C114.059 83.5533 114.113 84.1333 114.113 84.76V91ZM116.03 87.98C116.03 87.3133 116.216 86.74 116.59 86.26C116.976 85.7667 117.503 85.3867 118.17 85.12C118.836 84.8533 119.61 84.72 120.49 84.72C120.956 84.72 121.45 84.76 121.97 84.84C122.49 84.9067 122.95 85.0133 123.35 85.16V84.4C123.35 83.6 123.11 82.9733 122.63 82.52C122.15 82.0533 121.47 81.82 120.59 81.82C120.016 81.82 119.463 81.9267 118.93 82.14C118.41 82.34 117.856 82.6333 117.27 83.02L116.63 81.78C117.31 81.3133 117.99 80.9667 118.67 80.74C119.35 80.5 120.056 80.38 120.79 80.38C122.123 80.38 123.176 80.7533 123.95 81.5C124.723 82.2333 125.11 83.26 125.11 84.58V89C125.11 89.2133 125.15 89.3733 125.23 89.48C125.323 89.5733 125.47 89.6267 125.67 89.64V91C125.496 91.0267 125.343 91.0467 125.21 91.06C125.09 91.0733 124.99 91.08 124.91 91.08C124.496 91.08 124.183 90.9667 123.97 90.74C123.77 90.5133 123.656 90.2733 123.63 90.02L123.59 89.36C123.136 89.9467 122.543 90.4 121.81 90.72C121.076 91.04 120.35 91.2 119.63 91.2C118.936 91.2 118.316 91.06 117.77 90.78C117.223 90.4867 116.796 90.1 116.49 89.62C116.183 89.1267 116.03 88.58 116.03 87.98ZM122.83 88.72C122.99 88.5333 123.116 88.3467 123.21 88.16C123.303 87.96 123.35 87.7933 123.35 87.66V86.36C122.936 86.2 122.503 86.08 122.05 86C121.596 85.9067 121.15 85.86 120.71 85.86C119.816 85.86 119.09 86.04 118.53 86.4C117.983 86.7467 117.71 87.2267 117.71 87.84C117.71 88.1733 117.796 88.5 117.97 88.82C118.156 89.1267 118.423 89.38 118.77 89.58C119.13 89.78 119.57 89.88 120.09 89.88C120.636 89.88 121.156 89.7733 121.65 89.56C122.143 89.3333 122.536 89.0533 122.83 88.72ZM132.084 91.12C131.377 91.12 130.724 90.98 130.124 90.7C129.537 90.4067 129.031 90.0133 128.604 89.52C128.177 89.0133 127.844 88.44 127.604 87.8C127.377 87.16 127.264 86.4933 127.264 85.8C127.264 85.0667 127.377 84.3733 127.604 83.72C127.844 83.0667 128.177 82.4933 128.604 82C129.044 81.4933 129.557 81.1 130.144 80.82C130.731 80.5267 131.384 80.38 132.104 80.38C132.971 80.38 133.724 80.5933 134.364 81.02C135.017 81.4467 135.564 81.9867 136.004 82.64V80.56H137.564V90.88C137.564 91.8667 137.324 92.7 136.844 93.38C136.377 94.06 135.737 94.5733 134.924 94.92C134.124 95.28 133.231 95.46 132.244 95.46C131.071 95.46 130.111 95.2533 129.364 94.84C128.617 94.4267 127.997 93.8667 127.504 93.16L128.524 92.26C128.937 92.8733 129.471 93.3333 130.124 93.64C130.791 93.9467 131.497 94.1 132.244 94.1C132.884 94.1 133.471 93.98 134.004 93.74C134.551 93.5133 134.984 93.16 135.304 92.68C135.637 92.2 135.804 91.6 135.804 90.88V89.04C135.417 89.68 134.884 90.1867 134.204 90.56C133.537 90.9333 132.831 91.12 132.084 91.12ZM132.624 89.68C132.997 89.68 133.357 89.6133 133.704 89.48C134.051 89.3467 134.371 89.1733 134.664 88.96C134.957 88.7333 135.204 88.48 135.404 88.2C135.604 87.92 135.737 87.6333 135.804 87.34V84.34C135.617 83.86 135.351 83.44 135.004 83.08C134.657 82.7067 134.264 82.42 133.824 82.22C133.384 82.0067 132.931 81.9 132.464 81.9C131.931 81.9 131.451 82.0133 131.024 82.24C130.611 82.4667 130.257 82.7733 129.964 83.16C129.671 83.5333 129.444 83.9533 129.284 84.42C129.124 84.8867 129.044 85.36 129.044 85.84C129.044 86.36 129.137 86.8533 129.324 87.32C129.511 87.7733 129.764 88.18 130.084 88.54C130.404 88.9 130.784 89.18 131.224 89.38C131.664 89.58 132.131 89.68 132.624 89.68ZM145.024 91.2C144.238 91.2 143.518 91.06 142.864 90.78C142.224 90.4867 141.664 90.0933 141.184 89.6C140.718 89.0933 140.351 88.5133 140.084 87.86C139.831 87.2067 139.704 86.5133 139.704 85.78C139.704 84.7933 139.931 83.8933 140.384 83.08C140.838 82.2667 141.464 81.6133 142.264 81.12C143.078 80.6267 144.004 80.38 145.044 80.38C146.098 80.38 147.011 80.6333 147.784 81.14C148.571 81.6333 149.178 82.2867 149.604 83.1C150.044 83.9 150.264 84.7667 150.264 85.7C150.264 85.8333 150.258 85.9667 150.244 86.1C150.244 86.22 150.238 86.3133 150.224 86.38H141.564C141.618 87.06 141.804 87.6667 142.124 88.2C142.458 88.72 142.884 89.1333 143.404 89.44C143.924 89.7333 144.484 89.88 145.084 89.88C145.724 89.88 146.324 89.72 146.884 89.4C147.458 89.08 147.851 88.66 148.064 88.14L149.584 88.56C149.358 89.0667 149.018 89.52 148.564 89.92C148.124 90.32 147.598 90.6333 146.984 90.86C146.384 91.0867 145.731 91.2 145.024 91.2ZM141.504 85.16H148.624C148.571 84.48 148.378 83.88 148.044 83.36C147.711 82.84 147.284 82.4333 146.764 82.14C146.244 81.8467 145.671 81.7 145.044 81.7C144.431 81.7 143.864 81.8467 143.344 82.14C142.824 82.4333 142.398 82.84 142.064 83.36C141.744 83.88 141.558 84.48 141.504 85.16ZM167.961 91H166.201V85.16C166.201 84.0667 166.021 83.26 165.661 82.74C165.314 82.22 164.794 81.96 164.101 81.96C163.394 81.96 162.754 82.22 162.181 82.74C161.607 83.2467 161.201 83.9067 160.961 84.72V91H159.201V85.16C159.201 84.0533 159.027 83.2467 158.681 82.74C158.334 82.22 157.814 81.96 157.121 81.96C156.427 81.96 155.787 82.2133 155.201 82.72C154.627 83.2133 154.221 83.8733 153.981 84.7V91H152.221V80.56H153.821V82.8C154.247 82.0267 154.801 81.4333 155.481 81.02C156.161 80.5933 156.927 80.38 157.781 80.38C158.647 80.38 159.341 80.62 159.861 81.1C160.381 81.5667 160.701 82.1733 160.821 82.92C161.287 82.0933 161.854 81.4667 162.521 81.04C163.187 80.6 163.947 80.38 164.801 80.38C165.401 80.38 165.901 80.4933 166.301 80.72C166.714 80.9333 167.041 81.24 167.281 81.64C167.521 82.0267 167.694 82.4867 167.801 83.02C167.907 83.5533 167.961 84.1333 167.961 84.76V91ZM175.317 91.2C174.531 91.2 173.811 91.06 173.157 90.78C172.517 90.4867 171.957 90.0933 171.477 89.6C171.011 89.0933 170.644 88.5133 170.377 87.86C170.124 87.2067 169.997 86.5133 169.997 85.78C169.997 84.7933 170.224 83.8933 170.677 83.08C171.131 82.2667 171.757 81.6133 172.557 81.12C173.371 80.6267 174.297 80.38 175.337 80.38C176.391 80.38 177.304 80.6333 178.077 81.14C178.864 81.6333 179.471 82.2867 179.897 83.1C180.337 83.9 180.557 84.7667 180.557 85.7C180.557 85.8333 180.551 85.9667 180.537 86.1C180.537 86.22 180.531 86.3133 180.517 86.38H171.857C171.911 87.06 172.097 87.6667 172.417 88.2C172.751 88.72 173.177 89.1333 173.697 89.44C174.217 89.7333 174.777 89.88 175.377 89.88C176.017 89.88 176.617 89.72 177.177 89.4C177.751 89.08 178.144 88.66 178.357 88.14L179.877 88.56C179.651 89.0667 179.311 89.52 178.857 89.92C178.417 90.32 177.891 90.6333 177.277 90.86C176.677 91.0867 176.024 91.2 175.317 91.2ZM171.797 85.16H178.917C178.864 84.48 178.671 83.88 178.337 83.36C178.004 82.84 177.577 82.4333 177.057 82.14C176.537 81.8467 175.964 81.7 175.337 81.7C174.724 81.7 174.157 81.8467 173.637 82.14C173.117 82.4333 172.691 82.84 172.357 83.36C172.037 83.88 171.851 84.48 171.797 85.16ZM191.574 91H189.814V85.16C189.814 84.0533 189.64 83.2467 189.294 82.74C188.96 82.22 188.447 81.96 187.754 81.96C187.274 81.96 186.794 82.08 186.314 82.32C185.847 82.56 185.427 82.8867 185.054 83.3C184.694 83.7 184.434 84.1667 184.274 84.7V91H182.514V80.56H184.114V82.8C184.394 82.3067 184.754 81.88 185.194 81.52C185.634 81.16 186.134 80.88 186.694 80.68C187.254 80.48 187.84 80.38 188.454 80.38C189.054 80.38 189.554 80.4933 189.954 80.72C190.367 80.9333 190.687 81.24 190.914 81.64C191.154 82.0267 191.32 82.4867 191.414 83.02C191.52 83.5533 191.574 84.1333 191.574 84.76V91ZM199.613 90.48C199.466 90.5467 199.266 90.6333 199.013 90.74C198.76 90.8467 198.466 90.94 198.133 91.02C197.8 91.1 197.446 91.14 197.073 91.14C196.646 91.14 196.253 91.0667 195.893 90.92C195.533 90.76 195.246 90.52 195.033 90.2C194.82 89.8667 194.713 89.4533 194.713 88.96V81.94H193.293V80.56H194.713V77.08H196.473V80.56H198.813V81.94H196.473V88.42C196.5 88.7933 196.626 89.0733 196.853 89.26C197.08 89.4333 197.346 89.52 197.653 89.52C198 89.52 198.32 89.46 198.613 89.34C198.906 89.22 199.1 89.1333 199.193 89.08L199.613 90.48Z" fill="#00ABB8"/>
<rect x="112" y="124" width="50" height="4" fill="#00ABB8"/>
</svg>
