<svg width="1440" height="212" viewBox="0 0 1440 212" fill="none" xmlns="http://www.w3.org/2000/svg">
<rect width="271" height="212" transform="translate(1169)" fill="#365564"/>
<path d="M1275.36 67L1275.34 56.8L1270.28 65.3H1269.36L1264.3 56.86V67H1262.38V53H1264.02L1269.86 62.84L1275.62 53H1277.26L1277.28 67H1275.36ZM1285.06 56.3C1286.53 56.3 1287.65 56.66 1288.42 57.38C1289.21 58.1 1289.6 59.1733 1289.6 60.6V67H1287.78V65.6C1287.46 66.0933 1287 66.4733 1286.4 66.74C1285.81 66.9933 1285.11 67.12 1284.3 67.12C1283.11 67.12 1282.16 66.8333 1281.44 66.26C1280.73 65.6867 1280.38 64.9333 1280.38 64C1280.38 63.0667 1280.72 62.32 1281.4 61.76C1282.08 61.1867 1283.16 60.9 1284.64 60.9H1287.68V60.52C1287.68 59.6933 1287.44 59.06 1286.96 58.62C1286.48 58.18 1285.77 57.96 1284.84 57.96C1284.21 57.96 1283.6 58.0667 1283 58.28C1282.4 58.48 1281.89 58.7533 1281.48 59.1L1280.68 57.66C1281.23 57.22 1281.88 56.8867 1282.64 56.66C1283.4 56.42 1284.21 56.3 1285.06 56.3ZM1284.62 65.64C1285.35 65.64 1285.99 65.48 1286.52 65.16C1287.05 64.8267 1287.44 64.36 1287.68 63.76V62.28H1284.72C1283.09 62.28 1282.28 62.8267 1282.28 63.92C1282.28 64.4533 1282.49 64.8733 1282.9 65.18C1283.31 65.4867 1283.89 65.64 1284.62 65.64ZM1299.11 66.38C1298.83 66.62 1298.49 66.8067 1298.07 66.94C1297.66 67.06 1297.23 67.12 1296.79 67.12C1295.73 67.12 1294.9 66.8333 1294.31 66.26C1293.73 65.6867 1293.43 64.8667 1293.43 63.8V57.98H1291.63V56.4H1293.43V54.08H1295.35V56.4H1298.39V57.98H1295.35V63.72C1295.35 64.2933 1295.49 64.7333 1295.77 65.04C1296.07 65.3467 1296.48 65.5 1297.01 65.5C1297.6 65.5 1298.1 65.3333 1298.51 65L1299.11 66.38ZM1310.66 61.76C1310.66 61.9067 1310.65 62.1 1310.62 62.34H1302.02C1302.14 63.2733 1302.55 64.0267 1303.24 64.6C1303.95 65.16 1304.82 65.44 1305.86 65.44C1307.13 65.44 1308.15 65.0133 1308.92 64.16L1309.98 65.4C1309.5 65.96 1308.9 66.3867 1308.18 66.68C1307.48 66.9733 1306.68 67.12 1305.8 67.12C1304.68 67.12 1303.69 66.8933 1302.82 66.44C1301.96 65.9733 1301.28 65.3267 1300.8 64.5C1300.34 63.6733 1300.1 62.74 1300.1 61.7C1300.1 60.6733 1300.33 59.7467 1300.78 58.92C1301.25 58.0933 1301.88 57.4533 1302.68 57C1303.5 56.5333 1304.41 56.3 1305.42 56.3C1306.44 56.3 1307.34 56.5333 1308.12 57C1308.92 57.4533 1309.54 58.0933 1309.98 58.92C1310.44 59.7467 1310.66 60.6933 1310.66 61.76ZM1305.42 57.92C1304.5 57.92 1303.73 58.2 1303.1 58.76C1302.49 59.32 1302.13 60.0533 1302.02 60.96H1308.82C1308.72 60.0667 1308.35 59.34 1307.72 58.78C1307.11 58.2067 1306.34 57.92 1305.42 57.92ZM1315.17 58.18C1315.5 57.5667 1316 57.1 1316.65 56.78C1317.3 56.46 1318.1 56.3 1319.03 56.3V58.16C1318.92 58.1467 1318.78 58.14 1318.59 58.14C1317.55 58.14 1316.73 58.4533 1316.13 59.08C1315.54 59.6933 1315.25 60.5733 1315.25 61.72V67H1313.33V56.4H1315.17V58.18ZM1321.4 56.4H1323.32V67H1321.4V56.4ZM1322.36 54.36C1321.98 54.36 1321.67 54.24 1321.42 54C1321.18 53.76 1321.06 53.4667 1321.06 53.12C1321.06 52.7733 1321.18 52.48 1321.42 52.24C1321.67 51.9867 1321.98 51.86 1322.36 51.86C1322.73 51.86 1323.04 51.98 1323.28 52.22C1323.53 52.4467 1323.66 52.7333 1323.66 53.08C1323.66 53.44 1323.53 53.7467 1323.28 54C1323.04 54.24 1322.73 54.36 1322.36 54.36ZM1330.84 56.3C1332.31 56.3 1333.43 56.66 1334.2 57.38C1334.99 58.1 1335.38 59.1733 1335.38 60.6V67H1333.56V65.6C1333.24 66.0933 1332.78 66.4733 1332.18 66.74C1331.6 66.9933 1330.9 67.12 1330.08 67.12C1328.9 67.12 1327.94 66.8333 1327.22 66.26C1326.52 65.6867 1326.16 64.9333 1326.16 64C1326.16 63.0667 1326.5 62.32 1327.18 61.76C1327.86 61.1867 1328.94 60.9 1330.42 60.9H1333.46V60.52C1333.46 59.6933 1333.22 59.06 1332.74 58.62C1332.26 58.18 1331.56 57.96 1330.62 57.96C1330 57.96 1329.38 58.0667 1328.78 58.28C1328.18 58.48 1327.68 58.7533 1327.26 59.1L1326.46 57.66C1327.01 57.22 1327.66 56.8867 1328.42 56.66C1329.18 56.42 1329.99 56.3 1330.84 56.3ZM1330.4 65.64C1331.14 65.64 1331.77 65.48 1332.3 65.16C1332.84 64.8267 1333.22 64.36 1333.46 63.76V62.28H1330.5C1328.88 62.28 1328.06 62.8267 1328.06 63.92C1328.06 64.4533 1328.27 64.8733 1328.68 65.18C1329.1 65.4867 1329.67 65.64 1330.4 65.64ZM1338.94 52.16H1340.86V67H1338.94V52.16ZM1347.56 67.12C1346.69 67.12 1345.86 67.0067 1345.06 66.78C1344.26 66.54 1343.63 66.24 1343.18 65.88L1343.98 64.36C1344.45 64.6933 1345.01 64.96 1345.68 65.16C1346.35 65.36 1347.02 65.46 1347.7 65.46C1349.38 65.46 1350.22 64.98 1350.22 64.02C1350.22 63.7 1350.11 63.4467 1349.88 63.26C1349.65 63.0733 1349.37 62.94 1349.02 62.86C1348.69 62.7667 1348.21 62.6667 1347.58 62.56C1346.73 62.4267 1346.03 62.2733 1345.48 62.1C1344.95 61.9267 1344.49 61.6333 1344.1 61.22C1343.71 60.8067 1343.52 60.2267 1343.52 59.48C1343.52 58.52 1343.92 57.7533 1344.72 57.18C1345.52 56.5933 1346.59 56.3 1347.94 56.3C1348.65 56.3 1349.35 56.3867 1350.06 56.56C1350.77 56.7333 1351.35 56.9667 1351.8 57.26L1350.98 58.78C1350.11 58.22 1349.09 57.94 1347.92 57.94C1347.11 57.94 1346.49 58.0733 1346.06 58.34C1345.63 58.6067 1345.42 58.96 1345.42 59.4C1345.42 59.7467 1345.54 60.02 1345.78 60.22C1346.02 60.42 1346.31 60.5667 1346.66 60.66C1347.02 60.7533 1347.52 60.86 1348.16 60.98C1349.01 61.1267 1349.7 61.2867 1350.22 61.46C1350.75 61.62 1351.21 61.9 1351.58 62.3C1351.95 62.7 1352.14 63.26 1352.14 63.98C1352.14 64.94 1351.73 65.7067 1350.9 66.28C1350.09 66.84 1348.97 67.12 1347.56 67.12ZM1252.55 91L1252.53 80.8L1247.47 89.3H1246.55L1241.49 80.86V91H1239.57V77H1241.21L1247.05 86.84L1252.81 77H1254.45L1254.47 91H1252.55ZM1262.25 80.3C1263.72 80.3 1264.84 80.66 1265.61 81.38C1266.4 82.1 1266.79 83.1733 1266.79 84.6V91H1264.97V89.6C1264.65 90.0933 1264.19 90.4733 1263.59 90.74C1263 90.9933 1262.3 91.12 1261.49 91.12C1260.3 91.12 1259.35 90.8333 1258.63 90.26C1257.92 89.6867 1257.57 88.9333 1257.57 88C1257.57 87.0667 1257.91 86.32 1258.59 85.76C1259.27 85.1867 1260.35 84.9 1261.83 84.9H1264.87V84.52C1264.87 83.6933 1264.63 83.06 1264.15 82.62C1263.67 82.18 1262.96 81.96 1262.03 81.96C1261.4 81.96 1260.79 82.0667 1260.19 82.28C1259.59 82.48 1259.08 82.7533 1258.67 83.1L1257.87 81.66C1258.42 81.22 1259.07 80.8867 1259.83 80.66C1260.59 80.42 1261.4 80.3 1262.25 80.3ZM1261.81 89.64C1262.54 89.64 1263.18 89.48 1263.71 89.16C1264.24 88.8267 1264.63 88.36 1264.87 87.76V86.28H1261.91C1260.28 86.28 1259.47 86.8267 1259.47 87.92C1259.47 88.4533 1259.68 88.8733 1260.09 89.18C1260.5 89.4867 1261.08 89.64 1261.81 89.64ZM1276 80.3C1277.35 80.3 1278.41 80.6933 1279.2 81.48C1280 82.2533 1280.4 83.3933 1280.4 84.9V91H1278.48V85.12C1278.48 84.0933 1278.23 83.32 1277.74 82.8C1277.25 82.28 1276.54 82.02 1275.62 82.02C1274.58 82.02 1273.76 82.3267 1273.16 82.94C1272.56 83.54 1272.26 84.4067 1272.26 85.54V91H1270.34V80.4H1272.18V82C1272.57 81.4533 1273.09 81.0333 1273.74 80.74C1274.41 80.4467 1275.16 80.3 1276 80.3ZM1287.81 80.3C1289.28 80.3 1290.4 80.66 1291.17 81.38C1291.96 82.1 1292.35 83.1733 1292.35 84.6V91H1290.53V89.6C1290.21 90.0933 1289.75 90.4733 1289.15 90.74C1288.57 90.9933 1287.87 91.12 1287.05 91.12C1285.87 91.12 1284.91 90.8333 1284.19 90.26C1283.49 89.6867 1283.13 88.9333 1283.13 88C1283.13 87.0667 1283.47 86.32 1284.15 85.76C1284.83 85.1867 1285.91 84.9 1287.39 84.9H1290.43V84.52C1290.43 83.6933 1290.19 83.06 1289.71 82.62C1289.23 82.18 1288.53 81.96 1287.59 81.96C1286.97 81.96 1286.35 82.0667 1285.75 82.28C1285.15 82.48 1284.65 82.7533 1284.23 83.1L1283.43 81.66C1283.98 81.22 1284.63 80.8867 1285.39 80.66C1286.15 80.42 1286.96 80.3 1287.81 80.3ZM1287.37 89.64C1288.11 89.64 1288.74 89.48 1289.27 89.16C1289.81 88.8267 1290.19 88.36 1290.43 87.76V86.28H1287.47C1285.85 86.28 1285.03 86.8267 1285.03 87.92C1285.03 88.4533 1285.24 88.8733 1285.65 89.18C1286.07 89.4867 1286.64 89.64 1287.37 89.64ZM1306.11 80.4V89.56C1306.11 91.4133 1305.65 92.78 1304.73 93.66C1303.81 94.5533 1302.43 95 1300.61 95C1299.61 95 1298.65 94.86 1297.75 94.58C1296.84 94.3133 1296.11 93.9267 1295.55 93.42L1296.47 91.94C1296.96 92.3667 1297.57 92.7 1298.29 92.94C1299.02 93.1933 1299.77 93.32 1300.55 93.32C1301.79 93.32 1302.7 93.0267 1303.29 92.44C1303.89 91.8533 1304.19 90.96 1304.19 89.76V88.92C1303.73 89.4667 1303.17 89.88 1302.51 90.16C1301.85 90.4267 1301.14 90.56 1300.37 90.56C1299.35 90.56 1298.43 90.3467 1297.61 89.92C1296.79 89.48 1296.15 88.8733 1295.69 88.1C1295.22 87.3133 1294.99 86.42 1294.99 85.42C1294.99 84.42 1295.22 83.5333 1295.69 82.76C1296.15 81.9733 1296.79 81.3667 1297.61 80.94C1298.43 80.5133 1299.35 80.3 1300.37 80.3C1301.17 80.3 1301.91 80.4467 1302.59 80.74C1303.28 81.0333 1303.85 81.4667 1304.29 82.04V80.4H1306.11ZM1300.59 88.88C1301.28 88.88 1301.9 88.7333 1302.45 88.44C1303.01 88.1467 1303.44 87.74 1303.75 87.22C1304.07 86.6867 1304.23 86.0867 1304.23 85.42C1304.23 84.3933 1303.89 83.5667 1303.21 82.94C1302.53 82.3 1301.65 81.98 1300.59 81.98C1299.51 81.98 1298.63 82.3 1297.95 82.94C1297.27 83.5667 1296.93 84.3933 1296.93 85.42C1296.93 86.0867 1297.08 86.6867 1297.39 87.22C1297.71 87.74 1298.14 88.1467 1298.69 88.44C1299.25 88.7333 1299.88 88.88 1300.59 88.88ZM1319.36 85.76C1319.36 85.9067 1319.34 86.1 1319.32 86.34H1310.72C1310.84 87.2733 1311.24 88.0267 1311.94 88.6C1312.64 89.16 1313.52 89.44 1314.56 89.44C1315.82 89.44 1316.84 89.0133 1317.62 88.16L1318.68 89.4C1318.2 89.96 1317.6 90.3867 1316.88 90.68C1316.17 90.9733 1315.38 91.12 1314.5 91.12C1313.38 91.12 1312.38 90.8933 1311.52 90.44C1310.65 89.9733 1309.98 89.3267 1309.5 88.5C1309.03 87.6733 1308.8 86.74 1308.8 85.7C1308.8 84.6733 1309.02 83.7467 1309.48 82.92C1309.94 82.0933 1310.58 81.4533 1311.38 81C1312.19 80.5333 1313.1 80.3 1314.12 80.3C1315.13 80.3 1316.03 80.5333 1316.82 81C1317.62 81.4533 1318.24 82.0933 1318.68 82.92C1319.13 83.7467 1319.36 84.6933 1319.36 85.76ZM1314.12 81.92C1313.2 81.92 1312.42 82.2 1311.8 82.76C1311.18 83.32 1310.82 84.0533 1310.72 84.96H1317.52C1317.41 84.0667 1317.04 83.34 1316.42 82.78C1315.8 82.2067 1315.04 81.92 1314.12 81.92ZM1335.28 80.3C1336.61 80.3 1337.67 80.6867 1338.44 81.46C1339.23 82.2333 1339.62 83.38 1339.62 84.9V91H1337.7V85.12C1337.7 84.0933 1337.46 83.32 1336.98 82.8C1336.51 82.28 1335.84 82.02 1334.96 82.02C1333.99 82.02 1333.21 82.3267 1332.64 82.94C1332.07 83.54 1331.78 84.4067 1331.78 85.54V91H1329.86V85.12C1329.86 84.0933 1329.62 83.32 1329.14 82.8C1328.67 82.28 1328 82.02 1327.12 82.02C1326.15 82.02 1325.37 82.3267 1324.8 82.94C1324.23 83.54 1323.94 84.4067 1323.94 85.54V91H1322.02V80.4H1323.86V81.98C1324.25 81.4333 1324.75 81.02 1325.38 80.74C1326.01 80.4467 1326.72 80.3 1327.52 80.3C1328.35 80.3 1329.08 80.4667 1329.72 80.8C1330.36 81.1333 1330.85 81.62 1331.2 82.26C1331.6 81.6467 1332.15 81.1667 1332.86 80.82C1333.58 80.4733 1334.39 80.3 1335.28 80.3ZM1352.79 85.76C1352.79 85.9067 1352.78 86.1 1352.75 86.34H1344.15C1344.27 87.2733 1344.68 88.0267 1345.37 88.6C1346.08 89.16 1346.95 89.44 1347.99 89.44C1349.26 89.44 1350.28 89.0133 1351.05 88.16L1352.11 89.4C1351.63 89.96 1351.03 90.3867 1350.31 90.68C1349.61 90.9733 1348.81 91.12 1347.93 91.12C1346.81 91.12 1345.82 90.8933 1344.95 90.44C1344.09 89.9733 1343.41 89.3267 1342.93 88.5C1342.47 87.6733 1342.23 86.74 1342.23 85.7C1342.23 84.6733 1342.46 83.7467 1342.91 82.92C1343.38 82.0933 1344.01 81.4533 1344.81 81C1345.63 80.5333 1346.54 80.3 1347.55 80.3C1348.57 80.3 1349.47 80.5333 1350.25 81C1351.05 81.4533 1351.67 82.0933 1352.11 82.92C1352.57 83.7467 1352.79 84.6933 1352.79 85.76ZM1347.55 81.92C1346.63 81.92 1345.86 82.2 1345.23 82.76C1344.62 83.32 1344.26 84.0533 1344.15 84.96H1350.95C1350.85 84.0667 1350.48 83.34 1349.85 82.78C1349.24 82.2067 1348.47 81.92 1347.55 81.92ZM1361.12 80.3C1362.47 80.3 1363.53 80.6933 1364.32 81.48C1365.12 82.2533 1365.52 83.3933 1365.52 84.9V91H1363.6V85.12C1363.6 84.0933 1363.35 83.32 1362.86 82.8C1362.37 82.28 1361.66 82.02 1360.74 82.02C1359.7 82.02 1358.88 82.3267 1358.28 82.94C1357.68 83.54 1357.38 84.4067 1357.38 85.54V91H1355.46V80.4H1357.3V82C1357.69 81.4533 1358.21 81.0333 1358.86 80.74C1359.53 80.4467 1360.28 80.3 1361.12 80.3ZM1375.03 90.38C1374.75 90.62 1374.41 90.8067 1373.99 90.94C1373.58 91.06 1373.15 91.12 1372.71 91.12C1371.65 91.12 1370.82 90.8333 1370.23 90.26C1369.65 89.6867 1369.35 88.8667 1369.35 87.8V81.98H1367.55V80.4H1369.35V78.08H1371.27V80.4H1374.31V81.98H1371.27V87.72C1371.27 88.2933 1371.41 88.7333 1371.69 89.04C1371.99 89.3467 1372.4 89.5 1372.93 89.5C1373.52 89.5 1374.02 89.3333 1374.43 89L1375.03 90.38Z" fill="#00ABB8"/>
<rect x="1281" y="124" width="50" height="4" fill="#00ABB8"/>
<rect width="263" height="212" transform="translate(906)" fill="#042B3D" fill-opacity="0.2"/>
<path d="M982.052 54.74H977.252V53H988.832V54.74H984.032V67H982.052V54.74ZM999.216 61.76C999.216 61.9067 999.203 62.1 999.176 62.34H990.576C990.696 63.2733 991.103 64.0267 991.796 64.6C992.503 65.16 993.376 65.44 994.416 65.44C995.683 65.44 996.703 65.0133 997.476 64.16L998.536 65.4C998.056 65.96 997.456 66.3867 996.736 66.68C996.03 66.9733 995.236 67.12 994.356 67.12C993.236 67.12 992.243 66.8933 991.376 66.44C990.51 65.9733 989.836 65.3267 989.356 64.5C988.89 63.6733 988.656 62.74 988.656 61.7C988.656 60.6733 988.883 59.7467 989.336 58.92C989.803 58.0933 990.436 57.4533 991.236 57C992.05 56.5333 992.963 56.3 993.976 56.3C994.99 56.3 995.89 56.5333 996.676 57C997.476 57.4533 998.096 58.0933 998.536 58.92C998.99 59.7467 999.216 60.6933 999.216 61.76ZM993.976 57.92C993.056 57.92 992.283 58.2 991.656 58.76C991.043 59.32 990.683 60.0533 990.576 60.96H997.376C997.27 60.0667 996.903 59.34 996.276 58.78C995.663 58.2067 994.896 57.92 993.976 57.92ZM1007.54 56.3C1008.89 56.3 1009.96 56.6933 1010.74 57.48C1011.54 58.2533 1011.94 59.3933 1011.94 60.9V67H1010.02V61.12C1010.02 60.0933 1009.78 59.32 1009.28 58.8C1008.79 58.28 1008.08 58.02 1007.16 58.02C1006.12 58.02 1005.3 58.3267 1004.7 58.94C1004.1 59.54 1003.8 60.4067 1003.8 61.54V67H1001.88V56.4H1003.72V58C1004.11 57.4533 1004.63 57.0333 1005.28 56.74C1005.95 56.4467 1006.7 56.3 1007.54 56.3ZM1025.55 52.16V67H1023.71V65.32C1023.29 65.9067 1022.75 66.3533 1022.09 66.66C1021.44 66.9667 1020.72 67.12 1019.93 67.12C1018.91 67.12 1017.99 66.8933 1017.17 66.44C1016.36 65.9867 1015.72 65.3533 1015.25 64.54C1014.8 63.7133 1014.57 62.7667 1014.57 61.7C1014.57 60.6333 1014.8 59.6933 1015.25 58.88C1015.72 58.0667 1016.36 57.4333 1017.17 56.98C1017.99 56.5267 1018.91 56.3 1019.93 56.3C1020.69 56.3 1021.39 56.4467 1022.03 56.74C1022.67 57.02 1023.21 57.44 1023.63 58V52.16H1025.55ZM1020.09 65.44C1020.76 65.44 1021.37 65.2867 1021.91 64.98C1022.46 64.66 1022.89 64.22 1023.19 63.66C1023.5 63.0867 1023.65 62.4333 1023.65 61.7C1023.65 60.9667 1023.5 60.32 1023.19 59.76C1022.89 59.1867 1022.46 58.7467 1021.91 58.44C1021.37 58.1333 1020.76 57.98 1020.09 57.98C1019.41 57.98 1018.8 58.1333 1018.25 58.44C1017.72 58.7467 1017.29 59.1867 1016.97 59.76C1016.67 60.32 1016.51 60.9667 1016.51 61.7C1016.51 62.4333 1016.67 63.0867 1016.97 63.66C1017.29 64.22 1017.72 64.66 1018.25 64.98C1018.8 65.2867 1019.41 65.44 1020.09 65.44ZM1038.77 61.76C1038.77 61.9067 1038.75 62.1 1038.73 62.34H1030.13C1030.25 63.2733 1030.65 64.0267 1031.35 64.6C1032.05 65.16 1032.93 65.44 1033.97 65.44C1035.23 65.44 1036.25 65.0133 1037.03 64.16L1038.09 65.4C1037.61 65.96 1037.01 66.3867 1036.29 66.68C1035.58 66.9733 1034.79 67.12 1033.91 67.12C1032.79 67.12 1031.79 66.8933 1030.93 66.44C1030.06 65.9733 1029.39 65.3267 1028.91 64.5C1028.44 63.6733 1028.21 62.74 1028.21 61.7C1028.21 60.6733 1028.43 59.7467 1028.89 58.92C1029.35 58.0933 1029.99 57.4533 1030.79 57C1031.6 56.5333 1032.51 56.3 1033.53 56.3C1034.54 56.3 1035.44 56.5333 1036.23 57C1037.03 57.4533 1037.65 58.0933 1038.09 58.92C1038.54 59.7467 1038.77 60.6933 1038.77 61.76ZM1033.53 57.92C1032.61 57.92 1031.83 58.2 1031.21 58.76C1030.59 59.32 1030.23 60.0533 1030.13 60.96H1036.93C1036.82 60.0667 1036.45 59.34 1035.83 58.78C1035.21 58.2067 1034.45 57.92 1033.53 57.92ZM1043.27 58.18C1043.61 57.5667 1044.1 57.1 1044.75 56.78C1045.41 56.46 1046.2 56.3 1047.13 56.3V58.16C1047.03 58.1467 1046.88 58.14 1046.69 58.14C1045.65 58.14 1044.83 58.4533 1044.23 59.08C1043.65 59.6933 1043.35 60.5733 1043.35 61.72V67H1041.43V56.4H1043.27V58.18ZM1049.5 56.4H1051.42V67H1049.5V56.4ZM1050.46 54.36C1050.09 54.36 1049.77 54.24 1049.52 54C1049.28 53.76 1049.16 53.4667 1049.16 53.12C1049.16 52.7733 1049.28 52.48 1049.52 52.24C1049.77 51.9867 1050.09 51.86 1050.46 51.86C1050.83 51.86 1051.14 51.98 1051.38 52.22C1051.63 52.4467 1051.76 52.7333 1051.76 53.08C1051.76 53.44 1051.63 53.7467 1051.38 54C1051.14 54.24 1050.83 54.36 1050.46 54.36ZM1060.75 56.3C1062.09 56.3 1063.16 56.6933 1063.95 57.48C1064.75 58.2533 1065.15 59.3933 1065.15 60.9V67H1063.23V61.12C1063.23 60.0933 1062.98 59.32 1062.49 58.8C1061.99 58.28 1061.29 58.02 1060.37 58.02C1059.33 58.02 1058.51 58.3267 1057.91 58.94C1057.31 59.54 1057.01 60.4067 1057.01 61.54V67H1055.09V56.4H1056.93V58C1057.31 57.4533 1057.83 57.0333 1058.49 56.74C1059.15 56.4467 1059.91 56.3 1060.75 56.3ZM1078.9 56.4V65.56C1078.9 67.4133 1078.44 68.78 1077.52 69.66C1076.6 70.5533 1075.22 71 1073.4 71C1072.4 71 1071.44 70.86 1070.54 70.58C1069.63 70.3133 1068.9 69.9267 1068.34 69.42L1069.26 67.94C1069.75 68.3667 1070.36 68.7 1071.08 68.94C1071.81 69.1933 1072.56 69.32 1073.34 69.32C1074.58 69.32 1075.49 69.0267 1076.08 68.44C1076.68 67.8533 1076.98 66.96 1076.98 65.76V64.92C1076.52 65.4667 1075.96 65.88 1075.3 66.16C1074.64 66.4267 1073.93 66.56 1073.16 66.56C1072.14 66.56 1071.22 66.3467 1070.4 65.92C1069.58 65.48 1068.94 64.8733 1068.48 64.1C1068.01 63.3133 1067.78 62.42 1067.78 61.42C1067.78 60.42 1068.01 59.5333 1068.48 58.76C1068.94 57.9733 1069.58 57.3667 1070.4 56.94C1071.22 56.5133 1072.14 56.3 1073.16 56.3C1073.96 56.3 1074.7 56.4467 1075.38 56.74C1076.07 57.0333 1076.64 57.4667 1077.08 58.04V56.4H1078.9ZM1073.38 64.88C1074.07 64.88 1074.69 64.7333 1075.24 64.44C1075.8 64.1467 1076.23 63.74 1076.54 63.22C1076.86 62.6867 1077.02 62.0867 1077.02 61.42C1077.02 60.3933 1076.68 59.5667 1076 58.94C1075.32 58.3 1074.44 57.98 1073.38 57.98C1072.3 57.98 1071.42 58.3 1070.74 58.94C1070.06 59.5667 1069.72 60.3933 1069.72 61.42C1069.72 62.0867 1069.87 62.6867 1070.18 63.22C1070.5 63.74 1070.93 64.1467 1071.48 64.44C1072.04 64.7333 1072.67 64.88 1073.38 64.88ZM1098.46 67.22L1096.6 65.36C1095.36 66.56 1093.8 67.16 1091.92 67.16C1090.98 67.16 1090.14 67.0067 1089.4 66.7C1088.65 66.3933 1088.06 65.9667 1087.64 65.42C1087.22 64.86 1087.02 64.2267 1087.02 63.52C1087.02 62.6667 1087.28 61.9133 1087.8 61.26C1088.33 60.5933 1089.2 59.9133 1090.42 59.22C1089.8 58.6067 1089.37 58.0533 1089.12 57.56C1088.86 57.0667 1088.74 56.5533 1088.74 56.02C1088.74 55.0733 1089.08 54.3133 1089.76 53.74C1090.45 53.1667 1091.37 52.88 1092.52 52.88C1093.58 52.88 1094.43 53.14 1095.06 53.66C1095.68 54.18 1096 54.8933 1096 55.8C1096 56.5067 1095.76 57.14 1095.3 57.7C1094.84 58.26 1094.08 58.8467 1093.02 59.46L1096.48 62.9C1096.88 62.14 1097.16 61.2933 1097.34 60.36L1098.88 60.86C1098.64 62.0867 1098.23 63.1533 1097.66 64.06L1099.54 65.94L1098.46 67.22ZM1092.52 54.28C1091.89 54.28 1091.4 54.44 1091.04 54.76C1090.69 55.0667 1090.52 55.4733 1090.52 55.98C1090.52 56.34 1090.61 56.6867 1090.8 57.02C1091 57.3533 1091.38 57.8067 1091.94 58.38C1092.86 57.86 1093.49 57.4133 1093.84 57.04C1094.2 56.6667 1094.38 56.26 1094.38 55.82C1094.38 55.3533 1094.21 54.98 1093.88 54.7C1093.56 54.42 1093.1 54.28 1092.52 54.28ZM1092.04 65.56C1093.42 65.56 1094.56 65.12 1095.46 64.24L1091.48 60.28C1090.52 60.8133 1089.84 61.3133 1089.46 61.78C1089.08 62.2333 1088.9 62.7467 1088.9 63.32C1088.9 63.9867 1089.18 64.5267 1089.76 64.94C1090.34 65.3533 1091.1 65.56 1092.04 65.56ZM983.258 91.16C981.845 91.16 980.571 90.8533 979.438 90.24C978.305 89.6133 977.411 88.7533 976.758 87.66C976.118 86.5667 975.798 85.3467 975.798 84C975.798 82.6533 976.118 81.4333 976.758 80.34C977.411 79.2467 978.305 78.3933 979.438 77.78C980.571 77.1533 981.845 76.84 983.258 76.84C984.658 76.84 985.925 77.1533 987.058 77.78C988.191 78.3933 989.078 79.2467 989.718 80.34C990.358 81.42 990.678 82.64 990.678 84C990.678 85.36 990.358 86.5867 989.718 87.68C989.078 88.76 988.191 89.6133 987.058 90.24C985.925 90.8533 984.658 91.16 983.258 91.16ZM983.258 89.38C984.285 89.38 985.205 89.1467 986.018 88.68C986.845 88.2133 987.491 87.5733 987.958 86.76C988.438 85.9333 988.678 85.0133 988.678 84C988.678 82.9867 988.438 82.0733 987.958 81.26C987.491 80.4333 986.845 79.7867 986.018 79.32C985.205 78.8533 984.285 78.62 983.258 78.62C982.231 78.62 981.298 78.8533 980.458 79.32C979.631 79.7867 978.978 80.4333 978.498 81.26C978.031 82.0733 977.798 82.9867 977.798 84C977.798 85.0133 978.031 85.9333 978.498 86.76C978.978 87.5733 979.631 88.2133 980.458 88.68C981.298 89.1467 982.231 89.38 983.258 89.38ZM1003.33 80.4V91H1001.51V89.4C1001.13 89.9467 1000.61 90.3733 999.975 90.68C999.348 90.9733 998.661 91.12 997.915 91.12C996.501 91.12 995.388 90.7333 994.575 89.96C993.761 89.1733 993.355 88.02 993.355 86.5V80.4H995.275V86.28C995.275 87.3067 995.521 88.0867 996.015 88.62C996.508 89.14 997.215 89.4 998.135 89.4C999.148 89.4 999.948 89.0933 1000.53 88.48C1001.12 87.8667 1001.41 87 1001.41 85.88V80.4H1003.33ZM1012.95 90.38C1012.67 90.62 1012.32 90.8067 1011.91 90.94C1011.5 91.06 1011.07 91.12 1010.63 91.12C1009.56 91.12 1008.74 90.8333 1008.15 90.26C1007.56 89.6867 1007.27 88.8667 1007.27 87.8V81.98H1005.47V80.4H1007.27V78.08H1009.19V80.4H1012.23V81.98H1009.19V87.72C1009.19 88.2933 1009.33 88.7333 1009.61 89.04C1009.9 89.3467 1010.32 89.5 1010.85 89.5C1011.44 89.5 1011.94 89.3333 1012.35 89L1012.95 90.38ZM1018.31 91.12C1017.44 91.12 1016.61 91.0067 1015.81 90.78C1015.01 90.54 1014.38 90.24 1013.93 89.88L1014.73 88.36C1015.2 88.6933 1015.76 88.96 1016.43 89.16C1017.1 89.36 1017.77 89.46 1018.45 89.46C1020.13 89.46 1020.97 88.98 1020.97 88.02C1020.97 87.7 1020.86 87.4467 1020.63 87.26C1020.4 87.0733 1020.12 86.94 1019.77 86.86C1019.44 86.7667 1018.96 86.6667 1018.33 86.56C1017.48 86.4267 1016.78 86.2733 1016.23 86.1C1015.7 85.9267 1015.24 85.6333 1014.85 85.22C1014.46 84.8067 1014.27 84.2267 1014.27 83.48C1014.27 82.52 1014.67 81.7533 1015.47 81.18C1016.27 80.5933 1017.34 80.3 1018.69 80.3C1019.4 80.3 1020.1 80.3867 1020.81 80.56C1021.52 80.7333 1022.1 80.9667 1022.55 81.26L1021.73 82.78C1020.86 82.22 1019.84 81.94 1018.67 81.94C1017.86 81.94 1017.24 82.0733 1016.81 82.34C1016.38 82.6067 1016.17 82.96 1016.17 83.4C1016.17 83.7467 1016.29 84.02 1016.53 84.22C1016.77 84.42 1017.06 84.5667 1017.41 84.66C1017.77 84.7533 1018.27 84.86 1018.91 84.98C1019.76 85.1267 1020.45 85.2867 1020.97 85.46C1021.5 85.62 1021.96 85.9 1022.33 86.3C1022.7 86.7 1022.89 87.26 1022.89 87.98C1022.89 88.94 1022.48 89.7067 1021.65 90.28C1020.84 90.84 1019.72 91.12 1018.31 91.12ZM1029.83 91.12C1028.78 91.12 1027.83 90.8867 1026.99 90.42C1026.15 89.9533 1025.49 89.3133 1025.01 88.5C1024.54 87.6733 1024.31 86.74 1024.31 85.7C1024.31 84.66 1024.54 83.7333 1025.01 82.92C1025.49 82.0933 1026.15 81.4533 1026.99 81C1027.83 80.5333 1028.78 80.3 1029.83 80.3C1030.88 80.3 1031.82 80.5333 1032.65 81C1033.49 81.4533 1034.14 82.0933 1034.61 82.92C1035.09 83.7333 1035.33 84.66 1035.33 85.7C1035.33 86.74 1035.09 87.6733 1034.61 88.5C1034.14 89.3133 1033.49 89.9533 1032.65 90.42C1031.82 90.8867 1030.88 91.12 1029.83 91.12ZM1029.83 89.44C1030.51 89.44 1031.12 89.2867 1031.65 88.98C1032.2 88.66 1032.62 88.22 1032.93 87.66C1033.24 87.0867 1033.39 86.4333 1033.39 85.7C1033.39 84.9667 1033.24 84.32 1032.93 83.76C1032.62 83.1867 1032.2 82.7467 1031.65 82.44C1031.12 82.1333 1030.51 81.98 1029.83 81.98C1029.15 81.98 1028.54 82.1333 1027.99 82.44C1027.46 82.7467 1027.03 83.1867 1026.71 83.76C1026.4 84.32 1026.25 84.9667 1026.25 85.7C1026.25 86.4333 1026.4 87.0867 1026.71 87.66C1027.03 88.22 1027.46 88.66 1027.99 88.98C1028.54 89.2867 1029.15 89.44 1029.83 89.44ZM1047.87 80.4V91H1046.05V89.4C1045.66 89.9467 1045.15 90.3733 1044.51 90.68C1043.88 90.9733 1043.19 91.12 1042.45 91.12C1041.03 91.12 1039.92 90.7333 1039.11 89.96C1038.29 89.1733 1037.89 88.02 1037.89 86.5V80.4H1039.81V86.28C1039.81 87.3067 1040.05 88.0867 1040.55 88.62C1041.04 89.14 1041.75 89.4 1042.67 89.4C1043.68 89.4 1044.48 89.0933 1045.07 88.48C1045.65 87.8667 1045.95 87 1045.95 85.88V80.4H1047.87ZM1053.36 82.18C1053.69 81.5667 1054.19 81.1 1054.84 80.78C1055.49 80.46 1056.29 80.3 1057.22 80.3V82.16C1057.11 82.1467 1056.97 82.14 1056.78 82.14C1055.74 82.14 1054.92 82.4533 1054.32 83.08C1053.73 83.6933 1053.44 84.5733 1053.44 85.72V91H1051.52V80.4H1053.36V82.18ZM1064.11 91.12C1063.03 91.12 1062.06 90.8867 1061.21 90.42C1060.37 89.9533 1059.71 89.3133 1059.23 88.5C1058.75 87.6733 1058.51 86.74 1058.51 85.7C1058.51 84.66 1058.75 83.7333 1059.23 82.92C1059.71 82.0933 1060.37 81.4533 1061.21 81C1062.06 80.5333 1063.03 80.3 1064.11 80.3C1065.07 80.3 1065.92 80.4933 1066.67 80.88C1067.43 81.2667 1068.02 81.8267 1068.43 82.56L1066.97 83.5C1066.64 82.9933 1066.22 82.6133 1065.73 82.36C1065.24 82.1067 1064.69 81.98 1064.09 81.98C1063.4 81.98 1062.77 82.1333 1062.21 82.44C1061.66 82.7467 1061.23 83.1867 1060.91 83.76C1060.6 84.32 1060.45 84.9667 1060.45 85.7C1060.45 86.4467 1060.6 87.1067 1060.91 87.68C1061.23 88.24 1061.66 88.6733 1062.21 88.98C1062.77 89.2867 1063.4 89.44 1064.09 89.44C1064.69 89.44 1065.24 89.3133 1065.73 89.06C1066.22 88.8067 1066.64 88.4267 1066.97 87.92L1068.43 88.84C1068.02 89.5733 1067.43 90.14 1066.67 90.54C1065.92 90.9267 1065.07 91.12 1064.11 91.12ZM1070.92 80.4H1072.84V91H1070.92V80.4ZM1071.88 78.36C1071.5 78.36 1071.19 78.24 1070.94 78C1070.7 77.76 1070.58 77.4667 1070.58 77.12C1070.58 76.7733 1070.7 76.48 1070.94 76.24C1071.19 75.9867 1071.5 75.86 1071.88 75.86C1072.25 75.86 1072.56 75.98 1072.8 76.22C1073.05 76.4467 1073.18 76.7333 1073.18 77.08C1073.18 77.44 1073.05 77.7467 1072.8 78C1072.56 78.24 1072.25 78.36 1071.88 78.36ZM1082.16 80.3C1083.51 80.3 1084.57 80.6933 1085.36 81.48C1086.16 82.2533 1086.56 83.3933 1086.56 84.9V91H1084.64V85.12C1084.64 84.0933 1084.39 83.32 1083.9 82.8C1083.41 82.28 1082.7 82.02 1081.78 82.02C1080.74 82.02 1079.92 82.3267 1079.32 82.94C1078.72 83.54 1078.42 84.4067 1078.42 85.54V91H1076.5V80.4H1078.34V82C1078.73 81.4533 1079.25 81.0333 1079.9 80.74C1080.57 80.4467 1081.32 80.3 1082.16 80.3ZM1100.31 80.4V89.56C1100.31 91.4133 1099.85 92.78 1098.93 93.66C1098.01 94.5533 1096.64 95 1094.81 95C1093.81 95 1092.86 94.86 1091.95 94.58C1091.05 94.3133 1090.31 93.9267 1089.75 93.42L1090.67 91.94C1091.17 92.3667 1091.77 92.7 1092.49 92.94C1093.23 93.1933 1093.98 93.32 1094.75 93.32C1095.99 93.32 1096.91 93.0267 1097.49 92.44C1098.09 91.8533 1098.39 90.96 1098.39 89.76V88.92C1097.94 89.4667 1097.38 89.88 1096.71 90.16C1096.06 90.4267 1095.35 90.56 1094.57 90.56C1093.56 90.56 1092.64 90.3467 1091.81 89.92C1091 89.48 1090.36 88.8733 1089.89 88.1C1089.43 87.3133 1089.19 86.42 1089.19 85.42C1089.19 84.42 1089.43 83.5333 1089.89 82.76C1090.36 81.9733 1091 81.3667 1091.81 80.94C1092.64 80.5133 1093.56 80.3 1094.57 80.3C1095.37 80.3 1096.11 80.4467 1096.79 80.74C1097.49 81.0333 1098.05 81.4667 1098.49 82.04V80.4H1100.31ZM1094.79 88.88C1095.49 88.88 1096.11 88.7333 1096.65 88.44C1097.21 88.1467 1097.65 87.74 1097.95 87.22C1098.27 86.6867 1098.43 86.0867 1098.43 85.42C1098.43 84.3933 1098.09 83.5667 1097.41 82.94C1096.73 82.3 1095.86 81.98 1094.79 81.98C1093.71 81.98 1092.83 82.3 1092.15 82.94C1091.47 83.5667 1091.13 84.3933 1091.13 85.42C1091.13 86.0867 1091.29 86.6867 1091.59 87.22C1091.91 87.74 1092.35 88.1467 1092.89 88.44C1093.45 88.7333 1094.09 88.88 1094.79 88.88Z" fill="#00ABB8"/>
<rect x="1013" y="124" width="50" height="4" fill="#00ABB8"/>
<rect width="234" height="212" transform="translate(672)" fill="#042B3D" fill-opacity="0.4"/>
<path d="M725.709 79.16C724.309 79.16 723.042 78.8533 721.909 78.24C720.789 77.6133 719.909 76.76 719.269 75.68C718.629 74.5867 718.309 73.36 718.309 72C718.309 70.64 718.629 69.42 719.269 68.34C719.909 67.2467 720.796 66.3933 721.929 65.78C723.062 65.1533 724.329 64.84 725.729 64.84C726.822 64.84 727.822 65.0267 728.729 65.4C729.636 65.76 730.409 66.3 731.049 67.02L729.749 68.28C728.696 67.1733 727.382 66.62 725.809 66.62C724.769 66.62 723.829 66.8533 722.989 67.32C722.149 67.7867 721.489 68.4333 721.009 69.26C720.542 70.0733 720.309 70.9867 720.309 72C720.309 73.0133 720.542 73.9333 721.009 74.76C721.489 75.5733 722.149 76.2133 722.989 76.68C723.829 77.1467 724.769 77.38 725.809 77.38C727.369 77.38 728.682 76.82 729.749 75.7L731.049 76.96C730.409 77.68 729.629 78.2267 728.709 78.6C727.802 78.9733 726.802 79.16 725.709 79.16ZM737.713 79.12C736.66 79.12 735.713 78.8867 734.873 78.42C734.033 77.9533 733.373 77.3133 732.893 76.5C732.426 75.6733 732.193 74.74 732.193 73.7C732.193 72.66 732.426 71.7333 732.893 70.92C733.373 70.0933 734.033 69.4533 734.873 69C735.713 68.5333 736.66 68.3 737.713 68.3C738.766 68.3 739.706 68.5333 740.533 69C741.373 69.4533 742.026 70.0933 742.493 70.92C742.973 71.7333 743.213 72.66 743.213 73.7C743.213 74.74 742.973 75.6733 742.493 76.5C742.026 77.3133 741.373 77.9533 740.533 78.42C739.706 78.8867 738.766 79.12 737.713 79.12ZM737.713 77.44C738.393 77.44 739 77.2867 739.533 76.98C740.08 76.66 740.506 76.22 740.813 75.66C741.12 75.0867 741.273 74.4333 741.273 73.7C741.273 72.9667 741.12 72.32 740.813 71.76C740.506 71.1867 740.08 70.7467 739.533 70.44C739 70.1333 738.393 69.98 737.713 69.98C737.033 69.98 736.42 70.1333 735.873 70.44C735.34 70.7467 734.913 71.1867 734.593 71.76C734.286 72.32 734.133 72.9667 734.133 73.7C734.133 74.4333 734.286 75.0867 734.593 75.66C734.913 76.22 735.34 76.66 735.873 76.98C736.42 77.2867 737.033 77.44 737.713 77.44ZM748.908 79.12C748.042 79.12 747.208 79.0067 746.408 78.78C745.608 78.54 744.982 78.24 744.528 77.88L745.328 76.36C745.795 76.6933 746.362 76.96 747.028 77.16C747.695 77.36 748.368 77.46 749.048 77.46C750.728 77.46 751.568 76.98 751.568 76.02C751.568 75.7 751.455 75.4467 751.228 75.26C751.002 75.0733 750.715 74.94 750.368 74.86C750.035 74.7667 749.555 74.6667 748.928 74.56C748.075 74.4267 747.375 74.2733 746.828 74.1C746.295 73.9267 745.835 73.6333 745.448 73.22C745.062 72.8067 744.868 72.2267 744.868 71.48C744.868 70.52 745.268 69.7533 746.068 69.18C746.868 68.5933 747.942 68.3 749.288 68.3C749.995 68.3 750.702 68.3867 751.408 68.56C752.115 68.7333 752.695 68.9667 753.148 69.26L752.328 70.78C751.462 70.22 750.442 69.94 749.268 69.94C748.455 69.94 747.835 70.0733 747.408 70.34C746.982 70.6067 746.768 70.96 746.768 71.4C746.768 71.7467 746.888 72.02 747.128 72.22C747.368 72.42 747.662 72.5667 748.008 72.66C748.368 72.7533 748.868 72.86 749.508 72.98C750.362 73.1267 751.048 73.2867 751.568 73.46C752.102 73.62 752.555 73.9 752.928 74.3C753.302 74.7 753.488 75.26 753.488 75.98C753.488 76.94 753.075 77.7067 752.248 78.28C751.435 78.84 750.322 79.12 748.908 79.12ZM761.848 78.38C761.568 78.62 761.221 78.8067 760.808 78.94C760.394 79.06 759.968 79.12 759.528 79.12C758.461 79.12 757.634 78.8333 757.048 78.26C756.461 77.6867 756.168 76.8667 756.168 75.8V69.98H754.368V68.4H756.168V66.08H758.088V68.4H761.128V69.98H758.088V75.72C758.088 76.2933 758.228 76.7333 758.508 77.04C758.801 77.3467 759.214 77.5 759.748 77.5C760.334 77.5 760.834 77.3333 761.248 77L761.848 78.38ZM779.18 79L776.16 74.7C775.787 74.7267 775.493 74.74 775.28 74.74H771.82V79H769.82V65H775.28C777.093 65 778.52 65.4333 779.56 66.3C780.6 67.1667 781.12 68.36 781.12 69.88C781.12 70.96 780.853 71.88 780.32 72.64C779.787 73.4 779.027 73.9533 778.04 74.3L781.36 79H779.18ZM775.22 73.04C776.487 73.04 777.453 72.7667 778.12 72.22C778.787 71.6733 779.12 70.8933 779.12 69.88C779.12 68.8667 778.787 68.0933 778.12 67.56C777.453 67.0133 776.487 66.74 775.22 66.74H771.82V73.04H775.22ZM793.651 73.76C793.651 73.9067 793.638 74.1 793.611 74.34H785.011C785.131 75.2733 785.538 76.0267 786.231 76.6C786.938 77.16 787.811 77.44 788.851 77.44C790.118 77.44 791.138 77.0133 791.911 76.16L792.971 77.4C792.491 77.96 791.891 78.3867 791.171 78.68C790.465 78.9733 789.671 79.12 788.791 79.12C787.671 79.12 786.678 78.8933 785.811 78.44C784.945 77.9733 784.271 77.3267 783.791 76.5C783.325 75.6733 783.091 74.74 783.091 73.7C783.091 72.6733 783.318 71.7467 783.771 70.92C784.238 70.0933 784.871 69.4533 785.671 69C786.485 68.5333 787.398 68.3 788.411 68.3C789.425 68.3 790.325 68.5333 791.111 69C791.911 69.4533 792.531 70.0933 792.971 70.92C793.425 71.7467 793.651 72.6933 793.651 73.76ZM788.411 69.92C787.491 69.92 786.718 70.2 786.091 70.76C785.478 71.32 785.118 72.0533 785.011 72.96H791.811C791.705 72.0667 791.338 71.34 790.711 70.78C790.098 70.2067 789.331 69.92 788.411 69.92ZM800.937 79.12C799.857 79.12 798.891 78.8867 798.037 78.42C797.197 77.9533 796.537 77.3133 796.057 76.5C795.577 75.6733 795.337 74.74 795.337 73.7C795.337 72.66 795.577 71.7333 796.057 70.92C796.537 70.0933 797.197 69.4533 798.037 69C798.891 68.5333 799.857 68.3 800.937 68.3C801.897 68.3 802.751 68.4933 803.497 68.88C804.257 69.2667 804.844 69.8267 805.257 70.56L803.797 71.5C803.464 70.9933 803.051 70.6133 802.557 70.36C802.064 70.1067 801.517 69.98 800.917 69.98C800.224 69.98 799.597 70.1333 799.037 70.44C798.491 70.7467 798.057 71.1867 797.737 71.76C797.431 72.32 797.277 72.9667 797.277 73.7C797.277 74.4467 797.431 75.1067 797.737 75.68C798.057 76.24 798.491 76.6733 799.037 76.98C799.597 77.2867 800.224 77.44 800.917 77.44C801.517 77.44 802.064 77.3133 802.557 77.06C803.051 76.8067 803.464 76.4267 803.797 75.92L805.257 76.84C804.844 77.5733 804.257 78.14 803.497 78.54C802.751 78.9267 801.897 79.12 800.937 79.12ZM812.127 79.12C811.074 79.12 810.127 78.8867 809.287 78.42C808.447 77.9533 807.787 77.3133 807.307 76.5C806.84 75.6733 806.607 74.74 806.607 73.7C806.607 72.66 806.84 71.7333 807.307 70.92C807.787 70.0933 808.447 69.4533 809.287 69C810.127 68.5333 811.074 68.3 812.127 68.3C813.18 68.3 814.12 68.5333 814.947 69C815.787 69.4533 816.44 70.0933 816.907 70.92C817.387 71.7333 817.627 72.66 817.627 73.7C817.627 74.74 817.387 75.6733 816.907 76.5C816.44 77.3133 815.787 77.9533 814.947 78.42C814.12 78.8867 813.18 79.12 812.127 79.12ZM812.127 77.44C812.807 77.44 813.414 77.2867 813.947 76.98C814.494 76.66 814.92 76.22 815.227 75.66C815.534 75.0867 815.687 74.4333 815.687 73.7C815.687 72.9667 815.534 72.32 815.227 71.76C814.92 71.1867 814.494 70.7467 813.947 70.44C813.414 70.1333 812.807 69.98 812.127 69.98C811.447 69.98 810.834 70.1333 810.287 70.44C809.754 70.7467 809.327 71.1867 809.007 71.76C808.7 72.32 808.547 72.9667 808.547 73.7C808.547 74.4333 808.7 75.0867 809.007 75.66C809.327 76.22 809.754 76.66 810.287 76.98C810.834 77.2867 811.447 77.44 812.127 77.44ZM829.369 68.4L824.729 79H822.769L818.129 68.4H820.129L823.769 76.9L827.489 68.4H829.369ZM840.448 73.76C840.448 73.9067 840.435 74.1 840.408 74.34H831.808C831.928 75.2733 832.335 76.0267 833.028 76.6C833.735 77.16 834.608 77.44 835.648 77.44C836.915 77.44 837.935 77.0133 838.708 76.16L839.768 77.4C839.288 77.96 838.688 78.3867 837.968 78.68C837.262 78.9733 836.468 79.12 835.588 79.12C834.468 79.12 833.475 78.8933 832.608 78.44C831.742 77.9733 831.068 77.3267 830.588 76.5C830.122 75.6733 829.888 74.74 829.888 73.7C829.888 72.6733 830.115 71.7467 830.568 70.92C831.035 70.0933 831.668 69.4533 832.468 69C833.282 68.5333 834.195 68.3 835.208 68.3C836.222 68.3 837.122 68.5333 837.908 69C838.708 69.4533 839.328 70.0933 839.768 70.92C840.222 71.7467 840.448 72.6933 840.448 73.76ZM835.208 69.92C834.288 69.92 833.515 70.2 832.888 70.76C832.275 71.32 831.915 72.0533 831.808 72.96H838.608C838.502 72.0667 838.135 71.34 837.508 70.78C836.895 70.2067 836.128 69.92 835.208 69.92ZM844.954 70.18C845.288 69.5667 845.781 69.1 846.434 68.78C847.088 68.46 847.881 68.3 848.814 68.3V70.16C848.708 70.1467 848.561 70.14 848.374 70.14C847.334 70.14 846.514 70.4533 845.914 71.08C845.328 71.6933 845.034 72.5733 845.034 73.72V79H843.114V68.4H844.954V70.18ZM860.99 68.4L855.85 80.06C855.397 81.14 854.864 81.9 854.25 82.34C853.65 82.78 852.924 83 852.07 83C851.55 83 851.044 82.9133 850.55 82.74C850.07 82.58 849.67 82.34 849.35 82.02L850.17 80.58C850.717 81.1 851.35 81.36 852.07 81.36C852.537 81.36 852.924 81.2333 853.23 80.98C853.55 80.74 853.837 80.32 854.09 79.72L854.43 78.98L849.75 68.4H851.75L855.45 76.88L859.11 68.4H860.99Z" fill="#00ABB8"/>
<rect x="764" y="124" width="50" height="4" fill="#00ABB8"/>
<rect width="215" height="212" transform="translate(457)" fill="#042B3D" fill-opacity="0.6"/>
<path d="M502.465 67.16C501.065 67.16 499.799 66.8533 498.665 66.24C497.545 65.6133 496.665 64.76 496.025 63.68C495.385 62.5867 495.065 61.36 495.065 60C495.065 58.64 495.385 57.42 496.025 56.34C496.665 55.2467 497.552 54.3933 498.685 53.78C499.819 53.1533 501.085 52.84 502.485 52.84C503.579 52.84 504.579 53.0267 505.485 53.4C506.392 53.76 507.165 54.3 507.805 55.02L506.505 56.28C505.452 55.1733 504.139 54.62 502.565 54.62C501.525 54.62 500.585 54.8533 499.745 55.32C498.905 55.7867 498.245 56.4333 497.765 57.26C497.299 58.0733 497.065 58.9867 497.065 60C497.065 61.0133 497.299 61.9333 497.765 62.76C498.245 63.5733 498.905 64.2133 499.745 64.68C500.585 65.1467 501.525 65.38 502.565 65.38C504.125 65.38 505.439 64.82 506.505 63.7L507.805 64.96C507.165 65.68 506.385 66.2267 505.465 66.6C504.559 66.9733 503.559 67.16 502.465 67.16ZM514.469 67.12C513.416 67.12 512.469 66.8867 511.629 66.42C510.789 65.9533 510.129 65.3133 509.649 64.5C509.183 63.6733 508.949 62.74 508.949 61.7C508.949 60.66 509.183 59.7333 509.649 58.92C510.129 58.0933 510.789 57.4533 511.629 57C512.469 56.5333 513.416 56.3 514.469 56.3C515.523 56.3 516.463 56.5333 517.289 57C518.129 57.4533 518.783 58.0933 519.249 58.92C519.729 59.7333 519.969 60.66 519.969 61.7C519.969 62.74 519.729 63.6733 519.249 64.5C518.783 65.3133 518.129 65.9533 517.289 66.42C516.463 66.8867 515.523 67.12 514.469 67.12ZM514.469 65.44C515.149 65.44 515.756 65.2867 516.289 64.98C516.836 64.66 517.263 64.22 517.569 63.66C517.876 63.0867 518.029 62.4333 518.029 61.7C518.029 60.9667 517.876 60.32 517.569 59.76C517.263 59.1867 516.836 58.7467 516.289 58.44C515.756 58.1333 515.149 57.98 514.469 57.98C513.789 57.98 513.176 58.1333 512.629 58.44C512.096 58.7467 511.669 59.1867 511.349 59.76C511.043 60.32 510.889 60.9667 510.889 61.7C510.889 62.4333 511.043 63.0867 511.349 63.66C511.669 64.22 512.096 64.66 512.629 64.98C513.176 65.2867 513.789 65.44 514.469 65.44ZM535.885 56.3C537.218 56.3 538.271 56.6867 539.045 57.46C539.831 58.2333 540.225 59.38 540.225 60.9V67H538.305V61.12C538.305 60.0933 538.065 59.32 537.585 58.8C537.118 58.28 536.445 58.02 535.565 58.02C534.591 58.02 533.818 58.3267 533.245 58.94C532.671 59.54 532.385 60.4067 532.385 61.54V67H530.465V61.12C530.465 60.0933 530.225 59.32 529.745 58.8C529.278 58.28 528.605 58.02 527.725 58.02C526.751 58.02 525.978 58.3267 525.405 58.94C524.831 59.54 524.545 60.4067 524.545 61.54V67H522.625V56.4H524.465V57.98C524.851 57.4333 525.358 57.02 525.985 56.74C526.611 56.4467 527.325 56.3 528.125 56.3C528.951 56.3 529.685 56.4667 530.325 56.8C530.965 57.1333 531.458 57.62 531.805 58.26C532.205 57.6467 532.758 57.1667 533.465 56.82C534.185 56.4733 534.991 56.3 535.885 56.3ZM557.018 56.3C558.351 56.3 559.404 56.6867 560.178 57.46C560.964 58.2333 561.358 59.38 561.358 60.9V67H559.438V61.12C559.438 60.0933 559.198 59.32 558.718 58.8C558.251 58.28 557.578 58.02 556.698 58.02C555.724 58.02 554.951 58.3267 554.378 58.94C553.804 59.54 553.518 60.4067 553.518 61.54V67H551.598V61.12C551.598 60.0933 551.358 59.32 550.878 58.8C550.411 58.28 549.738 58.02 548.858 58.02C547.884 58.02 547.111 58.3267 546.538 58.94C545.964 59.54 545.678 60.4067 545.678 61.54V67H543.758V56.4H545.598V57.98C545.984 57.4333 546.491 57.02 547.118 56.74C547.744 56.4467 548.458 56.3 549.258 56.3C550.084 56.3 550.818 56.4667 551.458 56.8C552.098 57.1333 552.591 57.62 552.938 58.26C553.338 57.6467 553.891 57.1667 554.598 56.82C555.318 56.4733 556.124 56.3 557.018 56.3ZM574.529 61.76C574.529 61.9067 574.516 62.1 574.489 62.34H565.889C566.009 63.2733 566.416 64.0267 567.109 64.6C567.816 65.16 568.689 65.44 569.729 65.44C570.996 65.44 572.016 65.0133 572.789 64.16L573.849 65.4C573.369 65.96 572.769 66.3867 572.049 66.68C571.342 66.9733 570.549 67.12 569.669 67.12C568.549 67.12 567.556 66.8933 566.689 66.44C565.822 65.9733 565.149 65.3267 564.669 64.5C564.202 63.6733 563.969 62.74 563.969 61.7C563.969 60.6733 564.196 59.7467 564.649 58.92C565.116 58.0933 565.749 57.4533 566.549 57C567.362 56.5333 568.276 56.3 569.289 56.3C570.302 56.3 571.202 56.5333 571.989 57C572.789 57.4533 573.409 58.0933 573.849 58.92C574.302 59.7467 574.529 60.6933 574.529 61.76ZM569.289 57.92C568.369 57.92 567.596 58.2 566.969 58.76C566.356 59.32 565.996 60.0533 565.889 60.96H572.689C572.582 60.0667 572.216 59.34 571.589 58.78C570.976 58.2067 570.209 57.92 569.289 57.92ZM579.035 58.18C579.368 57.5667 579.862 57.1 580.515 56.78C581.168 56.46 581.962 56.3 582.895 56.3V58.16C582.788 58.1467 582.642 58.14 582.455 58.14C581.415 58.14 580.595 58.4533 579.995 59.08C579.408 59.6933 579.115 60.5733 579.115 61.72V67H577.195V56.4H579.035V58.18ZM589.784 67.12C588.704 67.12 587.737 66.8867 586.884 66.42C586.044 65.9533 585.384 65.3133 584.904 64.5C584.424 63.6733 584.184 62.74 584.184 61.7C584.184 60.66 584.424 59.7333 584.904 58.92C585.384 58.0933 586.044 57.4533 586.884 57C587.737 56.5333 588.704 56.3 589.784 56.3C590.744 56.3 591.597 56.4933 592.344 56.88C593.104 57.2667 593.69 57.8267 594.104 58.56L592.644 59.5C592.31 58.9933 591.897 58.6133 591.404 58.36C590.91 58.1067 590.364 57.98 589.764 57.98C589.07 57.98 588.444 58.1333 587.884 58.44C587.337 58.7467 586.904 59.1867 586.584 59.76C586.277 60.32 586.124 60.9667 586.124 61.7C586.124 62.4467 586.277 63.1067 586.584 63.68C586.904 64.24 587.337 64.6733 587.884 64.98C588.444 65.2867 589.07 65.44 589.764 65.44C590.364 65.44 590.91 65.3133 591.404 65.06C591.897 64.8067 592.31 64.4267 592.644 63.92L594.104 64.84C593.69 65.5733 593.104 66.14 592.344 66.54C591.597 66.9267 590.744 67.12 589.784 67.12ZM596.59 56.4H598.51V67H596.59V56.4ZM597.55 54.36C597.176 54.36 596.863 54.24 596.61 54C596.37 53.76 596.25 53.4667 596.25 53.12C596.25 52.7733 596.37 52.48 596.61 52.24C596.863 51.9867 597.176 51.86 597.55 51.86C597.923 51.86 598.23 51.98 598.47 52.22C598.723 52.4467 598.85 52.7333 598.85 53.08C598.85 53.44 598.723 53.7467 598.47 54C598.23 54.24 597.923 54.36 597.55 54.36ZM606.035 56.3C607.502 56.3 608.622 56.66 609.395 57.38C610.182 58.1 610.575 59.1733 610.575 60.6V67H608.755V65.6C608.435 66.0933 607.975 66.4733 607.375 66.74C606.789 66.9933 606.089 67.12 605.275 67.12C604.089 67.12 603.135 66.8333 602.415 66.26C601.709 65.6867 601.355 64.9333 601.355 64C601.355 63.0667 601.695 62.32 602.375 61.76C603.055 61.1867 604.135 60.9 605.615 60.9H608.655V60.52C608.655 59.6933 608.415 59.06 607.935 58.62C607.455 58.18 606.749 57.96 605.815 57.96C605.189 57.96 604.575 58.0667 603.975 58.28C603.375 58.48 602.869 58.7533 602.455 59.1L601.655 57.66C602.202 57.22 602.855 56.8867 603.615 56.66C604.375 56.42 605.182 56.3 606.035 56.3ZM605.595 65.64C606.329 65.64 606.962 65.48 607.495 65.16C608.029 64.8267 608.415 64.36 608.655 63.76V62.28H605.695C604.069 62.28 603.255 62.8267 603.255 63.92C603.255 64.4533 603.462 64.8733 603.875 65.18C604.289 65.4867 604.862 65.64 605.595 65.64ZM614.129 52.16H616.049V67H614.129V52.16ZM514.364 87.5H506.924L505.384 91H503.324L509.664 77H511.644L518.004 91H515.904L514.364 87.5ZM513.664 85.9L510.644 79.04L507.624 85.9H513.664ZM522.755 91.12C521.888 91.12 521.055 91.0067 520.255 90.78C519.455 90.54 518.828 90.24 518.375 89.88L519.175 88.36C519.641 88.6933 520.208 88.96 520.875 89.16C521.541 89.36 522.215 89.46 522.895 89.46C524.575 89.46 525.415 88.98 525.415 88.02C525.415 87.7 525.301 87.4467 525.075 87.26C524.848 87.0733 524.561 86.94 524.215 86.86C523.881 86.7667 523.401 86.6667 522.775 86.56C521.921 86.4267 521.221 86.2733 520.675 86.1C520.141 85.9267 519.681 85.6333 519.295 85.22C518.908 84.8067 518.715 84.2267 518.715 83.48C518.715 82.52 519.115 81.7533 519.915 81.18C520.715 80.5933 521.788 80.3 523.135 80.3C523.841 80.3 524.548 80.3867 525.255 80.56C525.961 80.7333 526.541 80.9667 526.995 81.26L526.175 82.78C525.308 82.22 524.288 81.94 523.115 81.94C522.301 81.94 521.681 82.0733 521.255 82.34C520.828 82.6067 520.615 82.96 520.615 83.4C520.615 83.7467 520.735 84.02 520.975 84.22C521.215 84.42 521.508 84.5667 521.855 84.66C522.215 84.7533 522.715 84.86 523.355 84.98C524.208 85.1267 524.895 85.2867 525.415 85.46C525.948 85.62 526.401 85.9 526.775 86.3C527.148 86.7 527.335 87.26 527.335 87.98C527.335 88.94 526.921 89.7067 526.095 90.28C525.281 90.84 524.168 91.12 522.755 91.12ZM532.774 91.12C531.907 91.12 531.074 91.0067 530.274 90.78C529.474 90.54 528.847 90.24 528.394 89.88L529.194 88.36C529.661 88.6933 530.227 88.96 530.894 89.16C531.561 89.36 532.234 89.46 532.914 89.46C534.594 89.46 535.434 88.98 535.434 88.02C535.434 87.7 535.321 87.4467 535.094 87.26C534.867 87.0733 534.581 86.94 534.234 86.86C533.901 86.7667 533.421 86.6667 532.794 86.56C531.941 86.4267 531.241 86.2733 530.694 86.1C530.161 85.9267 529.701 85.6333 529.314 85.22C528.927 84.8067 528.734 84.2267 528.734 83.48C528.734 82.52 529.134 81.7533 529.934 81.18C530.734 80.5933 531.807 80.3 533.154 80.3C533.861 80.3 534.567 80.3867 535.274 80.56C535.981 80.7333 536.561 80.9667 537.014 81.26L536.194 82.78C535.327 82.22 534.307 81.94 533.134 81.94C532.321 81.94 531.701 82.0733 531.274 82.34C530.847 82.6067 530.634 82.96 530.634 83.4C530.634 83.7467 530.754 84.02 530.994 84.22C531.234 84.42 531.527 84.5667 531.874 84.66C532.234 84.7533 532.734 84.86 533.374 84.98C534.227 85.1267 534.914 85.2867 535.434 85.46C535.967 85.62 536.421 85.9 536.794 86.3C537.167 86.7 537.354 87.26 537.354 87.98C537.354 88.94 536.941 89.7067 536.114 90.28C535.301 90.84 534.187 91.12 532.774 91.12ZM549.634 80.4V91H547.814V89.4C547.427 89.9467 546.914 90.3733 546.274 90.68C545.647 90.9733 544.96 91.12 544.214 91.12C542.8 91.12 541.687 90.7333 540.874 89.96C540.06 89.1733 539.654 88.02 539.654 86.5V80.4H541.574V86.28C541.574 87.3067 541.82 88.0867 542.314 88.62C542.807 89.14 543.514 89.4 544.434 89.4C545.447 89.4 546.247 89.0933 546.834 88.48C547.42 87.8667 547.714 87 547.714 85.88V80.4H549.634ZM555.129 82.18C555.462 81.5667 555.955 81.1 556.609 80.78C557.262 80.46 558.055 80.3 558.989 80.3V82.16C558.882 82.1467 558.735 82.14 558.549 82.14C557.509 82.14 556.689 82.4533 556.089 83.08C555.502 83.6933 555.209 84.5733 555.209 85.72V91H553.289V80.4H555.129V82.18ZM565.196 80.3C566.662 80.3 567.782 80.66 568.556 81.38C569.342 82.1 569.736 83.1733 569.736 84.6V91H567.916V89.6C567.596 90.0933 567.136 90.4733 566.536 90.74C565.949 90.9933 565.249 91.12 564.436 91.12C563.249 91.12 562.296 90.8333 561.576 90.26C560.869 89.6867 560.516 88.9333 560.516 88C560.516 87.0667 560.856 86.32 561.536 85.76C562.216 85.1867 563.296 84.9 564.776 84.9H567.816V84.52C567.816 83.6933 567.576 83.06 567.096 82.62C566.616 82.18 565.909 81.96 564.976 81.96C564.349 81.96 563.736 82.0667 563.136 82.28C562.536 82.48 562.029 82.7533 561.616 83.1L560.816 81.66C561.362 81.22 562.016 80.8867 562.776 80.66C563.536 80.42 564.342 80.3 565.196 80.3ZM564.756 89.64C565.489 89.64 566.122 89.48 566.656 89.16C567.189 88.8267 567.576 88.36 567.816 87.76V86.28H564.856C563.229 86.28 562.416 86.8267 562.416 87.92C562.416 88.4533 562.622 88.8733 563.036 89.18C563.449 89.4867 564.022 89.64 564.756 89.64ZM578.949 80.3C580.295 80.3 581.362 80.6933 582.149 81.48C582.949 82.2533 583.349 83.3933 583.349 84.9V91H581.429V85.12C581.429 84.0933 581.182 83.32 580.689 82.8C580.195 82.28 579.489 82.02 578.569 82.02C577.529 82.02 576.709 82.3267 576.109 82.94C575.509 83.54 575.209 84.4067 575.209 85.54V91H573.289V80.4H575.129V82C575.515 81.4533 576.035 81.0333 576.689 80.74C577.355 80.4467 578.109 80.3 578.949 80.3ZM591.581 91.12C590.501 91.12 589.534 90.8867 588.681 90.42C587.841 89.9533 587.181 89.3133 586.701 88.5C586.221 87.6733 585.981 86.74 585.981 85.7C585.981 84.66 586.221 83.7333 586.701 82.92C587.181 82.0933 587.841 81.4533 588.681 81C589.534 80.5333 590.501 80.3 591.581 80.3C592.541 80.3 593.394 80.4933 594.141 80.88C594.901 81.2667 595.487 81.8267 595.901 82.56L594.441 83.5C594.107 82.9933 593.694 82.6133 593.201 82.36C592.707 82.1067 592.161 81.98 591.561 81.98C590.867 81.98 590.241 82.1333 589.681 82.44C589.134 82.7467 588.701 83.1867 588.381 83.76C588.074 84.32 587.921 84.9667 587.921 85.7C587.921 86.4467 588.074 87.1067 588.381 87.68C588.701 88.24 589.134 88.6733 589.681 88.98C590.241 89.2867 590.867 89.44 591.561 89.44C592.161 89.44 592.707 89.3133 593.201 89.06C593.694 88.8067 594.107 88.4267 594.441 87.92L595.901 88.84C595.487 89.5733 594.901 90.14 594.141 90.54C593.394 90.9267 592.541 91.12 591.581 91.12ZM607.81 85.76C607.81 85.9067 607.797 86.1 607.77 86.34H599.17C599.29 87.2733 599.697 88.0267 600.39 88.6C601.097 89.16 601.97 89.44 603.01 89.44C604.277 89.44 605.297 89.0133 606.07 88.16L607.13 89.4C606.65 89.96 606.05 90.3867 605.33 90.68C604.623 90.9733 603.83 91.12 602.95 91.12C601.83 91.12 600.837 90.8933 599.97 90.44C599.103 89.9733 598.43 89.3267 597.95 88.5C597.483 87.6733 597.25 86.74 597.25 85.7C597.25 84.6733 597.477 83.7467 597.93 82.92C598.397 82.0933 599.03 81.4533 599.83 81C600.643 80.5333 601.557 80.3 602.57 80.3C603.583 80.3 604.483 80.5333 605.27 81C606.07 81.4533 606.69 82.0933 607.13 82.92C607.583 83.7467 607.81 84.6933 607.81 85.76ZM602.57 81.92C601.65 81.92 600.877 82.2 600.25 82.76C599.637 83.32 599.277 84.0533 599.17 84.96H605.97C605.863 84.0667 605.497 83.34 604.87 82.78C604.257 82.2067 603.49 81.92 602.57 81.92Z" fill="#00ABB8"/>
<rect x="540" y="124" width="50" height="4" fill="#00ABB8"/>
<rect width="231" height="212" transform="translate(226)" fill="#042B3D" fill-opacity="0.8"/>
<path d="M245.102 65C246.915 65 248.342 65.4333 249.382 66.3C250.422 67.1667 250.942 68.36 250.942 69.88C250.942 71.4 250.422 72.5933 249.382 73.46C248.342 74.3267 246.915 74.76 245.102 74.76H241.642V79H239.642V65H245.102ZM245.042 73.02C246.309 73.02 247.275 72.7533 247.942 72.22C248.609 71.6733 248.942 70.8933 248.942 69.88C248.942 68.8667 248.609 68.0933 247.942 67.56C247.275 67.0133 246.309 66.74 245.042 66.74H241.642V73.02H245.042ZM258.101 79.12C257.048 79.12 256.101 78.8867 255.261 78.42C254.421 77.9533 253.761 77.3133 253.281 76.5C252.814 75.6733 252.581 74.74 252.581 73.7C252.581 72.66 252.814 71.7333 253.281 70.92C253.761 70.0933 254.421 69.4533 255.261 69C256.101 68.5333 257.048 68.3 258.101 68.3C259.154 68.3 260.094 68.5333 260.921 69C261.761 69.4533 262.414 70.0933 262.881 70.92C263.361 71.7333 263.601 72.66 263.601 73.7C263.601 74.74 263.361 75.6733 262.881 76.5C262.414 77.3133 261.761 77.9533 260.921 78.42C260.094 78.8867 259.154 79.12 258.101 79.12ZM258.101 77.44C258.781 77.44 259.388 77.2867 259.921 76.98C260.468 76.66 260.894 76.22 261.201 75.66C261.508 75.0867 261.661 74.4333 261.661 73.7C261.661 72.9667 261.508 72.32 261.201 71.76C260.894 71.1867 260.468 70.7467 259.921 70.44C259.388 70.1333 258.781 69.98 258.101 69.98C257.421 69.98 256.808 70.1333 256.261 70.44C255.728 70.7467 255.301 71.1867 254.981 71.76C254.674 72.32 254.521 72.9667 254.521 73.7C254.521 74.4333 254.674 75.0867 254.981 75.66C255.301 76.22 255.728 76.66 256.261 76.98C256.808 77.2867 257.421 77.44 258.101 77.44ZM269.296 79.12C268.43 79.12 267.596 79.0067 266.796 78.78C265.996 78.54 265.37 78.24 264.916 77.88L265.716 76.36C266.183 76.6933 266.75 76.96 267.416 77.16C268.083 77.36 268.756 77.46 269.436 77.46C271.116 77.46 271.956 76.98 271.956 76.02C271.956 75.7 271.843 75.4467 271.616 75.26C271.39 75.0733 271.103 74.94 270.756 74.86C270.423 74.7667 269.943 74.6667 269.316 74.56C268.463 74.4267 267.763 74.2733 267.216 74.1C266.683 73.9267 266.223 73.6333 265.836 73.22C265.45 72.8067 265.256 72.2267 265.256 71.48C265.256 70.52 265.656 69.7533 266.456 69.18C267.256 68.5933 268.33 68.3 269.676 68.3C270.383 68.3 271.09 68.3867 271.796 68.56C272.503 68.7333 273.083 68.9667 273.536 69.26L272.716 70.78C271.85 70.22 270.83 69.94 269.656 69.94C268.843 69.94 268.223 70.0733 267.796 70.34C267.37 70.6067 267.156 70.96 267.156 71.4C267.156 71.7467 267.276 72.02 267.516 72.22C267.756 72.42 268.05 72.5667 268.396 72.66C268.756 72.7533 269.256 72.86 269.896 72.98C270.75 73.1267 271.436 73.2867 271.956 73.46C272.49 73.62 272.943 73.9 273.316 74.3C273.69 74.7 273.876 75.26 273.876 75.98C273.876 76.94 273.463 77.7067 272.636 78.28C271.823 78.84 270.71 79.12 269.296 79.12ZM282.236 78.38C281.956 78.62 281.609 78.8067 281.196 78.94C280.783 79.06 280.356 79.12 279.916 79.12C278.849 79.12 278.023 78.8333 277.436 78.26C276.849 77.6867 276.556 76.8667 276.556 75.8V69.98H274.756V68.4H276.556V66.08H278.476V68.4H281.516V69.98H278.476V75.72C278.476 76.2933 278.616 76.7333 278.896 77.04C279.189 77.3467 279.603 77.5 280.136 77.5C280.723 77.5 281.223 77.3333 281.636 77L282.236 78.38ZM299.128 75.5H291.688L290.148 79H288.088L294.428 65H296.408L302.768 79H300.668L299.128 75.5ZM298.428 73.9L295.408 67.04L292.388 73.9H298.428ZM320.07 68.4L316.11 79H314.27L311.21 70.96L308.11 79H306.27L302.33 68.4H304.15L307.23 76.84L310.43 68.4H312.05L315.19 76.88L318.35 68.4H320.07ZM325.546 68.3C327.013 68.3 328.133 68.66 328.906 69.38C329.693 70.1 330.086 71.1733 330.086 72.6V79H328.266V77.6C327.946 78.0933 327.486 78.4733 326.886 78.74C326.299 78.9933 325.599 79.12 324.786 79.12C323.599 79.12 322.646 78.8333 321.926 78.26C321.219 77.6867 320.866 76.9333 320.866 76C320.866 75.0667 321.206 74.32 321.886 73.76C322.566 73.1867 323.646 72.9 325.126 72.9H328.166V72.52C328.166 71.6933 327.926 71.06 327.446 70.62C326.966 70.18 326.259 69.96 325.326 69.96C324.699 69.96 324.086 70.0667 323.486 70.28C322.886 70.48 322.379 70.7533 321.966 71.1L321.166 69.66C321.713 69.22 322.366 68.8867 323.126 68.66C323.886 68.42 324.693 68.3 325.546 68.3ZM325.106 77.64C325.839 77.64 326.473 77.48 327.006 77.16C327.539 76.8267 327.926 76.36 328.166 75.76V74.28H325.206C323.579 74.28 322.766 74.8267 322.766 75.92C322.766 76.4533 322.973 76.8733 323.386 77.18C323.799 77.4867 324.373 77.64 325.106 77.64ZM335.479 70.18C335.813 69.5667 336.306 69.1 336.959 68.78C337.613 68.46 338.406 68.3 339.339 68.3V70.16C339.233 70.1467 339.086 70.14 338.899 70.14C337.859 70.14 337.039 70.4533 336.439 71.08C335.853 71.6933 335.559 72.5733 335.559 73.72V79H333.639V68.4H335.479V70.18ZM351.608 64.16V79H349.768V77.32C349.341 77.9067 348.801 78.3533 348.148 78.66C347.495 78.9667 346.775 79.12 345.988 79.12C344.961 79.12 344.041 78.8933 343.228 78.44C342.415 77.9867 341.775 77.3533 341.308 76.54C340.855 75.7133 340.628 74.7667 340.628 73.7C340.628 72.6333 340.855 71.6933 341.308 70.88C341.775 70.0667 342.415 69.4333 343.228 68.98C344.041 68.5267 344.961 68.3 345.988 68.3C346.748 68.3 347.448 68.4467 348.088 68.74C348.728 69.02 349.261 69.44 349.688 70V64.16H351.608ZM346.148 77.44C346.815 77.44 347.421 77.2867 347.968 76.98C348.515 76.66 348.941 76.22 349.248 75.66C349.555 75.0867 349.708 74.4333 349.708 73.7C349.708 72.9667 349.555 72.32 349.248 71.76C348.941 71.1867 348.515 70.7467 347.968 70.44C347.421 70.1333 346.815 69.98 346.148 69.98C345.468 69.98 344.855 70.1333 344.308 70.44C343.775 70.7467 343.348 71.1867 343.028 71.76C342.721 72.32 342.568 72.9667 342.568 73.7C342.568 74.4333 342.721 75.0867 343.028 75.66C343.348 76.22 343.775 76.66 344.308 76.98C344.855 77.2867 345.468 77.44 346.148 77.44ZM367.152 79.16C365.752 79.16 364.485 78.8533 363.352 78.24C362.232 77.6133 361.352 76.76 360.712 75.68C360.072 74.5867 359.752 73.36 359.752 72C359.752 70.64 360.072 69.42 360.712 68.34C361.352 67.2467 362.239 66.3933 363.372 65.78C364.505 65.1533 365.772 64.84 367.172 64.84C368.265 64.84 369.265 65.0267 370.172 65.4C371.079 65.76 371.852 66.3 372.492 67.02L371.192 68.28C370.139 67.1733 368.825 66.62 367.252 66.62C366.212 66.62 365.272 66.8533 364.432 67.32C363.592 67.7867 362.932 68.4333 362.452 69.26C361.985 70.0733 361.752 70.9867 361.752 72C361.752 73.0133 361.985 73.9333 362.452 74.76C362.932 75.5733 363.592 76.2133 364.432 76.68C365.272 77.1467 366.212 77.38 367.252 77.38C368.812 77.38 370.125 76.82 371.192 75.7L372.492 76.96C371.852 77.68 371.072 78.2267 370.152 78.6C369.245 78.9733 368.245 79.16 367.152 79.16ZM379.156 79.12C378.102 79.12 377.156 78.8867 376.316 78.42C375.476 77.9533 374.816 77.3133 374.336 76.5C373.869 75.6733 373.636 74.74 373.636 73.7C373.636 72.66 373.869 71.7333 374.336 70.92C374.816 70.0933 375.476 69.4533 376.316 69C377.156 68.5333 378.102 68.3 379.156 68.3C380.209 68.3 381.149 68.5333 381.976 69C382.816 69.4533 383.469 70.0933 383.936 70.92C384.416 71.7333 384.656 72.66 384.656 73.7C384.656 74.74 384.416 75.6733 383.936 76.5C383.469 77.3133 382.816 77.9533 381.976 78.42C381.149 78.8867 380.209 79.12 379.156 79.12ZM379.156 77.44C379.836 77.44 380.442 77.2867 380.976 76.98C381.522 76.66 381.949 76.22 382.256 75.66C382.562 75.0867 382.716 74.4333 382.716 73.7C382.716 72.9667 382.562 72.32 382.256 71.76C381.949 71.1867 381.522 70.7467 380.976 70.44C380.442 70.1333 379.836 69.98 379.156 69.98C378.476 69.98 377.862 70.1333 377.316 70.44C376.782 70.7467 376.356 71.1867 376.036 71.76C375.729 72.32 375.576 72.9667 375.576 73.7C375.576 74.4333 375.729 75.0867 376.036 75.66C376.356 76.22 376.782 76.66 377.316 76.98C377.862 77.2867 378.476 77.44 379.156 77.44ZM392.971 68.3C394.318 68.3 395.384 68.6933 396.171 69.48C396.971 70.2533 397.371 71.3933 397.371 72.9V79H395.451V73.12C395.451 72.0933 395.204 71.32 394.711 70.8C394.218 70.28 393.511 70.02 392.591 70.02C391.551 70.02 390.731 70.3267 390.131 70.94C389.531 71.54 389.231 72.4067 389.231 73.54V79H387.311V68.4H389.151V70C389.538 69.4533 390.058 69.0333 390.711 68.74C391.378 68.4467 392.131 68.3 392.971 68.3ZM406.884 78.38C406.604 78.62 406.258 78.8067 405.844 78.94C405.431 79.06 405.004 79.12 404.564 79.12C403.498 79.12 402.671 78.8333 402.084 78.26C401.498 77.6867 401.204 76.8667 401.204 75.8V69.98H399.404V68.4H401.204V66.08H403.124V68.4H406.164V69.98H403.124V75.72C403.124 76.2933 403.264 76.7333 403.544 77.04C403.838 77.3467 404.251 77.5 404.784 77.5C405.371 77.5 405.871 77.3333 406.284 77L406.884 78.38ZM411.046 70.18C411.379 69.5667 411.872 69.1 412.526 68.78C413.179 68.46 413.972 68.3 414.906 68.3V70.16C414.799 70.1467 414.652 70.14 414.466 70.14C413.426 70.14 412.606 70.4533 412.006 71.08C411.419 71.6933 411.126 72.5733 411.126 73.72V79H409.206V68.4H411.046V70.18ZM421.113 68.3C422.579 68.3 423.699 68.66 424.473 69.38C425.259 70.1 425.653 71.1733 425.653 72.6V79H423.833V77.6C423.513 78.0933 423.053 78.4733 422.453 78.74C421.866 78.9933 421.166 79.12 420.353 79.12C419.166 79.12 418.213 78.8333 417.493 78.26C416.786 77.6867 416.433 76.9333 416.433 76C416.433 75.0667 416.773 74.32 417.453 73.76C418.133 73.1867 419.213 72.9 420.693 72.9H423.733V72.52C423.733 71.6933 423.493 71.06 423.013 70.62C422.533 70.18 421.826 69.96 420.893 69.96C420.266 69.96 419.653 70.0667 419.053 70.28C418.453 70.48 417.946 70.7533 417.533 71.1L416.733 69.66C417.279 69.22 417.933 68.8867 418.693 68.66C419.453 68.42 420.259 68.3 421.113 68.3ZM420.673 77.64C421.406 77.64 422.039 77.48 422.573 77.16C423.106 76.8267 423.493 76.36 423.733 75.76V74.28H420.773C419.146 74.28 418.333 74.8267 418.333 75.92C418.333 76.4533 418.539 76.8733 418.953 77.18C419.366 77.4867 419.939 77.64 420.673 77.64ZM433.884 79.12C432.804 79.12 431.838 78.8867 430.984 78.42C430.144 77.9533 429.484 77.3133 429.004 76.5C428.524 75.6733 428.284 74.74 428.284 73.7C428.284 72.66 428.524 71.7333 429.004 70.92C429.484 70.0933 430.144 69.4533 430.984 69C431.838 68.5333 432.804 68.3 433.884 68.3C434.844 68.3 435.698 68.4933 436.444 68.88C437.204 69.2667 437.791 69.8267 438.204 70.56L436.744 71.5C436.411 70.9933 435.998 70.6133 435.504 70.36C435.011 70.1067 434.464 69.98 433.864 69.98C433.171 69.98 432.544 70.1333 431.984 70.44C431.438 70.7467 431.004 71.1867 430.684 71.76C430.378 72.32 430.224 72.9667 430.224 73.7C430.224 74.4467 430.378 75.1067 430.684 75.68C431.004 76.24 431.438 76.6733 431.984 76.98C432.544 77.2867 433.171 77.44 433.864 77.44C434.464 77.44 435.011 77.3133 435.504 77.06C435.998 76.8067 436.411 76.4267 436.744 75.92L438.204 76.84C437.791 77.5733 437.204 78.14 436.444 78.54C435.698 78.9267 434.844 79.12 433.884 79.12ZM446.787 78.38C446.507 78.62 446.16 78.8067 445.747 78.94C445.333 79.06 444.907 79.12 444.467 79.12C443.4 79.12 442.573 78.8333 441.987 78.26C441.4 77.6867 441.107 76.8667 441.107 75.8V69.98H439.307V68.4H441.107V66.08H443.027V68.4H446.067V69.98H443.027V75.72C443.027 76.2933 443.167 76.7333 443.447 77.04C443.74 77.3467 444.153 77.5 444.687 77.5C445.273 77.5 445.773 77.3333 446.187 77L446.787 78.38ZM288.462 103L288.442 92.8L283.382 101.3H282.462L277.402 92.86V103H275.482V89H277.122L282.962 98.84L288.722 89H290.362L290.382 103H288.462ZM298.163 92.3C299.63 92.3 300.75 92.66 301.523 93.38C302.31 94.1 302.703 95.1733 302.703 96.6V103H300.883V101.6C300.563 102.093 300.103 102.473 299.503 102.74C298.917 102.993 298.217 103.12 297.403 103.12C296.217 103.12 295.263 102.833 294.543 102.26C293.837 101.687 293.483 100.933 293.483 100C293.483 99.0667 293.823 98.32 294.503 97.76C295.183 97.1867 296.263 96.9 297.743 96.9H300.783V96.52C300.783 95.6933 300.543 95.06 300.063 94.62C299.583 94.18 298.877 93.96 297.943 93.96C297.317 93.96 296.703 94.0667 296.103 94.28C295.503 94.48 294.997 94.7533 294.583 95.1L293.783 93.66C294.33 93.22 294.983 92.8867 295.743 92.66C296.503 92.42 297.31 92.3 298.163 92.3ZM297.723 101.64C298.457 101.64 299.09 101.48 299.623 101.16C300.157 100.827 300.543 100.36 300.783 99.76V98.28H297.823C296.197 98.28 295.383 98.8267 295.383 99.92C295.383 100.453 295.59 100.873 296.003 101.18C296.417 101.487 296.99 101.64 297.723 101.64ZM311.916 92.3C313.263 92.3 314.33 92.6933 315.116 93.48C315.916 94.2533 316.316 95.3933 316.316 96.9V103H314.396V97.12C314.396 96.0933 314.15 95.32 313.656 94.8C313.163 94.28 312.456 94.02 311.536 94.02C310.496 94.02 309.676 94.3267 309.076 94.94C308.476 95.54 308.176 96.4067 308.176 97.54V103H306.256V92.4H308.096V94C308.483 93.4533 309.003 93.0333 309.656 92.74C310.323 92.4467 311.076 92.3 311.916 92.3ZM323.73 92.3C325.196 92.3 326.316 92.66 327.09 93.38C327.876 94.1 328.27 95.1733 328.27 96.6V103H326.45V101.6C326.13 102.093 325.67 102.473 325.07 102.74C324.483 102.993 323.783 103.12 322.97 103.12C321.783 103.12 320.83 102.833 320.11 102.26C319.403 101.687 319.05 100.933 319.05 100C319.05 99.0667 319.39 98.32 320.07 97.76C320.75 97.1867 321.83 96.9 323.31 96.9H326.35V96.52C326.35 95.6933 326.11 95.06 325.63 94.62C325.15 94.18 324.443 93.96 323.51 93.96C322.883 93.96 322.27 94.0667 321.67 94.28C321.07 94.48 320.563 94.7533 320.15 95.1L319.35 93.66C319.896 93.22 320.55 92.8867 321.31 92.66C322.07 92.42 322.876 92.3 323.73 92.3ZM323.29 101.64C324.023 101.64 324.656 101.48 325.19 101.16C325.723 100.827 326.11 100.36 326.35 99.76V98.28H323.39C321.763 98.28 320.95 98.8267 320.95 99.92C320.95 100.453 321.156 100.873 321.57 101.18C321.983 101.487 322.556 101.64 323.29 101.64ZM342.021 92.4V101.56C342.021 103.413 341.561 104.78 340.641 105.66C339.721 106.553 338.348 107 336.521 107C335.521 107 334.568 106.86 333.661 106.58C332.755 106.313 332.021 105.927 331.461 105.42L332.381 103.94C332.875 104.367 333.481 104.7 334.201 104.94C334.935 105.193 335.688 105.32 336.461 105.32C337.701 105.32 338.615 105.027 339.201 104.44C339.801 103.853 340.101 102.96 340.101 101.76V100.92C339.648 101.467 339.088 101.88 338.421 102.16C337.768 102.427 337.055 102.56 336.281 102.56C335.268 102.56 334.348 102.347 333.521 101.92C332.708 101.48 332.068 100.873 331.601 100.1C331.135 99.3133 330.901 98.42 330.901 97.42C330.901 96.42 331.135 95.5333 331.601 94.76C332.068 93.9733 332.708 93.3667 333.521 92.94C334.348 92.5133 335.268 92.3 336.281 92.3C337.081 92.3 337.821 92.4467 338.501 92.74C339.195 93.0333 339.761 93.4667 340.201 94.04V92.4H342.021ZM336.501 100.88C337.195 100.88 337.815 100.733 338.361 100.44C338.921 100.147 339.355 99.74 339.661 99.22C339.981 98.6867 340.141 98.0867 340.141 97.42C340.141 96.3933 339.801 95.5667 339.121 94.94C338.441 94.3 337.568 93.98 336.501 93.98C335.421 93.98 334.541 94.3 333.861 94.94C333.181 95.5667 332.841 96.3933 332.841 97.42C332.841 98.0867 332.995 98.6867 333.301 99.22C333.621 99.74 334.055 100.147 334.601 100.44C335.161 100.733 335.795 100.88 336.501 100.88ZM355.27 97.76C355.27 97.9067 355.257 98.1 355.23 98.34H346.63C346.75 99.2733 347.157 100.027 347.85 100.6C348.557 101.16 349.43 101.44 350.47 101.44C351.737 101.44 352.757 101.013 353.53 100.16L354.59 101.4C354.11 101.96 353.51 102.387 352.79 102.68C352.083 102.973 351.29 103.12 350.41 103.12C349.29 103.12 348.297 102.893 347.43 102.44C346.563 101.973 345.89 101.327 345.41 100.5C344.943 99.6733 344.71 98.74 344.71 97.7C344.71 96.6733 344.937 95.7467 345.39 94.92C345.857 94.0933 346.49 93.4533 347.29 93C348.103 92.5333 349.017 92.3 350.03 92.3C351.043 92.3 351.943 92.5333 352.73 93C353.53 93.4533 354.15 94.0933 354.59 94.92C355.043 95.7467 355.27 96.6933 355.27 97.76ZM350.03 93.92C349.11 93.92 348.337 94.2 347.71 94.76C347.097 95.32 346.737 96.0533 346.63 96.96H353.43C353.323 96.0667 352.957 95.34 352.33 94.78C351.717 94.2067 350.95 93.92 350.03 93.92ZM371.196 92.3C372.529 92.3 373.583 92.6867 374.356 93.46C375.143 94.2333 375.536 95.38 375.536 96.9V103H373.616V97.12C373.616 96.0933 373.376 95.32 372.896 94.8C372.429 94.28 371.756 94.02 370.876 94.02C369.903 94.02 369.129 94.3267 368.556 94.94C367.983 95.54 367.696 96.4067 367.696 97.54V103H365.776V97.12C365.776 96.0933 365.536 95.32 365.056 94.8C364.589 94.28 363.916 94.02 363.036 94.02C362.063 94.02 361.289 94.3267 360.716 94.94C360.143 95.54 359.856 96.4067 359.856 97.54V103H357.936V92.4H359.776V93.98C360.163 93.4333 360.669 93.02 361.296 92.74C361.923 92.4467 362.636 92.3 363.436 92.3C364.263 92.3 364.996 92.4667 365.636 92.8C366.276 93.1333 366.769 93.62 367.116 94.26C367.516 93.6467 368.069 93.1667 368.776 92.82C369.496 92.4733 370.303 92.3 371.196 92.3ZM388.708 97.76C388.708 97.9067 388.694 98.1 388.668 98.34H380.068C380.188 99.2733 380.594 100.027 381.288 100.6C381.994 101.16 382.868 101.44 383.908 101.44C385.174 101.44 386.194 101.013 386.968 100.16L388.028 101.4C387.548 101.96 386.948 102.387 386.228 102.68C385.521 102.973 384.728 103.12 383.848 103.12C382.728 103.12 381.734 102.893 380.868 102.44C380.001 101.973 379.328 101.327 378.848 100.5C378.381 99.6733 378.148 98.74 378.148 97.7C378.148 96.6733 378.374 95.7467 378.828 94.92C379.294 94.0933 379.928 93.4533 380.728 93C381.541 92.5333 382.454 92.3 383.468 92.3C384.481 92.3 385.381 92.5333 386.168 93C386.968 93.4533 387.588 94.0933 388.028 94.92C388.481 95.7467 388.708 96.6933 388.708 97.76ZM383.468 93.92C382.548 93.92 381.774 94.2 381.148 94.76C380.534 95.32 380.174 96.0533 380.068 96.96H386.868C386.761 96.0667 386.394 95.34 385.768 94.78C385.154 94.2067 384.388 93.92 383.468 93.92ZM397.034 92.3C398.38 92.3 399.447 92.6933 400.234 93.48C401.034 94.2533 401.434 95.3933 401.434 96.9V103H399.514V97.12C399.514 96.0933 399.267 95.32 398.774 94.8C398.28 94.28 397.574 94.02 396.654 94.02C395.614 94.02 394.794 94.3267 394.194 94.94C393.594 95.54 393.294 96.4067 393.294 97.54V103H391.374V92.4H393.214V94C393.6 93.4533 394.12 93.0333 394.774 92.74C395.44 92.4467 396.194 92.3 397.034 92.3ZM410.947 102.38C410.667 102.62 410.32 102.807 409.907 102.94C409.494 103.06 409.067 103.12 408.627 103.12C407.56 103.12 406.734 102.833 406.147 102.26C405.56 101.687 405.267 100.867 405.267 99.8V93.98H403.467V92.4H405.267V90.08H407.187V92.4H410.227V93.98H407.187V99.72C407.187 100.293 407.327 100.733 407.607 101.04C407.9 101.347 408.314 101.5 408.847 101.5C409.434 101.5 409.934 101.333 410.347 101L410.947 102.38Z" fill="#00ABB8"/>
<rect x="317" y="124" width="50" height="4" fill="#00ABB8"/>
<rect width="226" height="212" fill="#042B3D"/>
<path d="M21.3097 79.16C19.9097 79.16 18.643 78.8533 17.5097 78.24C16.3897 77.6133 15.5097 76.76 14.8697 75.68C14.2297 74.5867 13.9097 73.36 13.9097 72C13.9097 70.64 14.2297 69.42 14.8697 68.34C15.5097 67.2467 16.3963 66.3933 17.5297 65.78C18.663 65.1533 19.9297 64.84 21.3297 64.84C22.423 64.84 23.423 65.0267 24.3297 65.4C25.2363 65.76 26.0097 66.3 26.6497 67.02L25.3497 68.28C24.2963 67.1733 22.983 66.62 21.4097 66.62C20.3697 66.62 19.4297 66.8533 18.5897 67.32C17.7497 67.7867 17.0897 68.4333 16.6097 69.26C16.143 70.0733 15.9097 70.9867 15.9097 72C15.9097 73.0133 16.143 73.9333 16.6097 74.76C17.0897 75.5733 17.7497 76.2133 18.5897 76.68C19.4297 77.1467 20.3697 77.38 21.4097 77.38C22.9697 77.38 24.283 76.82 25.3497 75.7L26.6497 76.96C26.0097 77.68 25.2297 78.2267 24.3097 78.6C23.403 78.9733 22.403 79.16 21.3097 79.16ZM32.9461 68.3C34.4127 68.3 35.5327 68.66 36.3061 69.38C37.0927 70.1 37.4861 71.1733 37.4861 72.6V79H35.6661V77.6C35.3461 78.0933 34.8861 78.4733 34.2861 78.74C33.6994 78.9933 32.9994 79.12 32.1861 79.12C30.9994 79.12 30.0461 78.8333 29.3261 78.26C28.6194 77.6867 28.2661 76.9333 28.2661 76C28.2661 75.0667 28.6061 74.32 29.2861 73.76C29.9661 73.1867 31.0461 72.9 32.5261 72.9H35.5661V72.52C35.5661 71.6933 35.3261 71.06 34.8461 70.62C34.3661 70.18 33.6594 69.96 32.7261 69.96C32.0994 69.96 31.4861 70.0667 30.8861 70.28C30.2861 70.48 29.7794 70.7533 29.3661 71.1L28.5661 69.66C29.1127 69.22 29.7661 68.8867 30.5261 68.66C31.2861 68.42 32.0927 68.3 32.9461 68.3ZM32.5061 77.64C33.2394 77.64 33.8727 77.48 34.4061 77.16C34.9394 76.8267 35.3261 76.36 35.5661 75.76V74.28H32.6061C30.9794 74.28 30.1661 74.8267 30.1661 75.92C30.1661 76.4533 30.3727 76.8733 30.7861 77.18C31.1994 77.4867 31.7727 77.64 32.5061 77.64ZM46.9992 78.38C46.7192 78.62 46.3725 78.8067 45.9592 78.94C45.5459 79.06 45.1192 79.12 44.6792 79.12C43.6125 79.12 42.7859 78.8333 42.1992 78.26C41.6125 77.6867 41.3192 76.8667 41.3192 75.8V69.98H39.5192V68.4H41.3192V66.08H43.2392V68.4H46.2792V69.98H43.2392V75.72C43.2392 76.2933 43.3792 76.7333 43.6592 77.04C43.9525 77.3467 44.3659 77.5 44.8992 77.5C45.4859 77.5 45.9859 77.3333 46.3992 77L46.9992 78.38ZM58.5489 73.76C58.5489 73.9067 58.5355 74.1 58.5089 74.34H49.9089C50.0289 75.2733 50.4355 76.0267 51.1289 76.6C51.8355 77.16 52.7089 77.44 53.7489 77.44C55.0155 77.44 56.0355 77.0133 56.8089 76.16L57.8689 77.4C57.3889 77.96 56.7889 78.3867 56.0689 78.68C55.3622 78.9733 54.5689 79.12 53.6889 79.12C52.5689 79.12 51.5755 78.8933 50.7089 78.44C49.8422 77.9733 49.1689 77.3267 48.6889 76.5C48.2222 75.6733 47.9889 74.74 47.9889 73.7C47.9889 72.6733 48.2155 71.7467 48.6689 70.92C49.1355 70.0933 49.7689 69.4533 50.5689 69C51.3822 68.5333 52.2955 68.3 53.3089 68.3C54.3222 68.3 55.2222 68.5333 56.0089 69C56.8089 69.4533 57.4289 70.0933 57.8689 70.92C58.3222 71.7467 58.5489 72.6933 58.5489 73.76ZM53.3089 69.92C52.3889 69.92 51.6155 70.2 50.9889 70.76C50.3755 71.32 50.0155 72.0533 49.9089 72.96H56.7089C56.6022 72.0667 56.2355 71.34 55.6089 70.78C54.9955 70.2067 54.2289 69.92 53.3089 69.92ZM71.355 68.4V77.56C71.355 79.4133 70.895 80.78 69.975 81.66C69.055 82.5533 67.6816 83 65.855 83C64.855 83 63.9016 82.86 62.995 82.58C62.0883 82.3133 61.355 81.9267 60.795 81.42L61.715 79.94C62.2083 80.3667 62.815 80.7 63.535 80.94C64.2683 81.1933 65.0216 81.32 65.795 81.32C67.035 81.32 67.9483 81.0267 68.535 80.44C69.135 79.8533 69.435 78.96 69.435 77.76V76.92C68.9816 77.4667 68.4216 77.88 67.755 78.16C67.1016 78.4267 66.3883 78.56 65.615 78.56C64.6016 78.56 63.6816 78.3467 62.855 77.92C62.0416 77.48 61.4016 76.8733 60.935 76.1C60.4683 75.3133 60.235 74.42 60.235 73.42C60.235 72.42 60.4683 71.5333 60.935 70.76C61.4016 69.9733 62.0416 69.3667 62.855 68.94C63.6816 68.5133 64.6016 68.3 65.615 68.3C66.415 68.3 67.155 68.4467 67.835 68.74C68.5283 69.0333 69.095 69.4667 69.535 70.04V68.4H71.355ZM65.835 76.88C66.5283 76.88 67.1483 76.7333 67.695 76.44C68.255 76.1467 68.6883 75.74 68.995 75.22C69.315 74.6867 69.475 74.0867 69.475 73.42C69.475 72.3933 69.135 71.5667 68.455 70.94C67.775 70.3 66.9016 69.98 65.835 69.98C64.755 69.98 63.875 70.3 63.195 70.94C62.515 71.5667 62.175 72.3933 62.175 73.42C62.175 74.0867 62.3283 74.6867 62.635 75.22C62.955 75.74 63.3883 76.1467 63.935 76.44C64.495 76.7333 65.1283 76.88 65.835 76.88ZM79.5636 79.12C78.5102 79.12 77.5636 78.8867 76.7236 78.42C75.8836 77.9533 75.2236 77.3133 74.7436 76.5C74.2769 75.6733 74.0436 74.74 74.0436 73.7C74.0436 72.66 74.2769 71.7333 74.7436 70.92C75.2236 70.0933 75.8836 69.4533 76.7236 69C77.5636 68.5333 78.5102 68.3 79.5636 68.3C80.6169 68.3 81.5569 68.5333 82.3836 69C83.2236 69.4533 83.8769 70.0933 84.3436 70.92C84.8236 71.7333 85.0636 72.66 85.0636 73.7C85.0636 74.74 84.8236 75.6733 84.3436 76.5C83.8769 77.3133 83.2236 77.9533 82.3836 78.42C81.5569 78.8867 80.6169 79.12 79.5636 79.12ZM79.5636 77.44C80.2436 77.44 80.8502 77.2867 81.3836 76.98C81.9302 76.66 82.3569 76.22 82.6636 75.66C82.9702 75.0867 83.1236 74.4333 83.1236 73.7C83.1236 72.9667 82.9702 72.32 82.6636 71.76C82.3569 71.1867 81.9302 70.7467 81.3836 70.44C80.8502 70.1333 80.2436 69.98 79.5636 69.98C78.8836 69.98 78.2702 70.1333 77.7236 70.44C77.1902 70.7467 76.7636 71.1867 76.4436 71.76C76.1369 72.32 75.9836 72.9667 75.9836 73.7C75.9836 74.4333 76.1369 75.0867 76.4436 75.66C76.7636 76.22 77.1902 76.66 77.7236 76.98C78.2702 77.2867 78.8836 77.44 79.5636 77.44ZM89.5589 70.18C89.8922 69.5667 90.3855 69.1 91.0389 68.78C91.6922 68.46 92.4855 68.3 93.4189 68.3V70.16C93.3122 70.1467 93.1655 70.14 92.9789 70.14C91.9389 70.14 91.1189 70.4533 90.5189 71.08C89.9322 71.6933 89.6389 72.5733 89.6389 73.72V79H87.7189V68.4H89.5589V70.18ZM105.595 68.4L100.455 80.06C100.002 81.14 99.4683 81.9 98.855 82.34C98.255 82.78 97.5283 83 96.675 83C96.155 83 95.6483 82.9133 95.155 82.74C94.675 82.58 94.275 82.34 93.955 82.02L94.775 80.58C95.3216 81.1 95.955 81.36 96.675 81.36C97.1416 81.36 97.5283 81.2333 97.835 80.98C98.155 80.74 98.4416 80.32 98.695 79.72L99.035 78.98L94.355 68.4H96.355L100.055 76.88L103.715 68.4H105.595ZM117.118 79.16C116.065 79.16 115.045 79 114.058 78.68C113.085 78.3467 112.318 77.92 111.758 77.4L112.498 75.84C113.031 76.32 113.711 76.7133 114.538 77.02C115.378 77.3133 116.238 77.46 117.118 77.46C118.278 77.46 119.145 77.2667 119.718 76.88C120.291 76.48 120.578 75.9533 120.578 75.3C120.578 74.82 120.418 74.4333 120.098 74.14C119.791 73.8333 119.405 73.6 118.938 73.44C118.485 73.28 117.838 73.1 116.998 72.9C115.945 72.6467 115.091 72.3933 114.438 72.14C113.798 71.8867 113.245 71.5 112.778 70.98C112.325 70.4467 112.098 69.7333 112.098 68.84C112.098 68.0933 112.291 67.42 112.678 66.82C113.078 66.22 113.678 65.74 114.478 65.38C115.278 65.02 116.271 64.84 117.458 64.84C118.285 64.84 119.098 64.9467 119.898 65.16C120.698 65.3733 121.385 65.68 121.958 66.08L121.298 67.68C120.711 67.3067 120.085 67.0267 119.418 66.84C118.751 66.64 118.098 66.54 117.458 66.54C116.325 66.54 115.471 66.7467 114.898 67.16C114.338 67.5733 114.058 68.1067 114.058 68.76C114.058 69.24 114.218 69.6333 114.538 69.94C114.858 70.2333 115.251 70.4667 115.718 70.64C116.198 70.8 116.845 70.9733 117.658 71.16C118.711 71.4133 119.558 71.6667 120.198 71.92C120.838 72.1733 121.385 72.56 121.838 73.08C122.305 73.6 122.538 74.3 122.538 75.18C122.538 75.9133 122.338 76.5867 121.938 77.2C121.538 77.8 120.931 78.28 120.118 78.64C119.305 78.9867 118.305 79.16 117.118 79.16ZM131.14 78.38C130.86 78.62 130.513 78.8067 130.1 78.94C129.686 79.06 129.26 79.12 128.82 79.12C127.753 79.12 126.926 78.8333 126.34 78.26C125.753 77.6867 125.46 76.8667 125.46 75.8V69.98H123.66V68.4H125.46V66.08H127.38V68.4H130.42V69.98H127.38V75.72C127.38 76.2933 127.52 76.7333 127.8 77.04C128.093 77.3467 128.506 77.5 129.04 77.5C129.626 77.5 130.126 77.3333 130.54 77L131.14 78.38ZM135.301 70.18C135.634 69.5667 136.128 69.1 136.781 68.78C137.434 68.46 138.228 68.3 139.161 68.3V70.16C139.054 70.1467 138.908 70.14 138.721 70.14C137.681 70.14 136.861 70.4533 136.261 71.08C135.674 71.6933 135.381 72.5733 135.381 73.72V79H133.461V68.4H135.301V70.18ZM145.368 68.3C146.835 68.3 147.955 68.66 148.728 69.38C149.515 70.1 149.908 71.1733 149.908 72.6V79H148.088V77.6C147.768 78.0933 147.308 78.4733 146.708 78.74C146.121 78.9933 145.421 79.12 144.608 79.12C143.421 79.12 142.468 78.8333 141.748 78.26C141.041 77.6867 140.688 76.9333 140.688 76C140.688 75.0667 141.028 74.32 141.708 73.76C142.388 73.1867 143.468 72.9 144.948 72.9H147.988V72.52C147.988 71.6933 147.748 71.06 147.268 70.62C146.788 70.18 146.081 69.96 145.148 69.96C144.521 69.96 143.908 70.0667 143.308 70.28C142.708 70.48 142.201 70.7533 141.788 71.1L140.988 69.66C141.535 69.22 142.188 68.8867 142.948 68.66C143.708 68.42 144.515 68.3 145.368 68.3ZM144.928 77.64C145.661 77.64 146.295 77.48 146.828 77.16C147.361 76.8267 147.748 76.36 147.988 75.76V74.28H145.028C143.401 74.28 142.588 74.8267 142.588 75.92C142.588 76.4533 142.795 76.8733 143.208 77.18C143.621 77.4867 144.195 77.64 144.928 77.64ZM159.421 78.38C159.141 78.62 158.794 78.8067 158.381 78.94C157.968 79.06 157.541 79.12 157.101 79.12C156.034 79.12 155.208 78.8333 154.621 78.26C154.034 77.6867 153.741 76.8667 153.741 75.8V69.98H151.941V68.4H153.741V66.08H155.661V68.4H158.701V69.98H155.661V75.72C155.661 76.2933 155.801 76.7333 156.081 77.04C156.374 77.3467 156.788 77.5 157.321 77.5C157.908 77.5 158.408 77.3333 158.821 77L159.421 78.38ZM170.971 73.76C170.971 73.9067 170.957 74.1 170.931 74.34H162.331C162.451 75.2733 162.857 76.0267 163.551 76.6C164.257 77.16 165.131 77.44 166.171 77.44C167.437 77.44 168.457 77.0133 169.231 76.16L170.291 77.4C169.811 77.96 169.211 78.3867 168.491 78.68C167.784 78.9733 166.991 79.12 166.111 79.12C164.991 79.12 163.997 78.8933 163.131 78.44C162.264 77.9733 161.591 77.3267 161.111 76.5C160.644 75.6733 160.411 74.74 160.411 73.7C160.411 72.6733 160.637 71.7467 161.091 70.92C161.557 70.0933 162.191 69.4533 162.991 69C163.804 68.5333 164.717 68.3 165.731 68.3C166.744 68.3 167.644 68.5333 168.431 69C169.231 69.4533 169.851 70.0933 170.291 70.92C170.744 71.7467 170.971 72.6933 170.971 73.76ZM165.731 69.92C164.811 69.92 164.037 70.2 163.411 70.76C162.797 71.32 162.437 72.0533 162.331 72.96H169.131C169.024 72.0667 168.657 71.34 168.031 70.78C167.417 70.2067 166.651 69.92 165.731 69.92ZM183.777 68.4V77.56C183.777 79.4133 183.317 80.78 182.397 81.66C181.477 82.5533 180.104 83 178.277 83C177.277 83 176.324 82.86 175.417 82.58C174.51 82.3133 173.777 81.9267 173.217 81.42L174.137 79.94C174.63 80.3667 175.237 80.7 175.957 80.94C176.69 81.1933 177.444 81.32 178.217 81.32C179.457 81.32 180.37 81.0267 180.957 80.44C181.557 79.8533 181.857 78.96 181.857 77.76V76.92C181.404 77.4667 180.844 77.88 180.177 78.16C179.524 78.4267 178.81 78.56 178.037 78.56C177.024 78.56 176.104 78.3467 175.277 77.92C174.464 77.48 173.824 76.8733 173.357 76.1C172.89 75.3133 172.657 74.42 172.657 73.42C172.657 72.42 172.89 71.5333 173.357 70.76C173.824 69.9733 174.464 69.3667 175.277 68.94C176.104 68.5133 177.024 68.3 178.037 68.3C178.837 68.3 179.577 68.4467 180.257 68.74C180.95 69.0333 181.517 69.4667 181.957 70.04V68.4H183.777ZM178.257 76.88C178.95 76.88 179.57 76.7333 180.117 76.44C180.677 76.1467 181.11 75.74 181.417 75.22C181.737 74.6867 181.897 74.0867 181.897 73.42C181.897 72.3933 181.557 71.5667 180.877 70.94C180.197 70.3 179.324 69.98 178.257 69.98C177.177 69.98 176.297 70.3 175.617 70.94C174.937 71.5667 174.597 72.3933 174.597 73.42C174.597 74.0867 174.75 74.6867 175.057 75.22C175.377 75.74 175.81 76.1467 176.357 76.44C176.917 76.7333 177.55 76.88 178.257 76.88ZM196.825 68.4L191.685 80.06C191.232 81.14 190.699 81.9 190.085 82.34C189.485 82.78 188.759 83 187.905 83C187.385 83 186.879 82.9133 186.385 82.74C185.905 82.58 185.505 82.34 185.185 82.02L186.005 80.58C186.552 81.1 187.185 81.36 187.905 81.36C188.372 81.36 188.759 81.2333 189.065 80.98C189.385 80.74 189.672 80.32 189.925 79.72L190.265 78.98L185.585 68.4H187.585L191.285 76.88L194.945 68.4H196.825ZM214.508 79.22L212.648 77.36C211.408 78.56 209.848 79.16 207.968 79.16C207.035 79.16 206.195 79.0067 205.448 78.7C204.702 78.3933 204.115 77.9667 203.688 77.42C203.275 76.86 203.068 76.2267 203.068 75.52C203.068 74.6667 203.328 73.9133 203.848 73.26C204.382 72.5933 205.255 71.9133 206.468 71.22C205.855 70.6067 205.422 70.0533 205.168 69.56C204.915 69.0667 204.788 68.5533 204.788 68.02C204.788 67.0733 205.128 66.3133 205.808 65.74C206.502 65.1667 207.422 64.88 208.568 64.88C209.635 64.88 210.482 65.14 211.108 65.66C211.735 66.18 212.048 66.8933 212.048 67.8C212.048 68.5067 211.815 69.14 211.348 69.7C210.895 70.26 210.135 70.8467 209.068 71.46L212.528 74.9C212.928 74.14 213.215 73.2933 213.388 72.36L214.928 72.86C214.688 74.0867 214.282 75.1533 213.708 76.06L215.588 77.94L214.508 79.22ZM208.568 66.28C207.942 66.28 207.448 66.44 207.088 66.76C206.742 67.0667 206.568 67.4733 206.568 67.98C206.568 68.34 206.662 68.6867 206.848 69.02C207.048 69.3533 207.428 69.8067 207.988 70.38C208.908 69.86 209.542 69.4133 209.888 69.04C210.248 68.6667 210.428 68.26 210.428 67.82C210.428 67.3533 210.262 66.98 209.928 66.7C209.608 66.42 209.155 66.28 208.568 66.28ZM208.088 77.56C209.475 77.56 210.615 77.12 211.508 76.24L207.528 72.28C206.568 72.8133 205.895 73.3133 205.508 73.78C205.135 74.2333 204.948 74.7467 204.948 75.32C204.948 75.9867 205.235 76.5267 205.808 76.94C206.395 77.3533 207.155 77.56 208.088 77.56ZM32.9112 103.16C31.5112 103.16 30.2446 102.853 29.1112 102.24C27.9912 101.613 27.1112 100.76 26.4712 99.68C25.8312 98.5867 25.5112 97.36 25.5112 96C25.5112 94.64 25.8312 93.42 26.4712 92.34C27.1112 91.2467 27.9979 90.3933 29.1312 89.78C30.2646 89.1533 31.5312 88.84 32.9312 88.84C34.0246 88.84 35.0246 89.0267 35.9312 89.4C36.8379 89.76 37.6112 90.3 38.2512 91.02L36.9512 92.28C35.8979 91.1733 34.5846 90.62 33.0112 90.62C31.9712 90.62 31.0312 90.8533 30.1912 91.32C29.3512 91.7867 28.6912 92.4333 28.2112 93.26C27.7446 94.0733 27.5112 94.9867 27.5112 96C27.5112 97.0133 27.7446 97.9333 28.2112 98.76C28.6912 99.5733 29.3512 100.213 30.1912 100.68C31.0312 101.147 31.9712 101.38 33.0112 101.38C34.5712 101.38 35.8846 100.82 36.9512 99.7L38.2512 100.96C37.6112 101.68 36.8312 102.227 35.9112 102.6C35.0046 102.973 34.0046 103.16 32.9112 103.16ZM44.9151 103.12C43.8618 103.12 42.9151 102.887 42.0751 102.42C41.2351 101.953 40.5751 101.313 40.0951 100.5C39.6285 99.6733 39.3951 98.74 39.3951 97.7C39.3951 96.66 39.6285 95.7333 40.0951 94.92C40.5751 94.0933 41.2351 93.4533 42.0751 93C42.9151 92.5333 43.8618 92.3 44.9151 92.3C45.9685 92.3 46.9085 92.5333 47.7351 93C48.5751 93.4533 49.2285 94.0933 49.6951 94.92C50.1751 95.7333 50.4151 96.66 50.4151 97.7C50.4151 98.74 50.1751 99.6733 49.6951 100.5C49.2285 101.313 48.5751 101.953 47.7351 102.42C46.9085 102.887 45.9685 103.12 44.9151 103.12ZM44.9151 101.44C45.5951 101.44 46.2018 101.287 46.7351 100.98C47.2818 100.66 47.7085 100.22 48.0151 99.66C48.3218 99.0867 48.4751 98.4333 48.4751 97.7C48.4751 96.9667 48.3218 96.32 48.0151 95.76C47.7085 95.1867 47.2818 94.7467 46.7351 94.44C46.2018 94.1333 45.5951 93.98 44.9151 93.98C44.2351 93.98 43.6218 94.1333 43.0751 94.44C42.5418 94.7467 42.1151 95.1867 41.7951 95.76C41.4885 96.32 41.3351 96.9667 41.3351 97.7C41.3351 98.4333 41.4885 99.0867 41.7951 99.66C42.1151 100.22 42.5418 100.66 43.0751 100.98C43.6218 101.287 44.2351 101.44 44.9151 101.44ZM58.7304 92.3C60.0771 92.3 61.1438 92.6933 61.9304 93.48C62.7304 94.2533 63.1304 95.3933 63.1304 96.9V103H61.2104V97.12C61.2104 96.0933 60.9638 95.32 60.4704 94.8C59.9771 94.28 59.2704 94.02 58.3504 94.02C57.3104 94.02 56.4904 94.3267 55.8904 94.94C55.2904 95.54 54.9904 96.4067 54.9904 97.54V103H53.0704V92.4H54.9104V94C55.2971 93.4533 55.8171 93.0333 56.4704 92.74C57.1371 92.4467 57.8904 92.3 58.7304 92.3ZM72.6437 102.38C72.3637 102.62 72.0171 102.807 71.6037 102.94C71.1904 103.06 70.7637 103.12 70.3237 103.12C69.2571 103.12 68.4304 102.833 67.8437 102.26C67.2571 101.687 66.9637 100.867 66.9637 99.8V93.98H65.1637V92.4H66.9637V90.08H68.8837V92.4H71.9237V93.98H68.8837V99.72C68.8837 100.293 69.0237 100.733 69.3037 101.04C69.5971 101.347 70.0104 101.5 70.5437 101.5C71.1304 101.5 71.6304 101.333 72.0437 101L72.6437 102.38ZM76.805 94.18C77.1383 93.5667 77.6316 93.1 78.285 92.78C78.9383 92.46 79.7316 92.3 80.665 92.3V94.16C80.5583 94.1467 80.4116 94.14 80.225 94.14C79.185 94.14 78.365 94.4533 77.765 95.08C77.1783 95.6933 76.885 96.5733 76.885 97.72V103H74.965V92.4H76.805V94.18ZM86.8718 92.3C88.3385 92.3 89.4585 92.66 90.2318 93.38C91.0185 94.1 91.4118 95.1733 91.4118 96.6V103H89.5918V101.6C89.2718 102.093 88.8118 102.473 88.2118 102.74C87.6252 102.993 86.9252 103.12 86.1118 103.12C84.9252 103.12 83.9718 102.833 83.2518 102.26C82.5452 101.687 82.1918 100.933 82.1918 100C82.1918 99.0667 82.5318 98.32 83.2118 97.76C83.8918 97.1867 84.9718 96.9 86.4518 96.9H89.4918V96.52C89.4918 95.6933 89.2518 95.06 88.7718 94.62C88.2918 94.18 87.5852 93.96 86.6518 93.96C86.0252 93.96 85.4118 94.0667 84.8118 94.28C84.2118 94.48 83.7052 94.7533 83.2918 95.1L82.4918 93.66C83.0385 93.22 83.6918 92.8867 84.4518 92.66C85.2118 92.42 86.0185 92.3 86.8718 92.3ZM86.4318 101.64C87.1652 101.64 87.7985 101.48 88.3318 101.16C88.8652 100.827 89.2518 100.36 89.4918 99.76V98.28H86.5318C84.9052 98.28 84.0918 98.8267 84.0918 99.92C84.0918 100.453 84.2985 100.873 84.7118 101.18C85.1252 101.487 85.6985 101.64 86.4318 101.64ZM99.6436 103.12C98.5636 103.12 97.5969 102.887 96.7436 102.42C95.9036 101.953 95.2436 101.313 94.7636 100.5C94.2836 99.6733 94.0436 98.74 94.0436 97.7C94.0436 96.66 94.2836 95.7333 94.7636 94.92C95.2436 94.0933 95.9036 93.4533 96.7436 93C97.5969 92.5333 98.5636 92.3 99.6436 92.3C100.604 92.3 101.457 92.4933 102.204 92.88C102.964 93.2667 103.55 93.8267 103.964 94.56L102.504 95.5C102.17 94.9933 101.757 94.6133 101.264 94.36C100.77 94.1067 100.224 93.98 99.6236 93.98C98.9302 93.98 98.3036 94.1333 97.7436 94.44C97.1969 94.7467 96.7636 95.1867 96.4436 95.76C96.1369 96.32 95.9836 96.9667 95.9836 97.7C95.9836 98.4467 96.1369 99.1067 96.4436 99.68C96.7636 100.24 97.1969 100.673 97.7436 100.98C98.3036 101.287 98.9302 101.44 99.6236 101.44C100.224 101.44 100.77 101.313 101.264 101.06C101.757 100.807 102.17 100.427 102.504 99.92L103.964 100.84C103.55 101.573 102.964 102.14 102.204 102.54C101.457 102.927 100.604 103.12 99.6436 103.12ZM112.546 102.38C112.266 102.62 111.919 102.807 111.506 102.94C111.093 103.06 110.666 103.12 110.226 103.12C109.159 103.12 108.333 102.833 107.746 102.26C107.159 101.687 106.866 100.867 106.866 99.8V93.98H105.066V92.4H106.866V90.08H108.786V92.4H111.826V93.98H108.786V99.72C108.786 100.293 108.926 100.733 109.206 101.04C109.499 101.347 109.913 101.5 110.446 101.5C111.033 101.5 111.533 101.333 111.946 101L112.546 102.38ZM124.598 103.16C123.545 103.16 122.525 103 121.538 102.68C120.565 102.347 119.798 101.92 119.238 101.4L119.978 99.84C120.512 100.32 121.192 100.713 122.018 101.02C122.858 101.313 123.718 101.46 124.598 101.46C125.758 101.46 126.625 101.267 127.198 100.88C127.772 100.48 128.058 99.9533 128.058 99.3C128.058 98.82 127.898 98.4333 127.578 98.14C127.272 97.8333 126.885 97.6 126.418 97.44C125.965 97.28 125.318 97.1 124.478 96.9C123.425 96.6467 122.572 96.3933 121.918 96.14C121.278 95.8867 120.725 95.5 120.258 94.98C119.805 94.4467 119.578 93.7333 119.578 92.84C119.578 92.0933 119.772 91.42 120.158 90.82C120.558 90.22 121.158 89.74 121.958 89.38C122.758 89.02 123.752 88.84 124.938 88.84C125.765 88.84 126.578 88.9467 127.378 89.16C128.178 89.3733 128.865 89.68 129.438 90.08L128.778 91.68C128.192 91.3067 127.565 91.0267 126.898 90.84C126.232 90.64 125.578 90.54 124.938 90.54C123.805 90.54 122.952 90.7467 122.378 91.16C121.818 91.5733 121.538 92.1067 121.538 92.76C121.538 93.24 121.698 93.6333 122.018 93.94C122.338 94.2333 122.732 94.4667 123.198 94.64C123.678 94.8 124.325 94.9733 125.138 95.16C126.192 95.4133 127.038 95.6667 127.678 95.92C128.318 96.1733 128.865 96.56 129.318 97.08C129.785 97.6 130.018 98.3 130.018 99.18C130.018 99.9133 129.818 100.587 129.418 101.2C129.018 101.8 128.412 102.28 127.598 102.64C126.785 102.987 125.785 103.16 124.598 103.16ZM138.62 102.38C138.34 102.62 137.994 102.807 137.58 102.94C137.167 103.06 136.74 103.12 136.3 103.12C135.234 103.12 134.407 102.833 133.82 102.26C133.234 101.687 132.94 100.867 132.94 99.8V93.98H131.14V92.4H132.94V90.08H134.86V92.4H137.9V93.98H134.86V99.72C134.86 100.293 135 100.733 135.28 101.04C135.574 101.347 135.987 101.5 136.52 101.5C137.107 101.5 137.607 101.333 138.02 101L138.62 102.38ZM142.782 94.18C143.115 93.5667 143.608 93.1 144.262 92.78C144.915 92.46 145.708 92.3 146.642 92.3V94.16C146.535 94.1467 146.388 94.14 146.202 94.14C145.162 94.14 144.342 94.4533 143.742 95.08C143.155 95.6933 142.862 96.5733 142.862 97.72V103H140.942V92.4H142.782V94.18ZM152.848 92.3C154.315 92.3 155.435 92.66 156.208 93.38C156.995 94.1 157.388 95.1733 157.388 96.6V103H155.568V101.6C155.248 102.093 154.788 102.473 154.188 102.74C153.602 102.993 152.902 103.12 152.088 103.12C150.902 103.12 149.948 102.833 149.228 102.26C148.522 101.687 148.168 100.933 148.168 100C148.168 99.0667 148.508 98.32 149.188 97.76C149.868 97.1867 150.948 96.9 152.428 96.9H155.468V96.52C155.468 95.6933 155.228 95.06 154.748 94.62C154.268 94.18 153.562 93.96 152.628 93.96C152.002 93.96 151.388 94.0667 150.788 94.28C150.188 94.48 149.682 94.7533 149.268 95.1L148.468 93.66C149.015 93.22 149.668 92.8867 150.428 92.66C151.188 92.42 151.995 92.3 152.848 92.3ZM152.408 101.64C153.142 101.64 153.775 101.48 154.308 101.16C154.842 100.827 155.228 100.36 155.468 99.76V98.28H152.508C150.882 98.28 150.068 98.8267 150.068 99.92C150.068 100.453 150.275 100.873 150.688 101.18C151.102 101.487 151.675 101.64 152.408 101.64ZM166.902 102.38C166.622 102.62 166.275 102.807 165.862 102.94C165.448 103.06 165.022 103.12 164.582 103.12C163.515 103.12 162.688 102.833 162.102 102.26C161.515 101.687 161.222 100.867 161.222 99.8V93.98H159.422V92.4H161.222V90.08H163.142V92.4H166.182V93.98H163.142V99.72C163.142 100.293 163.282 100.733 163.562 101.04C163.855 101.347 164.268 101.5 164.802 101.5C165.388 101.5 165.888 101.333 166.302 101L166.902 102.38ZM178.451 97.76C178.451 97.9067 178.438 98.1 178.411 98.34H169.811C169.931 99.2733 170.338 100.027 171.031 100.6C171.738 101.16 172.611 101.44 173.651 101.44C174.918 101.44 175.938 101.013 176.711 100.16L177.771 101.4C177.291 101.96 176.691 102.387 175.971 102.68C175.265 102.973 174.471 103.12 173.591 103.12C172.471 103.12 171.478 102.893 170.611 102.44C169.745 101.973 169.071 101.327 168.591 100.5C168.125 99.6733 167.891 98.74 167.891 97.7C167.891 96.6733 168.118 95.7467 168.571 94.92C169.038 94.0933 169.671 93.4533 170.471 93C171.285 92.5333 172.198 92.3 173.211 92.3C174.225 92.3 175.125 92.5333 175.911 93C176.711 93.4533 177.331 94.0933 177.771 94.92C178.225 95.7467 178.451 96.6933 178.451 97.76ZM173.211 93.92C172.291 93.92 171.518 94.2 170.891 94.76C170.278 95.32 169.918 96.0533 169.811 96.96H176.611C176.505 96.0667 176.138 95.34 175.511 94.78C174.898 94.2067 174.131 93.92 173.211 93.92ZM191.257 92.4V101.56C191.257 103.413 190.797 104.78 189.877 105.66C188.957 106.553 187.584 107 185.757 107C184.757 107 183.804 106.86 182.897 106.58C181.991 106.313 181.257 105.927 180.697 105.42L181.617 103.94C182.111 104.367 182.717 104.7 183.437 104.94C184.171 105.193 184.924 105.32 185.697 105.32C186.937 105.32 187.851 105.027 188.437 104.44C189.037 103.853 189.337 102.96 189.337 101.76V100.92C188.884 101.467 188.324 101.88 187.657 102.16C187.004 102.427 186.291 102.56 185.517 102.56C184.504 102.56 183.584 102.347 182.757 101.92C181.944 101.48 181.304 100.873 180.837 100.1C180.371 99.3133 180.137 98.42 180.137 97.42C180.137 96.42 180.371 95.5333 180.837 94.76C181.304 93.9733 181.944 93.3667 182.757 92.94C183.584 92.5133 184.504 92.3 185.517 92.3C186.317 92.3 187.057 92.4467 187.737 92.74C188.431 93.0333 188.997 93.4667 189.437 94.04V92.4H191.257ZM185.737 100.88C186.431 100.88 187.051 100.733 187.597 100.44C188.157 100.147 188.591 99.74 188.897 99.22C189.217 98.6867 189.377 98.0867 189.377 97.42C189.377 96.3933 189.037 95.5667 188.357 94.94C187.677 94.3 186.804 93.98 185.737 93.98C184.657 93.98 183.777 94.3 183.097 94.94C182.417 95.5667 182.077 96.3933 182.077 97.42C182.077 98.0867 182.231 98.6867 182.537 99.22C182.857 99.74 183.291 100.147 183.837 100.44C184.397 100.733 185.031 100.88 185.737 100.88ZM204.306 92.4L199.166 104.06C198.713 105.14 198.179 105.9 197.566 106.34C196.966 106.78 196.239 107 195.386 107C194.866 107 194.359 106.913 193.866 106.74C193.386 106.58 192.986 106.34 192.666 106.02L193.486 104.58C194.033 105.1 194.666 105.36 195.386 105.36C195.853 105.36 196.239 105.233 196.546 104.98C196.866 104.74 197.153 104.32 197.406 103.72L197.746 102.98L193.066 92.4H195.066L198.766 100.88L202.426 92.4H204.306Z" fill="#00ABB8"/>
<rect x="89" y="124" width="50" height="4" fill="#00ABB8"/>
</svg>
