<svg width="15" height="11" viewBox="0 0 15 11" fill="none" xmlns="http://www.w3.org/2000/svg">
<path fill-rule="evenodd" clip-rule="evenodd" d="M14.2006 0.793031C14.388 0.980558 14.4934 1.23487 14.4934 1.50003C14.4934 1.76519 14.388 2.0195 14.2006 2.20703L6.20057 10.207C6.01304 10.3945 5.75874 10.4998 5.49357 10.4998C5.22841 10.4998 4.9741 10.3945 4.78657 10.207L0.786571 6.20703C0.604413 6.01843 0.503619 5.76583 0.505897 5.50363C0.508176 5.24143 0.613345 4.99062 0.798753 4.80521C0.984161 4.6198 1.23497 4.51464 1.49717 4.51236C1.75937 4.51008 2.01197 4.61087 2.20057 4.79303L5.49357 8.08603L12.7866 0.793031C12.9741 0.60556 13.2284 0.500244 13.4936 0.500244C13.7587 0.500244 14.013 0.60556 14.2006 0.793031Z" fill="black"/>
</svg>
