<svg width="185" height="186" viewBox="0 0 185 186" fill="none" xmlns="http://www.w3.org/2000/svg">
<g filter="url(#filter0_i_1_3017)">
<rect width="185" height="185" rx="92.5" fill="white" fill-opacity="0.01"/>
<mask id="path-2-inside-1_1_3017" fill="white">
<path d="M0 92.5H185V94.5H0V92.5Z"/>
</mask>
<path d="M0 93.5H185V91.5H0V93.5ZM185 93.5H0V95.5H185V93.5Z" fill="url(#paint0_linear_1_3017)" mask="url(#path-2-inside-1_1_3017)"/>
<g filter="url(#filter1_di_1_3017)">
<rect x="10" y="10" width="165" height="165" rx="82.5" fill="#F7F7F7" shape-rendering="crispEdges"/>
<path d="M48.6095 73.628C47.4788 73.628 46.4602 73.3827 45.5535 72.892C44.6468 72.3907 43.9322 71.7027 43.4095 70.828C42.8975 69.9533 42.6415 68.9773 42.6415 67.9C42.6415 66.8227 42.8975 65.8467 43.4095 64.972C43.9322 64.0973 44.6468 63.4147 45.5535 62.924C46.4602 62.4227 47.4788 62.172 48.6095 62.172C49.7295 62.172 50.7428 62.4227 51.6495 62.924C52.5562 63.4147 53.2655 64.0973 53.7775 64.972C54.2895 65.836 54.5455 66.812 54.5455 67.9C54.5455 68.988 54.2895 69.9693 53.7775 70.844C53.2655 71.708 52.5562 72.3907 51.6495 72.892C50.7428 73.3827 49.7295 73.628 48.6095 73.628ZM48.6095 72.204C49.4308 72.204 50.1668 72.0173 50.8175 71.644C51.4788 71.2707 51.9962 70.7587 52.3695 70.108C52.7535 69.4467 52.9455 68.7107 52.9455 67.9C52.9455 67.0893 52.7535 66.3587 52.3695 65.708C51.9962 65.0467 51.4788 64.5293 50.8175 64.156C50.1668 63.7827 49.4308 63.596 48.6095 63.596C47.7882 63.596 47.0415 63.7827 46.3695 64.156C45.7082 64.5293 45.1855 65.0467 44.8015 65.708C44.4282 66.3587 44.2415 67.0893 44.2415 67.9C44.2415 68.7107 44.4282 69.4467 44.8015 70.108C45.1855 70.7587 45.7082 71.2707 46.3695 71.644C47.0415 72.0173 47.7882 72.204 48.6095 72.204ZM59.871 62.796C58.9537 62.796 58.495 63.292 58.495 64.284V65.02H60.959V66.284H58.527V73.5H56.991V66.284H55.551V65.02H56.991V64.268C56.991 63.4253 57.2363 62.7587 57.727 62.268C58.2177 61.7773 58.9057 61.532 59.791 61.532C60.1323 61.532 60.4523 61.5747 60.751 61.66C61.0497 61.7453 61.3057 61.868 61.519 62.028L61.055 63.196C60.703 62.9293 60.3083 62.796 59.871 62.796ZM65.5116 62.796C64.5943 62.796 64.1356 63.292 64.1356 64.284V65.02H66.5996V66.284H64.1676V73.5H62.6316V66.284H61.1916V65.02H62.6316V64.268C62.6316 63.4253 62.8769 62.7587 63.3676 62.268C63.8583 61.7773 64.5463 61.532 65.4316 61.532C65.7729 61.532 66.0929 61.5747 66.3916 61.66C66.6903 61.7453 66.9463 61.868 67.1596 62.028L66.6956 63.196C66.3436 62.9293 65.9489 62.796 65.5116 62.796ZM77.1131 73.004C76.8891 73.196 76.6118 73.3453 76.2811 73.452C75.9504 73.548 75.6091 73.596 75.2571 73.596C74.4038 73.596 73.7424 73.3667 73.2731 72.908C72.8038 72.4493 72.5691 71.7933 72.5691 70.94V66.284H71.1291V65.02H72.5691V63.164H74.1051V65.02H76.5371V66.284H74.1051V70.876C74.1051 71.3347 74.2171 71.6867 74.4411 71.932C74.6758 72.1773 75.0064 72.3 75.4331 72.3C75.9024 72.3 76.3024 72.1667 76.6331 71.9L77.1131 73.004ZM83.4981 64.94C84.5754 64.94 85.4288 65.2547 86.0581 65.884C86.6981 66.5027 87.0181 67.4147 87.0181 68.62V73.5H85.4821V68.796C85.4821 67.9747 85.2848 67.356 84.8901 66.94C84.4954 66.524 83.9301 66.316 83.1941 66.316C82.3621 66.316 81.7061 66.5613 81.2261 67.052C80.7461 67.532 80.5061 68.2253 80.5061 69.132V73.5H78.9701V61.628H80.5061V66.22C80.8261 65.8147 81.2421 65.5 81.7541 65.276C82.2768 65.052 82.8581 64.94 83.4981 64.94ZM97.5716 69.308C97.5716 69.4253 97.5609 69.58 97.5396 69.772H90.6596C90.7556 70.5187 91.0809 71.1213 91.6356 71.58C92.2009 72.028 92.8996 72.252 93.7316 72.252C94.7449 72.252 95.5609 71.9107 96.1796 71.228L97.0276 72.22C96.6436 72.668 96.1636 73.0093 95.5876 73.244C95.0223 73.4787 94.3876 73.596 93.6836 73.596C92.7876 73.596 91.9929 73.4147 91.2996 73.052C90.6063 72.6787 90.0676 72.1613 89.6836 71.5C89.3103 70.8387 89.1236 70.092 89.1236 69.26C89.1236 68.4387 89.3049 67.6973 89.6676 67.036C90.0409 66.3747 90.5476 65.8627 91.1876 65.5C91.8383 65.1267 92.5689 64.94 93.3796 64.94C94.1903 64.94 94.9103 65.1267 95.5396 65.5C96.1796 65.8627 96.6756 66.3747 97.0276 67.036C97.3903 67.6973 97.5716 68.4547 97.5716 69.308ZM93.3796 66.236C92.6436 66.236 92.0249 66.46 91.5236 66.908C91.0329 67.356 90.7449 67.9427 90.6596 68.668H96.0996C96.0143 67.9533 95.7209 67.372 95.2196 66.924C94.7289 66.4653 94.1156 66.236 93.3796 66.236ZM107.489 73.628C106.647 73.628 105.831 73.5 105.041 73.244C104.263 72.9773 103.649 72.636 103.201 72.22L103.793 70.972C104.22 71.356 104.764 71.6707 105.425 71.916C106.097 72.1507 106.785 72.268 107.489 72.268C108.417 72.268 109.111 72.1133 109.569 71.804C110.028 71.484 110.257 71.0627 110.257 70.54C110.257 70.156 110.129 69.8467 109.873 69.612C109.628 69.3667 109.319 69.18 108.945 69.052C108.583 68.924 108.065 68.78 107.393 68.62C106.551 68.4173 105.868 68.2147 105.345 68.012C104.833 67.8093 104.391 67.5 104.017 67.084C103.655 66.6573 103.473 66.0867 103.473 65.372C103.473 64.7747 103.628 64.236 103.937 63.756C104.257 63.276 104.737 62.892 105.377 62.604C106.017 62.316 106.812 62.172 107.761 62.172C108.423 62.172 109.073 62.2573 109.713 62.428C110.353 62.5987 110.903 62.844 111.361 63.164L110.833 64.444C110.364 64.1453 109.863 63.9213 109.329 63.772C108.796 63.612 108.273 63.532 107.761 63.532C106.855 63.532 106.172 63.6973 105.713 64.028C105.265 64.3587 105.041 64.7853 105.041 65.308C105.041 65.692 105.169 66.0067 105.425 66.252C105.681 66.4867 105.996 66.6733 106.369 66.812C106.753 66.94 107.271 67.0787 107.921 67.228C108.764 67.4307 109.441 67.6333 109.953 67.836C110.465 68.0387 110.903 68.348 111.265 68.764C111.639 69.18 111.825 69.74 111.825 70.444C111.825 71.0307 111.665 71.5693 111.345 72.06C111.025 72.54 110.54 72.924 109.889 73.212C109.239 73.4893 108.439 73.628 107.489 73.628ZM118.467 64.94C119.544 64.94 120.398 65.2547 121.027 65.884C121.667 66.5027 121.987 67.4147 121.987 68.62V73.5H120.451V68.796C120.451 67.9747 120.254 67.356 119.859 66.94C119.464 66.524 118.899 66.316 118.163 66.316C117.331 66.316 116.675 66.5613 116.195 67.052C115.715 67.532 115.475 68.2253 115.475 69.132V73.5H113.939V61.628H115.475V66.22C115.795 65.8147 116.211 65.5 116.723 65.276C117.246 65.052 117.827 64.94 118.467 64.94ZM132.54 69.308C132.54 69.4253 132.53 69.58 132.508 69.772H125.628C125.724 70.5187 126.05 71.1213 126.604 71.58C127.17 72.028 127.868 72.252 128.7 72.252C129.714 72.252 130.53 71.9107 131.148 71.228L131.996 72.22C131.612 72.668 131.132 73.0093 130.556 73.244C129.991 73.4787 129.356 73.596 128.652 73.596C127.756 73.596 126.962 73.4147 126.268 73.052C125.575 72.6787 125.036 72.1613 124.652 71.5C124.279 70.8387 124.092 70.092 124.092 69.26C124.092 68.4387 124.274 67.6973 124.636 67.036C125.01 66.3747 125.516 65.8627 126.156 65.5C126.807 65.1267 127.538 64.94 128.348 64.94C129.159 64.94 129.879 65.1267 130.508 65.5C131.148 65.8627 131.644 66.3747 131.996 67.036C132.359 67.6973 132.54 68.4547 132.54 69.308ZM128.348 66.236C127.612 66.236 126.994 66.46 126.492 66.908C126.002 67.356 125.714 67.9427 125.628 68.668H131.068C130.983 67.9533 130.69 67.372 130.188 66.924C129.698 66.4653 129.084 66.236 128.348 66.236ZM134.673 61.628H136.209V73.5H134.673V61.628ZM142.246 62.796C141.329 62.796 140.87 63.292 140.87 64.284V65.02H143.334V66.284H140.902V73.5H139.366V66.284H137.926V65.02H139.366V64.268C139.366 63.4253 139.611 62.7587 140.102 62.268C140.593 61.7773 141.281 61.532 142.166 61.532C142.507 61.532 142.827 61.5747 143.126 61.66C143.425 61.7453 143.681 61.868 143.894 62.028L143.43 63.196C143.078 62.9293 142.683 62.796 142.246 62.796ZM49.0146 97.628C47.8946 97.628 46.8813 97.3827 45.9746 96.892C45.0786 96.3907 44.3746 95.708 43.8626 94.844C43.3506 93.9693 43.0946 92.988 43.0946 91.9C43.0946 90.812 43.3506 89.836 43.8626 88.972C44.3746 88.0973 45.0839 87.4147 45.9906 86.924C46.8973 86.4227 47.9106 86.172 49.0306 86.172C49.9053 86.172 50.7053 86.3213 51.4306 86.62C52.1559 86.908 52.7746 87.34 53.2866 87.916L52.2466 88.924C51.4039 88.0387 50.3533 87.596 49.0946 87.596C48.2626 87.596 47.5106 87.7827 46.8386 88.156C46.1666 88.5293 45.6386 89.0467 45.2546 89.708C44.8813 90.3587 44.6946 91.0893 44.6946 91.9C44.6946 92.7107 44.8813 93.4467 45.2546 94.108C45.6386 94.7587 46.1666 95.2707 46.8386 95.644C47.5106 96.0173 48.2626 96.204 49.0946 96.204C50.3426 96.204 51.3933 95.756 52.2466 94.86L53.2866 95.868C52.7746 96.444 52.1506 96.8813 51.4146 97.18C50.6893 97.4787 49.8893 97.628 49.0146 97.628ZM58.6177 97.596C57.7751 97.596 57.0177 97.4093 56.3457 97.036C55.6737 96.6627 55.1457 96.1507 54.7617 95.5C54.3884 94.8387 54.2017 94.092 54.2017 93.26C54.2017 92.428 54.3884 91.6867 54.7617 91.036C55.1457 90.3747 55.6737 89.8627 56.3457 89.5C57.0177 89.1267 57.7751 88.94 58.6177 88.94C59.4604 88.94 60.2124 89.1267 60.8737 89.5C61.5457 89.8627 62.0684 90.3747 62.4417 91.036C62.8257 91.6867 63.0177 92.428 63.0177 93.26C63.0177 94.092 62.8257 94.8387 62.4417 95.5C62.0684 96.1507 61.5457 96.6627 60.8737 97.036C60.2124 97.4093 59.4604 97.596 58.6177 97.596ZM58.6177 96.252C59.1617 96.252 59.6471 96.1293 60.0737 95.884C60.5111 95.628 60.8524 95.276 61.0977 94.828C61.3431 94.3693 61.4657 93.8467 61.4657 93.26C61.4657 92.6733 61.3431 92.156 61.0977 91.708C60.8524 91.2493 60.5111 90.8973 60.0737 90.652C59.6471 90.4067 59.1617 90.284 58.6177 90.284C58.0737 90.284 57.5831 90.4067 57.1457 90.652C56.7191 90.8973 56.3777 91.2493 56.1217 91.708C55.8764 92.156 55.7537 92.6733 55.7537 93.26C55.7537 93.8467 55.8764 94.3693 56.1217 94.828C56.3777 95.276 56.7191 95.628 57.1457 95.884C57.5831 96.1293 58.0737 96.252 58.6177 96.252ZM73.142 85.628V97.5H71.67V96.156C71.3287 96.6253 70.8967 96.9827 70.374 97.228C69.8513 97.4733 69.2753 97.596 68.646 97.596C67.8247 97.596 67.0887 97.4147 66.438 97.052C65.7873 96.6893 65.2753 96.1827 64.902 95.532C64.5393 94.8707 64.358 94.1133 64.358 93.26C64.358 92.4067 64.5393 91.6547 64.902 91.004C65.2753 90.3533 65.7873 89.8467 66.438 89.484C67.0887 89.1213 67.8247 88.94 68.646 88.94C69.254 88.94 69.814 89.0573 70.326 89.292C70.838 89.516 71.2647 89.852 71.606 90.3V85.628H73.142ZM68.774 96.252C69.3073 96.252 69.7927 96.1293 70.23 95.884C70.6673 95.628 71.0087 95.276 71.254 94.828C71.4993 94.3693 71.622 93.8467 71.622 93.26C71.622 92.6733 71.4993 92.156 71.254 91.708C71.0087 91.2493 70.6673 90.8973 70.23 90.652C69.7927 90.4067 69.3073 90.284 68.774 90.284C68.23 90.284 67.7393 90.4067 67.302 90.652C66.8753 90.8973 66.534 91.2493 66.278 91.708C66.0327 92.156 65.91 92.6733 65.91 93.26C65.91 93.8467 66.0327 94.3693 66.278 94.828C66.534 95.276 66.8753 95.628 67.302 95.884C67.7393 96.1293 68.23 96.252 68.774 96.252ZM83.7122 93.308C83.7122 93.4253 83.7016 93.58 83.6802 93.772H76.8002C76.8962 94.5187 77.2216 95.1213 77.7762 95.58C78.3416 96.028 79.0402 96.252 79.8722 96.252C80.8856 96.252 81.7016 95.9107 82.3202 95.228L83.1682 96.22C82.7842 96.668 82.3042 97.0093 81.7282 97.244C81.1629 97.4787 80.5282 97.596 79.8242 97.596C78.9282 97.596 78.1336 97.4147 77.4402 97.052C76.7469 96.6787 76.2082 96.1613 75.8242 95.5C75.4509 94.8387 75.2642 94.092 75.2642 93.26C75.2642 92.4387 75.4456 91.6973 75.8082 91.036C76.1816 90.3747 76.6882 89.8627 77.3282 89.5C77.9789 89.1267 78.7096 88.94 79.5202 88.94C80.3309 88.94 81.0509 89.1267 81.6802 89.5C82.3202 89.8627 82.8162 90.3747 83.1682 91.036C83.5309 91.6973 83.7122 92.4547 83.7122 93.308ZM79.5202 90.236C78.7842 90.236 78.1656 90.46 77.6642 90.908C77.1736 91.356 76.8856 91.9427 76.8002 92.668H82.2402C82.1549 91.9533 81.8616 91.372 81.3602 90.924C80.8696 90.4653 80.2562 90.236 79.5202 90.236ZM91.0187 97.5L88.5707 94.252L86.0907 97.5H84.3787L87.7227 93.164L84.5387 89.02H86.2507L88.5867 92.076L90.9067 89.02H92.5867L89.3867 93.164L92.7627 97.5H91.0187ZM109.344 97.5L109.328 89.34L105.28 96.14H104.544L100.496 89.388V97.5H98.9597V86.3H100.272L104.944 94.172L109.552 86.3H110.864L110.88 97.5H109.344ZM117.105 88.94C118.278 88.94 119.174 89.228 119.793 89.804C120.422 90.38 120.737 91.2387 120.737 92.38V97.5H119.281V96.38C119.025 96.7747 118.657 97.0787 118.177 97.292C117.708 97.4947 117.148 97.596 116.497 97.596C115.548 97.596 114.785 97.3667 114.209 96.908C113.644 96.4493 113.361 95.8467 113.361 95.1C113.361 94.3533 113.633 93.756 114.177 93.308C114.721 92.8493 115.585 92.62 116.769 92.62H119.201V92.316C119.201 91.6547 119.009 91.148 118.625 90.796C118.241 90.444 117.676 90.268 116.929 90.268C116.428 90.268 115.937 90.3533 115.457 90.524C114.977 90.684 114.572 90.9027 114.241 91.18L113.601 90.028C114.038 89.676 114.561 89.4093 115.169 89.228C115.777 89.036 116.422 88.94 117.105 88.94ZM116.753 96.412C117.34 96.412 117.846 96.284 118.273 96.028C118.7 95.7613 119.009 95.388 119.201 94.908V93.724H116.833C115.532 93.724 114.881 94.1613 114.881 95.036C114.881 95.4627 115.046 95.7987 115.377 96.044C115.708 96.2893 116.166 96.412 116.753 96.412ZM131.626 85.628V97.5H130.154V96.156C129.813 96.6253 129.381 96.9827 128.858 97.228C128.336 97.4733 127.76 97.596 127.13 97.596C126.309 97.596 125.573 97.4147 124.922 97.052C124.272 96.6893 123.76 96.1827 123.386 95.532C123.024 94.8707 122.842 94.1133 122.842 93.26C122.842 92.4067 123.024 91.6547 123.386 91.004C123.76 90.3533 124.272 89.8467 124.922 89.484C125.573 89.1213 126.309 88.94 127.13 88.94C127.738 88.94 128.298 89.0573 128.81 89.292C129.322 89.516 129.749 89.852 130.09 90.3V85.628H131.626ZM127.258 96.252C127.792 96.252 128.277 96.1293 128.714 95.884C129.152 95.628 129.493 95.276 129.738 94.828C129.984 94.3693 130.106 93.8467 130.106 93.26C130.106 92.6733 129.984 92.156 129.738 91.708C129.493 91.2493 129.152 90.8973 128.714 90.652C128.277 90.4067 127.792 90.284 127.258 90.284C126.714 90.284 126.224 90.4067 125.786 90.652C125.36 90.8973 125.018 91.2493 124.762 91.708C124.517 92.156 124.394 92.6733 124.394 93.26C124.394 93.8467 124.517 94.3693 124.762 94.828C125.018 95.276 125.36 95.628 125.786 95.884C126.224 96.1293 126.714 96.252 127.258 96.252ZM142.197 93.308C142.197 93.4253 142.186 93.58 142.165 93.772H135.285C135.381 94.5187 135.706 95.1213 136.261 95.58C136.826 96.028 137.525 96.252 138.357 96.252C139.37 96.252 140.186 95.9107 140.805 95.228L141.653 96.22C141.269 96.668 140.789 97.0093 140.213 97.244C139.647 97.4787 139.013 97.596 138.309 97.596C137.413 97.596 136.618 97.4147 135.925 97.052C135.231 96.6787 134.693 96.1613 134.309 95.5C133.935 94.8387 133.749 94.092 133.749 93.26C133.749 92.4387 133.93 91.6973 134.293 91.036C134.666 90.3747 135.173 89.8627 135.813 89.5C136.463 89.1267 137.194 88.94 138.005 88.94C138.815 88.94 139.535 89.1267 140.165 89.5C140.805 89.8627 141.301 90.3747 141.653 91.036C142.015 91.6973 142.197 92.4547 142.197 93.308ZM138.005 90.236C137.269 90.236 136.65 90.46 136.149 90.908C135.658 91.356 135.37 91.9427 135.285 92.668H140.725C140.639 91.9533 140.346 91.372 139.845 90.924C139.354 90.4653 138.741 90.236 138.005 90.236ZM64.013 112.94C64.8343 112.94 65.5703 113.121 66.221 113.484C66.8717 113.847 67.3783 114.353 67.741 115.004C68.1143 115.655 68.301 116.407 68.301 117.26C68.301 118.113 68.1143 118.871 67.741 119.532C67.3783 120.183 66.8717 120.689 66.221 121.052C65.5703 121.415 64.8343 121.596 64.013 121.596C63.3837 121.596 62.8077 121.473 62.285 121.228C61.7623 120.983 61.3303 120.625 60.989 120.156V121.5H59.517V109.628H61.053V114.3C61.3943 113.852 61.821 113.516 62.333 113.292C62.845 113.057 63.405 112.94 64.013 112.94ZM63.885 120.252C64.429 120.252 64.9143 120.129 65.341 119.884C65.7783 119.628 66.1197 119.276 66.365 118.828C66.621 118.369 66.749 117.847 66.749 117.26C66.749 116.673 66.621 116.156 66.365 115.708C66.1197 115.249 65.7783 114.897 65.341 114.652C64.9143 114.407 64.429 114.284 63.885 114.284C63.3517 114.284 62.8663 114.407 62.429 114.652C61.9917 114.897 61.6503 115.249 61.405 115.708C61.1597 116.156 61.037 116.673 61.037 117.26C61.037 117.847 61.1597 118.369 61.405 118.828C61.6503 119.276 61.9917 119.628 62.429 119.884C62.8663 120.129 63.3517 120.252 63.885 120.252ZM78.0872 117.308C78.0872 117.425 78.0766 117.58 78.0552 117.772H71.1752C71.2712 118.519 71.5966 119.121 72.1512 119.58C72.7166 120.028 73.4152 120.252 74.2472 120.252C75.2606 120.252 76.0766 119.911 76.6952 119.228L77.5432 120.22C77.1592 120.668 76.6792 121.009 76.1032 121.244C75.5379 121.479 74.9032 121.596 74.1992 121.596C73.3032 121.596 72.5086 121.415 71.8152 121.052C71.1219 120.679 70.5832 120.161 70.1992 119.5C69.8259 118.839 69.6392 118.092 69.6392 117.26C69.6392 116.439 69.8206 115.697 70.1832 115.036C70.5566 114.375 71.0632 113.863 71.7032 113.5C72.3539 113.127 73.0846 112.94 73.8952 112.94C74.7059 112.94 75.4259 113.127 76.0552 113.5C76.6952 113.863 77.1912 114.375 77.5432 115.036C77.9059 115.697 78.0872 116.455 78.0872 117.308ZM73.8952 114.236C73.1592 114.236 72.5406 114.46 72.0392 114.908C71.5486 115.356 71.2606 115.943 71.1752 116.668H76.6152C76.5299 115.953 76.2366 115.372 75.7352 114.924C75.2446 114.465 74.6312 114.236 73.8952 114.236ZM82.6521 121.596C81.9588 121.596 81.2921 121.505 80.6521 121.324C80.0121 121.132 79.5108 120.892 79.1481 120.604L79.7881 119.388C80.1614 119.655 80.6148 119.868 81.1481 120.028C81.6814 120.188 82.2201 120.268 82.7641 120.268C84.1081 120.268 84.7801 119.884 84.7801 119.116C84.7801 118.86 84.6894 118.657 84.5081 118.508C84.3268 118.359 84.0974 118.252 83.8201 118.188C83.5534 118.113 83.1694 118.033 82.6681 117.948C81.9854 117.841 81.4254 117.719 80.9881 117.58C80.5614 117.441 80.1934 117.207 79.8841 116.876C79.5748 116.545 79.4201 116.081 79.4201 115.484C79.4201 114.716 79.7401 114.103 80.3801 113.644C81.0201 113.175 81.8788 112.94 82.9561 112.94C83.5214 112.94 84.0868 113.009 84.6521 113.148C85.2174 113.287 85.6814 113.473 86.0441 113.708L85.3881 114.924C84.6948 114.476 83.8788 114.252 82.9401 114.252C82.2894 114.252 81.7934 114.359 81.4521 114.572C81.1108 114.785 80.9401 115.068 80.9401 115.42C80.9401 115.697 81.0361 115.916 81.2281 116.076C81.4201 116.236 81.6548 116.353 81.9321 116.428C82.2201 116.503 82.6201 116.588 83.1321 116.684C83.8148 116.801 84.3641 116.929 84.7801 117.068C85.2068 117.196 85.5694 117.42 85.8681 117.74C86.1668 118.06 86.3161 118.508 86.3161 119.084C86.3161 119.852 85.9854 120.465 85.3241 120.924C84.6734 121.372 83.7828 121.596 82.6521 121.596ZM92.7317 112.94C93.5531 112.94 94.2891 113.121 94.9397 113.484C95.5904 113.847 96.0971 114.353 96.4597 115.004C96.8331 115.655 97.0197 116.407 97.0197 117.26C97.0197 118.113 96.8331 118.871 96.4597 119.532C96.0971 120.183 95.5904 120.689 94.9397 121.052C94.2891 121.415 93.5531 121.596 92.7317 121.596C92.1237 121.596 91.5637 121.479 91.0517 121.244C90.5504 121.009 90.1237 120.668 89.7717 120.22V124.604H88.2357V113.02H89.7077V114.364C90.0491 113.895 90.4811 113.543 91.0037 113.308C91.5264 113.063 92.1024 112.94 92.7317 112.94ZM92.6037 120.252C93.1477 120.252 93.6331 120.129 94.0597 119.884C94.4971 119.628 94.8384 119.276 95.0837 118.828C95.3397 118.369 95.4677 117.847 95.4677 117.26C95.4677 116.673 95.3397 116.156 95.0837 115.708C94.8384 115.249 94.4971 114.897 94.0597 114.652C93.6331 114.407 93.1477 114.284 92.6037 114.284C92.0704 114.284 91.5851 114.412 91.1477 114.668C90.7211 114.913 90.3797 115.26 90.1237 115.708C89.8784 116.156 89.7557 116.673 89.7557 117.26C89.7557 117.847 89.8784 118.369 90.1237 118.828C90.3691 119.276 90.7104 119.628 91.1477 119.884C91.5851 120.129 92.0704 120.252 92.6037 120.252ZM102.774 121.596C101.931 121.596 101.174 121.409 100.502 121.036C99.83 120.663 99.302 120.151 98.918 119.5C98.5447 118.839 98.358 118.092 98.358 117.26C98.358 116.428 98.5447 115.687 98.918 115.036C99.302 114.375 99.83 113.863 100.502 113.5C101.174 113.127 101.931 112.94 102.774 112.94C103.617 112.94 104.369 113.127 105.03 113.5C105.702 113.863 106.225 114.375 106.598 115.036C106.982 115.687 107.174 116.428 107.174 117.26C107.174 118.092 106.982 118.839 106.598 119.5C106.225 120.151 105.702 120.663 105.03 121.036C104.369 121.409 103.617 121.596 102.774 121.596ZM102.774 120.252C103.318 120.252 103.803 120.129 104.23 119.884C104.667 119.628 105.009 119.276 105.254 118.828C105.499 118.369 105.622 117.847 105.622 117.26C105.622 116.673 105.499 116.156 105.254 115.708C105.009 115.249 104.667 114.897 104.23 114.652C103.803 114.407 103.318 114.284 102.774 114.284C102.23 114.284 101.739 114.407 101.302 114.652C100.875 114.897 100.534 115.249 100.278 115.708C100.033 116.156 99.91 116.673 99.91 117.26C99.91 117.847 100.033 118.369 100.278 118.828C100.534 119.276 100.875 119.628 101.302 119.884C101.739 120.129 102.23 120.252 102.774 120.252ZM112.594 117.548L110.834 119.18V121.5H109.298V109.628H110.834V117.244L115.458 113.02H117.314L113.746 116.524L117.666 121.5H115.778L112.594 117.548ZM126.462 117.308C126.462 117.425 126.452 117.58 126.43 117.772H119.55C119.646 118.519 119.972 119.121 120.526 119.58C121.092 120.028 121.79 120.252 122.622 120.252C123.636 120.252 124.452 119.911 125.07 119.228L125.918 120.22C125.534 120.668 125.054 121.009 124.478 121.244C123.913 121.479 123.278 121.596 122.574 121.596C121.678 121.596 120.884 121.415 120.19 121.052C119.497 120.679 118.958 120.161 118.574 119.5C118.201 118.839 118.014 118.092 118.014 117.26C118.014 116.439 118.196 115.697 118.558 115.036C118.932 114.375 119.438 113.863 120.078 113.5C120.729 113.127 121.46 112.94 122.27 112.94C123.081 112.94 123.801 113.127 124.43 113.5C125.07 113.863 125.566 114.375 125.918 115.036C126.281 115.697 126.462 116.455 126.462 117.308ZM122.27 114.236C121.534 114.236 120.916 114.46 120.414 114.908C119.924 115.356 119.636 115.943 119.55 116.668H124.99C124.905 115.953 124.612 115.372 124.11 114.924C123.62 114.465 123.006 114.236 122.27 114.236Z" fill="#1B3B64"/>
</g>
</g>
<defs>
<filter id="filter0_i_1_3017" x="0" y="0" width="185" height="193" filterUnits="userSpaceOnUse" color-interpolation-filters="sRGB">
<feFlood flood-opacity="0" result="BackgroundImageFix"/>
<feBlend mode="normal" in="SourceGraphic" in2="BackgroundImageFix" result="shape"/>
<feColorMatrix in="SourceAlpha" type="matrix" values="0 0 0 0 0 0 0 0 0 0 0 0 0 0 0 0 0 0 127 0" result="hardAlpha"/>
<feOffset dy="8"/>
<feGaussianBlur stdDeviation="24"/>
<feComposite in2="hardAlpha" operator="arithmetic" k2="-1" k3="1"/>
<feColorMatrix type="matrix" values="0 0 0 0 0.231373 0 0 0 0 0.745098 0 0 0 0 0.937255 0 0 0 1 0"/>
<feBlend mode="normal" in2="shape" result="effect1_innerShadow_1_3017"/>
</filter>
<filter id="filter1_di_1_3017" x="2" y="5" width="181" height="181" filterUnits="userSpaceOnUse" color-interpolation-filters="sRGB">
<feFlood flood-opacity="0" result="BackgroundImageFix"/>
<feColorMatrix in="SourceAlpha" type="matrix" values="0 0 0 0 0 0 0 0 0 0 0 0 0 0 0 0 0 0 127 0" result="hardAlpha"/>
<feOffset dy="3"/>
<feGaussianBlur stdDeviation="4"/>
<feComposite in2="hardAlpha" operator="out"/>
<feColorMatrix type="matrix" values="0 0 0 0 0.666667 0 0 0 0 0.666667 0 0 0 0 0.666667 0 0 0 1 0"/>
<feBlend mode="normal" in2="BackgroundImageFix" result="effect1_dropShadow_1_3017"/>
<feBlend mode="normal" in="SourceGraphic" in2="effect1_dropShadow_1_3017" result="shape"/>
<feColorMatrix in="SourceAlpha" type="matrix" values="0 0 0 0 0 0 0 0 0 0 0 0 0 0 0 0 0 0 127 0" result="hardAlpha"/>
<feOffset dy="2"/>
<feGaussianBlur stdDeviation="1.5"/>
<feComposite in2="hardAlpha" operator="arithmetic" k2="-1" k3="1"/>
<feColorMatrix type="matrix" values="0 0 0 0 1 0 0 0 0 1 0 0 0 0 1 0 0 0 1 0"/>
<feBlend mode="normal" in2="shape" result="effect2_innerShadow_1_3017"/>
</filter>
<linearGradient id="paint0_linear_1_3017" x1="92.5" y1="93.5" x2="92.5" y2="91.5" gradientUnits="userSpaceOnUse">
<stop stop-color="white"/>
<stop stop-color="#DDDDDD"/>
</linearGradient>
</defs>
</svg>
