<svg width="185" height="186" viewBox="0 0 185 186" fill="none" xmlns="http://www.w3.org/2000/svg">
<g filter="url(#filter0_i_1_3027)">
<rect width="185" height="185" rx="92.5" fill="white" fill-opacity="0.01"/>
<mask id="path-2-inside-1_1_3027" fill="white">
<path d="M0 92.5H185V94.5H0V92.5Z"/>
</mask>
<path d="M0 93.5H185V91.5H0V93.5ZM185 93.5H0V95.5H185V93.5Z" fill="url(#paint0_linear_1_3027)" mask="url(#path-2-inside-1_1_3027)"/>
<g filter="url(#filter1_di_1_3027)">
<rect x="10" y="10" width="165" height="165" rx="82.5" fill="#F7F7F7" shape-rendering="crispEdges"/>
<path d="M51.241 62.3H52.841V73.5H51.241V62.3ZM60.4981 64.94C61.5754 64.94 62.4288 65.2547 63.0581 65.884C63.6981 66.5027 64.0181 67.4147 64.0181 68.62V73.5H62.4821V68.796C62.4821 67.9747 62.2848 67.356 61.8901 66.94C61.4954 66.524 60.9301 66.316 60.1941 66.316C59.3621 66.316 58.7061 66.5613 58.2261 67.052C57.7461 67.532 57.5061 68.2253 57.5061 69.132V73.5H55.9701V65.02H57.4421V66.3C57.7514 65.8627 58.1674 65.5267 58.6901 65.292C59.2234 65.0573 59.8261 64.94 60.4981 64.94ZM71.6287 73.004C71.4047 73.196 71.1274 73.3453 70.7967 73.452C70.4661 73.548 70.1247 73.596 69.7727 73.596C68.9194 73.596 68.2581 73.3667 67.7887 72.908C67.3194 72.4493 67.0847 71.7933 67.0847 70.94V66.284H65.6447V65.02H67.0847V63.164H68.6207V65.02H71.0527V66.284H68.6207V70.876C68.6207 71.3347 68.7327 71.6867 68.9567 71.932C69.1914 72.1773 69.5221 72.3 69.9487 72.3C70.4181 72.3 70.8181 72.1667 71.1487 71.9L71.6287 73.004ZM80.8685 69.308C80.8685 69.4253 80.8578 69.58 80.8365 69.772H73.9565C74.0525 70.5187 74.3778 71.1213 74.9325 71.58C75.4978 72.028 76.1965 72.252 77.0285 72.252C78.0418 72.252 78.8578 71.9107 79.4765 71.228L80.3245 72.22C79.9405 72.668 79.4605 73.0093 78.8845 73.244C78.3192 73.4787 77.6845 73.596 76.9805 73.596C76.0845 73.596 75.2898 73.4147 74.5965 73.052C73.9032 72.6787 73.3645 72.1613 72.9805 71.5C72.6072 70.8387 72.4205 70.092 72.4205 69.26C72.4205 68.4387 72.6018 67.6973 72.9645 67.036C73.3378 66.3747 73.8445 65.8627 74.4845 65.5C75.1352 65.1267 75.8658 64.94 76.6765 64.94C77.4872 64.94 78.2072 65.1267 78.8365 65.5C79.4765 65.8627 79.9725 66.3747 80.3245 67.036C80.6872 67.6973 80.8685 68.4547 80.8685 69.308ZM76.6765 66.236C75.9405 66.236 75.3218 66.46 74.8205 66.908C74.3298 67.356 74.0418 67.9427 73.9565 68.668H79.3965C79.3112 67.9533 79.0178 67.372 78.5165 66.924C78.0258 66.4653 77.4125 66.236 76.6765 66.236ZM91.1134 65.02V72.348C91.1134 73.8307 90.7454 74.924 90.0094 75.628C89.2734 76.3427 88.1747 76.7 86.7134 76.7C85.9134 76.7 85.1507 76.588 84.4254 76.364C83.7 76.1507 83.1134 75.8413 82.6654 75.436L83.4014 74.252C83.796 74.5933 84.2814 74.86 84.8574 75.052C85.444 75.2547 86.0467 75.356 86.6654 75.356C87.6574 75.356 88.388 75.1213 88.8574 74.652C89.3374 74.1827 89.5774 73.468 89.5774 72.508V71.836C89.2147 72.2733 88.7667 72.604 88.2334 72.828C87.7107 73.0413 87.14 73.148 86.5214 73.148C85.7107 73.148 84.9747 72.9773 84.3134 72.636C83.6627 72.284 83.1507 71.7987 82.7774 71.18C82.404 70.5507 82.2174 69.836 82.2174 69.036C82.2174 68.236 82.404 67.5267 82.7774 66.908C83.1507 66.2787 83.6627 65.7933 84.3134 65.452C84.9747 65.1107 85.7107 64.94 86.5214 64.94C87.1614 64.94 87.7534 65.0573 88.2974 65.292C88.852 65.5267 89.3054 65.8733 89.6574 66.332V65.02H91.1134ZM86.6974 71.804C87.252 71.804 87.748 71.6867 88.1854 71.452C88.6334 71.2173 88.98 70.892 89.2254 70.476C89.4814 70.0493 89.6094 69.5693 89.6094 69.036C89.6094 68.2147 89.3374 67.5533 88.7934 67.052C88.2494 66.54 87.5507 66.284 86.6974 66.284C85.8334 66.284 85.1294 66.54 84.5854 67.052C84.0414 67.5533 83.7694 68.2147 83.7694 69.036C83.7694 69.5693 83.892 70.0493 84.1374 70.476C84.3934 70.892 84.74 71.2173 85.1774 71.452C85.6254 71.6867 86.132 71.804 86.6974 71.804ZM95.5202 66.444C95.7869 65.9533 96.1816 65.58 96.7042 65.324C97.2269 65.068 97.8616 64.94 98.6082 64.94V66.428C98.5229 66.4173 98.4056 66.412 98.2562 66.412C97.4242 66.412 96.7682 66.6627 96.2882 67.164C95.8189 67.6547 95.5842 68.3587 95.5842 69.276V73.5H94.0482V65.02H95.5202V66.444ZM103.574 64.94C104.747 64.94 105.643 65.228 106.262 65.804C106.891 66.38 107.206 67.2387 107.206 68.38V73.5H105.75V72.38C105.494 72.7747 105.126 73.0787 104.646 73.292C104.176 73.4947 103.616 73.596 102.966 73.596C102.016 73.596 101.254 73.3667 100.678 72.908C100.112 72.4493 99.8297 71.8467 99.8297 71.1C99.8297 70.3533 100.102 69.756 100.646 69.308C101.19 68.8493 102.054 68.62 103.238 68.62H105.67V68.316C105.67 67.6547 105.478 67.148 105.094 66.796C104.71 66.444 104.144 66.268 103.398 66.268C102.896 66.268 102.406 66.3533 101.926 66.524C101.446 66.684 101.04 66.9027 100.71 67.18L100.07 66.028C100.507 65.676 101.03 65.4093 101.638 65.228C102.246 65.036 102.891 64.94 103.574 64.94ZM103.222 72.412C103.808 72.412 104.315 72.284 104.742 72.028C105.168 71.7613 105.478 71.388 105.67 70.908V69.724H103.302C102 69.724 101.35 70.1613 101.35 71.036C101.35 71.4627 101.515 71.7987 101.846 72.044C102.176 72.2893 102.635 72.412 103.222 72.412ZM114.816 73.004C114.592 73.196 114.315 73.3453 113.984 73.452C113.654 73.548 113.312 73.596 112.96 73.596C112.107 73.596 111.446 73.3667 110.976 72.908C110.507 72.4493 110.272 71.7933 110.272 70.94V66.284H108.832V65.02H110.272V63.164H111.808V65.02H114.24V66.284H111.808V70.876C111.808 71.3347 111.92 71.6867 112.144 71.932C112.379 72.1773 112.71 72.3 113.136 72.3C113.606 72.3 114.006 72.1667 114.336 71.9L114.816 73.004ZM124.056 69.308C124.056 69.4253 124.045 69.58 124.024 69.772H117.144C117.24 70.5187 117.565 71.1213 118.12 71.58C118.685 72.028 119.384 72.252 120.216 72.252C121.229 72.252 122.045 71.9107 122.664 71.228L123.512 72.22C123.128 72.668 122.648 73.0093 122.072 73.244C121.507 73.4787 120.872 73.596 120.168 73.596C119.272 73.596 118.477 73.4147 117.784 73.052C117.091 72.6787 116.552 72.1613 116.168 71.5C115.795 70.8387 115.608 70.092 115.608 69.26C115.608 68.4387 115.789 67.6973 116.152 67.036C116.525 66.3747 117.032 65.8627 117.672 65.5C118.323 65.1267 119.053 64.94 119.864 64.94C120.675 64.94 121.395 65.1267 122.024 65.5C122.664 65.8627 123.16 66.3747 123.512 67.036C123.875 67.6973 124.056 68.4547 124.056 69.308ZM119.864 66.236C119.128 66.236 118.509 66.46 118.008 66.908C117.517 67.356 117.229 67.9427 117.144 68.668H122.584C122.499 67.9533 122.205 67.372 121.704 66.924C121.213 66.4653 120.6 66.236 119.864 66.236ZM134.189 61.628V73.5H132.717V72.156C132.376 72.6253 131.944 72.9827 131.421 73.228C130.898 73.4733 130.322 73.596 129.693 73.596C128.872 73.596 128.136 73.4147 127.485 73.052C126.834 72.6893 126.322 72.1827 125.949 71.532C125.586 70.8707 125.405 70.1133 125.405 69.26C125.405 68.4067 125.586 67.6547 125.949 67.004C126.322 66.3533 126.834 65.8467 127.485 65.484C128.136 65.1213 128.872 64.94 129.693 64.94C130.301 64.94 130.861 65.0573 131.373 65.292C131.885 65.516 132.312 65.852 132.653 66.3V61.628H134.189ZM129.821 72.252C130.354 72.252 130.84 72.1293 131.277 71.884C131.714 71.628 132.056 71.276 132.301 70.828C132.546 70.3693 132.669 69.8467 132.669 69.26C132.669 68.6733 132.546 68.156 132.301 67.708C132.056 67.2493 131.714 66.8973 131.277 66.652C130.84 66.4067 130.354 66.284 129.821 66.284C129.277 66.284 128.786 66.4067 128.349 66.652C127.922 66.8973 127.581 67.2493 127.325 67.708C127.08 68.156 126.957 68.6733 126.957 69.26C126.957 69.8467 127.08 70.3693 127.325 70.828C127.581 71.276 127.922 71.628 128.349 71.884C128.786 72.1293 129.277 72.252 129.821 72.252ZM49.7724 97.628C48.6524 97.628 47.6391 97.3827 46.7324 96.892C45.8364 96.3907 45.1324 95.708 44.6204 94.844C44.1084 93.9693 43.8524 92.988 43.8524 91.9C43.8524 90.812 44.1084 89.836 44.6204 88.972C45.1324 88.0973 45.8418 87.4147 46.7484 86.924C47.6551 86.4227 48.6684 86.172 49.7884 86.172C50.6631 86.172 51.4631 86.3213 52.1884 86.62C52.9138 86.908 53.5324 87.34 54.0444 87.916L53.0044 88.924C52.1618 88.0387 51.1111 87.596 49.8524 87.596C49.0204 87.596 48.2684 87.7827 47.5964 88.156C46.9244 88.5293 46.3964 89.0467 46.0124 89.708C45.6391 90.3587 45.4524 91.0893 45.4524 91.9C45.4524 92.7107 45.6391 93.4467 46.0124 94.108C46.3964 94.7587 46.9244 95.2707 47.5964 95.644C48.2684 96.0173 49.0204 96.204 49.8524 96.204C51.1004 96.204 52.1511 95.756 53.0044 94.86L54.0444 95.868C53.5324 96.444 52.9084 96.8813 52.1724 97.18C51.4471 97.4787 50.6471 97.628 49.7724 97.628ZM59.3755 97.596C58.5329 97.596 57.7755 97.4093 57.1035 97.036C56.4315 96.6627 55.9035 96.1507 55.5195 95.5C55.1462 94.8387 54.9595 94.092 54.9595 93.26C54.9595 92.428 55.1462 91.6867 55.5195 91.036C55.9035 90.3747 56.4315 89.8627 57.1035 89.5C57.7755 89.1267 58.5329 88.94 59.3755 88.94C60.2182 88.94 60.9702 89.1267 61.6315 89.5C62.3035 89.8627 62.8262 90.3747 63.1995 91.036C63.5835 91.6867 63.7755 92.428 63.7755 93.26C63.7755 94.092 63.5835 94.8387 63.1995 95.5C62.8262 96.1507 62.3035 96.6627 61.6315 97.036C60.9702 97.4093 60.2182 97.596 59.3755 97.596ZM59.3755 96.252C59.9195 96.252 60.4049 96.1293 60.8315 95.884C61.2689 95.628 61.6102 95.276 61.8555 94.828C62.1009 94.3693 62.2235 93.8467 62.2235 93.26C62.2235 92.6733 62.1009 92.156 61.8555 91.708C61.6102 91.2493 61.2689 90.8973 60.8315 90.652C60.4049 90.4067 59.9195 90.284 59.3755 90.284C58.8315 90.284 58.3409 90.4067 57.9035 90.652C57.4769 90.8973 57.1355 91.2493 56.8795 91.708C56.6342 92.156 56.5115 92.6733 56.5115 93.26C56.5115 93.8467 56.6342 94.3693 56.8795 94.828C57.1355 95.276 57.4769 95.628 57.9035 95.884C58.3409 96.1293 58.8315 96.252 59.3755 96.252ZM76.5078 88.94C77.5745 88.94 78.4171 89.2493 79.0358 89.868C79.6651 90.4867 79.9798 91.404 79.9798 92.62V97.5H78.4438V92.796C78.4438 91.9747 78.2518 91.356 77.8678 90.94C77.4945 90.524 76.9558 90.316 76.2518 90.316C75.4731 90.316 74.8545 90.5613 74.3958 91.052C73.9371 91.532 73.7078 92.2253 73.7078 93.132V97.5H72.1718V92.796C72.1718 91.9747 71.9798 91.356 71.5958 90.94C71.2225 90.524 70.6838 90.316 69.9798 90.316C69.2011 90.316 68.5825 90.5613 68.1238 91.052C67.6651 91.532 67.4358 92.2253 67.4358 93.132V97.5H65.8998V89.02H67.3718V90.284C67.6811 89.8467 68.0865 89.516 68.5878 89.292C69.0891 89.0573 69.6598 88.94 70.2998 88.94C70.9611 88.94 71.5478 89.0733 72.0598 89.34C72.5718 89.6067 72.9665 89.996 73.2438 90.508C73.5638 90.0173 74.0065 89.6333 74.5718 89.356C75.1478 89.0787 75.7931 88.94 76.5078 88.94ZM93.414 88.94C94.4807 88.94 95.3234 89.2493 95.942 89.868C96.5714 90.4867 96.886 91.404 96.886 92.62V97.5H95.35V92.796C95.35 91.9747 95.158 91.356 94.774 90.94C94.4007 90.524 93.862 90.316 93.158 90.316C92.3794 90.316 91.7607 90.5613 91.302 91.052C90.8434 91.532 90.614 92.2253 90.614 93.132V97.5H89.078V92.796C89.078 91.9747 88.886 91.356 88.502 90.94C88.1287 90.524 87.59 90.316 86.886 90.316C86.1074 90.316 85.4887 90.5613 85.03 91.052C84.5714 91.532 84.342 92.2253 84.342 93.132V97.5H82.806V89.02H84.278V90.284C84.5874 89.8467 84.9927 89.516 85.494 89.292C85.9954 89.0573 86.566 88.94 87.206 88.94C87.8674 88.94 88.454 89.0733 88.966 89.34C89.478 89.6067 89.8727 89.996 90.15 90.508C90.47 90.0173 90.9127 89.6333 91.478 89.356C92.054 89.0787 92.6994 88.94 93.414 88.94ZM107.423 93.308C107.423 93.4253 107.413 93.58 107.391 93.772H100.511C100.607 94.5187 100.933 95.1213 101.487 95.58C102.053 96.028 102.751 96.252 103.583 96.252C104.597 96.252 105.413 95.9107 106.031 95.228L106.879 96.22C106.495 96.668 106.015 97.0093 105.439 97.244C104.874 97.4787 104.239 97.596 103.535 97.596C102.639 97.596 101.845 97.4147 101.151 97.052C100.458 96.6787 99.9192 96.1613 99.5352 95.5C99.1618 94.8387 98.9752 94.092 98.9752 93.26C98.9752 92.4387 99.1565 91.6973 99.5192 91.036C99.8925 90.3747 100.399 89.8627 101.039 89.5C101.69 89.1267 102.421 88.94 103.231 88.94C104.042 88.94 104.762 89.1267 105.391 89.5C106.031 89.8627 106.527 90.3747 106.879 91.036C107.242 91.6973 107.423 92.4547 107.423 93.308ZM103.231 90.236C102.495 90.236 101.877 90.46 101.375 90.908C100.885 91.356 100.597 91.9427 100.511 92.668H105.951C105.866 91.9533 105.573 91.372 105.071 90.924C104.581 90.4653 103.967 90.236 103.231 90.236ZM111.028 90.444C111.295 89.9533 111.689 89.58 112.212 89.324C112.735 89.068 113.369 88.94 114.116 88.94V90.428C114.031 90.4173 113.913 90.412 113.764 90.412C112.932 90.412 112.276 90.6627 111.796 91.164C111.327 91.6547 111.092 92.3587 111.092 93.276V97.5H109.556V89.02H111.028V90.444ZM119.627 97.596C118.763 97.596 117.99 97.4093 117.307 97.036C116.635 96.6627 116.107 96.1507 115.723 95.5C115.339 94.8387 115.147 94.092 115.147 93.26C115.147 92.428 115.339 91.6867 115.723 91.036C116.107 90.3747 116.635 89.8627 117.307 89.5C117.99 89.1267 118.763 88.94 119.627 88.94C120.395 88.94 121.078 89.0947 121.675 89.404C122.283 89.7133 122.752 90.1613 123.083 90.748L121.915 91.5C121.648 91.0947 121.318 90.7907 120.923 90.588C120.528 90.3853 120.091 90.284 119.611 90.284C119.056 90.284 118.555 90.4067 118.107 90.652C117.67 90.8973 117.323 91.2493 117.067 91.708C116.822 92.156 116.699 92.6733 116.699 93.26C116.699 93.8573 116.822 94.3853 117.067 94.844C117.323 95.292 117.67 95.6387 118.107 95.884C118.555 96.1293 119.056 96.252 119.611 96.252C120.091 96.252 120.528 96.1507 120.923 95.948C121.318 95.7453 121.648 95.4413 121.915 95.036L123.083 95.772C122.752 96.3587 122.283 96.812 121.675 97.132C121.078 97.4413 120.395 97.596 119.627 97.596ZM125.072 89.02H126.608V97.5H125.072V89.02ZM125.84 87.388C125.541 87.388 125.29 87.292 125.088 87.1C124.896 86.908 124.8 86.6733 124.8 86.396C124.8 86.1187 124.896 85.884 125.088 85.692C125.29 85.4893 125.541 85.388 125.84 85.388C126.138 85.388 126.384 85.484 126.576 85.676C126.778 85.8573 126.88 86.0867 126.88 86.364C126.88 86.652 126.778 86.8973 126.576 87.1C126.384 87.292 126.138 87.388 125.84 87.388ZM132.628 88.94C133.802 88.94 134.698 89.228 135.316 89.804C135.946 90.38 136.26 91.2387 136.26 92.38V97.5H134.804V96.38C134.548 96.7747 134.18 97.0787 133.7 97.292C133.231 97.4947 132.671 97.596 132.02 97.596C131.071 97.596 130.308 97.3667 129.732 96.908C129.167 96.4493 128.884 95.8467 128.884 95.1C128.884 94.3533 129.156 93.756 129.7 93.308C130.244 92.8493 131.108 92.62 132.292 92.62H134.724V92.316C134.724 91.6547 134.532 91.148 134.148 90.796C133.764 90.444 133.199 90.268 132.452 90.268C131.951 90.268 131.46 90.3533 130.98 90.524C130.5 90.684 130.095 90.9027 129.764 91.18L129.124 90.028C129.562 89.676 130.084 89.4093 130.692 89.228C131.3 89.036 131.946 88.94 132.628 88.94ZM132.276 96.412C132.863 96.412 133.37 96.284 133.796 96.028C134.223 95.7613 134.532 95.388 134.724 94.908V93.724H132.356C131.055 93.724 130.404 94.1613 130.404 95.036C130.404 95.4627 130.57 95.7987 130.9 96.044C131.231 96.2893 131.69 96.412 132.276 96.412ZM139.103 85.628H140.639V97.5H139.103V85.628ZM58.6424 120.108V121.5H50.5144V110.3H58.4184V111.692H52.1144V115.132H57.7304V116.492H52.1144V120.108H58.6424ZM64.5958 121.596C63.7318 121.596 62.9585 121.409 62.2758 121.036C61.6038 120.663 61.0758 120.151 60.6918 119.5C60.3078 118.839 60.1158 118.092 60.1158 117.26C60.1158 116.428 60.3078 115.687 60.6918 115.036C61.0758 114.375 61.6038 113.863 62.2758 113.5C62.9585 113.127 63.7318 112.94 64.5958 112.94C65.3638 112.94 66.0465 113.095 66.6438 113.404C67.2518 113.713 67.7211 114.161 68.0518 114.748L66.8838 115.5C66.6171 115.095 66.2865 114.791 65.8918 114.588C65.4971 114.385 65.0598 114.284 64.5798 114.284C64.0251 114.284 63.5238 114.407 63.0758 114.652C62.6385 114.897 62.2918 115.249 62.0358 115.708C61.7905 116.156 61.6678 116.673 61.6678 117.26C61.6678 117.857 61.7905 118.385 62.0358 118.844C62.2918 119.292 62.6385 119.639 63.0758 119.884C63.5238 120.129 64.0251 120.252 64.5798 120.252C65.0598 120.252 65.4971 120.151 65.8918 119.948C66.2865 119.745 66.6171 119.441 66.8838 119.036L68.0518 119.772C67.7211 120.359 67.2518 120.812 66.6438 121.132C66.0465 121.441 65.3638 121.596 64.5958 121.596ZM73.5474 121.596C72.7048 121.596 71.9474 121.409 71.2754 121.036C70.6034 120.663 70.0754 120.151 69.6914 119.5C69.3181 118.839 69.1314 118.092 69.1314 117.26C69.1314 116.428 69.3181 115.687 69.6914 115.036C70.0754 114.375 70.6034 113.863 71.2754 113.5C71.9474 113.127 72.7048 112.94 73.5474 112.94C74.3901 112.94 75.1421 113.127 75.8034 113.5C76.4754 113.863 76.9981 114.375 77.3714 115.036C77.7554 115.687 77.9474 116.428 77.9474 117.26C77.9474 118.092 77.7554 118.839 77.3714 119.5C76.9981 120.151 76.4754 120.663 75.8034 121.036C75.1421 121.409 74.3901 121.596 73.5474 121.596ZM73.5474 120.252C74.0914 120.252 74.5768 120.129 75.0034 119.884C75.4408 119.628 75.7821 119.276 76.0274 118.828C76.2728 118.369 76.3954 117.847 76.3954 117.26C76.3954 116.673 76.2728 116.156 76.0274 115.708C75.7821 115.249 75.4408 114.897 75.0034 114.652C74.5768 114.407 74.0914 114.284 73.5474 114.284C73.0034 114.284 72.5128 114.407 72.0754 114.652C71.6488 114.897 71.3074 115.249 71.0514 115.708C70.8061 116.156 70.6834 116.673 70.6834 117.26C70.6834 117.847 70.8061 118.369 71.0514 118.828C71.3074 119.276 71.6488 119.628 72.0754 119.884C72.5128 120.129 73.0034 120.252 73.5474 120.252ZM82.5037 121.596C81.8103 121.596 81.1437 121.505 80.5037 121.324C79.8637 121.132 79.3623 120.892 78.9997 120.604L79.6397 119.388C80.013 119.655 80.4663 119.868 80.9997 120.028C81.533 120.188 82.0717 120.268 82.6157 120.268C83.9597 120.268 84.6317 119.884 84.6317 119.116C84.6317 118.86 84.541 118.657 84.3597 118.508C84.1783 118.359 83.949 118.252 83.6717 118.188C83.405 118.113 83.021 118.033 82.5197 117.948C81.837 117.841 81.277 117.719 80.8397 117.58C80.413 117.441 80.045 117.207 79.7357 116.876C79.4263 116.545 79.2717 116.081 79.2717 115.484C79.2717 114.716 79.5917 114.103 80.2317 113.644C80.8717 113.175 81.7303 112.94 82.8077 112.94C83.373 112.94 83.9383 113.009 84.5037 113.148C85.069 113.287 85.533 113.473 85.8957 113.708L85.2397 114.924C84.5463 114.476 83.7303 114.252 82.7917 114.252C82.141 114.252 81.645 114.359 81.3037 114.572C80.9623 114.785 80.7917 115.068 80.7917 115.42C80.7917 115.697 80.8877 115.916 81.0797 116.076C81.2717 116.236 81.5063 116.353 81.7837 116.428C82.0717 116.503 82.4717 116.588 82.9837 116.684C83.6663 116.801 84.2157 116.929 84.6317 117.068C85.0583 117.196 85.421 117.42 85.7197 117.74C86.0183 118.06 86.1677 118.508 86.1677 119.084C86.1677 119.852 85.837 120.465 85.1757 120.924C84.525 121.372 83.6343 121.596 82.5037 121.596ZM95.435 113.02L91.323 122.348C90.9604 123.212 90.5337 123.82 90.043 124.172C89.563 124.524 88.9817 124.7 88.299 124.7C87.883 124.7 87.4777 124.631 87.083 124.492C86.699 124.364 86.379 124.172 86.123 123.916L86.779 122.764C87.2164 123.18 87.723 123.388 88.299 123.388C88.6724 123.388 88.9817 123.287 89.227 123.084C89.483 122.892 89.7124 122.556 89.915 122.076L90.187 121.484L86.443 113.02H88.043L91.003 119.804L93.931 113.02H95.435ZM99.1912 121.596C98.4978 121.596 97.8312 121.505 97.1912 121.324C96.5512 121.132 96.0498 120.892 95.6872 120.604L96.3272 119.388C96.7005 119.655 97.1538 119.868 97.6872 120.028C98.2205 120.188 98.7592 120.268 99.3032 120.268C100.647 120.268 101.319 119.884 101.319 119.116C101.319 118.86 101.229 118.657 101.047 118.508C100.866 118.359 100.637 118.252 100.359 118.188C100.093 118.113 99.7085 118.033 99.2072 117.948C98.5245 117.841 97.9645 117.719 97.5272 117.58C97.1005 117.441 96.7325 117.207 96.4232 116.876C96.1138 116.545 95.9592 116.081 95.9592 115.484C95.9592 114.716 96.2792 114.103 96.9192 113.644C97.5592 113.175 98.4178 112.94 99.4952 112.94C100.061 112.94 100.626 113.009 101.191 113.148C101.757 113.287 102.221 113.473 102.583 113.708L101.927 114.924C101.234 114.476 100.418 114.252 99.4792 114.252C98.8285 114.252 98.3325 114.359 97.9912 114.572C97.6498 114.785 97.4792 115.068 97.4792 115.42C97.4792 115.697 97.5752 115.916 97.7672 116.076C97.9592 116.236 98.1938 116.353 98.4712 116.428C98.7592 116.503 99.1592 116.588 99.6712 116.684C100.354 116.801 100.903 116.929 101.319 117.068C101.746 117.196 102.109 117.42 102.407 117.74C102.706 118.06 102.855 118.508 102.855 119.084C102.855 119.852 102.525 120.465 101.863 120.924C101.213 121.372 100.322 121.596 99.1912 121.596ZM109.543 121.004C109.319 121.196 109.041 121.345 108.711 121.452C108.38 121.548 108.039 121.596 107.687 121.596C106.833 121.596 106.172 121.367 105.703 120.908C105.233 120.449 104.999 119.793 104.999 118.94V114.284H103.559V113.02H104.999V111.164H106.535V113.02H108.967V114.284H106.535V118.876C106.535 119.335 106.647 119.687 106.871 119.932C107.105 120.177 107.436 120.3 107.863 120.3C108.332 120.3 108.732 120.167 109.063 119.9L109.543 121.004ZM118.783 117.308C118.783 117.425 118.772 117.58 118.751 117.772H111.871C111.967 118.519 112.292 119.121 112.847 119.58C113.412 120.028 114.111 120.252 114.943 120.252C115.956 120.252 116.772 119.911 117.391 119.228L118.239 120.22C117.855 120.668 117.375 121.009 116.799 121.244C116.233 121.479 115.599 121.596 114.895 121.596C113.999 121.596 113.204 121.415 112.511 121.052C111.817 120.679 111.279 120.161 110.895 119.5C110.521 118.839 110.335 118.092 110.335 117.26C110.335 116.439 110.516 115.697 110.879 115.036C111.252 114.375 111.759 113.863 112.399 113.5C113.049 113.127 113.78 112.94 114.591 112.94C115.401 112.94 116.121 113.127 116.751 113.5C117.391 113.863 117.887 114.375 118.239 115.036C118.601 115.697 118.783 116.455 118.783 117.308ZM114.591 114.236C113.855 114.236 113.236 114.46 112.735 114.908C112.244 115.356 111.956 115.943 111.871 116.668H117.311C117.225 115.953 116.932 115.372 116.431 114.924C115.94 114.465 115.327 114.236 114.591 114.236ZM131.523 112.94C132.59 112.94 133.433 113.249 134.051 113.868C134.681 114.487 134.995 115.404 134.995 116.62V121.5H133.459V116.796C133.459 115.975 133.267 115.356 132.883 114.94C132.51 114.524 131.971 114.316 131.267 114.316C130.489 114.316 129.87 114.561 129.411 115.052C128.953 115.532 128.723 116.225 128.723 117.132V121.5H127.187V116.796C127.187 115.975 126.995 115.356 126.611 114.94C126.238 114.524 125.699 114.316 124.995 114.316C124.217 114.316 123.598 114.561 123.139 115.052C122.681 115.532 122.451 116.225 122.451 117.132V121.5H120.915V113.02H122.387V114.284C122.697 113.847 123.102 113.516 123.603 113.292C124.105 113.057 124.675 112.94 125.315 112.94C125.977 112.94 126.563 113.073 127.075 113.34C127.587 113.607 127.982 113.996 128.259 114.508C128.579 114.017 129.022 113.633 129.587 113.356C130.163 113.079 130.809 112.94 131.523 112.94Z" fill="#1B3B64"/>
</g>
</g>
<defs>
<filter id="filter0_i_1_3027" x="0" y="0" width="185" height="193" filterUnits="userSpaceOnUse" color-interpolation-filters="sRGB">
<feFlood flood-opacity="0" result="BackgroundImageFix"/>
<feBlend mode="normal" in="SourceGraphic" in2="BackgroundImageFix" result="shape"/>
<feColorMatrix in="SourceAlpha" type="matrix" values="0 0 0 0 0 0 0 0 0 0 0 0 0 0 0 0 0 0 127 0" result="hardAlpha"/>
<feOffset dy="8"/>
<feGaussianBlur stdDeviation="24"/>
<feComposite in2="hardAlpha" operator="arithmetic" k2="-1" k3="1"/>
<feColorMatrix type="matrix" values="0 0 0 0 0.231373 0 0 0 0 0.745098 0 0 0 0 0.937255 0 0 0 1 0"/>
<feBlend mode="normal" in2="shape" result="effect1_innerShadow_1_3027"/>
</filter>
<filter id="filter1_di_1_3027" x="2" y="5" width="181" height="181" filterUnits="userSpaceOnUse" color-interpolation-filters="sRGB">
<feFlood flood-opacity="0" result="BackgroundImageFix"/>
<feColorMatrix in="SourceAlpha" type="matrix" values="0 0 0 0 0 0 0 0 0 0 0 0 0 0 0 0 0 0 127 0" result="hardAlpha"/>
<feOffset dy="3"/>
<feGaussianBlur stdDeviation="4"/>
<feComposite in2="hardAlpha" operator="out"/>
<feColorMatrix type="matrix" values="0 0 0 0 0.666667 0 0 0 0 0.666667 0 0 0 0 0.666667 0 0 0 1 0"/>
<feBlend mode="normal" in2="BackgroundImageFix" result="effect1_dropShadow_1_3027"/>
<feBlend mode="normal" in="SourceGraphic" in2="effect1_dropShadow_1_3027" result="shape"/>
<feColorMatrix in="SourceAlpha" type="matrix" values="0 0 0 0 0 0 0 0 0 0 0 0 0 0 0 0 0 0 127 0" result="hardAlpha"/>
<feOffset dy="2"/>
<feGaussianBlur stdDeviation="1.5"/>
<feComposite in2="hardAlpha" operator="arithmetic" k2="-1" k3="1"/>
<feColorMatrix type="matrix" values="0 0 0 0 1 0 0 0 0 1 0 0 0 0 1 0 0 0 1 0"/>
<feBlend mode="normal" in2="shape" result="effect2_innerShadow_1_3027"/>
</filter>
<linearGradient id="paint0_linear_1_3027" x1="92.5" y1="93.5" x2="92.5" y2="91.5" gradientUnits="userSpaceOnUse">
<stop stop-color="white"/>
<stop stop-color="#DDDDDD"/>
</linearGradient>
</defs>
</svg>
