<svg width="185" height="186" viewBox="0 0 185 186" fill="none" xmlns="http://www.w3.org/2000/svg">
<g filter="url(#filter0_i_1_3002)">
<rect width="185" height="185" rx="92.5" fill="white" fill-opacity="0.01"/>
<mask id="path-2-inside-1_1_3002" fill="white">
<path d="M0 92.5H185V94.5H0V92.5Z"/>
</mask>
<path d="M0 93.5H185V91.5H0V93.5ZM185 93.5H0V95.5H185V93.5Z" fill="url(#paint0_linear_1_3002)" mask="url(#path-2-inside-1_1_3002)"/>
<g filter="url(#filter1_di_1_3002)">
<rect x="10" y="10" width="165" height="165" rx="82.5" fill="#F7F7F7" shape-rendering="crispEdges"/>
<path d="M53.9085 73.5L51.4925 70.06C51.1939 70.0813 50.9592 70.092 50.7885 70.092H48.0205V73.5H46.4205V62.3H50.7885C52.2392 62.3 53.3805 62.6467 54.2125 63.34C55.0445 64.0333 55.4605 64.988 55.4605 66.204C55.4605 67.068 55.2472 67.804 54.8205 68.412C54.3939 69.02 53.7859 69.4627 52.9965 69.74L55.6525 73.5H53.9085ZM50.7405 68.732C51.7539 68.732 52.5272 68.5133 53.0605 68.076C53.5939 67.6387 53.8605 67.0147 53.8605 66.204C53.8605 65.3933 53.5939 64.7747 53.0605 64.348C52.5272 63.9107 51.7539 63.692 50.7405 63.692H48.0205V68.732H50.7405ZM65.4855 69.308C65.4855 69.4253 65.4749 69.58 65.4535 69.772H58.5735C58.6695 70.5187 58.9949 71.1213 59.5495 71.58C60.1149 72.028 60.8135 72.252 61.6455 72.252C62.6589 72.252 63.4749 71.9107 64.0935 71.228L64.9415 72.22C64.5575 72.668 64.0775 73.0093 63.5015 73.244C62.9362 73.4787 62.3015 73.596 61.5975 73.596C60.7015 73.596 59.9069 73.4147 59.2135 73.052C58.5202 72.6787 57.9815 72.1613 57.5975 71.5C57.2242 70.8387 57.0375 70.092 57.0375 69.26C57.0375 68.4387 57.2189 67.6973 57.5815 67.036C57.9549 66.3747 58.4615 65.8627 59.1015 65.5C59.7522 65.1267 60.4829 64.94 61.2935 64.94C62.1042 64.94 62.8242 65.1267 63.4535 65.5C64.0935 65.8627 64.5895 66.3747 64.9415 67.036C65.3042 67.6973 65.4855 68.4547 65.4855 69.308ZM61.2935 66.236C60.5575 66.236 59.9389 66.46 59.4375 66.908C58.9469 67.356 58.6589 67.9427 58.5735 68.668H64.0135C63.9282 67.9533 63.6349 67.372 63.1335 66.924C62.6429 66.4653 62.0295 66.236 61.2935 66.236ZM71.3144 73.596C70.4504 73.596 69.6771 73.4093 68.9944 73.036C68.3224 72.6627 67.7944 72.1507 67.4104 71.5C67.0264 70.8387 66.8344 70.092 66.8344 69.26C66.8344 68.428 67.0264 67.6867 67.4104 67.036C67.7944 66.3747 68.3224 65.8627 68.9944 65.5C69.6771 65.1267 70.4504 64.94 71.3144 64.94C72.0824 64.94 72.7651 65.0947 73.3624 65.404C73.9704 65.7133 74.4397 66.1613 74.7704 66.748L73.6024 67.5C73.3357 67.0947 73.0051 66.7907 72.6104 66.588C72.2157 66.3853 71.7784 66.284 71.2984 66.284C70.7437 66.284 70.2424 66.4067 69.7944 66.652C69.3571 66.8973 69.0104 67.2493 68.7544 67.708C68.5091 68.156 68.3864 68.6733 68.3864 69.26C68.3864 69.8573 68.5091 70.3853 68.7544 70.844C69.0104 71.292 69.3571 71.6387 69.7944 71.884C70.2424 72.1293 70.7437 72.252 71.2984 72.252C71.7784 72.252 72.2157 72.1507 72.6104 71.948C73.0051 71.7453 73.3357 71.4413 73.6024 71.036L74.7704 71.772C74.4397 72.3587 73.9704 72.812 73.3624 73.132C72.7651 73.4413 72.0824 73.596 71.3144 73.596ZM80.266 73.596C79.4234 73.596 78.666 73.4093 77.994 73.036C77.322 72.6627 76.794 72.1507 76.41 71.5C76.0367 70.8387 75.85 70.092 75.85 69.26C75.85 68.428 76.0367 67.6867 76.41 67.036C76.794 66.3747 77.322 65.8627 77.994 65.5C78.666 65.1267 79.4234 64.94 80.266 64.94C81.1087 64.94 81.8607 65.1267 82.522 65.5C83.194 65.8627 83.7167 66.3747 84.09 67.036C84.474 67.6867 84.666 68.428 84.666 69.26C84.666 70.092 84.474 70.8387 84.09 71.5C83.7167 72.1507 83.194 72.6627 82.522 73.036C81.8607 73.4093 81.1087 73.596 80.266 73.596ZM80.266 72.252C80.81 72.252 81.2954 72.1293 81.722 71.884C82.1594 71.628 82.5007 71.276 82.746 70.828C82.9914 70.3693 83.114 69.8467 83.114 69.26C83.114 68.6733 82.9914 68.156 82.746 67.708C82.5007 67.2493 82.1594 66.8973 81.722 66.652C81.2954 66.4067 80.81 66.284 80.266 66.284C79.722 66.284 79.2314 66.4067 78.794 66.652C78.3674 66.8973 78.026 67.2493 77.77 67.708C77.5247 68.156 77.402 68.6733 77.402 69.26C77.402 69.8467 77.5247 70.3693 77.77 70.828C78.026 71.276 78.3674 71.628 78.794 71.884C79.2314 72.1293 79.722 72.252 80.266 72.252ZM94.9023 65.02V72.348C94.9023 73.8307 94.5343 74.924 93.7983 75.628C93.0623 76.3427 91.9636 76.7 90.5023 76.7C89.7023 76.7 88.9396 76.588 88.2143 76.364C87.4889 76.1507 86.9023 75.8413 86.4543 75.436L87.1903 74.252C87.5849 74.5933 88.0703 74.86 88.6463 75.052C89.2329 75.2547 89.8356 75.356 90.4543 75.356C91.4463 75.356 92.1769 75.1213 92.6463 74.652C93.1263 74.1827 93.3663 73.468 93.3663 72.508V71.836C93.0036 72.2733 92.5556 72.604 92.0223 72.828C91.4996 73.0413 90.9289 73.148 90.3103 73.148C89.4996 73.148 88.7636 72.9773 88.1023 72.636C87.4516 72.284 86.9396 71.7987 86.5663 71.18C86.1929 70.5507 86.0063 69.836 86.0063 69.036C86.0063 68.236 86.1929 67.5267 86.5663 66.908C86.9396 66.2787 87.4516 65.7933 88.1023 65.452C88.7636 65.1107 89.4996 64.94 90.3103 64.94C90.9503 64.94 91.5423 65.0573 92.0863 65.292C92.6409 65.5267 93.0943 65.8733 93.4463 66.332V65.02H94.9023ZM90.4863 71.804C91.0409 71.804 91.5369 71.6867 91.9743 71.452C92.4223 71.2173 92.7689 70.892 93.0143 70.476C93.2703 70.0493 93.3983 69.5693 93.3983 69.036C93.3983 68.2147 93.1263 67.5533 92.5823 67.052C92.0383 66.54 91.3396 66.284 90.4863 66.284C89.6223 66.284 88.9183 66.54 88.3743 67.052C87.8303 67.5533 87.5583 68.2147 87.5583 69.036C87.5583 69.5693 87.6809 70.0493 87.9263 70.476C88.1823 70.892 88.5289 71.2173 88.9663 71.452C89.4143 71.6867 89.9209 71.804 90.4863 71.804ZM102.365 64.94C103.442 64.94 104.296 65.2547 104.925 65.884C105.565 66.5027 105.885 67.4147 105.885 68.62V73.5H104.349V68.796C104.349 67.9747 104.152 67.356 103.757 66.94C103.362 66.524 102.797 66.316 102.061 66.316C101.229 66.316 100.573 66.5613 100.093 67.052C99.6131 67.532 99.3731 68.2253 99.3731 69.132V73.5H97.8371V65.02H99.3091V66.3C99.6185 65.8627 100.034 65.5267 100.557 65.292C101.09 65.0573 101.693 64.94 102.365 64.94ZM108.728 65.02H110.264V73.5H108.728V65.02ZM109.496 63.388C109.197 63.388 108.946 63.292 108.744 63.1C108.552 62.908 108.456 62.6733 108.456 62.396C108.456 62.1187 108.552 61.884 108.744 61.692C108.946 61.4893 109.197 61.388 109.496 61.388C109.794 61.388 110.04 61.484 110.232 61.676C110.434 61.8573 110.536 62.0867 110.536 62.364C110.536 62.652 110.434 62.8973 110.232 63.1C110.04 63.292 109.794 63.388 109.496 63.388ZM115.629 73.596C114.935 73.596 114.269 73.5053 113.629 73.324C112.989 73.132 112.487 72.892 112.125 72.604L112.765 71.388C113.138 71.6547 113.591 71.868 114.125 72.028C114.658 72.188 115.197 72.268 115.741 72.268C117.085 72.268 117.757 71.884 117.757 71.116C117.757 70.86 117.666 70.6573 117.485 70.508C117.303 70.3587 117.074 70.252 116.797 70.188C116.53 70.1133 116.146 70.0333 115.645 69.948C114.962 69.8413 114.402 69.7187 113.965 69.58C113.538 69.4413 113.17 69.2067 112.861 68.876C112.551 68.5453 112.397 68.0813 112.397 67.484C112.397 66.716 112.717 66.1027 113.357 65.644C113.997 65.1747 114.855 64.94 115.933 64.94C116.498 64.94 117.063 65.0093 117.629 65.148C118.194 65.2867 118.658 65.4733 119.021 65.708L118.365 66.924C117.671 66.476 116.855 66.252 115.917 66.252C115.266 66.252 114.77 66.3587 114.429 66.572C114.087 66.7853 113.917 67.068 113.917 67.42C113.917 67.6973 114.013 67.916 114.205 68.076C114.397 68.236 114.631 68.3533 114.909 68.428C115.197 68.5027 115.597 68.588 116.109 68.684C116.791 68.8013 117.341 68.9293 117.757 69.068C118.183 69.196 118.546 69.42 118.845 69.74C119.143 70.06 119.293 70.508 119.293 71.084C119.293 71.852 118.962 72.4653 118.301 72.924C117.65 73.372 116.759 73.596 115.629 73.596ZM128.876 69.308C128.876 69.4253 128.865 69.58 128.844 69.772H121.964C122.06 70.5187 122.385 71.1213 122.94 71.58C123.505 72.028 124.204 72.252 125.036 72.252C126.049 72.252 126.865 71.9107 127.484 71.228L128.332 72.22C127.948 72.668 127.468 73.0093 126.892 73.244C126.327 73.4787 125.692 73.596 124.988 73.596C124.092 73.596 123.297 73.4147 122.604 73.052C121.911 72.6787 121.372 72.1613 120.988 71.5C120.615 70.8387 120.428 70.092 120.428 69.26C120.428 68.4387 120.609 67.6973 120.972 67.036C121.345 66.3747 121.852 65.8627 122.492 65.5C123.143 65.1267 123.873 64.94 124.684 64.94C125.495 64.94 126.215 65.1267 126.844 65.5C127.484 65.8627 127.98 66.3747 128.332 67.036C128.695 67.6973 128.876 68.4547 128.876 69.308ZM124.684 66.236C123.948 66.236 123.329 66.46 122.828 66.908C122.337 67.356 122.049 67.9427 121.964 68.668H127.404C127.319 67.9533 127.025 67.372 126.524 66.924C126.033 66.4653 125.42 66.236 124.684 66.236ZM139.009 61.628V73.5H137.537V72.156C137.196 72.6253 136.764 72.9827 136.241 73.228C135.718 73.4733 135.142 73.596 134.513 73.596C133.692 73.596 132.956 73.4147 132.305 73.052C131.654 72.6893 131.142 72.1827 130.769 71.532C130.406 70.8707 130.225 70.1133 130.225 69.26C130.225 68.4067 130.406 67.6547 130.769 67.004C131.142 66.3533 131.654 65.8467 132.305 65.484C132.956 65.1213 133.692 64.94 134.513 64.94C135.121 64.94 135.681 65.0573 136.193 65.292C136.705 65.516 137.132 65.852 137.473 66.3V61.628H139.009ZM134.641 72.252C135.174 72.252 135.66 72.1293 136.097 71.884C136.534 71.628 136.876 71.276 137.121 70.828C137.366 70.3693 137.489 69.8467 137.489 69.26C137.489 68.6733 137.366 68.156 137.121 67.708C136.876 67.2493 136.534 66.8973 136.097 66.652C135.66 66.4067 135.174 66.284 134.641 66.284C134.097 66.284 133.606 66.4067 133.169 66.652C132.742 66.8973 132.401 67.2493 132.145 67.708C131.9 68.156 131.777 68.6733 131.777 69.26C131.777 69.8467 131.9 70.3693 132.145 70.828C132.401 71.276 132.742 71.628 133.169 71.884C133.606 72.1293 134.097 72.252 134.641 72.252ZM57.7221 98.524C57.3595 98.9507 56.9381 99.276 56.4581 99.5C55.9781 99.724 55.4608 99.836 54.9061 99.836C54.2021 99.836 53.5408 99.6653 52.9221 99.324C52.3141 98.9933 51.6155 98.4227 50.8261 97.612C49.7701 97.5587 48.8155 97.276 47.9621 96.764C47.1195 96.252 46.4581 95.5747 45.9781 94.732C45.5088 93.8787 45.2741 92.9347 45.2741 91.9C45.2741 90.8227 45.5301 89.8467 46.0421 88.972C46.5648 88.0973 47.2795 87.4147 48.1861 86.924C49.0928 86.4227 50.1115 86.172 51.2421 86.172C52.3621 86.172 53.3755 86.4227 54.2821 86.924C55.1888 87.4147 55.8981 88.0973 56.4101 88.972C56.9221 89.836 57.1781 90.812 57.1781 91.9C57.1781 92.8173 56.9915 93.66 56.6181 94.428C56.2555 95.196 55.7381 95.8413 55.0661 96.364C54.4048 96.8867 53.6421 97.2493 52.7781 97.452C53.1515 97.8467 53.5088 98.1293 53.8501 98.3C54.2021 98.4813 54.5595 98.572 54.9221 98.572C55.7115 98.572 56.3941 98.252 56.9701 97.612L57.7221 98.524ZM46.8741 91.9C46.8741 92.7107 47.0608 93.4467 47.4341 94.108C47.8181 94.7587 48.3408 95.2707 49.0021 95.644C49.6741 96.0173 50.4208 96.204 51.2421 96.204C52.0528 96.204 52.7888 96.0173 53.4501 95.644C54.1115 95.2707 54.6288 94.7587 55.0021 94.108C55.3861 93.4467 55.5781 92.7107 55.5781 91.9C55.5781 91.0893 55.3861 90.3587 55.0021 89.708C54.6288 89.0467 54.1115 88.5293 53.4501 88.156C52.7888 87.7827 52.0528 87.596 51.2421 87.596C50.4208 87.596 49.6741 87.7827 49.0021 88.156C48.3408 88.5293 47.8181 89.0467 47.4341 89.708C47.0608 90.3587 46.8741 91.0893 46.8741 91.9ZM67.3036 89.02V97.5H65.8476V96.22C65.5383 96.6573 65.1276 96.9987 64.6156 97.244C64.1143 97.4787 63.565 97.596 62.9676 97.596C61.837 97.596 60.9463 97.2867 60.2956 96.668C59.645 96.0387 59.3196 95.116 59.3196 93.9V89.02H60.8556V93.724C60.8556 94.5453 61.053 95.1693 61.4476 95.596C61.8423 96.012 62.4076 96.22 63.1436 96.22C63.9543 96.22 64.5943 95.9747 65.0636 95.484C65.533 94.9933 65.7676 94.3 65.7676 93.404V89.02H67.3036ZM73.3158 88.94C74.4891 88.94 75.3851 89.228 76.0038 89.804C76.6331 90.38 76.9478 91.2387 76.9478 92.38V97.5H75.4918V96.38C75.2358 96.7747 74.8678 97.0787 74.3878 97.292C73.9184 97.4947 73.3584 97.596 72.7078 97.596C71.7584 97.596 70.9958 97.3667 70.4198 96.908C69.8544 96.4493 69.5718 95.8467 69.5718 95.1C69.5718 94.3533 69.8438 93.756 70.3878 93.308C70.9318 92.8493 71.7958 92.62 72.9798 92.62H75.4118V92.316C75.4118 91.6547 75.2198 91.148 74.8358 90.796C74.4518 90.444 73.8864 90.268 73.1398 90.268C72.6384 90.268 72.1478 90.3533 71.6678 90.524C71.1878 90.684 70.7824 90.9027 70.4518 91.18L69.8118 90.028C70.2491 89.676 70.7718 89.4093 71.3798 89.228C71.9878 89.036 72.6331 88.94 73.3158 88.94ZM72.9638 96.412C73.5504 96.412 74.0571 96.284 74.4838 96.028C74.9104 95.7613 75.2198 95.388 75.4118 94.908V93.724H73.0438C71.7424 93.724 71.0918 94.1613 71.0918 95.036C71.0918 95.4627 71.2571 95.7987 71.5878 96.044C71.9184 96.2893 72.3771 96.412 72.9638 96.412ZM79.7903 85.628H81.3263V97.5H79.7903V85.628ZM84.259 89.02H85.795V97.5H84.259V89.02ZM85.027 87.388C84.7284 87.388 84.4777 87.292 84.275 87.1C84.083 86.908 83.987 86.6733 83.987 86.396C83.987 86.1187 84.083 85.884 84.275 85.692C84.4777 85.4893 84.7284 85.388 85.027 85.388C85.3257 85.388 85.571 85.484 85.763 85.676C85.9657 85.8573 86.067 86.0867 86.067 86.364C86.067 86.652 85.9657 86.8973 85.763 87.1C85.571 87.292 85.3257 87.388 85.027 87.388ZM93.4958 97.004C93.2718 97.196 92.9944 97.3453 92.6638 97.452C92.3331 97.548 91.9918 97.596 91.6398 97.596C90.7864 97.596 90.1251 97.3667 89.6558 96.908C89.1864 96.4493 88.9518 95.7933 88.9518 94.94V90.284H87.5118V89.02H88.9518V87.164H90.4878V89.02H92.9198V90.284H90.4878V94.876C90.4878 95.3347 90.5998 95.6867 90.8238 95.932C91.0584 96.1773 91.3891 96.3 91.8158 96.3C92.2851 96.3 92.6851 96.1667 93.0158 95.9L93.4958 97.004ZM102.701 89.02L98.5885 98.348C98.2259 99.212 97.7992 99.82 97.3085 100.172C96.8285 100.524 96.2472 100.7 95.5645 100.7C95.1485 100.7 94.7432 100.631 94.3485 100.492C93.9645 100.364 93.6445 100.172 93.3885 99.916L94.0445 98.764C94.4819 99.18 94.9885 99.388 95.5645 99.388C95.9379 99.388 96.2472 99.2867 96.4925 99.084C96.7485 98.892 96.9779 98.556 97.1805 98.076L97.4525 97.484L93.7085 89.02H95.3085L98.2685 95.804L101.197 89.02H102.701ZM110.399 100.604C109.791 99.6227 109.322 98.4973 108.991 97.228C108.66 95.948 108.495 94.5773 108.495 93.116C108.495 91.6547 108.66 90.284 108.991 89.004C109.322 87.7133 109.791 86.588 110.399 85.628H111.855C111.215 86.748 110.746 87.9213 110.447 89.148C110.148 90.3747 109.999 91.6973 109.999 93.116C109.999 94.5347 110.148 95.8573 110.447 97.084C110.746 98.3107 111.215 99.484 111.855 100.604H110.399ZM114.046 86.3H115.646V97.5H114.046V86.3ZM122.263 97.628C121.42 97.628 120.604 97.5 119.815 97.244C119.036 96.9773 118.423 96.636 117.975 96.22L118.567 94.972C118.993 95.356 119.537 95.6707 120.199 95.916C120.871 96.1507 121.559 96.268 122.263 96.268C123.191 96.268 123.884 96.1133 124.343 95.804C124.801 95.484 125.031 95.0627 125.031 94.54C125.031 94.156 124.903 93.8467 124.647 93.612C124.401 93.3667 124.092 93.18 123.719 93.052C123.356 92.924 122.839 92.78 122.167 92.62C121.324 92.4173 120.641 92.2147 120.119 92.012C119.607 91.8093 119.164 91.5 118.791 91.084C118.428 90.6573 118.247 90.0867 118.247 89.372C118.247 88.7747 118.401 88.236 118.711 87.756C119.031 87.276 119.511 86.892 120.151 86.604C120.791 86.316 121.585 86.172 122.535 86.172C123.196 86.172 123.847 86.2573 124.487 86.428C125.127 86.5987 125.676 86.844 126.135 87.164L125.607 88.444C125.137 88.1453 124.636 87.9213 124.103 87.772C123.569 87.612 123.047 87.532 122.535 87.532C121.628 87.532 120.945 87.6973 120.487 88.028C120.039 88.3587 119.815 88.7853 119.815 89.308C119.815 89.692 119.943 90.0067 120.199 90.252C120.455 90.4867 120.769 90.6733 121.143 90.812C121.527 90.94 122.044 91.0787 122.695 91.228C123.537 91.4307 124.215 91.6333 124.727 91.836C125.239 92.0387 125.676 92.348 126.039 92.764C126.412 93.18 126.599 93.74 126.599 94.444C126.599 95.0307 126.439 95.5693 126.119 96.06C125.799 96.54 125.313 96.924 124.663 97.212C124.012 97.4893 123.212 97.628 122.263 97.628ZM133.992 97.628C132.861 97.628 131.843 97.3827 130.936 96.892C130.029 96.3907 129.315 95.7027 128.792 94.828C128.28 93.9533 128.024 92.9773 128.024 91.9C128.024 90.8227 128.28 89.8467 128.792 88.972C129.315 88.0973 130.029 87.4147 130.936 86.924C131.843 86.4227 132.861 86.172 133.992 86.172C135.112 86.172 136.125 86.4227 137.032 86.924C137.939 87.4147 138.648 88.0973 139.16 88.972C139.672 89.836 139.928 90.812 139.928 91.9C139.928 92.988 139.672 93.9693 139.16 94.844C138.648 95.708 137.939 96.3907 137.032 96.892C136.125 97.3827 135.112 97.628 133.992 97.628ZM133.992 96.204C134.813 96.204 135.549 96.0173 136.2 95.644C136.861 95.2707 137.379 94.7587 137.752 94.108C138.136 93.4467 138.328 92.7107 138.328 91.9C138.328 91.0893 138.136 90.3587 137.752 89.708C137.379 89.0467 136.861 88.5293 136.2 88.156C135.549 87.7827 134.813 87.596 133.992 87.596C133.171 87.596 132.424 87.7827 131.752 88.156C131.091 88.5293 130.568 89.0467 130.184 89.708C129.811 90.3587 129.624 91.0893 129.624 91.9C129.624 92.7107 129.811 93.4467 130.184 94.108C130.568 94.7587 131.091 95.2707 131.752 95.644C132.424 96.0173 133.171 96.204 133.992 96.204ZM61.0926 121.628C59.9726 121.628 58.9592 121.383 58.0526 120.892C57.1566 120.391 56.4526 119.708 55.9406 118.844C55.4286 117.969 55.1726 116.988 55.1726 115.9C55.1726 114.812 55.4286 113.836 55.9406 112.972C56.4526 112.097 57.1619 111.415 58.0686 110.924C58.9752 110.423 59.9886 110.172 61.1086 110.172C61.9832 110.172 62.7832 110.321 63.5086 110.62C64.2339 110.908 64.8526 111.34 65.3646 111.916L64.3246 112.924C63.4819 112.039 62.4312 111.596 61.1726 111.596C60.3406 111.596 59.5886 111.783 58.9166 112.156C58.2446 112.529 57.7166 113.047 57.3326 113.708C56.9592 114.359 56.7726 115.089 56.7726 115.9C56.7726 116.711 56.9592 117.447 57.3326 118.108C57.7166 118.759 58.2446 119.271 58.9166 119.644C59.5886 120.017 60.3406 120.204 61.1726 120.204C62.4206 120.204 63.4712 119.756 64.3246 118.86L65.3646 119.868C64.8526 120.444 64.2286 120.881 63.4926 121.18C62.7672 121.479 61.9672 121.628 61.0926 121.628ZM74.7277 117.308C74.7277 117.425 74.717 117.58 74.6957 117.772H67.8157C67.9117 118.519 68.237 119.121 68.7917 119.58C69.357 120.028 70.0557 120.252 70.8877 120.252C71.901 120.252 72.717 119.911 73.3357 119.228L74.1837 120.22C73.7997 120.668 73.3197 121.009 72.7437 121.244C72.1784 121.479 71.5437 121.596 70.8397 121.596C69.9437 121.596 69.149 121.415 68.4557 121.052C67.7624 120.679 67.2237 120.161 66.8397 119.5C66.4664 118.839 66.2797 118.092 66.2797 117.26C66.2797 116.439 66.461 115.697 66.8237 115.036C67.197 114.375 67.7037 113.863 68.3437 113.5C68.9944 113.127 69.725 112.94 70.5357 112.94C71.3464 112.94 72.0664 113.127 72.6957 113.5C73.3357 113.863 73.8317 114.375 74.1837 115.036C74.5464 115.697 74.7277 116.455 74.7277 117.308ZM70.5357 114.236C69.7997 114.236 69.181 114.46 68.6797 114.908C68.189 115.356 67.901 115.943 67.8157 116.668H73.2557C73.1704 115.953 72.877 115.372 72.3757 114.924C71.885 114.465 71.2717 114.236 70.5357 114.236ZM78.3326 114.444C78.5992 113.953 78.9939 113.58 79.5166 113.324C80.0392 113.068 80.6739 112.94 81.4206 112.94V114.428C81.3352 114.417 81.2179 114.412 81.0686 114.412C80.2366 114.412 79.5806 114.663 79.1006 115.164C78.6312 115.655 78.3966 116.359 78.3966 117.276V121.5H76.8606V113.02H78.3326V114.444ZM88.4255 121.004C88.2015 121.196 87.9241 121.345 87.5935 121.452C87.2628 121.548 86.9215 121.596 86.5695 121.596C85.7161 121.596 85.0548 121.367 84.5855 120.908C84.1161 120.449 83.8815 119.793 83.8815 118.94V114.284H82.4415V113.02H83.8815V111.164H85.4175V113.02H87.8495V114.284H85.4175V118.876C85.4175 119.335 85.5295 119.687 85.7535 119.932C85.9881 120.177 86.3188 120.3 86.7455 120.3C87.2148 120.3 87.6148 120.167 87.9455 119.9L88.4255 121.004ZM90.2825 113.02H91.8185V121.5H90.2825V113.02ZM91.0505 111.388C90.7518 111.388 90.5011 111.292 90.2985 111.1C90.1065 110.908 90.0105 110.673 90.0105 110.396C90.0105 110.119 90.1065 109.884 90.2985 109.692C90.5011 109.489 90.7518 109.388 91.0505 109.388C91.3491 109.388 91.5945 109.484 91.7865 109.676C91.9891 109.857 92.0905 110.087 92.0905 110.364C92.0905 110.652 91.9891 110.897 91.7865 111.1C91.5945 111.292 91.3491 111.388 91.0505 111.388ZM97.8552 110.796C96.9379 110.796 96.4792 111.292 96.4792 112.284V113.02H98.9432V114.284H96.5112V121.5H94.9752V114.284H93.5352V113.02H94.9752V112.268C94.9752 111.425 95.2205 110.759 95.7112 110.268C96.2019 109.777 96.8899 109.532 97.7752 109.532C98.1165 109.532 98.4365 109.575 98.7352 109.66C99.0339 109.745 99.2899 109.868 99.5032 110.028L99.0392 111.196C98.6872 110.929 98.2925 110.796 97.8552 110.796ZM101.679 113.02H103.215V121.5H101.679V113.02ZM102.447 111.388C102.149 111.388 101.898 111.292 101.695 111.1C101.503 110.908 101.407 110.673 101.407 110.396C101.407 110.119 101.503 109.884 101.695 109.692C101.898 109.489 102.149 109.388 102.447 109.388C102.746 109.388 102.991 109.484 103.183 109.676C103.386 109.857 103.487 110.087 103.487 110.364C103.487 110.652 103.386 110.897 103.183 111.1C102.991 111.292 102.746 111.388 102.447 111.388ZM113.806 117.308C113.806 117.425 113.795 117.58 113.774 117.772H106.894C106.99 118.519 107.315 119.121 107.87 119.58C108.435 120.028 109.134 120.252 109.966 120.252C110.979 120.252 111.795 119.911 112.414 119.228L113.262 120.22C112.878 120.668 112.398 121.009 111.822 121.244C111.256 121.479 110.622 121.596 109.918 121.596C109.022 121.596 108.227 121.415 107.534 121.052C106.84 120.679 106.302 120.161 105.918 119.5C105.544 118.839 105.358 118.092 105.358 117.26C105.358 116.439 105.539 115.697 105.902 115.036C106.275 114.375 106.782 113.863 107.422 113.5C108.072 113.127 108.803 112.94 109.614 112.94C110.424 112.94 111.144 113.127 111.774 113.5C112.414 113.863 112.91 114.375 113.262 115.036C113.624 115.697 113.806 116.455 113.806 117.308ZM109.614 114.236C108.878 114.236 108.259 114.46 107.758 114.908C107.267 115.356 106.979 115.943 106.894 116.668H112.334C112.248 115.953 111.955 115.372 111.454 114.924C110.963 114.465 110.35 114.236 109.614 114.236ZM123.939 109.628V121.5H122.467V120.156C122.125 120.625 121.693 120.983 121.171 121.228C120.648 121.473 120.072 121.596 119.443 121.596C118.621 121.596 117.885 121.415 117.235 121.052C116.584 120.689 116.072 120.183 115.699 119.532C115.336 118.871 115.155 118.113 115.155 117.26C115.155 116.407 115.336 115.655 115.699 115.004C116.072 114.353 116.584 113.847 117.235 113.484C117.885 113.121 118.621 112.94 119.443 112.94C120.051 112.94 120.611 113.057 121.123 113.292C121.635 113.516 122.061 113.852 122.403 114.3V109.628H123.939ZM119.571 120.252C120.104 120.252 120.589 120.129 121.027 119.884C121.464 119.628 121.805 119.276 122.051 118.828C122.296 118.369 122.419 117.847 122.419 117.26C122.419 116.673 122.296 116.156 122.051 115.708C121.805 115.249 121.464 114.897 121.027 114.652C120.589 114.407 120.104 114.284 119.571 114.284C119.027 114.284 118.536 114.407 118.099 114.652C117.672 114.897 117.331 115.249 117.075 115.708C116.829 116.156 116.707 116.673 116.707 117.26C116.707 117.847 116.829 118.369 117.075 118.828C117.331 119.276 117.672 119.628 118.099 119.884C118.536 120.129 119.027 120.252 119.571 120.252ZM125.901 124.604C126.541 123.484 127.01 122.311 127.309 121.084C127.618 119.857 127.773 118.535 127.773 117.116C127.773 115.697 127.618 114.375 127.309 113.148C127.01 111.921 126.541 110.748 125.901 109.628H127.357C127.976 110.588 128.45 111.708 128.781 112.988C129.112 114.268 129.277 115.644 129.277 117.116C129.277 118.577 129.112 119.948 128.781 121.228C128.45 122.508 127.976 123.633 127.357 124.604H125.901Z" fill="#1B3B64"/>
</g>
</g>
<defs>
<filter id="filter0_i_1_3002" x="0" y="0" width="185" height="193" filterUnits="userSpaceOnUse" color-interpolation-filters="sRGB">
<feFlood flood-opacity="0" result="BackgroundImageFix"/>
<feBlend mode="normal" in="SourceGraphic" in2="BackgroundImageFix" result="shape"/>
<feColorMatrix in="SourceAlpha" type="matrix" values="0 0 0 0 0 0 0 0 0 0 0 0 0 0 0 0 0 0 127 0" result="hardAlpha"/>
<feOffset dy="8"/>
<feGaussianBlur stdDeviation="24"/>
<feComposite in2="hardAlpha" operator="arithmetic" k2="-1" k3="1"/>
<feColorMatrix type="matrix" values="0 0 0 0 0.231373 0 0 0 0 0.745098 0 0 0 0 0.937255 0 0 0 1 0"/>
<feBlend mode="normal" in2="shape" result="effect1_innerShadow_1_3002"/>
</filter>
<filter id="filter1_di_1_3002" x="2" y="5" width="181" height="181" filterUnits="userSpaceOnUse" color-interpolation-filters="sRGB">
<feFlood flood-opacity="0" result="BackgroundImageFix"/>
<feColorMatrix in="SourceAlpha" type="matrix" values="0 0 0 0 0 0 0 0 0 0 0 0 0 0 0 0 0 0 127 0" result="hardAlpha"/>
<feOffset dy="3"/>
<feGaussianBlur stdDeviation="4"/>
<feComposite in2="hardAlpha" operator="out"/>
<feColorMatrix type="matrix" values="0 0 0 0 0.666667 0 0 0 0 0.666667 0 0 0 0 0.666667 0 0 0 1 0"/>
<feBlend mode="normal" in2="BackgroundImageFix" result="effect1_dropShadow_1_3002"/>
<feBlend mode="normal" in="SourceGraphic" in2="effect1_dropShadow_1_3002" result="shape"/>
<feColorMatrix in="SourceAlpha" type="matrix" values="0 0 0 0 0 0 0 0 0 0 0 0 0 0 0 0 0 0 127 0" result="hardAlpha"/>
<feOffset dy="2"/>
<feGaussianBlur stdDeviation="1.5"/>
<feComposite in2="hardAlpha" operator="arithmetic" k2="-1" k3="1"/>
<feColorMatrix type="matrix" values="0 0 0 0 1 0 0 0 0 1 0 0 0 0 1 0 0 0 1 0"/>
<feBlend mode="normal" in2="shape" result="effect2_innerShadow_1_3002"/>
</filter>
<linearGradient id="paint0_linear_1_3002" x1="92.5" y1="93.5" x2="92.5" y2="91.5" gradientUnits="userSpaceOnUse">
<stop stop-color="white"/>
<stop stop-color="#DDDDDD"/>
</linearGradient>
</defs>
</svg>
