<svg width="185" height="186" viewBox="0 0 185 186" fill="none" xmlns="http://www.w3.org/2000/svg">
<g filter="url(#filter0_i_1_2997)">
<rect width="185" height="185" rx="92.5" fill="white" fill-opacity="0.01"/>
<mask id="path-2-inside-1_1_2997" fill="white">
<path d="M0 92.5H185V94.5H0V92.5Z"/>
</mask>
<path d="M0 93.5H185V91.5H0V93.5ZM185 93.5H0V95.5H185V93.5Z" fill="url(#paint0_linear_1_2997)" mask="url(#path-2-inside-1_1_2997)"/>
<g filter="url(#filter1_di_1_2997)">
<rect x="10" y="10" width="165" height="165" rx="82.5" fill="#F7F7F7" shape-rendering="crispEdges"/>
<path d="M33.9798 81.628V85.5H32.3958V81.596L27.9478 74.3H29.6598L33.2438 80.204L36.8438 74.3H38.4278L33.9798 81.628ZM42.506 85.596C41.6633 85.596 40.906 85.4093 40.234 85.036C39.562 84.6627 39.034 84.1507 38.65 83.5C38.2767 82.8387 38.09 82.092 38.09 81.26C38.09 80.428 38.2767 79.6867 38.65 79.036C39.034 78.3747 39.562 77.8627 40.234 77.5C40.906 77.1267 41.6633 76.94 42.506 76.94C43.3487 76.94 44.1007 77.1267 44.762 77.5C45.434 77.8627 45.9567 78.3747 46.33 79.036C46.714 79.6867 46.906 80.428 46.906 81.26C46.906 82.092 46.714 82.8387 46.33 83.5C45.9567 84.1507 45.434 84.6627 44.762 85.036C44.1007 85.4093 43.3487 85.596 42.506 85.596ZM42.506 84.252C43.05 84.252 43.5353 84.1293 43.962 83.884C44.3993 83.628 44.7407 83.276 44.986 82.828C45.2313 82.3693 45.354 81.8467 45.354 81.26C45.354 80.6733 45.2313 80.156 44.986 79.708C44.7407 79.2493 44.3993 78.8973 43.962 78.652C43.5353 78.4067 43.05 78.284 42.506 78.284C41.962 78.284 41.4713 78.4067 41.034 78.652C40.6073 78.8973 40.266 79.2493 40.01 79.708C39.7647 80.156 39.642 80.6733 39.642 81.26C39.642 81.8467 39.7647 82.3693 40.01 82.828C40.266 83.276 40.6073 83.628 41.034 83.884C41.4713 84.1293 41.962 84.252 42.506 84.252ZM56.9343 77.02V85.5H55.4783V84.22C55.1689 84.6573 54.7583 84.9987 54.2463 85.244C53.7449 85.4787 53.1956 85.596 52.5983 85.596C51.4676 85.596 50.5769 85.2867 49.9263 84.668C49.2756 84.0387 48.9503 83.116 48.9503 81.9V77.02H50.4863V81.724C50.4863 82.5453 50.6836 83.1693 51.0783 83.596C51.4729 84.012 52.0383 84.22 52.7743 84.22C53.5849 84.22 54.2249 83.9747 54.6943 83.484C55.1636 82.9933 55.3983 82.3 55.3983 81.404V77.02H56.9343ZM61.3304 78.444C61.5971 77.9533 61.9917 77.58 62.5144 77.324C63.0371 77.068 63.6717 76.94 64.4184 76.94V78.428C64.3331 78.4173 64.2157 78.412 64.0664 78.412C63.2344 78.412 62.5784 78.6627 62.0984 79.164C61.6291 79.6547 61.3944 80.3587 61.3944 81.276V85.5H59.8584V77.02H61.3304V78.444ZM75.9498 85.628C74.8298 85.628 73.8164 85.3827 72.9098 84.892C72.0138 84.3907 71.3098 83.708 70.7978 82.844C70.2858 81.9693 70.0298 80.988 70.0298 79.9C70.0298 78.812 70.2858 77.836 70.7978 76.972C71.3098 76.0973 72.0191 75.4147 72.9258 74.924C73.8324 74.4227 74.8458 74.172 75.9658 74.172C76.8404 74.172 77.6404 74.3213 78.3658 74.62C79.0911 74.908 79.7098 75.34 80.2218 75.916L79.1818 76.924C78.3391 76.0387 77.2884 75.596 76.0298 75.596C75.1978 75.596 74.4458 75.7827 73.7738 76.156C73.1018 76.5293 72.5738 77.0467 72.1898 77.708C71.8164 78.3587 71.6298 79.0893 71.6298 79.9C71.6298 80.7107 71.8164 81.4467 72.1898 82.108C72.5738 82.7587 73.1018 83.2707 73.7738 83.644C74.4458 84.0173 75.1978 84.204 76.0298 84.204C77.2778 84.204 78.3284 83.756 79.1818 82.86L80.2218 83.868C79.7098 84.444 79.0858 84.8813 78.3498 85.18C77.6244 85.4787 76.8244 85.628 75.9498 85.628ZM85.5529 85.596C84.7102 85.596 83.9529 85.4093 83.2809 85.036C82.6089 84.6627 82.0809 84.1507 81.6969 83.5C81.3236 82.8387 81.1369 82.092 81.1369 81.26C81.1369 80.428 81.3236 79.6867 81.6969 79.036C82.0809 78.3747 82.6089 77.8627 83.2809 77.5C83.9529 77.1267 84.7102 76.94 85.5529 76.94C86.3956 76.94 87.1476 77.1267 87.8089 77.5C88.4809 77.8627 89.0036 78.3747 89.3769 79.036C89.7609 79.6867 89.9529 80.428 89.9529 81.26C89.9529 82.092 89.7609 82.8387 89.3769 83.5C89.0036 84.1507 88.4809 84.6627 87.8089 85.036C87.1476 85.4093 86.3956 85.596 85.5529 85.596ZM85.5529 84.252C86.0969 84.252 86.5822 84.1293 87.0089 83.884C87.4462 83.628 87.7876 83.276 88.0329 82.828C88.2782 82.3693 88.4009 81.8467 88.4009 81.26C88.4009 80.6733 88.2782 80.156 88.0329 79.708C87.7876 79.2493 87.4462 78.8973 87.0089 78.652C86.5822 78.4067 86.0969 78.284 85.5529 78.284C85.0089 78.284 84.5182 78.4067 84.0809 78.652C83.6542 78.8973 83.3129 79.2493 83.0569 79.708C82.8116 80.156 82.6889 80.6733 82.6889 81.26C82.6889 81.8467 82.8116 82.3693 83.0569 82.828C83.3129 83.276 83.6542 83.628 84.0809 83.884C84.5182 84.1293 85.0089 84.252 85.5529 84.252ZM94.5091 85.596C93.8158 85.596 93.1491 85.5053 92.5091 85.324C91.8691 85.132 91.3678 84.892 91.0051 84.604L91.6451 83.388C92.0185 83.6547 92.4718 83.868 93.0051 84.028C93.5385 84.188 94.0771 84.268 94.6211 84.268C95.9651 84.268 96.6371 83.884 96.6371 83.116C96.6371 82.86 96.5465 82.6573 96.3651 82.508C96.1838 82.3587 95.9545 82.252 95.6771 82.188C95.4105 82.1133 95.0265 82.0333 94.5251 81.948C93.8425 81.8413 93.2825 81.7187 92.8451 81.58C92.4185 81.4413 92.0505 81.2067 91.7411 80.876C91.4318 80.5453 91.2771 80.0813 91.2771 79.484C91.2771 78.716 91.5971 78.1027 92.2371 77.644C92.8771 77.1747 93.7358 76.94 94.8131 76.94C95.3785 76.94 95.9438 77.0093 96.5091 77.148C97.0745 77.2867 97.5385 77.4733 97.9011 77.708L97.2451 78.924C96.5518 78.476 95.7358 78.252 94.7971 78.252C94.1465 78.252 93.6505 78.3587 93.3091 78.572C92.9678 78.7853 92.7971 79.068 92.7971 79.42C92.7971 79.6973 92.8931 79.916 93.0851 80.076C93.2771 80.236 93.5118 80.3533 93.7891 80.428C94.0771 80.5027 94.4771 80.588 94.9891 80.684C95.6718 80.8013 96.2211 80.9293 96.6371 81.068C97.0638 81.196 97.4265 81.42 97.7251 81.74C98.0238 82.06 98.1731 82.508 98.1731 83.084C98.1731 83.852 97.8425 84.4653 97.1811 84.924C96.5305 85.372 95.6398 85.596 94.5091 85.596ZM104.861 85.004C104.637 85.196 104.359 85.3453 104.029 85.452C103.698 85.548 103.357 85.596 103.005 85.596C102.151 85.596 101.49 85.3667 101.021 84.908C100.551 84.4493 100.317 83.7933 100.317 82.94V78.284H98.8768V77.02H100.317V75.164H101.853V77.02H104.285V78.284H101.853V82.876C101.853 83.3347 101.965 83.6867 102.189 83.932C102.423 84.1773 102.754 84.3 103.181 84.3C103.65 84.3 104.05 84.1667 104.381 83.9L104.861 85.004ZM111.015 77.02H112.551V85.5H111.015V77.02ZM111.783 75.388C111.484 75.388 111.233 75.292 111.031 75.1C110.839 74.908 110.743 74.6733 110.743 74.396C110.743 74.1187 110.839 73.884 111.031 73.692C111.233 73.4893 111.484 73.388 111.783 73.388C112.081 73.388 112.327 73.484 112.519 73.676C112.721 73.8573 112.823 74.0867 112.823 74.364C112.823 74.652 112.721 74.8973 112.519 75.1C112.327 75.292 112.081 75.388 111.783 75.388ZM117.915 85.596C117.222 85.596 116.555 85.5053 115.915 85.324C115.275 85.132 114.774 84.892 114.411 84.604L115.051 83.388C115.425 83.6547 115.878 83.868 116.411 84.028C116.945 84.188 117.483 84.268 118.027 84.268C119.371 84.268 120.043 83.884 120.043 83.116C120.043 82.86 119.953 82.6573 119.771 82.508C119.59 82.3587 119.361 82.252 119.083 82.188C118.817 82.1133 118.433 82.0333 117.931 81.948C117.249 81.8413 116.689 81.7187 116.251 81.58C115.825 81.4413 115.457 81.2067 115.147 80.876C114.838 80.5453 114.683 80.0813 114.683 79.484C114.683 78.716 115.003 78.1027 115.643 77.644C116.283 77.1747 117.142 76.94 118.219 76.94C118.785 76.94 119.35 77.0093 119.915 77.148C120.481 77.2867 120.945 77.4733 121.307 77.708L120.651 78.924C119.958 78.476 119.142 78.252 118.203 78.252C117.553 78.252 117.057 78.3587 116.715 78.572C116.374 78.7853 116.203 79.068 116.203 79.42C116.203 79.6973 116.299 79.916 116.491 80.076C116.683 80.236 116.918 80.3533 117.195 80.428C117.483 80.5027 117.883 80.588 118.395 80.684C119.078 80.8013 119.627 80.9293 120.043 81.068C120.47 81.196 120.833 81.42 121.131 81.74C121.43 82.06 121.579 82.508 121.579 83.084C121.579 83.852 121.249 84.4653 120.587 84.924C119.937 85.372 119.046 85.596 117.915 85.596ZM133.076 85.628C131.945 85.628 130.927 85.3827 130.02 84.892C129.113 84.3907 128.399 83.7027 127.876 82.828C127.364 81.9533 127.108 80.9773 127.108 79.9C127.108 78.8227 127.364 77.8467 127.876 76.972C128.399 76.0973 129.113 75.4147 130.02 74.924C130.927 74.4227 131.945 74.172 133.076 74.172C134.196 74.172 135.209 74.4227 136.116 74.924C137.023 75.4147 137.732 76.0973 138.244 76.972C138.756 77.836 139.012 78.812 139.012 79.9C139.012 80.988 138.756 81.9693 138.244 82.844C137.732 83.708 137.023 84.3907 136.116 84.892C135.209 85.3827 134.196 85.628 133.076 85.628ZM133.076 84.204C133.897 84.204 134.633 84.0173 135.284 83.644C135.945 83.2707 136.463 82.7587 136.836 82.108C137.22 81.4467 137.412 80.7107 137.412 79.9C137.412 79.0893 137.22 78.3587 136.836 77.708C136.463 77.0467 135.945 76.5293 135.284 76.156C134.633 75.7827 133.897 75.596 133.076 75.596C132.255 75.596 131.508 75.7827 130.836 76.156C130.175 76.5293 129.652 77.0467 129.268 77.708C128.895 78.3587 128.708 79.0893 128.708 79.9C128.708 80.7107 128.895 81.4467 129.268 82.108C129.652 82.7587 130.175 83.2707 130.836 83.644C131.508 84.0173 132.255 84.204 133.076 84.204ZM149.137 77.02V85.5H147.681V84.22C147.372 84.6573 146.961 84.9987 146.449 85.244C145.948 85.4787 145.399 85.596 144.801 85.596C143.671 85.596 142.78 85.2867 142.129 84.668C141.479 84.0387 141.153 83.116 141.153 81.9V77.02H142.689V81.724C142.689 82.5453 142.887 83.1693 143.281 83.596C143.676 84.012 144.241 84.22 144.977 84.22C145.788 84.22 146.428 83.9747 146.897 83.484C147.367 82.9933 147.601 82.3 147.601 81.404V77.02H149.137ZM153.534 78.444C153.8 77.9533 154.195 77.58 154.718 77.324C155.24 77.068 155.875 76.94 156.622 76.94V78.428C156.536 78.4173 156.419 78.412 156.27 78.412C155.438 78.412 154.782 78.6627 154.302 79.164C153.832 79.6547 153.598 80.3587 153.598 81.276V85.5H152.062V77.02H153.534V78.444ZM65.7121 103.692C66.3628 103.873 66.8748 104.204 67.2481 104.684C67.6215 105.153 67.8081 105.751 67.8081 106.476C67.8081 107.447 67.4401 108.193 66.7041 108.716C65.9788 109.239 64.9175 109.5 63.5201 109.5H58.1761V98.3H63.2001C64.4801 98.3 65.4668 98.556 66.1601 99.068C66.8641 99.58 67.2161 100.289 67.2161 101.196C67.2161 101.783 67.0775 102.289 66.8001 102.716C66.5335 103.143 66.1708 103.468 65.7121 103.692ZM59.7761 99.596V103.18H63.0561C63.8775 103.18 64.5068 103.031 64.9441 102.732C65.3921 102.423 65.6161 101.975 65.6161 101.388C65.6161 100.801 65.3921 100.359 64.9441 100.06C64.5068 99.7507 63.8775 99.596 63.0561 99.596H59.7761ZM63.4561 108.204C64.3628 108.204 65.0455 108.055 65.5041 107.756C65.9628 107.457 66.1921 106.988 66.1921 106.348C66.1921 105.1 65.2801 104.476 63.4561 104.476H59.7761V108.204H63.4561ZM77.9655 101.02V109.5H76.5095V108.22C76.2002 108.657 75.7895 108.999 75.2775 109.244C74.7762 109.479 74.2268 109.596 73.6295 109.596C72.4988 109.596 71.6082 109.287 70.9575 108.668C70.3068 108.039 69.9815 107.116 69.9815 105.9V101.02H71.5175V105.724C71.5175 106.545 71.7148 107.169 72.1095 107.596C72.5042 108.012 73.0695 108.22 73.8055 108.22C74.6162 108.22 75.2562 107.975 75.7255 107.484C76.1948 106.993 76.4295 106.3 76.4295 105.404V101.02H77.9655ZM83.3216 109.596C82.6283 109.596 81.9616 109.505 81.3216 109.324C80.6816 109.132 80.1803 108.892 79.8176 108.604L80.4576 107.388C80.831 107.655 81.2843 107.868 81.8176 108.028C82.351 108.188 82.8896 108.268 83.4336 108.268C84.7776 108.268 85.4496 107.884 85.4496 107.116C85.4496 106.86 85.359 106.657 85.1776 106.508C84.9963 106.359 84.767 106.252 84.4896 106.188C84.223 106.113 83.839 106.033 83.3376 105.948C82.655 105.841 82.095 105.719 81.6576 105.58C81.231 105.441 80.863 105.207 80.5536 104.876C80.2443 104.545 80.0896 104.081 80.0896 103.484C80.0896 102.716 80.4096 102.103 81.0496 101.644C81.6896 101.175 82.5483 100.94 83.6256 100.94C84.191 100.94 84.7563 101.009 85.3216 101.148C85.887 101.287 86.351 101.473 86.7136 101.708L86.0576 102.924C85.3643 102.476 84.5483 102.252 83.6096 102.252C82.959 102.252 82.463 102.359 82.1216 102.572C81.7803 102.785 81.6096 103.068 81.6096 103.42C81.6096 103.697 81.7056 103.916 81.8976 104.076C82.0896 104.236 82.3243 104.353 82.6016 104.428C82.8896 104.503 83.2896 104.588 83.8016 104.684C84.4843 104.801 85.0336 104.929 85.4496 105.068C85.8763 105.196 86.239 105.42 86.5376 105.74C86.8363 106.06 86.9856 106.508 86.9856 107.084C86.9856 107.852 86.655 108.465 85.9936 108.924C85.343 109.372 84.4523 109.596 83.3216 109.596ZM88.9053 101.02H90.4413V109.5H88.9053V101.02ZM89.6733 99.388C89.3746 99.388 89.1239 99.292 88.9213 99.1C88.7293 98.908 88.6333 98.6733 88.6333 98.396C88.6333 98.1187 88.7293 97.884 88.9213 97.692C89.1239 97.4893 89.3746 97.388 89.6733 97.388C89.9719 97.388 90.2173 97.484 90.4093 97.676C90.6119 97.8573 90.7133 98.0867 90.7133 98.364C90.7133 98.652 90.6119 98.8973 90.4093 99.1C90.2173 99.292 89.9719 99.388 89.6733 99.388ZM97.902 100.94C98.9793 100.94 99.8327 101.255 100.462 101.884C101.102 102.503 101.422 103.415 101.422 104.62V109.5H99.886V104.796C99.886 103.975 99.6887 103.356 99.294 102.94C98.8993 102.524 98.334 102.316 97.598 102.316C96.766 102.316 96.11 102.561 95.63 103.052C95.15 103.532 94.91 104.225 94.91 105.132V109.5H93.374V101.02H94.846V102.3C95.1553 101.863 95.5713 101.527 96.094 101.292C96.6273 101.057 97.23 100.94 97.902 100.94ZM111.976 105.308C111.976 105.425 111.965 105.58 111.944 105.772H105.064C105.16 106.519 105.485 107.121 106.04 107.58C106.605 108.028 107.304 108.252 108.136 108.252C109.149 108.252 109.965 107.911 110.584 107.228L111.432 108.22C111.048 108.668 110.568 109.009 109.992 109.244C109.426 109.479 108.792 109.596 108.088 109.596C107.192 109.596 106.397 109.415 105.704 109.052C105.01 108.679 104.472 108.161 104.088 107.5C103.714 106.839 103.528 106.092 103.528 105.26C103.528 104.439 103.709 103.697 104.072 103.036C104.445 102.375 104.952 101.863 105.592 101.5C106.242 101.127 106.973 100.94 107.784 100.94C108.594 100.94 109.314 101.127 109.944 101.5C110.584 101.863 111.08 102.375 111.432 103.036C111.794 103.697 111.976 104.455 111.976 105.308ZM107.784 102.236C107.048 102.236 106.429 102.46 105.928 102.908C105.437 103.356 105.149 103.943 105.064 104.668H110.504C110.418 103.953 110.125 103.372 109.624 102.924C109.133 102.465 108.52 102.236 107.784 102.236ZM116.54 109.596C115.847 109.596 115.18 109.505 114.54 109.324C113.9 109.132 113.399 108.892 113.036 108.604L113.676 107.388C114.05 107.655 114.503 107.868 115.036 108.028C115.57 108.188 116.108 108.268 116.652 108.268C117.996 108.268 118.668 107.884 118.668 107.116C118.668 106.86 118.578 106.657 118.396 106.508C118.215 106.359 117.986 106.252 117.708 106.188C117.442 106.113 117.058 106.033 116.556 105.948C115.874 105.841 115.314 105.719 114.876 105.58C114.45 105.441 114.082 105.207 113.772 104.876C113.463 104.545 113.308 104.081 113.308 103.484C113.308 102.716 113.628 102.103 114.268 101.644C114.908 101.175 115.767 100.94 116.844 100.94C117.41 100.94 117.975 101.009 118.54 101.148C119.106 101.287 119.57 101.473 119.932 101.708L119.276 102.924C118.583 102.476 117.767 102.252 116.828 102.252C116.178 102.252 115.682 102.359 115.34 102.572C114.999 102.785 114.828 103.068 114.828 103.42C114.828 103.697 114.924 103.916 115.116 104.076C115.308 104.236 115.543 104.353 115.82 104.428C116.108 104.503 116.508 104.588 117.02 104.684C117.703 104.801 118.252 104.929 118.668 105.068C119.095 105.196 119.458 105.42 119.756 105.74C120.055 106.06 120.204 106.508 120.204 107.084C120.204 107.852 119.874 108.465 119.212 108.924C118.562 109.372 117.671 109.596 116.54 109.596ZM124.556 109.596C123.863 109.596 123.196 109.505 122.556 109.324C121.916 109.132 121.415 108.892 121.052 108.604L121.692 107.388C122.065 107.655 122.519 107.868 123.052 108.028C123.585 108.188 124.124 108.268 124.668 108.268C126.012 108.268 126.684 107.884 126.684 107.116C126.684 106.86 126.593 106.657 126.412 106.508C126.231 106.359 126.001 106.252 125.724 106.188C125.457 106.113 125.073 106.033 124.572 105.948C123.889 105.841 123.329 105.719 122.892 105.58C122.465 105.441 122.097 105.207 121.788 104.876C121.479 104.545 121.324 104.081 121.324 103.484C121.324 102.716 121.644 102.103 122.284 101.644C122.924 101.175 123.783 100.94 124.86 100.94C125.425 100.94 125.991 101.009 126.556 101.148C127.121 101.287 127.585 101.473 127.948 101.708L127.292 102.924C126.599 102.476 125.783 102.252 124.844 102.252C124.193 102.252 123.697 102.359 123.356 102.572C123.015 102.785 122.844 103.068 122.844 103.42C122.844 103.697 122.94 103.916 123.132 104.076C123.324 104.236 123.559 104.353 123.836 104.428C124.124 104.503 124.524 104.588 125.036 104.684C125.719 104.801 126.268 104.929 126.684 105.068C127.111 105.196 127.473 105.42 127.772 105.74C128.071 106.06 128.22 106.508 128.22 107.084C128.22 107.852 127.889 108.465 127.228 108.924C126.577 109.372 125.687 109.596 124.556 109.596Z" fill="#1B3B64"/>
</g>
</g>
<defs>
<filter id="filter0_i_1_2997" x="0" y="0" width="185" height="193" filterUnits="userSpaceOnUse" color-interpolation-filters="sRGB">
<feFlood flood-opacity="0" result="BackgroundImageFix"/>
<feBlend mode="normal" in="SourceGraphic" in2="BackgroundImageFix" result="shape"/>
<feColorMatrix in="SourceAlpha" type="matrix" values="0 0 0 0 0 0 0 0 0 0 0 0 0 0 0 0 0 0 127 0" result="hardAlpha"/>
<feOffset dy="8"/>
<feGaussianBlur stdDeviation="24"/>
<feComposite in2="hardAlpha" operator="arithmetic" k2="-1" k3="1"/>
<feColorMatrix type="matrix" values="0 0 0 0 0.313726 0 0 0 0 0.415686 0 0 0 0 0.686275 0 0 0 1 0"/>
<feBlend mode="normal" in2="shape" result="effect1_innerShadow_1_2997"/>
</filter>
<filter id="filter1_di_1_2997" x="2" y="5" width="181" height="181" filterUnits="userSpaceOnUse" color-interpolation-filters="sRGB">
<feFlood flood-opacity="0" result="BackgroundImageFix"/>
<feColorMatrix in="SourceAlpha" type="matrix" values="0 0 0 0 0 0 0 0 0 0 0 0 0 0 0 0 0 0 127 0" result="hardAlpha"/>
<feOffset dy="3"/>
<feGaussianBlur stdDeviation="4"/>
<feComposite in2="hardAlpha" operator="out"/>
<feColorMatrix type="matrix" values="0 0 0 0 0.666667 0 0 0 0 0.666667 0 0 0 0 0.666667 0 0 0 1 0"/>
<feBlend mode="normal" in2="BackgroundImageFix" result="effect1_dropShadow_1_2997"/>
<feBlend mode="normal" in="SourceGraphic" in2="effect1_dropShadow_1_2997" result="shape"/>
<feColorMatrix in="SourceAlpha" type="matrix" values="0 0 0 0 0 0 0 0 0 0 0 0 0 0 0 0 0 0 127 0" result="hardAlpha"/>
<feOffset dy="2"/>
<feGaussianBlur stdDeviation="1.5"/>
<feComposite in2="hardAlpha" operator="arithmetic" k2="-1" k3="1"/>
<feColorMatrix type="matrix" values="0 0 0 0 1 0 0 0 0 1 0 0 0 0 1 0 0 0 1 0"/>
<feBlend mode="normal" in2="shape" result="effect2_innerShadow_1_2997"/>
</filter>
<linearGradient id="paint0_linear_1_2997" x1="92.5" y1="93.5" x2="92.5" y2="91.5" gradientUnits="userSpaceOnUse">
<stop stop-color="white"/>
<stop stop-color="#DDDDDD"/>
</linearGradient>
</defs>
</svg>
