<svg width="185" height="186" viewBox="0 0 185 186" fill="none" xmlns="http://www.w3.org/2000/svg">
<g filter="url(#filter0_i_1_3007)">
<rect width="185" height="185" rx="92.5" fill="white" fill-opacity="0.01"/>
<mask id="path-2-inside-1_1_3007" fill="white">
<path d="M0 92.5H185V94.5H0V92.5Z"/>
</mask>
<path d="M0 93.5H185V91.5H0V93.5ZM185 93.5H0V95.5H185V93.5Z" fill="url(#paint0_linear_1_3007)" mask="url(#path-2-inside-1_1_3007)"/>
<g filter="url(#filter1_di_1_3007)">
<rect x="10" y="10" width="165" height="165" rx="82.5" fill="#F7F7F7" shape-rendering="crispEdges"/>
<path d="M59.0206 75.692V79.596H64.6366V80.972H59.0206V85.5H57.4206V74.3H65.3246V75.692H59.0206ZM68.6686 78.444C68.9352 77.9533 69.3299 77.58 69.8526 77.324C70.3752 77.068 71.0099 76.94 71.7566 76.94V78.428C71.6712 78.4173 71.5539 78.412 71.4046 78.412C70.5726 78.412 69.9166 78.6627 69.4366 79.164C68.9672 79.6547 68.7326 80.3587 68.7326 81.276V85.5H67.1966V77.02H68.6686V78.444ZM77.2036 85.596C76.3609 85.596 75.6036 85.4093 74.9316 85.036C74.2596 84.6627 73.7316 84.1507 73.3476 83.5C72.9742 82.8387 72.7876 82.092 72.7876 81.26C72.7876 80.428 72.9742 79.6867 73.3476 79.036C73.7316 78.3747 74.2596 77.8627 74.9316 77.5C75.6036 77.1267 76.3609 76.94 77.2036 76.94C78.0462 76.94 78.7982 77.1267 79.4596 77.5C80.1316 77.8627 80.6542 78.3747 81.0276 79.036C81.4116 79.6867 81.6036 80.428 81.6036 81.26C81.6036 82.092 81.4116 82.8387 81.0276 83.5C80.6542 84.1507 80.1316 84.6627 79.4596 85.036C78.7982 85.4093 78.0462 85.596 77.2036 85.596ZM77.2036 84.252C77.7476 84.252 78.2329 84.1293 78.6596 83.884C79.0969 83.628 79.4382 83.276 79.6836 82.828C79.9289 82.3693 80.0516 81.8467 80.0516 81.26C80.0516 80.6733 79.9289 80.156 79.6836 79.708C79.4382 79.2493 79.0969 78.8973 78.6596 78.652C78.2329 78.4067 77.7476 78.284 77.2036 78.284C76.6596 78.284 76.1689 78.4067 75.7316 78.652C75.3049 78.8973 74.9636 79.2493 74.7076 79.708C74.4622 80.156 74.3396 80.6733 74.3396 81.26C74.3396 81.8467 74.4622 82.3693 74.7076 82.828C74.9636 83.276 75.3049 83.628 75.7316 83.884C76.1689 84.1293 76.6596 84.252 77.2036 84.252ZM88.2558 76.94C89.3332 76.94 90.1865 77.2547 90.8158 77.884C91.4558 78.5027 91.7758 79.4147 91.7758 80.62V85.5H90.2398V80.796C90.2398 79.9747 90.0425 79.356 89.6478 78.94C89.2532 78.524 88.6878 78.316 87.9518 78.316C87.1198 78.316 86.4638 78.5613 85.9838 79.052C85.5038 79.532 85.2638 80.2253 85.2638 81.132V85.5H83.7278V77.02H85.1998V78.3C85.5092 77.8627 85.9252 77.5267 86.4478 77.292C86.9812 77.0573 87.5838 76.94 88.2558 76.94ZM99.3865 85.004C99.1625 85.196 98.8851 85.3453 98.5545 85.452C98.2238 85.548 97.8825 85.596 97.5305 85.596C96.6771 85.596 96.0158 85.3667 95.5465 84.908C95.0771 84.4493 94.8425 83.7933 94.8425 82.94V78.284H93.4025V77.02H94.8425V75.164H96.3785V77.02H98.8105V78.284H96.3785V82.876C96.3785 83.3347 96.4905 83.6867 96.7145 83.932C96.9491 84.1773 97.2798 84.3 97.7065 84.3C98.1758 84.3 98.5758 84.1667 98.9065 83.9L99.3865 85.004ZM101.243 73.628H102.779V85.5H101.243V73.628ZM105.712 77.02H107.248V85.5H105.712V77.02ZM106.48 75.388C106.182 75.388 105.931 75.292 105.728 75.1C105.536 74.908 105.44 74.6733 105.44 74.396C105.44 74.1187 105.536 73.884 105.728 73.692C105.931 73.4893 106.182 73.388 106.48 73.388C106.779 73.388 107.024 73.484 107.216 73.676C107.419 73.8573 107.52 74.0867 107.52 74.364C107.52 74.652 107.419 74.8973 107.216 75.1C107.024 75.292 106.779 75.388 106.48 75.388ZM114.709 76.94C115.786 76.94 116.64 77.2547 117.269 77.884C117.909 78.5027 118.229 79.4147 118.229 80.62V85.5H116.693V80.796C116.693 79.9747 116.496 79.356 116.101 78.94C115.706 78.524 115.141 78.316 114.405 78.316C113.573 78.316 112.917 78.5613 112.437 79.052C111.957 79.532 111.717 80.2253 111.717 81.132V85.5H110.181V77.02H111.653V78.3C111.962 77.8627 112.378 77.5267 112.901 77.292C113.434 77.0573 114.037 76.94 114.709 76.94ZM128.782 81.308C128.782 81.4253 128.772 81.58 128.75 81.772H121.87C121.966 82.5187 122.292 83.1213 122.846 83.58C123.412 84.028 124.11 84.252 124.942 84.252C125.956 84.252 126.772 83.9107 127.39 83.228L128.238 84.22C127.854 84.668 127.374 85.0093 126.798 85.244C126.233 85.4787 125.598 85.596 124.894 85.596C123.998 85.596 123.204 85.4147 122.51 85.052C121.817 84.6787 121.278 84.1613 120.894 83.5C120.521 82.8387 120.334 82.092 120.334 81.26C120.334 80.4387 120.516 79.6973 120.878 79.036C121.252 78.3747 121.758 77.8627 122.398 77.5C123.049 77.1267 123.78 76.94 124.59 76.94C125.401 76.94 126.121 77.1267 126.75 77.5C127.39 77.8627 127.886 78.3747 128.238 79.036C128.601 79.6973 128.782 80.4547 128.782 81.308ZM124.59 78.236C123.854 78.236 123.236 78.46 122.734 78.908C122.244 79.356 121.956 79.9427 121.87 80.668H127.31C127.225 79.9533 126.932 79.372 126.43 78.924C125.94 78.4653 125.326 78.236 124.59 78.236ZM41.3767 108.108V109.5H33.2487V98.3H41.1527V99.692H34.8487V103.132H40.4647V104.492H34.8487V108.108H41.3767ZM48.964 109.5L46.516 106.252L44.036 109.5H42.324L45.668 105.164L42.484 101.02H44.196L46.532 104.076L48.852 101.02H50.532L47.332 105.164L50.708 109.5H48.964ZM56.8801 100.94C57.7014 100.94 58.4374 101.121 59.0881 101.484C59.7387 101.847 60.2454 102.353 60.6081 103.004C60.9814 103.655 61.1681 104.407 61.1681 105.26C61.1681 106.113 60.9814 106.871 60.6081 107.532C60.2454 108.183 59.7387 108.689 59.0881 109.052C58.4374 109.415 57.7014 109.596 56.8801 109.596C56.2721 109.596 55.7121 109.479 55.2001 109.244C54.6987 109.009 54.2721 108.668 53.9201 108.22V112.604H52.3841V101.02H53.8561V102.364C54.1974 101.895 54.6294 101.543 55.1521 101.308C55.6747 101.063 56.2507 100.94 56.8801 100.94ZM56.7521 108.252C57.2961 108.252 57.7814 108.129 58.2081 107.884C58.6454 107.628 58.9867 107.276 59.2321 106.828C59.4881 106.369 59.6161 105.847 59.6161 105.26C59.6161 104.673 59.4881 104.156 59.2321 103.708C58.9867 103.249 58.6454 102.897 58.2081 102.652C57.7814 102.407 57.2961 102.284 56.7521 102.284C56.2187 102.284 55.7334 102.412 55.2961 102.668C54.8694 102.913 54.5281 103.26 54.2721 103.708C54.0267 104.156 53.9041 104.673 53.9041 105.26C53.9041 105.847 54.0267 106.369 54.2721 106.828C54.5174 107.276 54.8587 107.628 55.2961 107.884C55.7334 108.129 56.2187 108.252 56.7521 108.252ZM70.9543 105.308C70.9543 105.425 70.9437 105.58 70.9223 105.772H64.0423C64.1383 106.519 64.4637 107.121 65.0183 107.58C65.5837 108.028 66.2823 108.252 67.1143 108.252C68.1277 108.252 68.9437 107.911 69.5623 107.228L70.4103 108.22C70.0263 108.668 69.5463 109.009 68.9703 109.244C68.405 109.479 67.7703 109.596 67.0663 109.596C66.1703 109.596 65.3757 109.415 64.6823 109.052C63.989 108.679 63.4503 108.161 63.0663 107.5C62.693 106.839 62.5063 106.092 62.5063 105.26C62.5063 104.439 62.6877 103.697 63.0503 103.036C63.4237 102.375 63.9303 101.863 64.5703 101.5C65.221 101.127 65.9517 100.94 66.7623 100.94C67.573 100.94 68.293 101.127 68.9223 101.5C69.5623 101.863 70.0583 102.375 70.4103 103.036C70.773 103.697 70.9543 104.455 70.9543 105.308ZM66.7623 102.236C66.0263 102.236 65.4077 102.46 64.9063 102.908C64.4157 103.356 64.1277 103.943 64.0423 104.668H69.4823C69.397 103.953 69.1037 103.372 68.6023 102.924C68.1117 102.465 67.4983 102.236 66.7623 102.236ZM74.5592 102.444C74.8259 101.953 75.2205 101.58 75.7432 101.324C76.2659 101.068 76.9005 100.94 77.6472 100.94V102.428C77.5619 102.417 77.4445 102.412 77.2952 102.412C76.4632 102.412 75.8072 102.663 75.3272 103.164C74.8579 103.655 74.6232 104.359 74.6232 105.276V109.5H73.0872V101.02H74.5592V102.444ZM84.6521 109.004C84.4281 109.196 84.1507 109.345 83.8201 109.452C83.4894 109.548 83.1481 109.596 82.7961 109.596C81.9427 109.596 81.2814 109.367 80.8121 108.908C80.3427 108.449 80.1081 107.793 80.1081 106.94V102.284H78.6681V101.02H80.1081V99.164H81.6441V101.02H84.0761V102.284H81.6441V106.876C81.6441 107.335 81.7561 107.687 81.9801 107.932C82.2147 108.177 82.5454 108.3 82.9721 108.3C83.4414 108.3 83.8414 108.167 84.1721 107.9L84.6521 109.004ZM88.9411 109.596C88.2477 109.596 87.5811 109.505 86.9411 109.324C86.3011 109.132 85.7997 108.892 85.4371 108.604L86.0771 107.388C86.4504 107.655 86.9037 107.868 87.4371 108.028C87.9704 108.188 88.5091 108.268 89.0531 108.268C90.3971 108.268 91.0691 107.884 91.0691 107.116C91.0691 106.86 90.9784 106.657 90.7971 106.508C90.6157 106.359 90.3864 106.252 90.1091 106.188C89.8424 106.113 89.4584 106.033 88.9571 105.948C88.2744 105.841 87.7144 105.719 87.2771 105.58C86.8504 105.441 86.4824 105.207 86.1731 104.876C85.8637 104.545 85.7091 104.081 85.7091 103.484C85.7091 102.716 86.0291 102.103 86.6691 101.644C87.3091 101.175 88.1677 100.94 89.2451 100.94C89.8104 100.94 90.3757 101.009 90.9411 101.148C91.5064 101.287 91.9704 101.473 92.3331 101.708L91.6771 102.924C90.9837 102.476 90.1677 102.252 89.2291 102.252C88.5784 102.252 88.0824 102.359 87.7411 102.572C87.3997 102.785 87.2291 103.068 87.2291 103.42C87.2291 103.697 87.3251 103.916 87.5171 104.076C87.7091 104.236 87.9437 104.353 88.2211 104.428C88.5091 104.503 88.9091 104.588 89.4211 104.684C90.1037 104.801 90.6531 104.929 91.0691 105.068C91.4957 105.196 91.8584 105.42 92.1571 105.74C92.4557 106.06 92.6051 106.508 92.6051 107.084C92.6051 107.852 92.2744 108.465 91.6131 108.924C90.9624 109.372 90.0717 109.596 88.9411 109.596ZM94.9087 107.404C95.2074 107.404 95.4527 107.511 95.6447 107.724C95.8474 107.927 95.9487 108.183 95.9487 108.492C95.9487 108.652 95.9274 108.807 95.8847 108.956C95.8527 109.105 95.7834 109.335 95.6767 109.644L94.9247 111.868H93.9167L94.5087 109.484C94.306 109.409 94.1407 109.287 94.0127 109.116C93.8954 108.935 93.8367 108.727 93.8367 108.492C93.8367 108.172 93.938 107.911 94.1407 107.708C94.3434 107.505 94.5994 107.404 94.9087 107.404ZM110.111 105.308C110.111 105.425 110.1 105.58 110.079 105.772H103.199C103.295 106.519 103.62 107.121 104.175 107.58C104.74 108.028 105.439 108.252 106.271 108.252C107.284 108.252 108.1 107.911 108.719 107.228L109.567 108.22C109.183 108.668 108.703 109.009 108.127 109.244C107.561 109.479 106.927 109.596 106.223 109.596C105.327 109.596 104.532 109.415 103.839 109.052C103.145 108.679 102.607 108.161 102.223 107.5C101.849 106.839 101.663 106.092 101.663 105.26C101.663 104.439 101.844 103.697 102.207 103.036C102.58 102.375 103.087 101.863 103.727 101.5C104.377 101.127 105.108 100.94 105.919 100.94C106.729 100.94 107.449 101.127 108.079 101.5C108.719 101.863 109.215 102.375 109.567 103.036C109.929 103.697 110.111 104.455 110.111 105.308ZM105.919 102.236C105.183 102.236 104.564 102.46 104.063 102.908C103.572 103.356 103.284 103.943 103.199 104.668H108.639C108.553 103.953 108.26 103.372 107.759 102.924C107.268 102.465 106.655 102.236 105.919 102.236ZM117.417 109.5L114.969 106.252L112.489 109.5H110.777L114.121 105.164L110.937 101.02H112.649L114.985 104.076L117.305 101.02H118.985L115.785 105.164L119.161 109.5H117.417ZM125.358 98.3H126.958V109.5H125.358V98.3ZM135.367 109.628C134.237 109.628 133.218 109.383 132.311 108.892C131.405 108.391 130.69 107.703 130.167 106.828C129.655 105.953 129.399 104.977 129.399 103.9C129.399 102.823 129.655 101.847 130.167 100.972C130.69 100.097 131.405 99.4147 132.311 98.924C133.218 98.4227 134.237 98.172 135.367 98.172C136.487 98.172 137.501 98.4227 138.407 98.924C139.314 99.4147 140.023 100.097 140.535 100.972C141.047 101.836 141.303 102.812 141.303 103.9C141.303 104.988 141.047 105.969 140.535 106.844C140.023 107.708 139.314 108.391 138.407 108.892C137.501 109.383 136.487 109.628 135.367 109.628ZM135.367 108.204C136.189 108.204 136.925 108.017 137.575 107.644C138.237 107.271 138.754 106.759 139.127 106.108C139.511 105.447 139.703 104.711 139.703 103.9C139.703 103.089 139.511 102.359 139.127 101.708C138.754 101.047 138.237 100.529 137.575 100.156C136.925 99.7827 136.189 99.596 135.367 99.596C134.546 99.596 133.799 99.7827 133.127 100.156C132.466 100.529 131.943 101.047 131.559 101.708C131.186 102.359 130.999 103.089 130.999 103.9C130.999 104.711 131.186 105.447 131.559 106.108C131.943 106.759 132.466 107.271 133.127 107.644C133.799 108.017 134.546 108.204 135.367 108.204ZM148.757 109.628C147.637 109.628 146.623 109.383 145.717 108.892C144.821 108.391 144.117 107.708 143.605 106.844C143.093 105.969 142.837 104.988 142.837 103.9C142.837 102.812 143.093 101.836 143.605 100.972C144.117 100.097 144.826 99.4147 145.733 98.924C146.639 98.4227 147.653 98.172 148.773 98.172C149.647 98.172 150.447 98.3213 151.173 98.62C151.898 98.908 152.517 99.34 153.029 99.916L151.989 100.924C151.146 100.039 150.095 99.596 148.837 99.596C148.005 99.596 147.253 99.7827 146.581 100.156C145.909 100.529 145.381 101.047 144.997 101.708C144.623 102.359 144.437 103.089 144.437 103.9C144.437 104.711 144.623 105.447 144.997 106.108C145.381 106.759 145.909 107.271 146.581 107.644C147.253 108.017 148.005 108.204 148.837 108.204C150.085 108.204 151.135 107.756 151.989 106.86L153.029 107.868C152.517 108.444 151.893 108.881 151.157 109.18C150.431 109.479 149.631 109.628 148.757 109.628Z" fill="#1B3B64"/>
</g>
</g>
<defs>
<filter id="filter0_i_1_3007" x="0" y="0" width="185" height="193" filterUnits="userSpaceOnUse" color-interpolation-filters="sRGB">
<feFlood flood-opacity="0" result="BackgroundImageFix"/>
<feBlend mode="normal" in="SourceGraphic" in2="BackgroundImageFix" result="shape"/>
<feColorMatrix in="SourceAlpha" type="matrix" values="0 0 0 0 0 0 0 0 0 0 0 0 0 0 0 0 0 0 127 0" result="hardAlpha"/>
<feOffset dy="8"/>
<feGaussianBlur stdDeviation="24"/>
<feComposite in2="hardAlpha" operator="arithmetic" k2="-1" k3="1"/>
<feColorMatrix type="matrix" values="0 0 0 0 0.313726 0 0 0 0 0.415686 0 0 0 0 0.686275 0 0 0 1 0"/>
<feBlend mode="normal" in2="shape" result="effect1_innerShadow_1_3007"/>
</filter>
<filter id="filter1_di_1_3007" x="2" y="5" width="181" height="181" filterUnits="userSpaceOnUse" color-interpolation-filters="sRGB">
<feFlood flood-opacity="0" result="BackgroundImageFix"/>
<feColorMatrix in="SourceAlpha" type="matrix" values="0 0 0 0 0 0 0 0 0 0 0 0 0 0 0 0 0 0 127 0" result="hardAlpha"/>
<feOffset dy="3"/>
<feGaussianBlur stdDeviation="4"/>
<feComposite in2="hardAlpha" operator="out"/>
<feColorMatrix type="matrix" values="0 0 0 0 0.666667 0 0 0 0 0.666667 0 0 0 0 0.666667 0 0 0 1 0"/>
<feBlend mode="normal" in2="BackgroundImageFix" result="effect1_dropShadow_1_3007"/>
<feBlend mode="normal" in="SourceGraphic" in2="effect1_dropShadow_1_3007" result="shape"/>
<feColorMatrix in="SourceAlpha" type="matrix" values="0 0 0 0 0 0 0 0 0 0 0 0 0 0 0 0 0 0 127 0" result="hardAlpha"/>
<feOffset dy="2"/>
<feGaussianBlur stdDeviation="1.5"/>
<feComposite in2="hardAlpha" operator="arithmetic" k2="-1" k3="1"/>
<feColorMatrix type="matrix" values="0 0 0 0 1 0 0 0 0 1 0 0 0 0 1 0 0 0 1 0"/>
<feBlend mode="normal" in2="shape" result="effect2_innerShadow_1_3007"/>
</filter>
<linearGradient id="paint0_linear_1_3007" x1="92.5" y1="93.5" x2="92.5" y2="91.5" gradientUnits="userSpaceOnUse">
<stop stop-color="white"/>
<stop stop-color="#DDDDDD"/>
</linearGradient>
</defs>
</svg>
