<svg width="185" height="186" viewBox="0 0 185 186" fill="none" xmlns="http://www.w3.org/2000/svg">
<g filter="url(#filter0_i_1_3022)">
<rect width="185" height="185" rx="92.5" fill="white" fill-opacity="0.01"/>
<mask id="path-2-inside-1_1_3022" fill="white">
<path d="M0 92.5H185V94.5H0V92.5Z"/>
</mask>
<path d="M0 93.5H185V91.5H0V93.5ZM185 93.5H0V95.5H185V93.5Z" fill="url(#paint0_linear_1_3022)" mask="url(#path-2-inside-1_1_3022)"/>
<g filter="url(#filter1_di_1_3022)">
<rect x="10" y="10" width="165" height="165" rx="82.5" fill="#F7F7F7" shape-rendering="crispEdges"/>
<path d="M61.7635 62.3V73.5H60.4515L53.7315 65.148V73.5H52.1315V62.3H53.4435L60.1635 70.652V62.3H61.7635ZM72.5558 69.308C72.5558 69.4253 72.5452 69.58 72.5238 69.772H65.6438C65.7398 70.5187 66.0652 71.1213 66.6198 71.58C67.1852 72.028 67.8838 72.252 68.7158 72.252C69.7292 72.252 70.5452 71.9107 71.1638 71.228L72.0118 72.22C71.6278 72.668 71.1478 73.0093 70.5718 73.244C70.0065 73.4787 69.3718 73.596 68.6678 73.596C67.7718 73.596 66.9772 73.4147 66.2838 73.052C65.5905 72.6787 65.0518 72.1613 64.6678 71.5C64.2945 70.8387 64.1078 70.092 64.1078 69.26C64.1078 68.4387 64.2892 67.6973 64.6518 67.036C65.0252 66.3747 65.5318 65.8627 66.1718 65.5C66.8225 65.1267 67.5532 64.94 68.3638 64.94C69.1745 64.94 69.8945 65.1267 70.5238 65.5C71.1638 65.8627 71.6598 66.3747 72.0118 67.036C72.3745 67.6973 72.5558 68.4547 72.5558 69.308ZM68.3638 66.236C67.6278 66.236 67.0092 66.46 66.5078 66.908C66.0172 67.356 65.7292 67.9427 65.6438 68.668H71.0838C70.9985 67.9533 70.7052 67.372 70.2038 66.924C69.7132 66.4653 69.0998 66.236 68.3638 66.236ZM79.8623 73.5L77.4143 70.252L74.9343 73.5H73.2223L76.5663 69.164L73.3823 65.02H75.0943L77.4303 68.076L79.7503 65.02H81.4303L78.2303 69.164L81.6063 73.5H79.8623ZM88.0505 73.004C87.8265 73.196 87.5491 73.3453 87.2185 73.452C86.8878 73.548 86.5465 73.596 86.1945 73.596C85.3411 73.596 84.6798 73.3667 84.2105 72.908C83.7411 72.4493 83.5065 71.7933 83.5065 70.94V66.284H82.0665V65.02H83.5065V63.164H85.0425V65.02H87.4745V66.284H85.0425V70.876C85.0425 71.3347 85.1545 71.6867 85.3785 71.932C85.6131 72.1773 85.9438 72.3 86.3705 72.3C86.8398 72.3 87.2398 72.1667 87.5705 71.9L88.0505 73.004ZM94.4283 62.3H96.0283V72.108H102.092V73.5H94.4283V62.3ZM111.259 69.308C111.259 69.4253 111.248 69.58 111.227 69.772H104.347C104.443 70.5187 104.768 71.1213 105.323 71.58C105.888 72.028 106.587 72.252 107.419 72.252C108.432 72.252 109.248 71.9107 109.867 71.228L110.715 72.22C110.331 72.668 109.851 73.0093 109.275 73.244C108.71 73.4787 108.075 73.596 107.371 73.596C106.475 73.596 105.68 73.4147 104.987 73.052C104.294 72.6787 103.755 72.1613 103.371 71.5C102.998 70.8387 102.811 70.092 102.811 69.26C102.811 68.4387 102.992 67.6973 103.355 67.036C103.728 66.3747 104.235 65.8627 104.875 65.5C105.526 65.1267 106.256 64.94 107.067 64.94C107.878 64.94 108.598 65.1267 109.227 65.5C109.867 65.8627 110.363 66.3747 110.715 67.036C111.078 67.6973 111.259 68.4547 111.259 69.308ZM107.067 66.236C106.331 66.236 105.712 66.46 105.211 66.908C104.72 67.356 104.432 67.9427 104.347 68.668H109.787C109.702 67.9533 109.408 67.372 108.907 66.924C108.416 66.4653 107.803 66.236 107.067 66.236ZM120.74 65.02L117.028 73.5H115.46L111.748 65.02H113.348L116.26 71.82L119.236 65.02H120.74ZM129.603 69.308C129.603 69.4253 129.592 69.58 129.571 69.772H122.691C122.787 70.5187 123.112 71.1213 123.667 71.58C124.232 72.028 124.931 72.252 125.763 72.252C126.776 72.252 127.592 71.9107 128.211 71.228L129.059 72.22C128.675 72.668 128.195 73.0093 127.619 73.244C127.053 73.4787 126.419 73.596 125.715 73.596C124.819 73.596 124.024 73.4147 123.331 73.052C122.637 72.6787 122.099 72.1613 121.715 71.5C121.341 70.8387 121.155 70.092 121.155 69.26C121.155 68.4387 121.336 67.6973 121.699 67.036C122.072 66.3747 122.579 65.8627 123.219 65.5C123.869 65.1267 124.6 64.94 125.411 64.94C126.221 64.94 126.941 65.1267 127.571 65.5C128.211 65.8627 128.707 66.3747 129.059 67.036C129.421 67.6973 129.603 68.4547 129.603 69.308ZM125.411 66.236C124.675 66.236 124.056 66.46 123.555 66.908C123.064 67.356 122.776 67.9427 122.691 68.668H128.131C128.045 67.9533 127.752 67.372 127.251 66.924C126.76 66.4653 126.147 66.236 125.411 66.236ZM131.736 61.628H133.272V73.5H131.736V61.628ZM42.9442 97.628C41.8242 97.628 40.8108 97.3827 39.9042 96.892C39.0082 96.3907 38.3042 95.708 37.7922 94.844C37.2802 93.9693 37.0242 92.988 37.0242 91.9C37.0242 90.812 37.2802 89.836 37.7922 88.972C38.3042 88.0973 39.0135 87.4147 39.9202 86.924C40.8268 86.4227 41.8402 86.172 42.9602 86.172C43.8348 86.172 44.6348 86.3213 45.3602 86.62C46.0855 86.908 46.7042 87.34 47.2162 87.916L46.1762 88.924C45.3335 88.0387 44.2828 87.596 43.0242 87.596C42.1922 87.596 41.4402 87.7827 40.7682 88.156C40.0962 88.5293 39.5682 89.0467 39.1842 89.708C38.8108 90.3587 38.6242 91.0893 38.6242 91.9C38.6242 92.7107 38.8108 93.4467 39.1842 94.108C39.5682 94.7587 40.0962 95.2707 40.7682 95.644C41.4402 96.0173 42.1922 96.204 43.0242 96.204C44.2722 96.204 45.3228 95.756 46.1762 94.86L47.2162 95.868C46.7042 96.444 46.0802 96.8813 45.3442 97.18C44.6188 97.4787 43.8188 97.628 42.9442 97.628ZM52.5473 97.596C51.7046 97.596 50.9473 97.4093 50.2753 97.036C49.6033 96.6627 49.0753 96.1507 48.6913 95.5C48.318 94.8387 48.1313 94.092 48.1313 93.26C48.1313 92.428 48.318 91.6867 48.6913 91.036C49.0753 90.3747 49.6033 89.8627 50.2753 89.5C50.9473 89.1267 51.7046 88.94 52.5473 88.94C53.39 88.94 54.142 89.1267 54.8033 89.5C55.4753 89.8627 55.998 90.3747 56.3713 91.036C56.7553 91.6867 56.9473 92.428 56.9473 93.26C56.9473 94.092 56.7553 94.8387 56.3713 95.5C55.998 96.1507 55.4753 96.6627 54.8033 97.036C54.142 97.4093 53.39 97.596 52.5473 97.596ZM52.5473 96.252C53.0913 96.252 53.5766 96.1293 54.0033 95.884C54.4406 95.628 54.782 95.276 55.0273 94.828C55.2726 94.3693 55.3953 93.8467 55.3953 93.26C55.3953 92.6733 55.2726 92.156 55.0273 91.708C54.782 91.2493 54.4406 90.8973 54.0033 90.652C53.5766 90.4067 53.0913 90.284 52.5473 90.284C52.0033 90.284 51.5126 90.4067 51.0753 90.652C50.6486 90.8973 50.3073 91.2493 50.0513 91.708C49.806 92.156 49.6833 92.6733 49.6833 93.26C49.6833 93.8467 49.806 94.3693 50.0513 94.828C50.3073 95.276 50.6486 95.628 51.0753 95.884C51.5126 96.1293 52.0033 96.252 52.5473 96.252ZM69.6795 88.94C70.7462 88.94 71.5889 89.2493 72.2075 89.868C72.8369 90.4867 73.1515 91.404 73.1515 92.62V97.5H71.6155V92.796C71.6155 91.9747 71.4235 91.356 71.0395 90.94C70.6662 90.524 70.1275 90.316 69.4235 90.316C68.6449 90.316 68.0262 90.5613 67.5675 91.052C67.1089 91.532 66.8795 92.2253 66.8795 93.132V97.5H65.3435V92.796C65.3435 91.9747 65.1515 91.356 64.7675 90.94C64.3942 90.524 63.8555 90.316 63.1515 90.316C62.3729 90.316 61.7542 90.5613 61.2955 91.052C60.8369 91.532 60.6075 92.2253 60.6075 93.132V97.5H59.0715V89.02H60.5435V90.284C60.8529 89.8467 61.2582 89.516 61.7595 89.292C62.2609 89.0573 62.8315 88.94 63.4715 88.94C64.1329 88.94 64.7195 89.0733 65.2315 89.34C65.7435 89.6067 66.1382 89.996 66.4155 90.508C66.7355 90.0173 67.1782 89.6333 67.7435 89.356C68.3195 89.0787 68.9649 88.94 69.6795 88.94ZM80.4738 88.94C81.2951 88.94 82.0311 89.1213 82.6818 89.484C83.3325 89.8467 83.8391 90.3533 84.2018 91.004C84.5751 91.6547 84.7618 92.4067 84.7618 93.26C84.7618 94.1133 84.5751 94.8707 84.2018 95.532C83.8391 96.1827 83.3325 96.6893 82.6818 97.052C82.0311 97.4147 81.2951 97.596 80.4738 97.596C79.8658 97.596 79.3058 97.4787 78.7938 97.244C78.2925 97.0093 77.8658 96.668 77.5138 96.22V100.604H75.9778V89.02H77.4498V90.364C77.7911 89.8947 78.2231 89.5427 78.7458 89.308C79.2685 89.0627 79.8445 88.94 80.4738 88.94ZM80.3458 96.252C80.8898 96.252 81.3751 96.1293 81.8018 95.884C82.2391 95.628 82.5805 95.276 82.8258 94.828C83.0818 94.3693 83.2098 93.8467 83.2098 93.26C83.2098 92.6733 83.0818 92.156 82.8258 91.708C82.5805 91.2493 82.2391 90.8973 81.8018 90.652C81.3751 90.4067 80.8898 90.284 80.3458 90.284C79.8125 90.284 79.3271 90.412 78.8898 90.668C78.4631 90.9133 78.1218 91.26 77.8658 91.708C77.6205 92.156 77.4978 92.6733 77.4978 93.26C77.4978 93.8467 77.6205 94.3693 77.8658 94.828C78.1111 95.276 78.4525 95.628 78.8898 95.884C79.3271 96.1293 79.8125 96.252 80.3458 96.252ZM86.884 85.628H88.42V97.5H86.884V85.628ZM91.3528 89.02H92.8888V97.5H91.3528V89.02ZM92.1208 87.388C91.8221 87.388 91.5715 87.292 91.3688 87.1C91.1768 86.908 91.0808 86.6733 91.0808 86.396C91.0808 86.1187 91.1768 85.884 91.3688 85.692C91.5715 85.4893 91.8221 85.388 92.1208 85.388C92.4195 85.388 92.6648 85.484 92.8568 85.676C93.0595 85.8573 93.1608 86.0867 93.1608 86.364C93.1608 86.652 93.0595 86.8973 92.8568 87.1C92.6648 87.292 92.4195 87.388 92.1208 87.388ZM98.9095 88.94C100.083 88.94 100.979 89.228 101.598 89.804C102.227 90.38 102.542 91.2387 102.542 92.38V97.5H101.086V96.38C100.83 96.7747 100.462 97.0787 99.9815 97.292C99.5122 97.4947 98.9522 97.596 98.3015 97.596C97.3522 97.596 96.5895 97.3667 96.0135 96.908C95.4482 96.4493 95.1655 95.8467 95.1655 95.1C95.1655 94.3533 95.4375 93.756 95.9815 93.308C96.5255 92.8493 97.3895 92.62 98.5735 92.62H101.006V92.316C101.006 91.6547 100.814 91.148 100.43 90.796C100.046 90.444 99.4802 90.268 98.7335 90.268C98.2322 90.268 97.7415 90.3533 97.2615 90.524C96.7815 90.684 96.3762 90.9027 96.0455 91.18L95.4055 90.028C95.8429 89.676 96.3655 89.4093 96.9735 89.228C97.5815 89.036 98.2269 88.94 98.9095 88.94ZM98.5575 96.412C99.1442 96.412 99.6509 96.284 100.078 96.028C100.504 95.7613 100.814 95.388 101.006 94.908V93.724H98.6375C97.3362 93.724 96.6855 94.1613 96.6855 95.036C96.6855 95.4627 96.8509 95.7987 97.1815 96.044C97.5122 96.2893 97.9709 96.412 98.5575 96.412ZM109.912 88.94C110.989 88.94 111.843 89.2547 112.472 89.884C113.112 90.5027 113.432 91.4147 113.432 92.62V97.5H111.896V92.796C111.896 91.9747 111.699 91.356 111.304 90.94C110.909 90.524 110.344 90.316 109.608 90.316C108.776 90.316 108.12 90.5613 107.64 91.052C107.16 91.532 106.92 92.2253 106.92 93.132V97.5H105.384V89.02H106.856V90.3C107.165 89.8627 107.581 89.5267 108.104 89.292C108.637 89.0573 109.24 88.94 109.912 88.94ZM120.018 97.596C119.154 97.596 118.38 97.4093 117.698 97.036C117.026 96.6627 116.498 96.1507 116.114 95.5C115.73 94.8387 115.538 94.092 115.538 93.26C115.538 92.428 115.73 91.6867 116.114 91.036C116.498 90.3747 117.026 89.8627 117.698 89.5C118.38 89.1267 119.154 88.94 120.018 88.94C120.786 88.94 121.468 89.0947 122.066 89.404C122.674 89.7133 123.143 90.1613 123.474 90.748L122.306 91.5C122.039 91.0947 121.708 90.7907 121.314 90.588C120.919 90.3853 120.482 90.284 120.002 90.284C119.447 90.284 118.946 90.4067 118.498 90.652C118.06 90.8973 117.714 91.2493 117.458 91.708C117.212 92.156 117.09 92.6733 117.09 93.26C117.09 93.8573 117.212 94.3853 117.458 94.844C117.714 95.292 118.06 95.6387 118.498 95.884C118.946 96.1293 119.447 96.252 120.002 96.252C120.482 96.252 120.919 96.1507 121.314 95.948C121.708 95.7453 122.039 95.4413 122.306 95.036L123.474 95.772C123.143 96.3587 122.674 96.812 122.066 97.132C121.468 97.4413 120.786 97.596 120.018 97.596ZM133.001 93.308C133.001 93.4253 132.99 93.58 132.969 93.772H126.089C126.185 94.5187 126.51 95.1213 127.065 95.58C127.63 96.028 128.329 96.252 129.161 96.252C130.174 96.252 130.99 95.9107 131.609 95.228L132.457 96.22C132.073 96.668 131.593 97.0093 131.017 97.244C130.452 97.4787 129.817 97.596 129.113 97.596C128.217 97.596 127.422 97.4147 126.729 97.052C126.036 96.6787 125.497 96.1613 125.113 95.5C124.74 94.8387 124.553 94.092 124.553 93.26C124.553 92.4387 124.734 91.6973 125.097 91.036C125.47 90.3747 125.977 89.8627 126.617 89.5C127.268 89.1267 127.998 88.94 128.809 88.94C129.62 88.94 130.34 89.1267 130.969 89.5C131.609 89.8627 132.105 90.3747 132.457 91.036C132.82 91.6973 133.001 92.4547 133.001 93.308ZM128.809 90.236C128.073 90.236 127.454 90.46 126.953 90.908C126.462 91.356 126.174 91.9427 126.089 92.668H131.529C131.444 91.9533 131.15 91.372 130.649 90.924C130.158 90.4653 129.545 90.236 128.809 90.236ZM147.847 97.676L146.359 96.188C145.367 97.148 144.119 97.628 142.615 97.628C141.868 97.628 141.196 97.5053 140.599 97.26C140.002 97.0147 139.532 96.6733 139.191 96.236C138.86 95.788 138.695 95.2813 138.695 94.716C138.695 94.0333 138.903 93.4307 139.319 92.908C139.746 92.3747 140.444 91.8307 141.415 91.276C140.924 90.7853 140.578 90.3427 140.375 89.948C140.172 89.5533 140.071 89.1427 140.071 88.716C140.071 87.9587 140.343 87.3507 140.887 86.892C141.442 86.4333 142.178 86.204 143.095 86.204C143.948 86.204 144.626 86.412 145.127 86.828C145.628 87.244 145.879 87.8147 145.879 88.54C145.879 89.1053 145.692 89.612 145.319 90.06C144.956 90.508 144.348 90.9773 143.495 91.468L146.263 94.22C146.583 93.612 146.812 92.9347 146.951 92.188L148.183 92.588C147.991 93.5693 147.666 94.4227 147.207 95.148L148.711 96.652L147.847 97.676ZM143.095 87.324C142.594 87.324 142.199 87.452 141.911 87.708C141.634 87.9533 141.495 88.2787 141.495 88.684C141.495 88.972 141.57 89.2493 141.719 89.516C141.879 89.7827 142.183 90.1453 142.631 90.604C143.367 90.188 143.874 89.8307 144.151 89.532C144.439 89.2333 144.583 88.908 144.583 88.556C144.583 88.1827 144.45 87.884 144.183 87.66C143.927 87.436 143.564 87.324 143.095 87.324ZM142.711 96.348C143.82 96.348 144.732 95.996 145.447 95.292L142.263 92.124C141.495 92.5507 140.956 92.9507 140.647 93.324C140.348 93.6867 140.199 94.0973 140.199 94.556C140.199 95.0893 140.428 95.5213 140.887 95.852C141.356 96.1827 141.964 96.348 142.711 96.348ZM53.3212 115.836H54.8572V120.204C54.3025 120.663 53.6572 121.015 52.9212 121.26C52.1852 121.505 51.4172 121.628 50.6172 121.628C49.4865 121.628 48.4678 121.383 47.5612 120.892C46.6545 120.391 45.9398 119.708 45.4172 118.844C44.9052 117.969 44.6492 116.988 44.6492 115.9C44.6492 114.812 44.9052 113.831 45.4172 112.956C45.9398 112.081 46.6545 111.399 47.5612 110.908C48.4785 110.417 49.5078 110.172 50.6492 110.172C51.5452 110.172 52.3558 110.321 53.0812 110.62C53.8172 110.908 54.4412 111.335 54.9532 111.9L53.9612 112.892C53.0652 112.028 51.9825 111.596 50.7132 111.596C49.8598 111.596 49.0918 111.783 48.4092 112.156C47.7372 112.519 47.2092 113.031 46.8252 113.692C46.4412 114.343 46.2492 115.079 46.2492 115.9C46.2492 116.711 46.4412 117.447 46.8252 118.108C47.2092 118.759 47.7372 119.271 48.4092 119.644C49.0918 120.017 49.8545 120.204 50.6972 120.204C51.6998 120.204 52.5745 119.964 53.3212 119.484V115.836ZM61.3285 121.596C60.4859 121.596 59.7285 121.409 59.0565 121.036C58.3845 120.663 57.8565 120.151 57.4725 119.5C57.0992 118.839 56.9125 118.092 56.9125 117.26C56.9125 116.428 57.0992 115.687 57.4725 115.036C57.8565 114.375 58.3845 113.863 59.0565 113.5C59.7285 113.127 60.4859 112.94 61.3285 112.94C62.1712 112.94 62.9232 113.127 63.5845 113.5C64.2565 113.863 64.7792 114.375 65.1525 115.036C65.5365 115.687 65.7285 116.428 65.7285 117.26C65.7285 118.092 65.5365 118.839 65.1525 119.5C64.7792 120.151 64.2565 120.663 63.5845 121.036C62.9232 121.409 62.1712 121.596 61.3285 121.596ZM61.3285 120.252C61.8725 120.252 62.3579 120.129 62.7845 119.884C63.2219 119.628 63.5632 119.276 63.8085 118.828C64.0539 118.369 64.1765 117.847 64.1765 117.26C64.1765 116.673 64.0539 116.156 63.8085 115.708C63.5632 115.249 63.2219 114.897 62.7845 114.652C62.3579 114.407 61.8725 114.284 61.3285 114.284C60.7845 114.284 60.2939 114.407 59.8565 114.652C59.4299 114.897 59.0885 115.249 58.8325 115.708C58.5872 116.156 58.4645 116.673 58.4645 117.26C58.4645 117.847 58.5872 118.369 58.8325 118.828C59.0885 119.276 59.4299 119.628 59.8565 119.884C60.2939 120.129 60.7845 120.252 61.3285 120.252ZM75.1224 113.02L71.4104 121.5H69.8424L66.1304 113.02H67.7304L70.6424 119.82L73.6184 113.02H75.1224ZM83.9855 117.308C83.9855 117.425 83.9749 117.58 83.9535 117.772H77.0735C77.1695 118.519 77.4949 119.121 78.0495 119.58C78.6149 120.028 79.3135 120.252 80.1455 120.252C81.1589 120.252 81.9749 119.911 82.5935 119.228L83.4415 120.22C83.0575 120.668 82.5775 121.009 82.0015 121.244C81.4362 121.479 80.8015 121.596 80.0975 121.596C79.2015 121.596 78.4069 121.415 77.7135 121.052C77.0202 120.679 76.4815 120.161 76.0975 119.5C75.7242 118.839 75.5375 118.092 75.5375 117.26C75.5375 116.439 75.7189 115.697 76.0815 115.036C76.4549 114.375 76.9615 113.863 77.6015 113.5C78.2522 113.127 78.9829 112.94 79.7935 112.94C80.6042 112.94 81.3242 113.127 81.9535 113.5C82.5935 113.863 83.0895 114.375 83.4415 115.036C83.8042 115.697 83.9855 116.455 83.9855 117.308ZM79.7935 114.236C79.0575 114.236 78.4389 114.46 77.9375 114.908C77.4469 115.356 77.1589 115.943 77.0735 116.668H82.5135C82.4282 115.953 82.1349 115.372 81.6335 114.924C81.1429 114.465 80.5295 114.236 79.7935 114.236ZM87.5904 114.444C87.8571 113.953 88.2517 113.58 88.7744 113.324C89.2971 113.068 89.9317 112.94 90.6784 112.94V114.428C90.5931 114.417 90.4757 114.412 90.3264 114.412C89.4944 114.412 88.8384 114.663 88.3584 115.164C87.8891 115.655 87.6544 116.359 87.6544 117.276V121.5H86.1184V113.02H87.5904V114.444ZM97.0995 112.94C98.1769 112.94 99.0302 113.255 99.6595 113.884C100.3 114.503 100.62 115.415 100.62 116.62V121.5H99.0835V116.796C99.0835 115.975 98.8862 115.356 98.4915 114.94C98.0969 114.524 97.5315 114.316 96.7955 114.316C95.9635 114.316 95.3075 114.561 94.8275 115.052C94.3475 115.532 94.1075 116.225 94.1075 117.132V121.5H92.5715V113.02H94.0435V114.3C94.3529 113.863 94.7689 113.527 95.2915 113.292C95.8249 113.057 96.4275 112.94 97.0995 112.94ZM106.55 112.94C107.723 112.94 108.619 113.228 109.238 113.804C109.867 114.38 110.182 115.239 110.182 116.38V121.5H108.726V120.38C108.47 120.775 108.102 121.079 107.622 121.292C107.153 121.495 106.593 121.596 105.942 121.596C104.993 121.596 104.23 121.367 103.654 120.908C103.089 120.449 102.806 119.847 102.806 119.1C102.806 118.353 103.078 117.756 103.622 117.308C104.166 116.849 105.03 116.62 106.214 116.62H108.646V116.316C108.646 115.655 108.454 115.148 108.07 114.796C107.686 114.444 107.121 114.268 106.374 114.268C105.873 114.268 105.382 114.353 104.902 114.524C104.422 114.684 104.017 114.903 103.686 115.18L103.046 114.028C103.483 113.676 104.006 113.409 104.614 113.228C105.222 113.036 105.867 112.94 106.55 112.94ZM106.198 120.412C106.785 120.412 107.291 120.284 107.718 120.028C108.145 119.761 108.454 119.388 108.646 118.908V117.724H106.278C104.977 117.724 104.326 118.161 104.326 119.036C104.326 119.463 104.491 119.799 104.822 120.044C105.153 120.289 105.611 120.412 106.198 120.412ZM117.553 112.94C118.63 112.94 119.483 113.255 120.113 113.884C120.753 114.503 121.073 115.415 121.073 116.62V121.5H119.537V116.796C119.537 115.975 119.339 115.356 118.945 114.94C118.55 114.524 117.985 114.316 117.249 114.316C116.417 114.316 115.761 114.561 115.281 115.052C114.801 115.532 114.561 116.225 114.561 117.132V121.5H113.025V113.02H114.497V114.3C114.806 113.863 115.222 113.527 115.745 113.292C116.278 113.057 116.881 112.94 117.553 112.94ZM127.658 121.596C126.794 121.596 126.021 121.409 125.338 121.036C124.666 120.663 124.138 120.151 123.754 119.5C123.37 118.839 123.178 118.092 123.178 117.26C123.178 116.428 123.37 115.687 123.754 115.036C124.138 114.375 124.666 113.863 125.338 113.5C126.021 113.127 126.794 112.94 127.658 112.94C128.426 112.94 129.109 113.095 129.706 113.404C130.314 113.713 130.783 114.161 131.114 114.748L129.946 115.5C129.679 115.095 129.349 114.791 128.954 114.588C128.559 114.385 128.122 114.284 127.642 114.284C127.087 114.284 126.586 114.407 126.138 114.652C125.701 114.897 125.354 115.249 125.098 115.708C124.853 116.156 124.73 116.673 124.73 117.26C124.73 117.857 124.853 118.385 125.098 118.844C125.354 119.292 125.701 119.639 126.138 119.884C126.586 120.129 127.087 120.252 127.642 120.252C128.122 120.252 128.559 120.151 128.954 119.948C129.349 119.745 129.679 119.441 129.946 119.036L131.114 119.772C130.783 120.359 130.314 120.812 129.706 121.132C129.109 121.441 128.426 121.596 127.658 121.596ZM140.642 117.308C140.642 117.425 140.631 117.58 140.61 117.772H133.73C133.826 118.519 134.151 119.121 134.706 119.58C135.271 120.028 135.97 120.252 136.802 120.252C137.815 120.252 138.631 119.911 139.25 119.228L140.098 120.22C139.714 120.668 139.234 121.009 138.658 121.244C138.092 121.479 137.458 121.596 136.754 121.596C135.858 121.596 135.063 121.415 134.37 121.052C133.676 120.679 133.138 120.161 132.754 119.5C132.38 118.839 132.194 118.092 132.194 117.26C132.194 116.439 132.375 115.697 132.738 115.036C133.111 114.375 133.618 113.863 134.258 113.5C134.908 113.127 135.639 112.94 136.45 112.94C137.26 112.94 137.98 113.127 138.61 113.5C139.25 113.863 139.746 114.375 140.098 115.036C140.46 115.697 140.642 116.455 140.642 117.308ZM136.45 114.236C135.714 114.236 135.095 114.46 134.594 114.908C134.103 115.356 133.815 115.943 133.73 116.668H139.17C139.084 115.953 138.791 115.372 138.29 114.924C137.799 114.465 137.186 114.236 136.45 114.236Z" fill="#1B3B64"/>
</g>
</g>
<defs>
<filter id="filter0_i_1_3022" x="0" y="0" width="185" height="193" filterUnits="userSpaceOnUse" color-interpolation-filters="sRGB">
<feFlood flood-opacity="0" result="BackgroundImageFix"/>
<feBlend mode="normal" in="SourceGraphic" in2="BackgroundImageFix" result="shape"/>
<feColorMatrix in="SourceAlpha" type="matrix" values="0 0 0 0 0 0 0 0 0 0 0 0 0 0 0 0 0 0 127 0" result="hardAlpha"/>
<feOffset dy="8"/>
<feGaussianBlur stdDeviation="24"/>
<feComposite in2="hardAlpha" operator="arithmetic" k2="-1" k3="1"/>
<feColorMatrix type="matrix" values="0 0 0 0 0.313726 0 0 0 0 0.415686 0 0 0 0 0.686275 0 0 0 1 0"/>
<feBlend mode="normal" in2="shape" result="effect1_innerShadow_1_3022"/>
</filter>
<filter id="filter1_di_1_3022" x="2" y="5" width="181" height="181" filterUnits="userSpaceOnUse" color-interpolation-filters="sRGB">
<feFlood flood-opacity="0" result="BackgroundImageFix"/>
<feColorMatrix in="SourceAlpha" type="matrix" values="0 0 0 0 0 0 0 0 0 0 0 0 0 0 0 0 0 0 127 0" result="hardAlpha"/>
<feOffset dy="3"/>
<feGaussianBlur stdDeviation="4"/>
<feComposite in2="hardAlpha" operator="out"/>
<feColorMatrix type="matrix" values="0 0 0 0 0.666667 0 0 0 0 0.666667 0 0 0 0 0.666667 0 0 0 1 0"/>
<feBlend mode="normal" in2="BackgroundImageFix" result="effect1_dropShadow_1_3022"/>
<feBlend mode="normal" in="SourceGraphic" in2="effect1_dropShadow_1_3022" result="shape"/>
<feColorMatrix in="SourceAlpha" type="matrix" values="0 0 0 0 0 0 0 0 0 0 0 0 0 0 0 0 0 0 127 0" result="hardAlpha"/>
<feOffset dy="2"/>
<feGaussianBlur stdDeviation="1.5"/>
<feComposite in2="hardAlpha" operator="arithmetic" k2="-1" k3="1"/>
<feColorMatrix type="matrix" values="0 0 0 0 1 0 0 0 0 1 0 0 0 0 1 0 0 0 1 0"/>
<feBlend mode="normal" in2="shape" result="effect2_innerShadow_1_3022"/>
</filter>
<linearGradient id="paint0_linear_1_3022" x1="92.5" y1="93.5" x2="92.5" y2="91.5" gradientUnits="userSpaceOnUse">
<stop stop-color="white"/>
<stop stop-color="#DDDDDD"/>
</linearGradient>
</defs>
</svg>
