<svg width="185" height="186" viewBox="0 0 185 186" fill="none" xmlns="http://www.w3.org/2000/svg">
<g filter="url(#filter0_i_1_2992)">
<rect width="185" height="185" rx="92.5" fill="white" fill-opacity="0.01"/>
<mask id="path-2-inside-1_1_2992" fill="white">
<path d="M0 92.5H185V94.5H0V92.5Z"/>
</mask>
<path d="M0 93.5H185V91.5H0V93.5ZM185 93.5H0V95.5H185V93.5Z" fill="url(#paint0_linear_1_2992)" mask="url(#path-2-inside-1_1_2992)"/>
<g filter="url(#filter1_di_1_2992)">
<rect x="10" y="10" width="165" height="165" rx="82.5" fill="#F7F7F7" shape-rendering="crispEdges"/>
<path d="M43.6824 88.692V92.596H49.2984V93.972H43.6824V98.5H42.0824V87.3H49.9864V88.692H43.6824ZM54.8058 89.94C55.9791 89.94 56.8751 90.228 57.4938 90.804C58.1231 91.38 58.4378 92.2387 58.4378 93.38V98.5H56.9818V97.38C56.7258 97.7747 56.3578 98.0787 55.8778 98.292C55.4085 98.4947 54.8485 98.596 54.1978 98.596C53.2485 98.596 52.4858 98.3667 51.9098 97.908C51.3445 97.4493 51.0618 96.8467 51.0618 96.1C51.0618 95.3533 51.3338 94.756 51.8778 94.308C52.4218 93.8493 53.2858 93.62 54.4698 93.62H56.9018V93.316C56.9018 92.6547 56.7098 92.148 56.3258 91.796C55.9418 91.444 55.3765 91.268 54.6298 91.268C54.1285 91.268 53.6378 91.3533 53.1578 91.524C52.6778 91.684 52.2725 91.9027 51.9418 92.18L51.3018 91.028C51.7391 90.676 52.2618 90.4093 52.8698 90.228C53.4778 90.036 54.1231 89.94 54.8058 89.94ZM54.4538 97.412C55.0405 97.412 55.5471 97.284 55.9738 97.028C56.4005 96.7613 56.7098 96.388 56.9018 95.908V94.724H54.5338C53.2325 94.724 52.5818 95.1613 52.5818 96.036C52.5818 96.4627 52.7471 96.7987 53.0778 97.044C53.4085 97.2893 53.8671 97.412 54.4538 97.412ZM63.7123 98.596C63.019 98.596 62.3523 98.5053 61.7123 98.324C61.0723 98.132 60.571 97.892 60.2083 97.604L60.8483 96.388C61.2216 96.6547 61.675 96.868 62.2083 97.028C62.7416 97.188 63.2803 97.268 63.8243 97.268C65.1683 97.268 65.8403 96.884 65.8403 96.116C65.8403 95.86 65.7496 95.6573 65.5683 95.508C65.387 95.3587 65.1576 95.252 64.8803 95.188C64.6136 95.1133 64.2296 95.0333 63.7283 94.948C63.0456 94.8413 62.4856 94.7187 62.0483 94.58C61.6216 94.4413 61.2536 94.2067 60.9443 93.876C60.635 93.5453 60.4803 93.0813 60.4803 92.484C60.4803 91.716 60.8003 91.1027 61.4403 90.644C62.0803 90.1747 62.939 89.94 64.0163 89.94C64.5816 89.94 65.147 90.0093 65.7123 90.148C66.2776 90.2867 66.7416 90.4733 67.1043 90.708L66.4483 91.924C65.755 91.476 64.939 91.252 64.0003 91.252C63.3496 91.252 62.8536 91.3587 62.5123 91.572C62.171 91.7853 62.0003 92.068 62.0003 92.42C62.0003 92.6973 62.0963 92.916 62.2883 93.076C62.4803 93.236 62.715 93.3533 62.9923 93.428C63.2803 93.5027 63.6803 93.588 64.1923 93.684C64.875 93.8013 65.4243 93.9293 65.8403 94.068C66.267 94.196 66.6296 94.42 66.9283 94.74C67.227 95.06 67.3763 95.508 67.3763 96.084C67.3763 96.852 67.0456 97.4653 66.3843 97.924C65.7336 98.372 64.843 98.596 63.7123 98.596ZM74.0639 98.004C73.8399 98.196 73.5626 98.3453 73.2319 98.452C72.9013 98.548 72.5599 98.596 72.2079 98.596C71.3546 98.596 70.6933 98.3667 70.2239 97.908C69.7546 97.4493 69.5199 96.7933 69.5199 95.94V91.284H68.0799V90.02H69.5199V88.164H71.0559V90.02H73.4879V91.284H71.0559V95.876C71.0559 96.3347 71.1679 96.6867 71.3919 96.932C71.6266 97.1773 71.9573 97.3 72.3839 97.3C72.8533 97.3 73.2533 97.1667 73.5839 96.9L74.0639 98.004ZM80.4418 87.3H85.1618C86.3458 87.3 87.3965 87.5347 88.3138 88.004C89.2311 88.4733 89.9405 89.1347 90.4418 89.988C90.9538 90.8307 91.2098 91.8013 91.2098 92.9C91.2098 93.9987 90.9538 94.9747 90.4418 95.828C89.9405 96.6707 89.2311 97.3267 88.3138 97.796C87.3965 98.2653 86.3458 98.5 85.1618 98.5H80.4418V87.3ZM85.0658 97.108C85.9725 97.108 86.7671 96.932 87.4498 96.58C88.1431 96.228 88.6765 95.7373 89.0498 95.108C89.4231 94.468 89.6098 93.732 89.6098 92.9C89.6098 92.068 89.4231 91.3373 89.0498 90.708C88.6765 90.068 88.1431 89.572 87.4498 89.22C86.7671 88.868 85.9725 88.692 85.0658 88.692H82.0418V97.108H85.0658ZM101.101 94.308C101.101 94.4253 101.09 94.58 101.069 94.772H94.1886C94.2846 95.5187 94.6099 96.1213 95.1646 96.58C95.7299 97.028 96.4286 97.252 97.2606 97.252C98.2739 97.252 99.0899 96.9107 99.7086 96.228L100.557 97.22C100.173 97.668 99.6926 98.0093 99.1166 98.244C98.5512 98.4787 97.9166 98.596 97.2126 98.596C96.3166 98.596 95.5219 98.4147 94.8286 98.052C94.1352 97.6787 93.5966 97.1613 93.2126 96.5C92.8392 95.8387 92.6526 95.092 92.6526 94.26C92.6526 93.4387 92.8339 92.6973 93.1966 92.036C93.5699 91.3747 94.0766 90.8627 94.7166 90.5C95.3672 90.1267 96.0979 89.94 96.9086 89.94C97.7192 89.94 98.4392 90.1267 99.0686 90.5C99.7086 90.8627 100.205 91.3747 100.557 92.036C100.919 92.6973 101.101 93.4547 101.101 94.308ZM96.9086 91.236C96.1726 91.236 95.5539 91.46 95.0526 91.908C94.5619 92.356 94.2739 92.9427 94.1886 93.668H99.6286C99.5432 92.9533 99.2499 92.372 98.7486 91.924C98.2579 91.4653 97.6446 91.236 96.9086 91.236ZM103.233 86.628H104.769V98.5H103.233V86.628ZM107.702 90.02H109.238V98.5H107.702V90.02ZM108.47 88.388C108.172 88.388 107.921 88.292 107.718 88.1C107.526 87.908 107.43 87.6733 107.43 87.396C107.43 87.1187 107.526 86.884 107.718 86.692C107.921 86.4893 108.172 86.388 108.47 86.388C108.769 86.388 109.014 86.484 109.206 86.676C109.409 86.8573 109.51 87.0867 109.51 87.364C109.51 87.652 109.409 87.8973 109.206 88.1C109.014 88.292 108.769 88.388 108.47 88.388ZM119.675 90.02L115.963 98.5H114.395L110.683 90.02H112.283L115.195 96.82L118.171 90.02H119.675ZM128.538 94.308C128.538 94.4253 128.527 94.58 128.506 94.772H121.626C121.722 95.5187 122.047 96.1213 122.602 96.58C123.167 97.028 123.866 97.252 124.698 97.252C125.711 97.252 126.527 96.9107 127.146 96.228L127.994 97.22C127.61 97.668 127.13 98.0093 126.554 98.244C125.989 98.4787 125.354 98.596 124.65 98.596C123.754 98.596 122.959 98.4147 122.266 98.052C121.573 97.6787 121.034 97.1613 120.65 96.5C120.277 95.8387 120.09 95.092 120.09 94.26C120.09 93.4387 120.271 92.6973 120.634 92.036C121.007 91.3747 121.514 90.8627 122.154 90.5C122.805 90.1267 123.535 89.94 124.346 89.94C125.157 89.94 125.877 90.1267 126.506 90.5C127.146 90.8627 127.642 91.3747 127.994 92.036C128.357 92.6973 128.538 93.4547 128.538 94.308ZM124.346 91.236C123.61 91.236 122.991 91.46 122.49 91.908C121.999 92.356 121.711 92.9427 121.626 93.668H127.066C126.981 92.9533 126.687 92.372 126.186 91.924C125.695 91.4653 125.082 91.236 124.346 91.236ZM132.143 91.444C132.41 90.9533 132.804 90.58 133.327 90.324C133.85 90.068 134.484 89.94 135.231 89.94V91.428C135.146 91.4173 135.028 91.412 134.879 91.412C134.047 91.412 133.391 91.6627 132.911 92.164C132.442 92.6547 132.207 93.3587 132.207 94.276V98.5H130.671V90.02H132.143V91.444ZM144.972 90.02L140.86 99.348C140.497 100.212 140.07 100.82 139.58 101.172C139.1 101.524 138.518 101.7 137.836 101.7C137.42 101.7 137.014 101.631 136.62 101.492C136.236 101.364 135.916 101.172 135.66 100.916L136.316 99.764C136.753 100.18 137.26 100.388 137.836 100.388C138.209 100.388 138.518 100.287 138.764 100.084C139.02 99.892 139.249 99.556 139.452 99.076L139.724 98.484L135.98 90.02H137.58L140.54 96.804L143.468 90.02H144.972Z" fill="#1B3B64"/>
</g>
</g>
<defs>
<filter id="filter0_i_1_2992" x="0" y="0" width="185" height="193" filterUnits="userSpaceOnUse" color-interpolation-filters="sRGB">
<feFlood flood-opacity="0" result="BackgroundImageFix"/>
<feBlend mode="normal" in="SourceGraphic" in2="BackgroundImageFix" result="shape"/>
<feColorMatrix in="SourceAlpha" type="matrix" values="0 0 0 0 0 0 0 0 0 0 0 0 0 0 0 0 0 0 127 0" result="hardAlpha"/>
<feOffset dy="8"/>
<feGaussianBlur stdDeviation="24"/>
<feComposite in2="hardAlpha" operator="arithmetic" k2="-1" k3="1"/>
<feColorMatrix type="matrix" values="0 0 0 0 0.231373 0 0 0 0 0.745098 0 0 0 0 0.937255 0 0 0 1 0"/>
<feBlend mode="normal" in2="shape" result="effect1_innerShadow_1_2992"/>
</filter>
<filter id="filter1_di_1_2992" x="2" y="5" width="181" height="181" filterUnits="userSpaceOnUse" color-interpolation-filters="sRGB">
<feFlood flood-opacity="0" result="BackgroundImageFix"/>
<feColorMatrix in="SourceAlpha" type="matrix" values="0 0 0 0 0 0 0 0 0 0 0 0 0 0 0 0 0 0 127 0" result="hardAlpha"/>
<feOffset dy="3"/>
<feGaussianBlur stdDeviation="4"/>
<feComposite in2="hardAlpha" operator="out"/>
<feColorMatrix type="matrix" values="0 0 0 0 0.666667 0 0 0 0 0.666667 0 0 0 0 0.666667 0 0 0 1 0"/>
<feBlend mode="normal" in2="BackgroundImageFix" result="effect1_dropShadow_1_2992"/>
<feBlend mode="normal" in="SourceGraphic" in2="effect1_dropShadow_1_2992" result="shape"/>
<feColorMatrix in="SourceAlpha" type="matrix" values="0 0 0 0 0 0 0 0 0 0 0 0 0 0 0 0 0 0 127 0" result="hardAlpha"/>
<feOffset dy="2"/>
<feGaussianBlur stdDeviation="1.5"/>
<feComposite in2="hardAlpha" operator="arithmetic" k2="-1" k3="1"/>
<feColorMatrix type="matrix" values="0 0 0 0 1 0 0 0 0 1 0 0 0 0 1 0 0 0 1 0"/>
<feBlend mode="normal" in2="shape" result="effect2_innerShadow_1_2992"/>
</filter>
<linearGradient id="paint0_linear_1_2992" x1="92.5" y1="93.5" x2="92.5" y2="91.5" gradientUnits="userSpaceOnUse">
<stop stop-color="white"/>
<stop stop-color="#DDDDDD"/>
</linearGradient>
</defs>
</svg>
