<svg width="185" height="186" viewBox="0 0 185 186" fill="none" xmlns="http://www.w3.org/2000/svg">
<g filter="url(#filter0_i_1_3012)">
<rect width="185" height="185" rx="92.5" fill="white" fill-opacity="0.01"/>
<mask id="path-2-inside-1_1_3012" fill="white">
<path d="M0 92.5H185V94.5H0V92.5Z"/>
</mask>
<path d="M0 93.5H185V91.5H0V93.5ZM185 93.5H0V95.5H185V93.5Z" fill="url(#paint0_linear_1_3012)" mask="url(#path-2-inside-1_1_3012)"/>
<g filter="url(#filter1_di_1_3012)">
<rect x="10" y="10" width="165" height="165" rx="82.5" fill="#F7F7F7" shape-rendering="crispEdges"/>
<path d="M25.1449 62.3H29.8649C31.0489 62.3 32.0996 62.5347 33.0169 63.004C33.9342 63.4733 34.6436 64.1347 35.1449 64.988C35.6569 65.8307 35.9129 66.8013 35.9129 67.9C35.9129 68.9987 35.6569 69.9747 35.1449 70.828C34.6436 71.6707 33.9342 72.3267 33.0169 72.796C32.0996 73.2653 31.0489 73.5 29.8649 73.5H25.1449V62.3ZM29.7689 72.108C30.6756 72.108 31.4702 71.932 32.1529 71.58C32.8462 71.228 33.3796 70.7373 33.7529 70.108C34.1262 69.468 34.3129 68.732 34.3129 67.9C34.3129 67.068 34.1262 66.3373 33.7529 65.708C33.3796 65.068 32.8462 64.572 32.1529 64.22C31.4702 63.868 30.6756 63.692 29.7689 63.692H26.7449V72.108H29.7689ZM45.8036 69.308C45.8036 69.4253 45.793 69.58 45.7716 69.772H38.8916C38.9876 70.5187 39.313 71.1213 39.8676 71.58C40.433 72.028 41.1316 72.252 41.9636 72.252C42.977 72.252 43.793 71.9107 44.4116 71.228L45.2596 72.22C44.8756 72.668 44.3956 73.0093 43.8196 73.244C43.2543 73.4787 42.6196 73.596 41.9156 73.596C41.0196 73.596 40.225 73.4147 39.5316 73.052C38.8383 72.6787 38.2996 72.1613 37.9156 71.5C37.5423 70.8387 37.3556 70.092 37.3556 69.26C37.3556 68.4387 37.537 67.6973 37.8996 67.036C38.273 66.3747 38.7796 65.8627 39.4196 65.5C40.0703 65.1267 40.801 64.94 41.6116 64.94C42.4223 64.94 43.1423 65.1267 43.7716 65.5C44.4116 65.8627 44.9076 66.3747 45.2596 67.036C45.6223 67.6973 45.8036 68.4547 45.8036 69.308ZM41.6116 66.236C40.8756 66.236 40.257 66.46 39.7556 66.908C39.265 67.356 38.977 67.9427 38.8916 68.668H44.3316C44.2463 67.9533 43.953 67.372 43.4516 66.924C42.961 66.4653 42.3476 66.236 41.6116 66.236ZM47.9365 61.628H49.4725V73.5H47.9365V61.628ZM52.4053 65.02H53.9413V73.5H52.4053V65.02ZM53.1733 63.388C52.8746 63.388 52.6239 63.292 52.4213 63.1C52.2293 62.908 52.1333 62.6733 52.1333 62.396C52.1333 62.1187 52.2293 61.884 52.4213 61.692C52.6239 61.4893 52.8746 61.388 53.1733 61.388C53.4719 61.388 53.7173 61.484 53.9093 61.676C54.1119 61.8573 54.2133 62.0867 54.2133 62.364C54.2133 62.652 54.1119 62.8973 53.9093 63.1C53.7173 63.292 53.4719 63.388 53.1733 63.388ZM64.378 65.02L60.666 73.5H59.098L55.386 65.02H56.986L59.898 71.82L62.874 65.02H64.378ZM73.2411 69.308C73.2411 69.4253 73.2305 69.58 73.2091 69.772H66.3291C66.4251 70.5187 66.7505 71.1213 67.3051 71.58C67.8705 72.028 68.5691 72.252 69.4011 72.252C70.4145 72.252 71.2305 71.9107 71.8491 71.228L72.6971 72.22C72.3131 72.668 71.8331 73.0093 71.2571 73.244C70.6918 73.4787 70.0571 73.596 69.3531 73.596C68.4571 73.596 67.6625 73.4147 66.9691 73.052C66.2758 72.6787 65.7371 72.1613 65.3531 71.5C64.9798 70.8387 64.7931 70.092 64.7931 69.26C64.7931 68.4387 64.9745 67.6973 65.3371 67.036C65.7105 66.3747 66.2171 65.8627 66.8571 65.5C67.5078 65.1267 68.2385 64.94 69.0491 64.94C69.8598 64.94 70.5798 65.1267 71.2091 65.5C71.8491 65.8627 72.3451 66.3747 72.6971 67.036C73.0598 67.6973 73.2411 68.4547 73.2411 69.308ZM69.0491 66.236C68.3131 66.236 67.6945 66.46 67.1931 66.908C66.7025 67.356 66.4145 67.9427 66.3291 68.668H71.7691C71.6838 67.9533 71.3905 67.372 70.8891 66.924C70.3985 66.4653 69.7851 66.236 69.0491 66.236ZM76.846 66.444C77.1127 65.9533 77.5073 65.58 78.03 65.324C78.5527 65.068 79.1873 64.94 79.934 64.94V66.428C79.8487 66.4173 79.7313 66.412 79.582 66.412C78.75 66.412 78.094 66.6627 77.614 67.164C77.1447 67.6547 76.91 68.3587 76.91 69.276V73.5H75.374V65.02H76.846V66.444ZM89.6749 65.02L85.5629 74.348C85.2002 75.212 84.7736 75.82 84.2829 76.172C83.8029 76.524 83.2216 76.7 82.5389 76.7C82.1229 76.7 81.7176 76.6307 81.3229 76.492C80.9389 76.364 80.6189 76.172 80.3629 75.916L81.0189 74.764C81.4562 75.18 81.9629 75.388 82.5389 75.388C82.9122 75.388 83.2216 75.2867 83.4669 75.084C83.7229 74.892 83.9522 74.556 84.1549 74.076L84.4269 73.484L80.6829 65.02H82.2829L85.2429 71.804L88.1709 65.02H89.6749ZM90.9611 71.404C91.2598 71.404 91.5051 71.5107 91.6971 71.724C91.8998 71.9267 92.0011 72.1827 92.0011 72.492C92.0011 72.652 91.9798 72.8067 91.9371 72.956C91.9051 73.1053 91.8358 73.3347 91.7291 73.644L90.9771 75.868H89.9691L90.5611 73.484C90.3585 73.4093 90.1931 73.2867 90.0651 73.116C89.9478 72.9347 89.8891 72.7267 89.8891 72.492C89.8891 72.172 89.9905 71.9107 90.1931 71.708C90.3958 71.5053 90.6518 71.404 90.9611 71.404ZM106.211 73.5L103.795 70.06C103.496 70.0813 103.262 70.092 103.091 70.092H100.323V73.5H98.723V62.3H103.091C104.542 62.3 105.683 62.6467 106.515 63.34C107.347 64.0333 107.763 64.988 107.763 66.204C107.763 67.068 107.55 67.804 107.123 68.412C106.696 69.02 106.088 69.4627 105.299 69.74L107.955 73.5H106.211ZM103.043 68.732C104.056 68.732 104.83 68.5133 105.363 68.076C105.896 67.6387 106.163 67.0147 106.163 66.204C106.163 65.3933 105.896 64.7747 105.363 64.348C104.83 63.9107 104.056 63.692 103.043 63.692H100.323V68.732H103.043ZM117.788 69.308C117.788 69.4253 117.777 69.58 117.756 69.772H110.876C110.972 70.5187 111.297 71.1213 111.852 71.58C112.417 72.028 113.116 72.252 113.948 72.252C114.961 72.252 115.777 71.9107 116.396 71.228L117.244 72.22C116.86 72.668 116.38 73.0093 115.804 73.244C115.239 73.4787 114.604 73.596 113.9 73.596C113.004 73.596 112.209 73.4147 111.516 73.052C110.823 72.6787 110.284 72.1613 109.9 71.5C109.527 70.8387 109.34 70.092 109.34 69.26C109.34 68.4387 109.521 67.6973 109.884 67.036C110.257 66.3747 110.764 65.8627 111.404 65.5C112.055 65.1267 112.785 64.94 113.596 64.94C114.407 64.94 115.127 65.1267 115.756 65.5C116.396 65.8627 116.892 66.3747 117.244 67.036C117.607 67.6973 117.788 68.4547 117.788 69.308ZM113.596 66.236C112.86 66.236 112.241 66.46 111.74 66.908C111.249 67.356 110.961 67.9427 110.876 68.668H116.316C116.231 67.9533 115.937 67.372 115.436 66.924C114.945 66.4653 114.332 66.236 113.596 66.236ZM130.529 64.94C131.596 64.94 132.438 65.2493 133.057 65.868C133.686 66.4867 134.001 67.404 134.001 68.62V73.5H132.465V68.796C132.465 67.9747 132.273 67.356 131.889 66.94C131.516 66.524 130.977 66.316 130.273 66.316C129.494 66.316 128.876 66.5613 128.417 67.052C127.958 67.532 127.729 68.2253 127.729 69.132V73.5H126.193V68.796C126.193 67.9747 126.001 67.356 125.617 66.94C125.244 66.524 124.705 66.316 124.001 66.316C123.222 66.316 122.604 66.5613 122.145 67.052C121.686 67.532 121.457 68.2253 121.457 69.132V73.5H119.921V65.02H121.393V66.284C121.702 65.8467 122.108 65.516 122.609 65.292C123.11 65.0573 123.681 64.94 124.321 64.94C124.982 64.94 125.569 65.0733 126.081 65.34C126.593 65.6067 126.988 65.996 127.265 66.508C127.585 66.0173 128.028 65.6333 128.593 65.356C129.169 65.0787 129.814 64.94 130.529 64.94ZM140.506 73.596C139.663 73.596 138.906 73.4093 138.234 73.036C137.562 72.6627 137.034 72.1507 136.65 71.5C136.277 70.8387 136.09 70.092 136.09 69.26C136.09 68.428 136.277 67.6867 136.65 67.036C137.034 66.3747 137.562 65.8627 138.234 65.5C138.906 65.1267 139.663 64.94 140.506 64.94C141.349 64.94 142.101 65.1267 142.762 65.5C143.434 65.8627 143.957 66.3747 144.33 67.036C144.714 67.6867 144.906 68.428 144.906 69.26C144.906 70.092 144.714 70.8387 144.33 71.5C143.957 72.1507 143.434 72.6627 142.762 73.036C142.101 73.4093 141.349 73.596 140.506 73.596ZM140.506 72.252C141.05 72.252 141.535 72.1293 141.962 71.884C142.399 71.628 142.741 71.276 142.986 70.828C143.231 70.3693 143.354 69.8467 143.354 69.26C143.354 68.6733 143.231 68.156 142.986 67.708C142.741 67.2493 142.399 66.8973 141.962 66.652C141.535 66.4067 141.05 66.284 140.506 66.284C139.962 66.284 139.471 66.4067 139.034 66.652C138.607 66.8973 138.266 67.2493 138.01 67.708C137.765 68.156 137.642 68.6733 137.642 69.26C137.642 69.8467 137.765 70.3693 138.01 70.828C138.266 71.276 138.607 71.628 139.034 71.884C139.471 72.1293 139.962 72.252 140.506 72.252ZM151.798 73.004C151.574 73.196 151.297 73.3453 150.966 73.452C150.636 73.548 150.294 73.596 149.942 73.596C149.089 73.596 148.428 73.3667 147.958 72.908C147.489 72.4493 147.254 71.7933 147.254 70.94V66.284H145.814V65.02H147.254V63.164H148.79V65.02H151.222V66.284H148.79V70.876C148.79 71.3347 148.902 71.6867 149.126 71.932C149.361 72.1773 149.692 72.3 150.118 72.3C150.588 72.3 150.988 72.1667 151.318 71.9L151.798 73.004ZM161.038 69.308C161.038 69.4253 161.027 69.58 161.006 69.772H154.126C154.222 70.5187 154.547 71.1213 155.102 71.58C155.667 72.028 156.366 72.252 157.198 72.252C158.211 72.252 159.027 71.9107 159.646 71.228L160.494 72.22C160.11 72.668 159.63 73.0093 159.054 73.244C158.489 73.4787 157.854 73.596 157.15 73.596C156.254 73.596 155.459 73.4147 154.766 73.052C154.073 72.6787 153.534 72.1613 153.15 71.5C152.777 70.8387 152.59 70.092 152.59 69.26C152.59 68.4387 152.771 67.6973 153.134 67.036C153.507 66.3747 154.014 65.8627 154.654 65.5C155.305 65.1267 156.035 64.94 156.846 64.94C157.657 64.94 158.377 65.1267 159.006 65.5C159.646 65.8627 160.142 66.3747 160.494 67.036C160.857 67.6973 161.038 68.4547 161.038 69.308ZM156.846 66.236C156.11 66.236 155.491 66.46 154.99 66.908C154.499 67.356 154.211 67.9427 154.126 68.668H159.566C159.481 67.9533 159.187 67.372 158.686 66.924C158.195 66.4653 157.582 66.236 156.846 66.236ZM50.3386 97.628C49.4959 97.628 48.6799 97.5 47.8906 97.244C47.1119 96.9773 46.4986 96.636 46.0506 96.22L46.6426 94.972C47.0692 95.356 47.6132 95.6707 48.2746 95.916C48.9466 96.1507 49.6346 96.268 50.3386 96.268C51.2666 96.268 51.9599 96.1133 52.4186 95.804C52.8772 95.484 53.1066 95.0627 53.1066 94.54C53.1066 94.156 52.9786 93.8467 52.7226 93.612C52.4772 93.3667 52.1679 93.18 51.7946 93.052C51.4319 92.924 50.9146 92.78 50.2426 92.62C49.3999 92.4173 48.7172 92.2147 48.1946 92.012C47.6826 91.8093 47.2399 91.5 46.8666 91.084C46.5039 90.6573 46.3226 90.0867 46.3226 89.372C46.3226 88.7747 46.4772 88.236 46.7866 87.756C47.1066 87.276 47.5866 86.892 48.2266 86.604C48.8666 86.316 49.6612 86.172 50.6106 86.172C51.2719 86.172 51.9226 86.2573 52.5626 86.428C53.2026 86.5987 53.7519 86.844 54.2106 87.164L53.6826 88.444C53.2132 88.1453 52.7119 87.9213 52.1786 87.772C51.6452 87.612 51.1226 87.532 50.6106 87.532C49.7039 87.532 49.0212 87.6973 48.5626 88.028C48.1146 88.3587 47.8906 88.7853 47.8906 89.308C47.8906 89.692 48.0186 90.0067 48.2746 90.252C48.5306 90.4867 48.8452 90.6733 49.2186 90.812C49.6026 90.94 50.1199 91.0787 50.7706 91.228C51.6132 91.4307 52.2906 91.6333 52.8026 91.836C53.3146 92.0387 53.7519 92.348 54.1146 92.764C54.4879 93.18 54.6746 93.74 54.6746 94.444C54.6746 95.0307 54.5146 95.5693 54.1946 96.06C53.8746 96.54 53.3892 96.924 52.7386 97.212C52.0879 97.4893 51.2879 97.628 50.3386 97.628ZM61.3161 88.94C62.3934 88.94 63.2467 89.2547 63.8761 89.884C64.5161 90.5027 64.8361 91.4147 64.8361 92.62V97.5H63.3001V92.796C63.3001 91.9747 63.1027 91.356 62.7081 90.94C62.3134 90.524 61.7481 90.316 61.0121 90.316C60.1801 90.316 59.5241 90.5613 59.0441 91.052C58.5641 91.532 58.3241 92.2253 58.3241 93.132V97.5H56.7881V85.628H58.3241V90.22C58.6441 89.8147 59.0601 89.5 59.5721 89.276C60.0947 89.052 60.6761 88.94 61.3161 88.94ZM71.3576 97.596C70.5149 97.596 69.7576 97.4093 69.0856 97.036C68.4136 96.6627 67.8856 96.1507 67.5016 95.5C67.1282 94.8387 66.9416 94.092 66.9416 93.26C66.9416 92.428 67.1282 91.6867 67.5016 91.036C67.8856 90.3747 68.4136 89.8627 69.0856 89.5C69.7576 89.1267 70.5149 88.94 71.3576 88.94C72.2002 88.94 72.9522 89.1267 73.6136 89.5C74.2856 89.8627 74.8082 90.3747 75.1816 91.036C75.5656 91.6867 75.7576 92.428 75.7576 93.26C75.7576 94.092 75.5656 94.8387 75.1816 95.5C74.8082 96.1507 74.2856 96.6627 73.6136 97.036C72.9522 97.4093 72.2002 97.596 71.3576 97.596ZM71.3576 96.252C71.9016 96.252 72.3869 96.1293 72.8136 95.884C73.2509 95.628 73.5922 95.276 73.8376 94.828C74.0829 94.3693 74.2056 93.8467 74.2056 93.26C74.2056 92.6733 74.0829 92.156 73.8376 91.708C73.5922 91.2493 73.2509 90.8973 72.8136 90.652C72.3869 90.4067 71.9016 90.284 71.3576 90.284C70.8136 90.284 70.3229 90.4067 69.8856 90.652C69.4589 90.8973 69.1176 91.2493 68.8616 91.708C68.6162 92.156 68.4936 92.6733 68.4936 93.26C68.4936 93.8467 68.6162 94.3693 68.8616 94.828C69.1176 95.276 69.4589 95.628 69.8856 95.884C70.3229 96.1293 70.8136 96.252 71.3576 96.252ZM85.7858 89.02V97.5H84.3298V96.22C84.0205 96.6573 83.6098 96.9987 83.0978 97.244C82.5965 97.4787 82.0472 97.596 81.4498 97.596C80.3192 97.596 79.4285 97.2867 78.7778 96.668C78.1272 96.0387 77.8018 95.116 77.8018 93.9V89.02H79.3378V93.724C79.3378 94.5453 79.5352 95.1693 79.9298 95.596C80.3245 96.012 80.8898 96.22 81.6258 96.22C82.4365 96.22 83.0765 95.9747 83.5458 95.484C84.0152 94.9933 84.2498 94.3 84.2498 93.404V89.02H85.7858ZM88.71 85.628H90.246V97.5H88.71V85.628ZM101.179 85.628V97.5H99.7067V96.156C99.3654 96.6253 98.9334 96.9827 98.4107 97.228C97.888 97.4733 97.312 97.596 96.6827 97.596C95.8614 97.596 95.1254 97.4147 94.4747 97.052C93.824 96.6893 93.312 96.1827 92.9387 95.532C92.576 94.8707 92.3947 94.1133 92.3947 93.26C92.3947 92.4067 92.576 91.6547 92.9387 91.004C93.312 90.3533 93.824 89.8467 94.4747 89.484C95.1254 89.1213 95.8614 88.94 96.6827 88.94C97.2907 88.94 97.8507 89.0573 98.3627 89.292C98.8747 89.516 99.3014 89.852 99.6427 90.3V85.628H101.179ZM96.8107 96.252C97.344 96.252 97.8294 96.1293 98.2667 95.884C98.704 95.628 99.0454 95.276 99.2907 94.828C99.536 94.3693 99.6587 93.8467 99.6587 93.26C99.6587 92.6733 99.536 92.156 99.2907 91.708C99.0454 91.2493 98.704 90.8973 98.2667 90.652C97.8294 90.4067 97.344 90.284 96.8107 90.284C96.2667 90.284 95.776 90.4067 95.3387 90.652C94.912 90.8973 94.5707 91.2493 94.3147 91.708C94.0694 92.156 93.9467 92.6733 93.9467 93.26C93.9467 93.8467 94.0694 94.3693 94.3147 94.828C94.5707 95.276 94.912 95.628 95.3387 95.884C95.776 96.1293 96.2667 96.252 96.8107 96.252ZM111.749 93.308C111.749 93.4253 111.738 93.58 111.717 93.772H104.837C104.933 94.5187 105.258 95.1213 105.813 95.58C106.378 96.028 107.077 96.252 107.909 96.252C108.922 96.252 109.738 95.9107 110.357 95.228L111.205 96.22C110.821 96.668 110.341 97.0093 109.765 97.244C109.2 97.4787 108.565 97.596 107.861 97.596C106.965 97.596 106.17 97.4147 105.477 97.052C104.784 96.6787 104.245 96.1613 103.861 95.5C103.488 94.8387 103.301 94.092 103.301 93.26C103.301 92.4387 103.482 91.6973 103.845 91.036C104.218 90.3747 104.725 89.8627 105.365 89.5C106.016 89.1267 106.746 88.94 107.557 88.94C108.368 88.94 109.088 89.1267 109.717 89.5C110.357 89.8627 110.853 90.3747 111.205 91.036C111.568 91.6973 111.749 92.4547 111.749 93.308ZM107.557 90.236C106.821 90.236 106.202 90.46 105.701 90.908C105.21 91.356 104.922 91.9427 104.837 92.668H110.277C110.192 91.9533 109.898 91.372 109.397 90.924C108.906 90.4653 108.293 90.236 107.557 90.236ZM115.354 90.444C115.62 89.9533 116.015 89.58 116.538 89.324C117.06 89.068 117.695 88.94 118.442 88.94V90.428C118.356 90.4173 118.239 90.412 118.09 90.412C117.258 90.412 116.602 90.6627 116.122 91.164C115.652 91.6547 115.418 92.3587 115.418 93.276V97.5H113.882V89.02H115.354V90.444ZM129.509 97.004C129.285 97.196 129.008 97.3453 128.677 97.452C128.347 97.548 128.005 97.596 127.653 97.596C126.8 97.596 126.139 97.3667 125.669 96.908C125.2 96.4493 124.965 95.7933 124.965 94.94V90.284H123.525V89.02H124.965V87.164H126.501V89.02H128.933V90.284H126.501V94.876C126.501 95.3347 126.613 95.6867 126.837 95.932C127.072 96.1773 127.403 96.3 127.829 96.3C128.299 96.3 128.699 96.1667 129.029 95.9L129.509 97.004ZM134.717 97.596C133.874 97.596 133.117 97.4093 132.445 97.036C131.773 96.6627 131.245 96.1507 130.861 95.5C130.488 94.8387 130.301 94.092 130.301 93.26C130.301 92.428 130.488 91.6867 130.861 91.036C131.245 90.3747 131.773 89.8627 132.445 89.5C133.117 89.1267 133.874 88.94 134.717 88.94C135.56 88.94 136.312 89.1267 136.973 89.5C137.645 89.8627 138.168 90.3747 138.541 91.036C138.925 91.6867 139.117 92.428 139.117 93.26C139.117 94.092 138.925 94.8387 138.541 95.5C138.168 96.1507 137.645 96.6627 136.973 97.036C136.312 97.4093 135.56 97.596 134.717 97.596ZM134.717 96.252C135.261 96.252 135.746 96.1293 136.173 95.884C136.61 95.628 136.952 95.276 137.197 94.828C137.442 94.3693 137.565 93.8467 137.565 93.26C137.565 92.6733 137.442 92.156 137.197 91.708C136.952 91.2493 136.61 90.8973 136.173 90.652C135.746 90.4067 135.261 90.284 134.717 90.284C134.173 90.284 133.682 90.4067 133.245 90.652C132.818 90.8973 132.477 91.2493 132.221 91.708C131.976 92.156 131.853 92.6733 131.853 93.26C131.853 93.8467 131.976 94.3693 132.221 94.828C132.477 95.276 132.818 95.628 133.245 95.884C133.682 96.1293 134.173 96.252 134.717 96.252ZM60.737 121.628C59.8943 121.628 59.0783 121.5 58.289 121.244C57.5103 120.977 56.897 120.636 56.449 120.22L57.041 118.972C57.4677 119.356 58.0117 119.671 58.673 119.916C59.345 120.151 60.033 120.268 60.737 120.268C61.665 120.268 62.3583 120.113 62.817 119.804C63.2757 119.484 63.505 119.063 63.505 118.54C63.505 118.156 63.377 117.847 63.121 117.612C62.8757 117.367 62.5663 117.18 62.193 117.052C61.8303 116.924 61.313 116.78 60.641 116.62C59.7983 116.417 59.1157 116.215 58.593 116.012C58.081 115.809 57.6383 115.5 57.265 115.084C56.9023 114.657 56.721 114.087 56.721 113.372C56.721 112.775 56.8757 112.236 57.185 111.756C57.505 111.276 57.985 110.892 58.625 110.604C59.265 110.316 60.0597 110.172 61.009 110.172C61.6703 110.172 62.321 110.257 62.961 110.428C63.601 110.599 64.1503 110.844 64.609 111.164L64.081 112.444C63.6117 112.145 63.1103 111.921 62.577 111.772C62.0437 111.612 61.521 111.532 61.009 111.532C60.1023 111.532 59.4197 111.697 58.961 112.028C58.513 112.359 58.289 112.785 58.289 113.308C58.289 113.692 58.417 114.007 58.673 114.252C58.929 114.487 59.2437 114.673 59.617 114.812C60.001 114.94 60.5183 115.079 61.169 115.228C62.0117 115.431 62.689 115.633 63.201 115.836C63.713 116.039 64.1503 116.348 64.513 116.764C64.8863 117.18 65.073 117.74 65.073 118.444C65.073 119.031 64.913 119.569 64.593 120.06C64.273 120.54 63.7877 120.924 63.137 121.212C62.4863 121.489 61.6863 121.628 60.737 121.628ZM71.7145 112.94C72.7918 112.94 73.6452 113.255 74.2745 113.884C74.9145 114.503 75.2345 115.415 75.2345 116.62V121.5H73.6985V116.796C73.6985 115.975 73.5012 115.356 73.1065 114.94C72.7118 114.524 72.1465 114.316 71.4105 114.316C70.5785 114.316 69.9225 114.561 69.4425 115.052C68.9625 115.532 68.7225 116.225 68.7225 117.132V121.5H67.1865V109.628H68.7225V114.22C69.0425 113.815 69.4585 113.5 69.9705 113.276C70.4932 113.052 71.0745 112.94 71.7145 112.94ZM81.756 121.596C80.9133 121.596 80.156 121.409 79.484 121.036C78.812 120.663 78.284 120.151 77.9 119.5C77.5267 118.839 77.34 118.092 77.34 117.26C77.34 116.428 77.5267 115.687 77.9 115.036C78.284 114.375 78.812 113.863 79.484 113.5C80.156 113.127 80.9133 112.94 81.756 112.94C82.5987 112.94 83.3507 113.127 84.012 113.5C84.684 113.863 85.2067 114.375 85.58 115.036C85.964 115.687 86.156 116.428 86.156 117.26C86.156 118.092 85.964 118.839 85.58 119.5C85.2067 120.151 84.684 120.663 84.012 121.036C83.3507 121.409 82.5987 121.596 81.756 121.596ZM81.756 120.252C82.3 120.252 82.7853 120.129 83.212 119.884C83.6493 119.628 83.9907 119.276 84.236 118.828C84.4813 118.369 84.604 117.847 84.604 117.26C84.604 116.673 84.4813 116.156 84.236 115.708C83.9907 115.249 83.6493 114.897 83.212 114.652C82.7853 114.407 82.3 114.284 81.756 114.284C81.212 114.284 80.7213 114.407 80.284 114.652C79.8573 114.897 79.516 115.249 79.26 115.708C79.0147 116.156 78.892 116.673 78.892 117.26C78.892 117.847 79.0147 118.369 79.26 118.828C79.516 119.276 79.8573 119.628 80.284 119.884C80.7213 120.129 81.212 120.252 81.756 120.252ZM96.1843 113.02V121.5H94.7283V120.22C94.4189 120.657 94.0083 120.999 93.4963 121.244C92.9949 121.479 92.4456 121.596 91.8483 121.596C90.7176 121.596 89.8269 121.287 89.1763 120.668C88.5256 120.039 88.2003 119.116 88.2003 117.9V113.02H89.7363V117.724C89.7363 118.545 89.9336 119.169 90.3283 119.596C90.7229 120.012 91.2883 120.22 92.0243 120.22C92.8349 120.22 93.4749 119.975 93.9443 119.484C94.4136 118.993 94.6483 118.3 94.6483 117.404V113.02H96.1843ZM99.1084 109.628H100.644V121.5H99.1084V109.628ZM111.577 109.628V121.5H110.105V120.156C109.764 120.625 109.332 120.983 108.809 121.228C108.286 121.473 107.71 121.596 107.081 121.596C106.26 121.596 105.524 121.415 104.873 121.052C104.222 120.689 103.71 120.183 103.337 119.532C102.974 118.871 102.793 118.113 102.793 117.26C102.793 116.407 102.974 115.655 103.337 115.004C103.71 114.353 104.222 113.847 104.873 113.484C105.524 113.121 106.26 112.94 107.081 112.94C107.689 112.94 108.249 113.057 108.761 113.292C109.273 113.516 109.7 113.852 110.041 114.3V109.628H111.577ZM107.209 120.252C107.742 120.252 108.228 120.129 108.665 119.884C109.102 119.628 109.444 119.276 109.689 118.828C109.934 118.369 110.057 117.847 110.057 117.26C110.057 116.673 109.934 116.156 109.689 115.708C109.444 115.249 109.102 114.897 108.665 114.652C108.228 114.407 107.742 114.284 107.209 114.284C106.665 114.284 106.174 114.407 105.737 114.652C105.31 114.897 104.969 115.249 104.713 115.708C104.468 116.156 104.345 116.673 104.345 117.26C104.345 117.847 104.468 118.369 104.713 118.828C104.969 119.276 105.31 119.628 105.737 119.884C106.174 120.129 106.665 120.252 107.209 120.252ZM122.147 117.308C122.147 117.425 122.137 117.58 122.115 117.772H115.235C115.331 118.519 115.657 119.121 116.211 119.58C116.777 120.028 117.475 120.252 118.307 120.252C119.321 120.252 120.137 119.911 120.755 119.228L121.603 120.22C121.219 120.668 120.739 121.009 120.163 121.244C119.598 121.479 118.963 121.596 118.259 121.596C117.363 121.596 116.569 121.415 115.875 121.052C115.182 120.679 114.643 120.161 114.259 119.5C113.886 118.839 113.699 118.092 113.699 117.26C113.699 116.439 113.881 115.697 114.243 115.036C114.617 114.375 115.123 113.863 115.763 113.5C116.414 113.127 117.145 112.94 117.955 112.94C118.766 112.94 119.486 113.127 120.115 113.5C120.755 113.863 121.251 114.375 121.603 115.036C121.966 115.697 122.147 116.455 122.147 117.308ZM117.955 114.236C117.219 114.236 116.601 114.46 116.099 114.908C115.609 115.356 115.321 115.943 115.235 116.668H120.675C120.59 115.953 120.297 115.372 119.795 114.924C119.305 114.465 118.691 114.236 117.955 114.236ZM125.752 114.444C126.019 113.953 126.414 113.58 126.936 113.324C127.459 113.068 128.094 112.94 128.84 112.94V114.428C128.755 114.417 128.638 114.412 128.488 114.412C127.656 114.412 127 114.663 126.52 115.164C126.051 115.655 125.816 116.359 125.816 117.276V121.5H124.28V113.02H125.752V114.444Z" fill="#1B3B64"/>
</g>
</g>
<defs>
<filter id="filter0_i_1_3012" x="0" y="0" width="185" height="193" filterUnits="userSpaceOnUse" color-interpolation-filters="sRGB">
<feFlood flood-opacity="0" result="BackgroundImageFix"/>
<feBlend mode="normal" in="SourceGraphic" in2="BackgroundImageFix" result="shape"/>
<feColorMatrix in="SourceAlpha" type="matrix" values="0 0 0 0 0 0 0 0 0 0 0 0 0 0 0 0 0 0 127 0" result="hardAlpha"/>
<feOffset dy="8"/>
<feGaussianBlur stdDeviation="24"/>
<feComposite in2="hardAlpha" operator="arithmetic" k2="-1" k3="1"/>
<feColorMatrix type="matrix" values="0 0 0 0 0.313726 0 0 0 0 0.415686 0 0 0 0 0.686275 0 0 0 1 0"/>
<feBlend mode="normal" in2="shape" result="effect1_innerShadow_1_3012"/>
</filter>
<filter id="filter1_di_1_3012" x="2" y="5" width="181" height="181" filterUnits="userSpaceOnUse" color-interpolation-filters="sRGB">
<feFlood flood-opacity="0" result="BackgroundImageFix"/>
<feColorMatrix in="SourceAlpha" type="matrix" values="0 0 0 0 0 0 0 0 0 0 0 0 0 0 0 0 0 0 127 0" result="hardAlpha"/>
<feOffset dy="3"/>
<feGaussianBlur stdDeviation="4"/>
<feComposite in2="hardAlpha" operator="out"/>
<feColorMatrix type="matrix" values="0 0 0 0 0.666667 0 0 0 0 0.666667 0 0 0 0 0.666667 0 0 0 1 0"/>
<feBlend mode="normal" in2="BackgroundImageFix" result="effect1_dropShadow_1_3012"/>
<feBlend mode="normal" in="SourceGraphic" in2="effect1_dropShadow_1_3012" result="shape"/>
<feColorMatrix in="SourceAlpha" type="matrix" values="0 0 0 0 0 0 0 0 0 0 0 0 0 0 0 0 0 0 127 0" result="hardAlpha"/>
<feOffset dy="2"/>
<feGaussianBlur stdDeviation="1.5"/>
<feComposite in2="hardAlpha" operator="arithmetic" k2="-1" k3="1"/>
<feColorMatrix type="matrix" values="0 0 0 0 1 0 0 0 0 1 0 0 0 0 1 0 0 0 1 0"/>
<feBlend mode="normal" in2="shape" result="effect2_innerShadow_1_3012"/>
</filter>
<linearGradient id="paint0_linear_1_3012" x1="92.5" y1="93.5" x2="92.5" y2="91.5" gradientUnits="userSpaceOnUse">
<stop stop-color="white"/>
<stop stop-color="#DDDDDD"/>
</linearGradient>
</defs>
</svg>
