<svg width="18" height="18" viewBox="0 0 18 18" fill="none" xmlns="http://www.w3.org/2000/svg">
<path fill-rule="evenodd" clip-rule="evenodd" d="M17.7071 1.70711C18.0976 1.31658 18.0976 0.68342 17.7071 0.29289C17.3166 -0.0976299 16.6834 -0.0976299 16.2929 0.29289L10.348 6.23779L6.07342 0.40865C5.88504 0.15177 5.58555 0 5.267 0H1C0.62317 0 0.27833 0.21184 0.108 0.54798C-0.0623399 0.88412 -0.02925 1.28747 0.19359 1.59135L6.45538 10.1304L0.29289 16.2929C-0.0976299 16.6834 -0.0976299 17.3166 0.29289 17.7071C0.68342 18.0976 1.31658 18.0976 1.70711 17.7071L7.652 11.7622L11.9266 17.5914C12.115 17.8482 12.4145 18 12.733 18H17C17.3768 18 17.7217 17.7882 17.892 17.452C18.0623 17.1159 18.0293 16.7125 17.8064 16.4086L11.5446 7.8696L17.7071 1.70711ZM9.3703 8.2865C9.4012 8.338 9.4371 8.3872 9.4781 8.4336L15.0266 16H13.2398L2.97338 2H4.76026L9.3703 8.2865Z" fill="white"/>
</svg>
